<svg width="39" height="44" viewBox="0 0 39 44" fill="none" xmlns="http://www.w3.org/2000/svg">
<path d="M15.9545 39.0872C15.9347 39.021 15.8784 39.0474 15.8386 39.0507C14.924 39.0796 14.0158 38.8889 13.19 38.4945C12.2498 38.0708 11.389 37.541 10.4818 37.0775C9.97616 36.8031 9.44365 36.5812 8.89268 36.4154C8.56851 36.3106 8.21839 36.3187 7.89946 36.4386C7.73191 36.476 7.56958 36.5338 7.41609 36.6107C7.3598 36.6505 7.31676 36.6306 7.32008 36.5544C7.32339 36.4783 7.32008 36.4617 7.32008 36.4154C7.35655 36.1208 7.33218 35.822 7.24846 35.5372C7.16475 35.2525 7.02348 34.9879 6.83339 34.76C6.5839 34.451 6.31285 34.16 6.02226 33.8893C5.33693 33.1576 4.53573 32.5451 3.85703 31.8035C3.28046 31.2115 2.82995 30.5087 2.53273 29.7376C2.26684 28.9995 2.25867 28.1932 2.50955 27.4499C2.60225 27.1718 2.60225 27.1585 2.31422 27.1188C1.65631 26.972 1.01753 26.7498 0.410533 26.4566C0.297968 26.4103 0.360872 26.3474 0.380737 26.2911C0.547857 25.9273 0.77132 25.5921 1.04289 25.2979C1.25146 25.0496 1.45673 24.7913 1.66531 24.5397C1.69343 24.5287 1.71744 24.5092 1.73401 24.484C1.75058 24.4587 1.75889 24.429 1.7578 24.3988C1.75671 24.3686 1.74627 24.3395 1.72792 24.3155C1.70957 24.2916 1.68422 24.2739 1.65538 24.2649C1.48653 24.1358 1.3243 23.9968 1.16539 23.8544C0.623181 23.3388 0.251256 22.6701 0.0993226 21.9375C0.0728366 21.8315 0.0331075 21.7289 0 21.6064V20.2821C0.039729 20.2622 0.0297968 20.2225 0.0331075 20.1894C0.0827688 19.8583 0.129119 19.5537 0.17547 19.2359C0.281414 18.5274 0.466816 17.8354 0.582693 17.1269C0.704159 16.5124 0.742024 15.8843 0.695258 15.2597C0.689129 15.0003 0.623199 14.7459 0.502604 14.5162C0.38201 14.2865 0.210008 14.0877 0 13.9354L0 13.9023C0.360933 13.8775 0.710118 13.7637 1.0164 13.5712C1.30641 13.3314 1.55573 13.0463 1.7547 12.727C2.19656 12.0402 2.57447 11.3143 2.88367 10.5584C3.26331 9.63005 3.77151 8.75964 4.39337 7.97271C4.94282 7.27218 5.71681 6.78229 6.58509 6.58551C6.90604 6.51814 7.23404 6.49034 7.56176 6.50274C7.67433 6.50274 7.71405 6.48287 7.68757 6.35706C7.60205 5.70635 7.57767 5.04905 7.61473 4.39379C7.68757 3.99319 7.68426 3.98325 8.06831 4.04285C8.57351 4.12333 9.06638 4.26797 9.53497 4.47325C9.6674 4.52953 9.77334 4.63216 9.90908 4.68182C10.0448 4.73148 10.111 4.70169 10.1441 4.56926C10.352 3.84858 10.7919 3.21666 11.3956 2.77152C11.8798 2.40352 12.4324 2.13565 13.0212 1.98356C13.5956 1.82343 14.1826 1.71267 14.7759 1.65248C15.2328 1.60282 15.6863 1.51674 16.1399 1.47039C16.614 1.42104 17.0841 1.33918 17.547 1.2254C18.0693 1.1268 18.5587 0.899184 18.9706 0.563245C19.1053 0.432631 19.2172 0.280452 19.3017 0.112983C19.3878 -0.0393118 19.4672 -0.036001 19.5632 0.112983C19.6484 0.269643 19.7699 0.403608 19.9175 0.503652C19.9324 0.891213 19.8635 1.27743 19.7155 1.63593C19.6489 1.55538 19.588 1.47019 19.5334 1.381C19.4805 1.28168 19.4407 1.28168 19.3811 1.381C19.0163 1.84466 18.5071 2.17325 17.9343 2.31463C17.0537 2.59605 16.1366 2.71855 15.2394 2.91057C14.4096 3.05296 13.6046 3.31386 12.849 3.68529C12.4826 3.86517 12.161 4.12472 11.9078 4.44493C11.6546 4.76515 11.4762 5.13793 11.3857 5.536C11.2155 6.36956 11.2577 7.23252 11.5082 8.04555C11.7314 8.68321 12.0532 9.28198 12.4617 9.82011C12.9417 10.5584 13.4086 11.3033 13.8687 12.0582C13.9019 12.1145 13.9681 12.1774 13.9283 12.2436C13.8886 12.3098 13.8025 12.28 13.7396 12.2634C13.722 12.2578 13.7035 12.2558 13.6851 12.2574C13.6667 12.2591 13.6488 12.2644 13.6324 12.273C13.6161 12.2816 13.6017 12.2934 13.5899 12.3077C13.5782 12.322 13.5694 12.3384 13.5642 12.3561C13.4715 12.5482 13.4681 12.5449 13.3225 12.3926C13.302 12.372 13.2831 12.3499 13.2662 12.3264C12.604 11.5274 11.9419 10.7273 11.2797 9.92605C11.0626 9.63773 10.815 9.37356 10.5414 9.1381C10.026 8.73731 9.44602 8.42719 8.82647 8.22102C7.83324 7.88994 6.87975 7.9065 6.00571 8.55209C5.44964 8.99796 4.98433 9.54644 4.63505 10.1677C4.30398 10.7074 3.9729 11.2537 3.68818 11.8231C3.46229 12.2827 3.20337 12.7253 2.91346 13.1474C2.56756 13.6957 2.04757 14.1119 1.43687 14.3294C1.30775 14.3691 1.34748 14.4287 1.40707 14.4949C1.70392 14.8722 1.86384 15.3391 1.86064 15.8192C1.8893 16.3874 1.85488 16.957 1.75801 17.5176C1.70173 17.8487 1.66531 18.2029 1.63882 18.5473C1.55236 19.2745 1.51696 20.0068 1.53288 20.739C1.53858 21.1364 1.60558 21.5306 1.73152 21.9077C1.87917 22.3158 2.11776 22.685 2.42923 22.9873C2.7407 23.2896 3.11687 23.5171 3.52926 23.6524C4.33924 23.9649 5.21561 24.0651 6.07523 23.9438C6.85326 23.8114 7.60811 23.573 8.3729 23.3843C8.47553 23.3611 8.47884 23.2982 8.45235 23.2154C8.38516 22.9707 8.35393 22.7176 8.35965 22.4639C8.37945 21.8951 8.43251 21.328 8.51857 20.7655C8.57373 20.3948 8.5793 20.0185 8.53512 19.6464C8.48166 19.4335 8.39086 19.2317 8.26695 19.0505C8.56182 18.9689 8.82069 18.7904 9.00194 18.5439C9.30868 18.1004 9.58946 17.6394 9.84287 17.1634C10.0765 16.6835 10.3899 16.2469 10.7699 15.8722C11.0452 15.6232 11.3936 15.4699 11.7631 15.4351C11.5932 15.507 11.4321 15.598 11.283 15.7066C10.8419 16.0976 10.48 16.5696 10.217 17.0971C9.97554 17.568 9.70001 18.0206 9.39261 18.4512C9.24063 18.6785 9.02205 18.8531 8.76687 18.9512C8.63775 18.9876 8.64769 19.0372 8.71059 19.1299C8.84869 19.3302 8.92679 19.5656 8.93572 19.8087C8.93849 20.2241 8.90972 20.6391 8.84964 21.0502C8.74594 21.6401 8.71481 22.2405 8.75694 22.838C8.77848 23.1504 8.88821 23.4504 9.0734 23.703C9.25859 23.9555 9.51163 24.1504 9.80314 24.2649C10.1489 24.4128 10.5172 24.5012 10.8924 24.5265C10.2323 24.6179 9.56199 24.4571 9.01518 24.0762C8.96221 24.0398 8.9291 24.0001 8.84964 24.0299C8.01533 24.3609 7.16447 24.649 6.33678 25.0231C6.15224 25.0988 5.98118 25.2039 5.83024 25.3343C5.42957 25.6798 5.0555 26.055 4.7112 26.4566C3.9398 27.3903 3.71798 28.4166 4.18479 29.5621C4.51915 30.3112 4.98064 30.9967 5.54882 31.5883C6.17124 32.2505 6.81684 32.9126 7.39953 33.641C7.83258 34.112 8.09086 34.7174 8.13121 35.3559C8.13121 35.5811 8.13121 35.5877 8.36627 35.5281C8.91304 35.3809 9.4923 35.4099 10.0216 35.6109C10.6308 35.836 11.2201 36.1108 11.8095 36.3856C12.5829 36.7824 13.3907 37.1082 14.223 37.359C14.8316 37.547 15.4789 37.5721 16.1002 37.4318C16.0845 37.986 16.0359 38.5388 15.9545 39.0872Z" fill="white"/>
<path d="M15.9544 39.222C16.0288 38.6578 16.0686 38.0895 16.0736 37.5203C16.1133 37.4938 16.11 37.4508 16.1133 37.4111C16.1596 36.6993 16.2159 35.9908 16.2524 35.2789C16.3119 34.1334 16.3318 32.9879 16.3484 31.8391C16.3484 30.624 16.3484 29.4057 16.2888 28.1972C16.2888 27.8662 16.2888 27.5053 16.249 27.161C16.1795 26.3465 16.1365 25.5288 16.0603 24.7143C16.0074 24.1482 15.9676 23.5787 15.9014 23.0159C15.7624 21.8505 15.6167 20.6984 15.4313 19.5264C15.2359 18.3113 15.0009 17.1062 14.7691 15.8845C14.736 15.719 14.6433 15.7554 14.5374 15.7587C14.4314 15.7621 14.4016 15.8481 14.4083 15.9342C14.4182 16.0543 14.4182 16.175 14.4083 16.2951C14.4083 16.3812 14.3685 16.4176 14.2791 16.4143C14.1268 16.4143 13.9779 16.4143 13.8289 16.4143C13.6799 16.4143 13.6335 16.3745 13.6335 16.2289C13.6335 15.5866 13.6335 14.9476 13.6335 14.3086C13.6335 14.1729 13.6898 14.1265 13.8223 14.1298C14.0871 14.1298 14.352 14.1298 14.6168 14.1298C14.6681 14.1281 14.7191 14.1383 14.7658 14.1596C14.9612 14.259 15.0472 14.206 15.0439 13.9908C15.0439 13.865 15.0439 13.7359 15.0439 13.6101C15.056 13.3446 15.142 13.0877 15.2922 12.8685C15.589 12.4839 16.0145 12.2194 16.4907 12.1235C16.7059 12.0606 16.941 12.0639 17.1529 11.9977C17.484 11.8951 17.815 11.8653 18.1461 11.7693C18.4984 11.7109 18.8225 11.5402 19.0698 11.2826C19.136 11.1998 19.1857 11.2164 19.2453 11.2826C19.3061 11.366 19.3826 11.4369 19.4704 11.4912C19.8945 11.6968 20.348 11.8353 20.8146 11.9017C21.2756 11.9789 21.7304 12.0895 22.1753 12.2328C22.5069 12.3263 22.7954 12.5325 22.9913 12.816C23.1871 13.0994 23.2779 13.4423 23.248 13.7855C23.2513 13.8373 23.2513 13.8893 23.248 13.9411C23.248 14.0669 23.2745 14.1133 23.4069 14.1133C23.6704 14.0784 23.9383 14.1021 24.1915 14.1828C24.2236 14.1945 24.2588 14.1945 24.2909 14.1828C24.5267 14.0906 24.7836 14.0665 25.0325 14.1133C25.1484 14.1176 25.258 14.1672 25.3378 14.2513C25.4177 14.3355 25.4614 14.4476 25.4596 14.5636C25.4596 14.8052 25.4596 15.0469 25.4596 15.2886C25.4659 15.3504 25.4572 15.4128 25.4341 15.4705C25.411 15.5281 25.3743 15.5793 25.3271 15.6197C25.2654 15.6726 25.1926 15.711 25.1142 15.7322C25.0357 15.7534 24.9535 15.7568 24.8735 15.7422C24.4891 15.7124 24.1033 15.7057 23.7181 15.7223C23.2182 15.7223 23.3241 15.676 23.291 16.1395C23.238 16.8579 23.2314 17.5763 23.1884 18.2981C23.1222 19.4105 23.0427 20.5229 22.9268 21.632C22.8496 22.3538 22.7646 23.0733 22.6719 23.7906C22.5328 24.8401 22.3408 25.883 22.1687 26.9259C21.9998 27.8893 21.7879 28.8428 21.5694 29.7963C21.384 30.5942 21.1589 31.3822 20.9437 32.1701C20.8212 32.6138 20.6755 33.0508 20.5332 33.4944C20.3742 33.9844 20.2021 34.4877 20.0399 34.9578C19.9837 35.0888 19.9372 35.2238 19.9008 35.3617C19.7353 35.802 19.5465 36.2357 19.3777 36.686C19.1195 37.3482 18.8546 38.0103 18.5434 38.6493C18.4805 38.7751 18.3779 38.8877 18.3944 39.0433C18.2123 39.1393 18.1593 39.3346 18.0633 39.4968C17.7554 40.1259 17.4409 40.7516 17.0933 41.3575C16.8582 41.7647 16.6165 42.1686 16.3748 42.5692C16.0967 43.0261 15.7822 43.4565 15.4876 43.8935C15.4578 43.9399 15.4346 44.0226 15.3684 43.9928C15.3022 43.963 15.3485 43.8902 15.3684 43.8372C15.4578 43.2843 15.5174 42.7314 15.6001 42.1819C15.6895 41.5627 15.7458 40.9403 15.8253 40.3212C15.8915 39.967 15.9147 39.5928 15.9544 39.222ZM19.2883 27.4987C19.7262 27.5296 20.1656 27.4652 20.5762 27.31C20.6285 27.2913 20.6752 27.2598 20.7121 27.2184C20.749 27.177 20.775 27.1269 20.7875 27.0729C20.8 27.0188 20.7988 26.9625 20.7838 26.909C20.7689 26.8556 20.7407 26.8067 20.702 26.767C20.6636 26.7254 20.6203 26.6887 20.5729 26.6577C20.2518 26.462 19.9863 26.1873 19.8015 25.8598C19.5922 25.3685 19.5212 24.8293 19.5962 24.3005C19.6092 24.1043 19.6707 23.9145 19.7754 23.748C19.88 23.5816 20.0243 23.4438 20.1955 23.347C20.2837 23.2951 20.3678 23.2364 20.4471 23.1715C20.9135 22.8069 21.3172 22.3685 21.6423 21.8737C21.9584 21.4479 22.1724 20.9552 22.268 20.4335C22.313 20.2513 22.3085 20.0604 22.255 19.8806C22.2014 19.7007 22.1007 19.5384 21.9634 19.4105C21.8894 19.3535 21.801 19.318 21.7081 19.3081C21.6152 19.2982 21.5214 19.3141 21.437 19.3542C21.2781 19.4171 21.2549 19.5959 21.2946 19.7581C21.3344 19.9204 21.2648 19.9005 21.1622 19.8707C20.9185 19.808 20.6688 19.7713 20.4173 19.7614C19.757 19.6998 19.0936 19.6788 18.4308 19.6985C18.15 19.7103 17.8702 19.7402 17.5932 19.7879C17.3151 19.8376 17.2919 19.8376 17.1959 19.5694C17.0999 19.3012 17.0039 19.2383 16.7457 19.3807C16.2093 19.6423 16.1199 19.9468 16.2093 20.4865C16.2879 20.8382 16.4256 21.174 16.6165 21.4797C16.935 22.0362 17.3446 22.5353 17.8283 22.9563C18.0402 23.145 18.2653 23.3139 18.4904 23.496C18.612 23.5881 18.7098 23.708 18.7755 23.8457C18.8411 23.9833 18.8728 24.1348 18.8678 24.2872C18.8453 24.5116 18.8387 24.7373 18.848 24.9626C18.8877 25.2025 18.8661 25.4485 18.7851 25.6778C18.6262 26.0364 18.3602 26.3371 18.0236 26.5386C17.8283 26.6611 17.6329 26.7835 17.6925 27.0683C17.6952 27.119 17.7139 27.1675 17.7461 27.2068C17.7782 27.2461 17.8221 27.2742 17.8713 27.2868C18.3251 27.45 18.8066 27.522 19.2883 27.4987ZM21.7383 15.2489C21.7383 15.0204 21.7383 14.7887 21.7383 14.5569C21.7383 14.494 21.7383 14.4113 21.6356 14.4146C21.4569 14.4146 21.2781 14.4146 21.0993 14.4146C21.0674 14.4117 21.0353 14.4162 21.0054 14.4275C20.9755 14.4388 20.9485 14.4568 20.9265 14.4801C20.9045 14.5033 20.8881 14.5313 20.8785 14.5618C20.8688 14.5923 20.8662 14.6246 20.8709 14.6563C20.8709 14.7887 20.8709 14.9211 20.8709 15.0536C20.8709 15.4873 20.8709 15.4972 21.3079 15.4939C21.4867 15.4939 21.5396 15.5435 21.5198 15.7157C21.5198 15.8216 21.5529 15.9441 21.3708 15.9342C21.3012 15.9342 21.3079 16.0037 21.3079 16.0534C21.306 16.0661 21.3068 16.079 21.3102 16.0914C21.3136 16.1038 21.3196 16.1153 21.3276 16.1253C21.3357 16.1352 21.3458 16.1434 21.3572 16.1493C21.3686 16.1551 21.3811 16.1586 21.394 16.1593C21.4349 16.1701 21.4779 16.1708 21.5192 16.1615C21.5605 16.1522 21.599 16.1332 21.6314 16.1059C21.6639 16.0787 21.6893 16.0441 21.7056 16.005C21.7219 15.9659 21.7285 15.9234 21.725 15.8812C21.7416 15.6627 21.7383 15.4508 21.7383 15.2356V15.2489ZM13.905 15.2721C13.905 15.527 13.905 15.7786 13.905 16.0335C13.905 16.1229 13.9381 16.1527 14.0275 16.1527C14.1169 16.1527 14.1368 16.113 14.1335 16.0368C14.1302 15.9607 14.1335 15.9309 14.1335 15.8812C14.1335 15.5104 14.1335 15.5038 14.501 15.4906C14.535 15.4943 14.5695 15.4908 14.6021 15.4804C14.6347 15.4699 14.6648 15.4528 14.6904 15.43C14.7159 15.4072 14.7365 15.3793 14.7506 15.3481C14.7647 15.3169 14.7722 15.2831 14.7724 15.2489C14.7923 15.0364 14.7923 14.8224 14.7724 14.6099C14.7721 14.5838 14.7664 14.5581 14.7557 14.5343C14.745 14.5105 14.7296 14.4891 14.7104 14.4714C14.6912 14.4537 14.6686 14.4402 14.644 14.4315C14.6193 14.4229 14.5932 14.4194 14.5672 14.4212C14.4083 14.4212 14.2361 14.4212 14.0871 14.398C13.9381 14.3748 13.8885 14.4378 13.8951 14.5834C13.9216 14.8119 13.905 15.0304 13.905 15.2721ZM23.0262 14.941C23.0262 15.0966 23.0262 15.229 23.0262 15.3615C23.0262 15.4409 23.0261 15.4906 23.1354 15.4939C23.2447 15.4972 23.238 15.4343 23.238 15.3581V14.7655C23.238 14.696 23.238 14.6298 23.3407 14.6298C23.4433 14.6298 23.4532 14.6927 23.4532 14.7721C23.4532 14.9675 23.4532 15.1628 23.4532 15.3615C23.4532 15.4442 23.4764 15.4906 23.5691 15.4906C23.6618 15.4906 23.6817 15.4409 23.6817 15.3581C23.6817 15.1562 23.6817 14.9542 23.6817 14.7523C23.6817 14.6861 23.6817 14.6298 23.7777 14.6265C23.8737 14.6232 23.8936 14.6695 23.8936 14.7523C23.8936 14.9542 23.8936 15.1562 23.8936 15.3581C23.8936 15.4409 23.8936 15.4873 24.0061 15.4873C24.1187 15.4873 24.1253 15.4409 24.122 15.3581C24.122 15.1198 24.122 14.8847 24.122 14.6496C24.1239 14.6175 24.119 14.5854 24.1078 14.5553C24.0965 14.5252 24.0792 14.4977 24.0567 14.4747C24.0343 14.4516 24.0074 14.4335 23.9776 14.4215C23.9478 14.4094 23.9158 14.4037 23.8836 14.4046C23.781 14.4046 23.6751 14.4046 23.5724 14.4046C23.397 14.4046 23.1685 14.3186 23.0593 14.4377C22.95 14.5569 23.0493 14.7788 23.0361 14.9344L23.0262 14.941ZM25.2013 14.941V14.6298C25.2013 14.5305 25.1583 14.4311 25.0623 14.4146C24.8542 14.3666 24.638 14.3666 24.4299 14.4146C24.4016 14.423 24.3773 14.4414 24.3615 14.4664C24.3457 14.4913 24.3394 14.5211 24.3438 14.5503C24.3438 14.6364 24.4167 14.6099 24.4597 14.6099H24.857C24.9265 14.6099 24.9696 14.6265 24.9729 14.7059C24.9751 14.7217 24.9736 14.7377 24.9686 14.7527C24.9635 14.7678 24.955 14.7815 24.9438 14.7927C24.9326 14.804 24.9189 14.8124 24.9038 14.8175C24.8888 14.8225 24.8727 14.824 24.857 14.8218H24.5623C24.5218 14.8176 24.4809 14.8246 24.4441 14.8422C24.4073 14.8597 24.376 14.887 24.3538 14.9211C24.318 14.9752 24.2978 15.038 24.2952 15.1027C24.2927 15.1674 24.308 15.2316 24.3394 15.2883C24.3708 15.345 24.4171 15.3919 24.4734 15.4241C24.5296 15.4563 24.5936 15.4724 24.6584 15.4707C25.2112 15.4972 25.2112 15.4972 25.2112 14.9509L25.2013 14.941ZM17.623 14.4113H17.4343C17.2224 14.4113 17.1727 14.4642 17.1628 14.6761C17.1595 14.7213 17.1595 14.7667 17.1628 14.8119C17.1628 14.9642 17.239 15.0469 17.3979 15.0469H17.6727C17.7488 15.0469 17.8117 15.0668 17.8084 15.1595C17.8051 15.2522 17.7389 15.2489 17.6727 15.2489H17.2688C17.1761 15.2489 17.1694 15.2985 17.1694 15.3681C17.1694 15.4376 17.1959 15.4906 17.2654 15.4773C17.4021 15.4674 17.5393 15.4674 17.676 15.4773C18.007 15.4773 18.0501 15.4144 18.0435 15.0602C18.0435 14.8913 17.9441 14.8185 17.7819 14.8185H17.4906C17.4111 14.8185 17.3879 14.7754 17.3946 14.7059C17.4012 14.6364 17.431 14.5801 17.5005 14.6099C17.6462 14.6662 17.7786 14.5669 17.921 14.6099C17.9839 14.6099 18.0368 14.6099 18.0368 14.5205C18.0403 14.5047 18.0398 14.4884 18.0355 14.4728C18.0311 14.4572 18.0231 14.443 18.012 14.4312C18.0009 14.4195 17.9871 14.4106 17.9718 14.4054C17.9566 14.4002 17.9402 14.3988 17.9243 14.4013L17.623 14.4113ZM22.8143 14.9377C22.8143 14.8384 22.8143 14.7423 22.8143 14.643C22.8217 14.5998 22.8139 14.5554 22.7921 14.5173C22.7704 14.4793 22.7361 14.45 22.6951 14.4344C22.4797 14.3659 22.2483 14.3659 22.0329 14.4344C22.0082 14.4446 21.9878 14.4631 21.9751 14.4866C21.9625 14.5101 21.9583 14.5373 21.9634 14.5636C21.9634 14.6364 22.0429 14.6165 22.0892 14.6165H22.4699C22.5494 14.6165 22.5792 14.6529 22.5792 14.7324C22.5792 14.8119 22.5362 14.8284 22.4699 14.8284C22.4037 14.8284 22.2614 14.8284 22.1587 14.8284C21.9866 14.845 21.9369 14.9112 21.9336 15.1297C21.9303 15.3482 21.9634 15.4608 22.1455 15.4608C22.3276 15.4608 22.4335 15.4608 22.5759 15.4608C22.7183 15.4608 22.8143 15.3747 22.811 15.2125C22.8209 15.1429 22.8242 15.0304 22.8242 14.9476L22.8143 14.9377ZM18.2554 14.9377C18.2554 15.4939 18.2752 15.5104 18.7685 15.474H18.8016C18.8162 15.4754 18.8309 15.4733 18.8445 15.468C18.8582 15.4626 18.8703 15.4541 18.88 15.4431C18.8897 15.4321 18.8967 15.419 18.9003 15.4048C18.9039 15.3906 18.9042 15.3757 18.901 15.3615C18.901 15.2952 18.8678 15.2555 18.795 15.2588H18.5864C18.5202 15.2588 18.4772 15.2356 18.4772 15.1595C18.4772 15.0833 18.5202 15.0602 18.5897 15.0569H18.7453C19.1426 15.0569 19.1426 15.0569 19.1162 14.6529C19.1162 14.4775 19.0334 14.408 18.8546 14.4013H18.5235C18.3381 14.4013 18.2752 14.4642 18.2686 14.6496C18.262 14.7523 18.2653 14.8516 18.2653 14.9476L18.2554 14.9377ZM15.8617 14.9377V14.6993C15.8617 14.4973 15.7988 14.4212 15.6034 14.408C15.4657 14.398 15.3274 14.398 15.1896 14.408C15.165 14.4075 15.1405 14.4121 15.1178 14.4215C15.095 14.4308 15.0745 14.4448 15.0574 14.4626C15.0403 14.4803 15.027 14.5013 15.0184 14.5244C15.0099 14.5475 15.0061 14.5721 15.0075 14.5967C15.0075 14.7291 15.0075 14.8615 15.0075 14.994C15.0075 15.4641 15.0241 15.5038 15.4909 15.4839C15.8815 15.4839 15.8617 15.4376 15.8716 15.1098L15.8617 14.9377ZM22.7812 15.7389C22.7377 15.7248 22.6918 15.72 22.6464 15.7245C22.6009 15.7291 22.5569 15.743 22.5171 15.7654C22.4773 15.7878 22.4426 15.8182 22.4151 15.8546C22.3876 15.8911 22.368 15.9328 22.3574 15.9773C22.3173 16.0539 22.2708 16.127 22.2183 16.1958C22.1289 16.3414 22.0429 16.4904 21.9568 16.6394C21.8707 16.7884 22.0131 16.8182 22.0627 16.8778C22.1124 16.9374 22.1654 16.8447 22.2018 16.8049C22.4335 16.5368 22.6653 16.2653 22.8904 15.9905C22.9467 15.9243 23.0626 15.8581 23.0195 15.772C22.9765 15.6859 22.8705 15.7554 22.7911 15.7455L22.7812 15.7389ZM15.5902 15.7389C15.5107 15.7389 15.4578 15.7389 15.4081 15.7389C15.3584 15.7389 15.2955 15.7389 15.2691 15.7852C15.2426 15.8316 15.3022 15.8647 15.3286 15.9011C15.3551 15.9375 15.4445 16.0435 15.5008 16.113C15.6763 16.3249 15.8584 16.5335 16.0206 16.7553C16.1828 16.9771 16.2292 16.7321 16.3153 16.7089C16.4013 16.6858 16.3153 16.5964 16.2855 16.55C16.1663 16.3447 16.0272 16.1461 15.9113 15.9342C15.8418 15.7985 15.7557 15.6925 15.6001 15.7488L15.5902 15.7389ZM20.2253 14.9873C20.2253 14.9344 20.2253 14.8847 20.2253 14.8317C20.2253 14.7788 20.2253 14.7159 20.2253 14.6596C20.2253 14.4874 20.1458 14.4113 19.9736 14.408C19.8015 14.4046 19.6757 14.408 19.5267 14.408C19.4307 14.408 19.3777 14.4344 19.3777 14.5437C19.3777 14.8119 19.3777 15.0833 19.3777 15.3548C19.3777 15.4277 19.3976 15.474 19.4836 15.4707C19.5697 15.4674 19.583 15.4144 19.583 15.3449V14.9145C19.583 14.6265 19.583 14.6331 19.8611 14.6265C19.9836 14.6265 20.0233 14.6695 20.02 14.7854C20.02 14.9741 20.02 15.1661 20.02 15.3548C20.02 15.4343 20.02 15.4873 20.1292 15.4873C20.2385 15.4873 20.2484 15.4442 20.2451 15.3581C20.2418 15.2721 20.2186 15.1165 20.2186 14.9973L20.2253 14.9873ZM16.3186 15.0569C16.3186 14.9608 16.3186 14.8615 16.3186 14.7655C16.3186 14.6695 16.3484 14.6066 16.4675 14.6132C16.5867 14.6198 16.7059 14.6132 16.8284 14.6132C16.9509 14.6132 16.9609 14.6132 16.9575 14.5007C16.9542 14.3881 16.8979 14.4046 16.8317 14.4046H16.3153C16.2865 14.4013 16.2573 14.4046 16.23 14.4143C16.2027 14.424 16.178 14.4399 16.1578 14.4607C16.1377 14.4816 16.1226 14.5067 16.1137 14.5343C16.1048 14.5619 16.1024 14.5912 16.1067 14.6198C16.1067 14.8681 16.1067 15.1165 16.1067 15.3615C16.1067 15.4244 16.1067 15.474 16.1961 15.474C16.2855 15.474 16.3285 15.4475 16.3252 15.3581L16.3186 15.0569ZM20.4471 14.9344V15.3615C20.4471 15.4343 20.4802 15.4608 20.553 15.4608C20.6259 15.4608 20.659 15.4343 20.659 15.3615C20.659 15.08 20.659 14.7986 20.659 14.5139C20.659 14.4543 20.659 14.4013 20.5663 14.4013C20.4736 14.4013 20.4504 14.4378 20.4537 14.5172L20.4471 14.9344ZM20.6457 14.11C20.6457 14.0107 20.606 13.9709 20.5464 13.9676C20.4868 13.9643 20.457 14.0239 20.457 14.0835C20.457 14.1431 20.4769 14.1894 20.5431 14.1894C20.5646 14.1903 20.5857 14.1839 20.6031 14.1713C20.6205 14.1587 20.6332 14.1406 20.6391 14.1199L20.6457 14.11Z" fill="white"/>
<path d="M18.3979 38.9182C18.3979 38.7626 18.484 38.65 18.5469 38.5242C18.8581 37.8852 19.123 37.2264 19.3812 36.5609C19.5501 36.1206 19.7388 35.6869 19.9043 35.2366C19.9407 35.0988 19.9872 34.9638 20.0434 34.8327C20.0235 34.8791 20.0434 34.9122 20.0699 34.9453C20.2999 35.5063 20.6075 36.0323 20.9836 36.5079C21.2351 36.8251 21.5531 37.0832 21.9152 37.264C22.2773 37.4448 22.6747 37.5438 23.0794 37.5541C23.8302 37.5525 24.5727 37.397 25.2611 37.0973C26.165 36.7662 27.0225 36.2927 27.9097 35.9153C28.6878 35.5842 29.4724 35.2995 30.3299 35.6041C30.4292 35.6372 30.4325 35.5809 30.4325 35.5081C30.4337 35.3188 30.4547 35.1301 30.4954 34.9453C30.6551 34.3758 30.957 33.8562 31.3728 33.4356C31.9919 32.7039 32.6971 32.0484 33.3096 31.3068C33.7308 30.8248 34.0829 30.2866 34.3558 29.7077C34.5552 29.3089 34.6549 28.8677 34.6463 28.4219C34.6376 27.9762 34.5209 27.5392 34.3061 27.1484C33.9903 26.6179 33.5951 26.1389 33.1341 25.7281C32.7921 25.3831 32.3768 25.1195 31.9191 24.9567C31.5118 24.8276 31.1212 24.6588 30.7173 24.4965C30.3133 24.3343 29.8863 24.1655 29.4658 23.9801C29.4325 23.9629 29.3956 23.954 29.3582 23.954C29.3208 23.954 29.2839 23.9629 29.2506 23.9801C28.858 24.1602 28.431 24.2528 27.9991 24.2515C28.0499 24.2227 28.1065 24.2058 28.1647 24.2019C28.5893 24.1385 28.9869 23.9547 29.3102 23.6722C29.4848 23.4914 29.6219 23.2777 29.7134 23.0436C29.8049 22.8094 29.849 22.5594 29.8432 22.3081C29.8438 21.6752 29.8062 21.0428 29.7307 20.4144C29.6942 19.8714 29.6048 19.3152 29.9856 18.8351C30.0187 18.7921 30.0352 18.7491 29.9525 18.7226C29.6006 18.5848 29.311 18.3235 29.138 17.9876C28.8434 17.534 28.6249 17.0341 28.3501 16.5673C27.966 15.9051 27.5919 15.243 26.7444 15.0443C27.0267 15.0231 27.3099 15.0746 27.5667 15.194C27.8234 15.3134 28.0453 15.4967 28.211 15.7263C28.5331 16.1443 28.8105 16.5948 29.0387 17.0705C29.2514 17.5309 29.5181 17.9644 29.8333 18.3617C29.8896 18.4213 29.9293 18.5206 30.0452 18.4908C29.9955 18.5504 30.0452 18.5703 30.0915 18.5935C30.173 18.6568 30.2665 18.703 30.3663 18.7292C30.4392 18.7292 30.4524 18.7689 30.406 18.8318C30.1741 19.1595 30.0747 19.5629 30.1279 19.9608C30.1677 20.5402 30.2306 21.1163 30.2703 21.6989C30.3421 22.2322 30.2581 22.7749 30.0286 23.2616C29.9657 23.3841 30.0286 23.4073 30.118 23.4338L32.2402 23.9767C32.8049 24.1254 33.3937 24.1592 33.9717 24.0761C34.5906 23.9971 35.1891 23.8028 35.7364 23.5033C36.1403 23.2715 36.4807 22.9434 36.7273 22.5484C36.9739 22.1533 37.1191 21.7035 37.1501 21.2388C37.2163 20.4979 37.203 19.752 37.1103 19.0139C37.0342 18.2293 36.8951 17.4513 36.8554 16.6633C36.8223 16.0409 36.809 15.4185 37.1501 14.8556C37.2229 14.7331 37.299 14.6106 37.3752 14.4782C36.8074 14.3286 36.3147 13.975 35.9913 13.485C35.5223 12.8148 35.0977 12.1148 34.72 11.3893C34.2981 10.5679 33.7717 9.80447 33.154 9.11809C32.8024 8.72441 32.349 8.43542 31.8437 8.28295C31.3384 8.13049 30.8008 8.12046 30.2902 8.25398C29.7347 8.4008 29.2022 8.62362 28.7076 8.91613C28.3852 9.07886 28.0983 9.30392 27.8634 9.57828L26.0756 11.7303C25.8471 12.0084 25.6154 12.2898 25.377 12.5613C25.2347 12.7235 25.228 12.7136 25.1651 12.5149C25.1486 12.4586 25.1651 12.3825 25.0691 12.3659C24.8672 12.3295 24.9234 12.2236 24.9963 12.1011C25.4565 11.323 25.9465 10.5649 26.4398 9.80672C26.7201 9.41293 26.9691 8.99782 27.1847 8.56519C27.5322 7.74235 27.6611 6.84365 27.5588 5.95632C27.5346 5.55165 27.4179 5.15794 27.2175 4.80551C27.0172 4.45308 26.7387 4.15133 26.4033 3.92352C26.0264 3.66797 25.6151 3.46732 25.1817 3.32758C24.3893 3.06754 23.5779 2.8694 22.7549 2.73496C22.5825 2.67064 22.3992 2.64028 22.2152 2.64556C21.9239 2.3476 21.6955 1.99997 21.4207 1.68876C21.2396 1.51582 21.0806 1.32123 20.9472 1.10938C21.4877 1.27016 22.0418 1.38098 22.6026 1.44045C23.0198 1.48018 23.4303 1.57288 23.8441 1.61923C24.258 1.66558 24.6189 1.702 25.0029 1.77815C25.7644 1.89955 26.4966 2.1623 27.1615 2.55286C27.8359 2.96365 28.3534 3.58836 28.6315 4.32743C28.6768 4.41381 28.7092 4.5064 28.7275 4.60222C28.7275 4.77107 28.8103 4.76114 28.9295 4.70154C29.3728 4.45799 29.8384 4.25733 30.32 4.1023C30.5445 4.02875 30.7789 3.98968 31.0152 3.98642C31.1543 3.98642 31.237 4.03277 31.2635 4.16851C31.3113 4.3517 31.3412 4.53908 31.3529 4.72803C31.3529 4.9664 31.3529 5.20147 31.3529 5.43984C31.3436 5.77351 31.306 6.10578 31.2404 6.43307C31.2073 6.6582 31.2205 6.6913 31.4456 6.68468C31.9918 6.68044 32.5314 6.80361 33.0217 7.04441C33.5119 7.28522 33.9392 7.63703 34.2697 8.07189C34.8163 8.76073 35.2694 9.51885 35.6172 10.3265C35.9893 11.1862 36.4162 12.0211 36.8951 12.8261C37.194 13.3597 37.6763 13.7667 38.2525 13.9717C38.3275 14.0014 38.407 14.0182 38.4876 14.0213C38.5306 14.0213 38.5902 14.0213 38.6068 14.0644C38.6099 14.0877 38.6067 14.1114 38.5974 14.133C38.588 14.1546 38.573 14.1732 38.5538 14.1868C38.2091 14.5163 37.9961 14.96 37.9546 15.435C37.9036 15.7641 37.9036 16.0991 37.9546 16.4282C38.0042 16.7792 38.0704 17.1301 38.1102 17.481C38.1433 17.7592 38.2327 18.0174 38.279 18.2889C38.3651 18.8285 38.4876 19.3582 38.5571 19.9012C38.6177 20.4619 38.6321 21.0266 38.6002 21.5897C38.5712 22.0266 38.4682 22.4554 38.2956 22.8577C38.0612 23.3988 37.6932 23.8716 37.2262 24.2317C37.1004 24.3376 37.107 24.4105 37.2262 24.5197C37.6629 24.9293 38.0337 25.4039 38.3254 25.9268C38.5339 26.3075 38.5505 26.3804 38.1135 26.5889C37.5521 26.8476 36.9603 27.0344 36.3522 27.1451C36.2664 27.1551 36.1797 27.1551 36.0939 27.1451C35.9482 27.1451 35.9085 27.2014 35.9482 27.3339C35.988 27.4663 36.0178 27.5656 36.0542 27.6815C36.1981 28.2292 36.2193 28.8019 36.1163 29.3588C36.0132 29.9156 35.7886 30.4429 35.4583 30.9028C34.9005 31.6867 34.249 32.3994 33.5182 33.025C32.9391 33.5258 32.3928 34.0633 31.8826 34.6341C31.604 34.9356 31.3979 35.2968 31.2801 35.6902C31.2293 35.9507 31.2115 36.2165 31.2271 36.4815C31.2271 36.5709 31.2271 36.6602 31.2271 36.7695C31.0649 36.7066 30.9225 36.647 30.7769 36.594C30.2239 36.4127 29.6227 36.4482 29.095 36.6933C28.3185 37.0289 27.5644 37.4137 26.8371 37.8455C26.0131 38.3561 25.1216 38.7484 24.1885 39.0109C23.0661 39.2757 21.9802 39.2161 21.0035 38.511C20.8711 38.4149 20.8148 38.448 20.742 38.5805C20.4688 39.1074 20.1184 39.5906 19.7024 40.014C19.5137 40.1994 19.4276 40.1961 19.2389 40.014C18.9252 39.6756 18.6437 39.3087 18.3979 38.9182Z" fill="white"/>
<path d="M20.947 1.25047C21.0804 1.46232 21.2394 1.65691 21.4204 1.82985C21.6952 2.14106 21.9236 2.492 22.215 2.78666C22.6191 3.33161 22.9874 3.90227 23.3175 4.49501C24.1558 5.98439 24.4562 7.71685 24.1683 9.40154C24.0344 10.1426 23.8586 10.8754 23.6419 11.5966C23.5989 11.7627 23.5989 11.937 23.6419 12.1031C23.7727 12.6706 23.7727 13.2605 23.6419 13.828C23.6222 13.733 23.6089 13.6368 23.6022 13.54C23.5866 13.2974 23.5194 13.0609 23.4053 12.8462C23.2911 12.6316 23.1325 12.4437 22.9401 12.2951C22.6136 12.0596 22.2432 11.8918 21.8508 11.8018C21.331 11.6495 20.7914 11.5833 20.2683 11.4509C19.8577 11.3516 19.4571 11.2324 19.3512 10.7358C19.3512 10.6729 19.2982 10.6497 19.2386 10.6994C19.0879 10.8017 18.9501 10.9217 18.8281 11.0569C18.7558 11.1528 18.6616 11.23 18.5533 11.2821C18.2445 11.4202 17.918 11.5149 17.5833 11.5635C17.0325 11.6507 16.4907 11.7869 15.9643 11.9707C15.6732 12.0686 15.4106 12.2367 15.1999 12.4602C14.9891 12.6837 14.8366 12.9556 14.7559 13.2519C14.709 13.5342 14.688 13.8201 14.693 14.1061C14.5995 13.7591 14.5364 13.4046 14.5043 13.0467C14.3454 12.1439 14.2689 11.2286 14.2758 10.312C14.2758 10.1531 14.2493 9.98092 14.2758 9.83525C14.3155 9.50417 14.3288 9.1731 14.3884 8.85858C14.4917 8.14701 14.7347 7.46291 15.1035 6.84564C15.2812 6.55201 15.4935 6.28079 15.7359 6.03782C16.2497 5.56187 16.8035 5.13099 17.3912 4.74993C18.0049 4.36261 18.548 3.8733 18.9969 3.30313C19.3362 2.84339 19.5845 2.32312 19.7286 1.77026C19.8766 1.41176 19.9455 1.02554 19.9306 0.637978C20.02 0.545277 19.871 0.422779 19.9736 0.330078C20.0365 0.379739 20.1027 0.422779 20.1623 0.475751C20.351 0.634667 20.4934 0.843245 20.692 0.995539L20.7516 1.05182L20.8079 1.09817L20.8775 1.18425L20.9238 1.22729L20.947 1.25047Z" fill="white"/>
<path d="M30.0584 18.4742C29.8597 18.2424 29.9524 18.0041 30.0584 17.7723C30.3034 17.2227 30.5517 16.6698 30.8066 16.1169C30.8527 16.0172 30.9184 15.9276 30.9997 15.8537C31.081 15.7798 31.1764 15.7229 31.2801 15.6865C31.3132 15.6865 31.3463 15.6667 31.3661 15.6336C31.4477 15.4991 31.486 15.3429 31.4759 15.186C31.4659 15.0291 31.4079 14.8791 31.3098 14.7562C31.1476 14.5283 31.0235 14.2756 30.9424 14.008C30.8577 13.7767 30.727 13.565 30.5583 13.3856C30.4888 13.3127 30.3828 13.3359 30.2934 13.3458C30.0614 13.391 29.8379 13.4725 29.6313 13.5875C29.4695 13.6516 29.2945 13.6754 29.1214 13.657C28.989 13.657 28.9592 13.571 29.0023 13.4551C29.0279 13.378 29.0712 13.3079 29.1287 13.2504C29.1862 13.193 29.2562 13.1497 29.3333 13.124C29.616 13.0351 29.8838 12.9046 30.1279 12.7366C30.2584 12.661 30.4005 12.6073 30.5484 12.5777C30.6128 12.5621 30.6724 12.5306 30.7215 12.4861C30.7707 12.4415 30.8079 12.3854 30.8298 12.3228C30.8298 12.2864 30.8497 12.2135 30.9159 12.2533C30.9821 12.293 31.0351 12.2864 31.0715 12.2135C31.1079 12.1407 31.1774 12.0579 31.098 11.9752C31.0015 11.8539 30.9367 11.7105 30.9092 11.558C30.8991 11.5006 30.874 11.447 30.8364 11.4024C30.7517 11.3247 30.6955 11.2208 30.6769 11.1073C30.6583 10.9938 30.6783 10.8774 30.7338 10.7767C30.8085 10.6325 30.9258 10.5148 31.0697 10.4396C31.2137 10.3644 31.3773 10.3353 31.5383 10.3562C31.6712 10.374 31.7962 10.4296 31.8984 10.5165C32.0005 10.6034 32.0755 10.7179 32.1144 10.8462C32.1326 10.9005 32.1393 10.9579 32.1342 11.0149C32.129 11.0719 32.1122 11.1272 32.0846 11.1773C32.001 11.3214 31.949 11.4817 31.9323 11.6474C31.9129 11.7716 31.8563 11.887 31.77 11.9785C31.6475 12.1076 31.6807 12.2036 31.8627 12.2367C31.9719 12.2574 32.0828 12.2674 32.1938 12.2665C32.3159 12.2591 32.4373 12.2899 32.5411 12.3545C32.6449 12.4192 32.726 12.5146 32.7732 12.6274C32.9764 13.0018 33.2219 13.3517 33.5049 13.6703C33.6038 13.7831 33.7257 13.8734 33.8624 13.9351C34.1935 14.1073 34.5544 14.2662 34.8921 14.4516C35.0907 14.5261 35.2632 14.657 35.3884 14.8281C35.5137 14.9992 35.5863 15.2032 35.5973 15.415C35.5973 15.4746 35.6304 15.5607 35.5575 15.5839C35.4847 15.6071 35.4516 15.5276 35.4284 15.4713C35.2954 15.2297 35.1306 15.0071 34.9384 14.8092C34.8268 14.6984 34.6832 14.6255 34.5279 14.6006C33.981 14.4359 33.4699 14.1698 33.0215 13.816C32.8924 13.71 32.7798 13.5875 32.6573 13.4849C32.6342 13.4617 32.6077 13.4286 32.5712 13.4451C32.5348 13.4617 32.5414 13.5014 32.5381 13.5345C32.5248 13.6569 32.5574 13.7799 32.6296 13.8796C32.7017 13.9793 32.8084 14.0487 32.9288 14.0742C33.0281 14.0941 33.0679 14.1272 33.0579 14.2265C33.0546 14.2582 33.0628 14.2901 33.081 14.3162C33.0993 14.3424 33.1263 14.3611 33.1573 14.3688C33.2334 14.3953 33.3062 14.4284 33.3824 14.4615C33.537 14.528 33.6695 14.6371 33.7645 14.776C33.8594 14.9149 33.9129 15.078 33.9187 15.2462C33.9168 15.4021 33.9438 15.557 33.9982 15.7031C34.051 15.8507 34.0613 16.0101 34.028 16.1633C33.9853 16.3675 33.9944 16.5792 34.0545 16.7791C34.1054 16.9428 34.1228 17.1152 34.1058 17.2858C34.0887 17.4564 34.0375 17.6219 33.9551 17.7723C33.8788 17.9211 33.8125 18.0749 33.7565 18.2325C33.6385 18.5849 33.4567 18.9126 33.2202 19.1992C33.0811 19.3515 33.101 19.3979 33.2533 19.431C33.5281 19.484 33.5479 19.5038 33.4718 19.7819C33.4167 19.9811 33.401 20.1892 33.4254 20.3944C33.4519 20.6262 33.3857 20.6891 33.1539 20.6692L32.9818 20.646C32.9818 20.646 32.9818 20.6162 32.9818 20.6129C33.1937 20.4375 33.1738 20.4441 33.0811 20.1858C32.9841 19.9585 32.8059 19.7756 32.5812 19.6727C32.5481 19.6528 32.505 19.6296 32.4719 19.6727C32.4388 19.7157 32.4719 19.7356 32.4918 19.7654C32.5162 19.7894 32.534 19.8193 32.5435 19.8523C32.5529 19.8852 32.5537 19.9201 32.5457 19.9534C32.5377 19.9867 32.5212 20.0174 32.4978 20.0425C32.4745 20.0675 32.445 20.0861 32.4123 20.0965C32.2369 20.2024 32.2269 20.3381 32.3759 20.4904C32.4355 20.5566 32.5679 20.5997 32.5315 20.6957C32.4951 20.7917 32.3594 20.742 32.27 20.7487C32.2127 20.7523 32.1554 20.7428 32.1024 20.7207C32.0494 20.6987 32.0022 20.6647 31.9644 20.6215C31.9267 20.5783 31.8993 20.527 31.8846 20.4715C31.8698 20.4161 31.868 20.358 31.8793 20.3017C31.8885 20.1916 31.8885 20.0808 31.8793 19.9706C31.8574 19.7983 31.9024 19.6241 32.0051 19.484C32.1044 19.3615 32.0581 19.239 31.9157 19.1529C31.7734 19.0668 31.5648 18.9609 31.3926 18.8549C31.2478 18.7695 31.1271 18.6488 31.0417 18.504C30.949 18.3484 30.9126 18.355 30.7967 18.504C30.7695 18.5404 30.7396 18.5747 30.7073 18.6066C30.5649 18.7357 30.5153 18.7357 30.4126 18.5801C30.3984 18.5518 30.3748 18.5294 30.3457 18.5167C30.3167 18.504 30.2842 18.5018 30.2537 18.5106C30.1817 18.5315 30.1044 18.5232 30.0385 18.4874L30.0584 18.4742Z" fill="white"/>
<path d="M26.7709 26.6258L25.8803 27.3277C24.9567 28.0524 24.0726 28.826 23.2317 29.6452C23.0992 29.7743 22.9569 29.6949 22.788 29.7048C22.9135 29.5415 23.058 29.3937 23.2184 29.2645C24.094 28.4466 25.01 27.6731 25.963 26.947C26.5259 26.5066 27.0953 26.0762 27.6648 25.6458C27.7575 25.5763 27.7707 25.5233 27.6912 25.4273C27.3728 25.0411 26.9566 24.7473 26.4861 24.5765C25.9067 24.3546 25.3472 24.0865 24.7678 23.8315C24.8109 23.7455 24.9433 23.7256 24.897 23.6031C24.897 23.5733 24.9334 23.57 24.9632 23.5733C25.0136 23.5823 25.0633 23.5945 25.1122 23.6097C25.1751 23.6296 25.2711 23.6097 25.2943 23.6826C25.3174 23.7554 25.1982 23.7521 25.1817 23.8348L26.1087 24.2421L27.0456 24.6427C27.1119 24.6725 27.1748 24.7221 27.2575 24.6725C27.2873 24.6725 27.3271 24.6725 27.3502 24.7056C27.5985 24.9506 27.8866 25.1525 28.115 25.4207C28.1945 25.5167 28.1779 25.5631 28.0885 25.626C27.9296 25.7385 27.7806 25.8643 27.6184 25.957C27.5995 25.9668 27.5827 25.9802 27.569 25.9966C27.5554 26.013 27.5452 26.0319 27.539 26.0523C27.5328 26.0727 27.5308 26.0941 27.5331 26.1153C27.5353 26.1364 27.5418 26.1569 27.5522 26.1756C27.7379 26.647 27.9709 27.0985 28.2474 27.523C28.5879 28.0297 28.8731 28.5713 29.0983 29.1387C29.3087 29.7507 29.2719 30.4207 28.9957 31.0059C28.736 31.6224 28.3619 32.1841 27.8932 32.6613C27.8738 32.6818 27.8528 32.7006 27.8303 32.7176C27.8071 32.7375 27.7873 32.7639 27.7575 32.7375C27.7277 32.711 27.7575 32.6812 27.7575 32.658C27.8071 32.5852 27.8535 32.5123 27.9064 32.4461C28.2436 32.0326 28.4481 31.5269 28.493 30.9952C28.5379 30.4635 28.4211 29.9307 28.1581 29.4664C28.0584 29.2668 27.9111 29.0947 27.7292 28.9654C27.5474 28.8361 27.3365 28.7534 27.1152 28.7248C26.9463 28.7248 26.8735 28.7646 26.8371 28.9367C26.7212 29.526 26.6881 30.1253 26.602 30.7179C26.4497 31.7343 26.3702 32.764 26.1319 33.7704C26.0311 34.2285 25.7763 34.6381 25.41 34.9309C25.0436 35.2237 24.5879 35.3821 24.1189 35.3794C23.8958 35.3958 23.6716 35.3723 23.4568 35.3099C23.3009 35.2666 23.1568 35.1887 23.0351 35.0821C22.9134 34.9756 22.8172 34.843 22.7536 34.6942C22.69 34.5455 22.6607 34.3843 22.6678 34.2227C22.6749 34.0611 22.7182 33.9031 22.7946 33.7605C23.0543 33.282 23.492 32.9252 24.013 32.7673C24.4813 32.5943 24.994 32.5826 25.4697 32.7342C25.9498 32.8633 25.8703 32.9295 25.9597 32.4362C26.2146 31.0457 26.41 29.6419 26.5954 28.2382C26.6583 27.7647 26.7278 27.2946 26.7907 26.8211C26.7907 26.7649 26.7907 26.7086 26.7907 26.6523L26.7709 26.6258Z" fill="white"/>
<path d="M7.30014 10.5391C7.32613 10.5694 7.34836 10.6027 7.36636 10.6384C7.53852 11.0423 7.57825 10.9695 7.93581 10.8734C8.18465 10.7849 8.44047 10.7173 8.70059 10.6715C8.82387 10.6637 8.94712 10.6872 9.05885 10.7399C9.17058 10.7926 9.26715 10.8727 9.33957 10.9728C9.42727 11.0882 9.50272 11.2125 9.5647 11.3436C9.63296 11.4638 9.72518 11.5688 9.83567 11.6519C9.94615 11.7351 10.0725 11.7946 10.207 11.8269C10.2492 11.8456 10.2966 11.8492 10.3412 11.8371C10.3858 11.8251 10.4249 11.7981 10.452 11.7607C10.5381 11.6515 10.6274 11.5455 10.7168 11.4297C10.7604 11.3714 10.8233 11.3304 10.8942 11.3141C10.9651 11.2977 11.0395 11.307 11.1042 11.3403C11.2558 11.398 11.3934 11.4871 11.5081 11.6018C11.5621 11.6734 11.5957 11.7583 11.6056 11.8474C11.6156 11.9365 11.6013 12.0266 11.5644 12.1084C11.5271 12.275 11.4558 12.4322 11.3549 12.5701C11.2541 12.7079 11.1259 12.8235 10.9784 12.9096C10.8489 12.9969 10.7508 13.1234 10.6983 13.2706C10.6459 13.4177 10.642 13.5778 10.687 13.7273C10.7168 13.8134 10.7831 13.7968 10.8426 13.7968C11.1072 13.7867 11.3705 13.7568 11.6306 13.7075C11.7612 13.6878 11.894 13.6878 12.0246 13.7075C12.0908 13.7075 12.1173 13.7505 12.114 13.8068C12.1025 13.9133 12.0516 14.0117 11.9714 14.0827C11.8912 14.1537 11.7874 14.1923 11.6803 14.1908C11.3291 14.1857 10.9782 14.209 10.6308 14.2603C10.1275 14.3233 10.0878 14.2802 10.0977 13.7902C10.0977 13.6578 10.0977 13.5254 10.0977 13.3929C10.0977 13.2605 10.0514 13.2539 9.95206 13.2737C9.62098 13.34 9.26342 13.4095 8.9191 13.4724C8.89432 13.4768 8.87115 13.4877 8.85196 13.504C8.83277 13.5203 8.81824 13.5414 8.80985 13.5651C8.70733 13.7317 8.64764 13.921 8.63608 14.1163C8.62453 14.3115 8.66148 14.5066 8.74363 14.6841C8.89234 15.0406 8.99041 15.4162 9.03498 15.7998C9.08133 16.0713 9.06146 16.0978 8.80985 16.1938C8.5393 16.2932 8.25381 16.3459 7.9656 16.3494C7.76365 16.3494 7.56169 16.3494 7.36305 16.3825C7.18502 16.39 7.01478 16.4575 6.88009 16.5742C6.7454 16.6908 6.65422 16.8497 6.62144 17.0248C6.58502 17.1506 6.56184 17.2831 6.52874 17.4122C6.49563 17.5413 6.44266 17.5777 6.32016 17.485C6.25305 17.4381 6.20124 17.3725 6.17118 17.2963C6.14469 17.2202 6.12814 17.144 6.09834 17.0679C6.06854 16.9917 6.06192 16.8361 5.95929 16.8361C5.85665 16.8361 5.85996 16.9752 5.82686 17.0579C5.78725 17.1738 5.78725 17.2996 5.82686 17.4155C5.90632 17.7168 5.84672 17.8062 5.52889 17.8658C5.28776 17.8889 5.04496 17.8889 4.80383 17.8658C4.39661 17.8658 3.98608 17.8459 3.57886 17.8426C3.51975 17.8506 3.45965 17.8387 3.40809 17.8087C3.35652 17.7787 3.31642 17.7324 3.29413 17.677C3.16999 17.4506 3.07224 17.2107 3.00278 16.9619C2.98623 16.8692 3.00278 16.8262 3.10211 16.8328H3.11866C3.44974 16.7831 3.70135 16.8328 3.78081 17.2169C3.82716 17.4155 3.9629 17.4883 4.17479 17.4751C4.42224 17.4679 4.66989 17.4757 4.9164 17.4983C5.02566 17.4983 5.05545 17.4685 5.00579 17.3691C4.98262 17.3294 4.96606 17.2864 4.94289 17.2466C4.85019 17.0944 4.79721 16.952 5.02566 16.8692C5.09187 16.8427 5.07863 16.7732 5.08525 16.7202C5.08393 16.6724 5.09204 16.6248 5.10913 16.5801C5.12622 16.5354 5.15195 16.4945 5.18485 16.4598C5.21775 16.425 5.25717 16.3971 5.30087 16.3776C5.34456 16.3581 5.39167 16.3474 5.4395 16.3461C5.67725 16.3085 5.90352 16.218 6.10165 16.0813C6.32215 15.925 6.56268 15.7992 6.81677 15.7071C7.14785 15.5847 7.14785 15.5813 7.14785 15.237C7.1826 14.835 7.1826 14.4307 7.14785 14.0286C7.14193 13.966 7.13086 13.904 7.11474 13.8432C7.06814 13.6986 7.06833 13.543 7.11529 13.3986C7.16225 13.2542 7.25358 13.1282 7.37629 13.0387C7.8594 12.6103 8.39441 12.2444 8.96876 11.9494C9.06477 11.8998 9.07802 11.8534 9.02173 11.7674C8.98665 11.7104 8.95884 11.6492 8.93897 11.5853C8.84958 11.2774 8.60789 11.2343 8.34634 11.2542C8.05225 11.307 7.75448 11.3369 7.45575 11.3436C7.14785 11.327 7.0088 11.1251 7.12467 10.8403C7.17764 10.7543 7.23393 10.6616 7.30014 10.5391Z" fill="white"/>
<path d="M11.2565 32.6436C11.4553 32.7614 11.6724 32.8453 11.8987 32.8919C11.9451 32.8919 12.0146 32.8919 12.008 32.9681C12.0014 33.0442 11.9319 33.0442 11.8789 33.0409C11.5313 33.0409 11.1869 33.0409 10.8393 33.021C10.7234 33.021 10.6936 32.9647 10.6969 32.8422C10.6887 32.4703 10.5911 32.1058 10.4122 31.7795C10.3987 31.7569 10.3805 31.7375 10.3588 31.7227C10.337 31.7078 10.3124 31.6978 10.2864 31.6934C9.90259 31.5531 9.50855 31.4424 9.10778 31.3623C8.9886 31.3392 8.90914 31.3623 8.90583 31.508C8.90583 31.5842 8.87934 31.657 8.87272 31.7298C8.8661 31.8027 8.8363 31.9053 8.69063 31.8821C8.54496 31.859 8.60786 31.7795 8.60786 31.6835C8.61114 31.6549 8.61114 31.626 8.60786 31.5974C8.60786 31.5246 8.6807 31.4286 8.60786 31.3888C8.53502 31.3491 8.44563 31.4219 8.37942 31.4716C8.04834 31.7166 7.757 31.9848 7.4193 32.2033C7.34315 32.2529 7.2968 32.2695 7.2339 32.2033C7.06174 32.0079 6.90282 31.8159 6.71411 31.6272C6.66445 31.5742 6.67769 31.5411 6.71411 31.4948C6.94255 31.2001 7.13126 30.8757 7.33984 30.5678C7.39978 30.4371 7.44959 30.3021 7.48883 30.1638C7.52016 30.0783 7.57821 30.0052 7.65436 29.9553C7.74044 29.9056 7.82321 29.8195 7.6974 29.7136C7.67168 29.686 7.65286 29.6527 7.64251 29.6165C7.63215 29.5802 7.63054 29.542 7.63781 29.505C7.63781 29.3527 7.58153 29.2633 7.41268 29.2766C7.33984 29.2766 7.26369 29.2766 7.19086 29.2766C7.12734 29.298 7.05882 29.2996 6.99436 29.2813C6.92989 29.2629 6.87251 29.2254 6.82981 29.1738C6.78711 29.1221 6.7611 29.0587 6.75522 28.9919C6.74934 28.9251 6.76387 28.8582 6.79688 28.7998C6.85907 28.5648 6.99338 28.3552 7.18093 28.2006C7.31998 28.1145 7.31336 27.9423 7.41268 27.8298C7.48563 27.7418 7.57294 27.6668 7.67092 27.6079C7.8199 27.5219 7.83314 27.3663 7.91922 27.2504C7.95233 27.2073 7.91922 27.161 7.91922 27.1213C7.87258 26.9714 7.86014 26.813 7.8828 26.6578C7.89199 26.5645 7.9328 26.4772 7.99844 26.4104C8.06409 26.3435 8.15062 26.3011 8.24368 26.2903C8.35247 26.2755 8.46322 26.293 8.56212 26.3407C8.66103 26.3884 8.74371 26.4641 8.79988 26.5584C8.92077 26.8545 8.92077 27.1861 8.79988 27.4821C8.795 27.5022 8.7847 27.5205 8.7701 27.5351C8.75551 27.5497 8.73717 27.56 8.71711 27.5649C8.67076 27.5649 8.62772 27.598 8.63766 27.6576C8.64759 27.7172 8.70056 27.6907 8.73367 27.7073C9.06126 27.8443 9.42322 27.8767 9.76993 27.8C10.3626 27.6742 10.9486 27.8331 11.5346 27.7735C11.6324 27.7619 11.7313 27.7619 11.8292 27.7735C12.0643 27.8033 12.1073 27.8629 12.0841 28.1046C12.0847 28.1328 12.0771 28.1606 12.0622 28.1846C12.0472 28.2086 12.0256 28.2277 12 28.2397C11.9744 28.2516 11.9459 28.2558 11.9179 28.2518C11.8899 28.2478 11.8637 28.2358 11.8425 28.2171C11.7489 28.127 11.6275 28.0714 11.4982 28.0593C11.3688 28.0473 11.2392 28.0796 11.1307 28.1509C10.9248 28.282 10.6819 28.3424 10.4387 28.3231C10.3493 28.3231 10.293 28.3231 10.2699 28.4423C10.2467 28.5614 10.0977 28.5813 10.0017 28.5515C9.69048 28.4555 9.4521 28.6906 9.17069 28.717C9.11772 28.717 9.10778 28.7833 9.11109 28.8429C9.11109 29.1739 9.14089 29.505 9.13427 29.8129C9.13427 29.952 9.174 29.9884 9.30643 30.0215C9.76993 30.1274 10.2368 30.2168 10.6903 30.3526C10.7659 30.3729 10.8355 30.4113 10.8932 30.4643C10.9508 30.5173 10.9948 30.5835 11.0214 30.6572C11.2101 31.1935 11.3955 31.7331 11.5842 32.2695C11.6206 32.3655 11.5842 32.4185 11.4981 32.4648C11.4036 32.5028 11.3204 32.5643 11.2565 32.6436Z" fill="white"/>
<path d="M13.7496 24.132C13.3887 24.2843 13.0544 24.4234 12.7167 24.5591C12.379 24.6949 11.9353 24.867 11.548 25.0293C11.2392 25.1954 10.9659 25.4203 10.7435 25.6914C10.6706 25.7642 10.7435 25.8073 10.7997 25.8404C11.2765 26.2244 11.7565 26.6019 12.23 26.9859C12.912 27.5487 13.594 28.1381 14.2529 28.7141C14.6601 29.0783 15.0474 29.4657 15.4381 29.8464C15.4778 29.8861 15.5507 29.9226 15.5407 29.9788C15.5308 30.0351 15.4447 30.0119 15.3951 30.0351C15.3445 30.056 15.2882 30.0589 15.2358 30.0432C15.1833 30.0275 15.1379 29.9943 15.107 29.949C14.2913 29.1128 13.4268 28.3257 12.518 27.5918C11.825 27.0267 11.1319 26.4639 10.4389 25.9033C10.3462 25.8305 10.3395 25.7841 10.4223 25.6881C10.7477 25.3279 11.1605 25.0577 11.6208 24.9035C12.1638 24.7015 12.7001 24.4731 13.2398 24.2413C13.3391 24.2016 13.4086 24.1718 13.2762 24.0824C13.2629 24.0758 13.2518 24.0657 13.244 24.0531C13.2362 24.0405 13.232 24.026 13.232 24.0112C13.232 23.9964 13.2362 23.9819 13.244 23.9693C13.2518 23.9567 13.2629 23.9466 13.2762 23.94C13.3677 23.9076 13.4619 23.8833 13.5576 23.8672C13.5808 23.8672 13.6106 23.8672 13.6039 23.9036C13.5741 24.0228 13.6702 24.0592 13.7496 24.132Z" fill="white"/>
<path d="M20.7188 22.4245C20.7471 22.2172 20.7993 22.0139 20.8744 21.8186C21.0046 21.3596 21.0845 20.8878 21.1127 20.4116C21.1084 20.3405 21.1241 20.2696 21.158 20.207C21.192 20.1443 21.2428 20.0925 21.3048 20.0573C21.3746 20.0228 21.4348 19.9714 21.4799 19.9078C21.5249 19.8443 21.5535 19.7705 21.563 19.6931C21.5862 19.521 21.6722 19.5011 21.8179 19.5938C21.9203 19.6667 21.9978 19.7694 22.0398 19.8878C22.0819 20.0063 22.0865 20.1348 22.053 20.256C21.9845 20.7227 21.8013 21.1652 21.52 21.5438C21.3382 21.8148 21.1321 22.0685 20.9042 22.302C20.8583 22.363 20.7928 22.4062 20.7188 22.4245Z" fill="white"/>
<path d="M17.7025 22.4182C17.5265 22.2896 17.375 22.1304 17.2555 21.9481C16.9165 21.5609 16.6567 21.1109 16.4907 20.6238C16.3971 20.3883 16.373 20.131 16.4212 19.8822C16.4395 19.8033 16.4757 19.7296 16.5271 19.667C16.5576 19.6253 16.5975 19.5913 16.6435 19.5677C16.6895 19.5441 16.7403 19.5316 16.792 19.5312C16.9145 19.5312 16.8847 19.6637 16.9046 19.7398C16.9531 19.8839 17.0567 20.0029 17.1926 20.0709C17.2375 20.0964 17.2747 20.1336 17.3004 20.1784C17.326 20.2233 17.3391 20.2742 17.3383 20.3258C17.3675 20.8867 17.4619 21.4422 17.6197 21.9812C17.6969 22.113 17.7261 22.2674 17.7025 22.4182Z" fill="white"/>
<path d="M21.5199 14.8227C21.5183 14.8336 21.5183 14.8448 21.5199 14.8558C21.5199 15.1306 21.414 15.1868 21.1458 15.1239C21.0763 15.1041 21.0796 15.0544 21.0796 15.0048C21.0796 14.8723 21.0796 14.7399 21.0796 14.6108C21.0796 14.4817 21.0995 14.5015 21.1822 14.4949C21.5199 14.4684 21.5199 14.4651 21.5199 14.8227Z" fill="white"/>
<path d="M14.1435 14.796V14.7629C14.1435 14.498 14.2296 14.4318 14.4912 14.4947C14.5607 14.5113 14.5673 14.5543 14.5673 14.6073C14.5673 14.6603 14.5673 14.7927 14.5673 14.8821C14.5673 15.137 14.5673 15.1271 14.3124 15.1337C14.17 15.1337 14.127 15.0774 14.1402 14.9516C14.1402 14.8986 14.1402 14.849 14.1402 14.796H14.1435Z" fill="white"/>
<path d="M24.7743 14.9211H24.8968C24.9763 14.9211 24.9895 14.9708 24.9928 15.0337C24.9961 15.0966 24.9729 15.1429 24.8968 15.1429H24.7081C24.6286 15.1429 24.5558 15.1429 24.5558 15.0304C24.5558 14.9178 24.6253 14.9112 24.7048 14.9178H24.7743V14.9211Z" fill="white"/>
<path d="M22.3906 15.1317C22.2946 15.1317 22.2052 15.1748 22.1588 15.0821C22.139 15.0423 22.1357 14.9596 22.1853 14.943C22.3116 14.9044 22.4465 14.9044 22.5727 14.943C22.6223 14.943 22.6223 15.0423 22.6025 15.0821C22.5528 15.1913 22.4469 15.0986 22.3906 15.1317Z" fill="white"/>
<path d="M18.7089 14.4918C18.7751 14.515 18.8645 14.4488 18.9075 14.5415C18.9506 14.6342 18.9307 14.6739 18.8711 14.6905C18.7507 14.7301 18.6207 14.7301 18.5003 14.6905C18.444 14.6673 18.4573 14.5779 18.5003 14.5348C18.5433 14.4918 18.6327 14.5084 18.7089 14.4918Z" fill="white"/>
<path d="M15.2293 14.7929C15.2326 14.7588 15.2326 14.7244 15.2293 14.6903C15.1962 14.5214 15.2723 14.4784 15.4346 14.485C15.6762 14.485 15.6762 14.485 15.6762 14.7333C15.6762 14.7697 15.6762 14.8028 15.6762 14.836C15.6762 15.167 15.6762 15.1405 15.3783 15.1306C15.2525 15.1306 15.216 15.081 15.2293 14.9651C15.2326 14.9077 15.2326 14.8503 15.2293 14.7929Z" fill="white"/>
</svg>
