<svg width="2232" height="560" viewBox="0 0 2232 560" fill="none" xmlns="http://www.w3.org/2000/svg">
<path d="M0 550.992C0 558.094 1.06949 560 8.75358 560C746.937 559.752 1485.12 559.752 2223.3 560C2231.12 560 2232.01 557.92 2232 550.946C2232 537.131 2231.97 523.315 2231.92 509.5C2231.76 413.126 2231.73 316.751 2231.83 220.377C2226.33 218.261 2220.62 216.704 2215.46 213.833C2213.91 212.95 2212.31 212.136 2210.66 211.393C2201.9 207.243 2192.6 204.419 2184.12 199.526C2176.35 195.109 2167.84 192.227 2159.56 188.647C2155.03 186.683 2150.58 184.556 2146.14 182.394C2140.07 179.43 2133.46 177.989 2127.31 175.27C2116.84 170.621 2106.3 165.89 2095.65 161.555C2087.34 158.161 2079.62 153.535 2071.32 150.083C2063.9 146.98 2057.03 142.668 2049.78 139.065C2041.08 134.765 2032.61 129.988 2023.95 125.548C2013.36 120.086 2002.1 115.994 1991.77 109.974C1989.71 108.848 1987.57 107.877 1985.36 107.068L1960.95 93.2258C1933.05 75.7106 1887.52 45.5035 1857.63 25.6638C1855.38 23.2775 1852.93 21.0883 1850.31 19.1203C1848.28 17.3769 1846.18 15.7265 1844.24 13.8553C1843.26 12.9022 1841.79 11.7865 1840.97 13.6112C1840.87 13.8788 1840.69 14.1121 1840.46 14.2853L1833.4 9.63628C1834.09 9.5261 1834.76 9.35496 1835.42 9.12489C1833.21 7.74481 1830.77 6.78704 1828.22 6.30061C1828.19 6.2908 1828.16 6.2908 1828.14 6.30061C1820.71 2.00025 1808.63 6.71902 1808.63 6.71902L1809.14 7.02121C1805.05 7.02121 1801.01 6.04491 1796.85 5.69623C1794.43 5.48703 1791.98 4.40613 1789.48 5.40567C1788.6 5.40567 1787.72 5.40567 1786.82 5.4754C1786.46 5.0105 1786.13 4.80129 1785.85 4.80129C1785.57 4.80129 1785.2 5.16159 1784.96 5.85895C1781.03 6.03329 1777.09 6.0914 1773.16 6.41683C1771.44 6.66258 1769.73 7.05133 1768.07 7.57909C1761.28 6.87011 1755.49 3.34847 1749.38 0.803129C1747.72 -0.0471274 1745.81 -0.230169 1744.02 0.291736C1740.99 1.16343 1737.91 1.36101 1735.88 4.12719C1735.66 4.32311 1735.39 4.47058 1735.11 4.56053C1734.82 4.65047 1734.52 4.68099 1734.22 4.6502C1731.69 4.45262 1729.57 5.71948 1727.42 6.60279C1726.7 6.46332 1725.79 5.97517 1725.29 6.24249C1719.74 9.24112 1713 10.0431 1708.66 15.3662C1706.56 17.9348 1703.33 18.853 1700.4 20.2709C1695.75 22.4792 1691.41 25.5243 1686.35 27.0004C1685.99 26.9522 1685.62 26.9816 1685.28 27.0864C1684.93 27.1912 1684.61 27.3691 1684.34 27.6081C1684.07 27.8471 1683.85 28.1417 1683.7 28.4719C1683.55 28.8021 1683.48 29.1604 1683.48 29.5225C1678.57 31.7308 1674.27 35.113 1669.09 36.7401C1667.4 35.6592 1665.78 35.113 1664.59 37.4026C1663.51 38.3108 1662.28 39.0157 1660.95 39.4831C1659.69 39.4831 1658.53 39.5877 1658.3 41.1799C1658.29 41.2319 1658.27 41.2814 1658.24 41.325C1658.21 41.3686 1658.17 41.4054 1658.12 41.4329C1658.08 41.4603 1658.03 41.4779 1657.98 41.4844C1657.92 41.4909 1657.87 41.4862 1657.82 41.4705C1657.57 41.3963 1657.31 41.3797 1657.05 41.4217C1656.8 41.4638 1656.55 41.5636 1656.34 41.7135C1656.13 41.8634 1655.95 42.0596 1655.82 42.2873C1655.7 42.5149 1655.63 42.7682 1655.61 43.0279C1651.49 46.0116 1647.14 48.6659 1642.6 50.9662C1634.7 55.1737 1627.04 59.8303 1619.67 64.9132C1613.07 69.2853 1606.15 73.1698 1598.99 76.5358C1598.7 76.9285 1598.35 77.2605 1597.93 77.512C1597.52 77.7636 1597.06 77.9296 1596.58 78.0003C1596.28 77.0792 1596.22 76.0939 1596.43 75.1459C1596.63 74.198 1597.09 73.3216 1597.74 72.6074C1594.38 72.3633 1593.4 73.0142 1593.71 75.4898C1593.79 75.9015 1593.74 76.3268 1593.58 76.7144C1593.43 77.1021 1593.16 77.4356 1592.81 77.6748C1591.79 78.6163 1592.05 79.4531 1593.09 80.1853C1591.52 81.6059 1589.64 82.6371 1587.59 83.1955C1587.21 82.6958 1586.93 81.7079 1586.12 82.3703C1585.62 82.7771 1586.23 83.3002 1586.64 83.6488C1577.2 89.9715 1566.59 94.1091 1556.67 99.5369C1551.57 102.315 1546.48 105.151 1541.42 107.998C1540.94 108.265 1540.66 108.893 1540.26 109.346C1535.94 110.59 1532.12 112.984 1528.05 114.751C1518.58 118.842 1509.25 123.247 1499.88 127.536C1498.72 128.082 1497.3 128.361 1496.4 129.512C1484.88 133.777 1473.94 139.356 1462.68 144.237C1449.34 150.049 1435.69 154.814 1421.88 159.347C1412.22 162.485 1402.64 165.867 1392.82 168.284C1392.57 168.284 1392.4 168.703 1392.19 168.9C1385.97 170.159 1379.87 171.927 1373.94 174.189C1364.02 177.954 1354.18 181.941 1344.33 185.811L1341.87 186.869C1339.93 186.543 1338.38 187.706 1336.88 188.461C1331.79 190.925 1326.21 191.564 1320.84 192.971C1317.95 193.715 1315.02 194.331 1312.13 194.993C1311.2 194.121 1310.62 194.435 1310.28 195.528L1308.53 196.004C1307.65 194.97 1307.08 195.365 1306.67 196.423L1305.5 196.678C1305.29 199.7 1265.8 219.61 1257.84 228.059C1237.31 249.921 1242.73 240.844 1222.82 256.442C1219.72 258.859 1216.54 256.442 1213.41 257.337C1200.39 260.823 1190.87 270.97 1178.54 275.677C1176.87 281.488 1172.24 282.651 1167.17 283.034C1163.47 283.313 1159.03 282.848 1156.98 286.242C1146.36 303.676 1131.86 291.786 1119.78 290.066C1113.25 289.136 1106.31 285.789 1099.08 284.371C1092.04 282.976 1082.11 286.184 1078.93 275.456C1067.65 281.267 1053.07 277.909 1045.79 267.878C1043.88 265.252 1041.9 260.719 1038.82 261.474C1023.48 265.252 1013.11 254.164 1001.77 248.329C993.386 244.029 981.505 244.552 976.681 231.581C973.902 224.282 964.87 216.739 954.407 216.472C939.132 216.076 933.483 206.104 929.867 193.552C925.589 189.821 925.647 182.801 919.788 180.244C913.504 176.188 906.157 174.088 898.677 174.212C884.225 174.501 869.771 173.678 855.444 171.748C845.807 176.548 837.542 183.37 829.056 189.809C820.081 196.667 810.456 198.224 800.214 193.029C795.564 190.704 790.484 189.995 785.939 192.146C773.919 197.829 760.527 200.188 748.739 204.93C728.547 212.985 707.203 217.39 687.441 226.339C681.291 229.129 677.501 236.544 669.422 235.475C643.684 246.214 616.18 250.026 589.14 255.558C582.386 256.941 574.946 256.721 569.378 260.707C552.359 272.922 533.817 279.303 512.846 277.42C503.813 276.618 496.152 284.743 486.992 281.256C475.074 276.587 461.801 276.766 450.013 281.756L426.635 287.834L392.353 301.642C363.477 322.562 336.321 346.517 299.958 354.315C290.856 360.127 280.789 363.695 270.722 367.274C248.774 376.375 226.686 385.266 204.785 394.646C174.816 407.43 143.045 411.312 111.041 414.067C108.166 414.3 105.284 413.699 102.741 412.335C91.7091 405.838 80.2934 405.896 68.1686 408.465C45.4186 413.277 22.564 417.589 0.185999 424.039C0.185999 501.225 0.302248 473.819 0 550.992Z" fill="#1E234C"/>
<path d="M1791.22 60.055C1791.75 60.1406 1792.25 60.3654 1792.67 60.7065C1794.69 62.4674 1795.96 61.7379 1797.55 59.8494C1799.82 57.1447 1801.72 53.2126 1806.58 55.2857C1807.08 55.4961 1808.02 55.0299 1808.59 54.6386C1810.45 53.3448 1813.44 54.3616 1814.59 52.696C1816.07 50.5461 1813.5 48.4095 1813.09 46.157C1812.89 45.0423 1811.64 43.6909 1813.52 42.9558C1814.7 42.4782 1815.43 43.4557 1816.19 44.2481C1819.07 47.5049 1820.79 51.5537 1823.65 54.8559C1827.53 59.312 1826.92 61.5272 1821.68 64.0649C1816.92 66.393 1816.97 66.7329 1818.25 71.9241C1819.03 75.0671 1821.08 77.7132 1821.37 80.984C1821.97 82.2808 1823.09 83.3934 1823.05 84.9267C1825.62 87.8308 1826.02 91.5951 1827.06 95.1113C1828.47 95.2843 1829.16 95.9457 1828.62 97.4316C1828.82 98.0694 1829.03 98.7188 1829.24 99.3572C1830.56 99.6191 1831.95 100.291 1832.28 101.423C1833.42 105.235 1835.88 107.913 1838.82 110.335C1839.94 111.25 1840.24 112.811 1838.97 113.622C1836.76 115.039 1836.66 117.697 1835.03 119.374C1837.28 123.321 1842.26 124.586 1844.24 128.811C1848.64 129.629 1846.98 134.131 1849.17 136.121C1848.95 136.494 1848.62 136.794 1848.23 136.981C1847.83 137.169 1847.4 137.237 1846.97 137.177C1843.76 136.719 1843.45 137.798 1843.37 141.097C1843.28 144.688 1844.3 148.219 1846.3 151.206C1847.38 152.863 1848.96 154.58 1848 156.685C1846.37 160.2 1848.28 162.397 1850.23 164.934C1852.31 167.675 1855.67 169.85 1854.94 174.153C1854.77 175.121 1855.74 175.68 1856.42 176.283C1857.78 177.512 1859.15 178.66 1860.43 179.966C1864.25 183.827 1868.67 187.262 1871.31 192.123C1874.83 198.586 1876.78 205.833 1880.98 212.015C1881.61 212.807 1882.04 213.73 1882.26 214.715C1882.48 215.7 1882.48 216.722 1882.25 217.705C1883.49 220.208 1884.65 222.741 1885.97 225.178C1886.6 226.139 1887 227.228 1887.14 228.364C1887.29 229.501 1887.18 230.656 1886.82 231.743C1885.36 230.777 1883.95 229.744 1882.43 228.879C1880.92 228.015 1879.93 227.177 1880.58 225.149C1881.35 222.755 1879.45 222.664 1877.83 222.504C1877.66 220.611 1878.02 218.594 1876.21 216.889C1875.29 219.357 1875.71 221.18 1877.8 222.537C1874.23 226.109 1870.49 226.94 1865.37 225.297C1864.9 225.865 1864.63 226.566 1864.58 227.302C1864.53 228.037 1864.72 228.768 1865.12 229.39C1868.08 234.325 1867.25 239.333 1864.91 243.942C1863.08 247.551 1864.14 249.568 1866.34 252.548C1869.39 256.65 1874.27 258.944 1876.6 263.639C1877.07 264.616 1878.34 264.806 1879.42 265.09C1881.01 265.478 1882.46 266.297 1883.61 267.457C1884.77 268.617 1885.58 270.073 1885.95 271.664C1886.05 272.378 1886.27 273.072 1886.59 273.718C1888.43 276.319 1888.61 278.363 1885.14 279.568C1884.92 279.616 1884.71 279.718 1884.53 279.864C1884.35 280.011 1884.22 280.199 1884.13 280.41C1884.04 280.622 1884 280.853 1884.03 281.081C1884.05 281.31 1884.12 281.53 1884.25 281.723C1884.76 282.632 1885.73 282.481 1886.66 282.224C1889.85 281.186 1892.64 279.202 1894.66 276.536C1896.68 273.869 1897.85 270.648 1897.99 267.304C1898.04 264.806 1898.13 262.484 1901.22 261.877C1901.55 263.487 1901.42 265.155 1900.86 266.698C1900.4 268.081 1900.27 269.553 1900.49 270.995C1900.55 271.545 1900.71 272.169 1901.36 272.2C1901.82 272.223 1902.53 271.966 1902.71 271.649C1903.66 269.125 1905.65 266.826 1904.19 263.754C1906.79 263.566 1908.87 264.934 1911.27 263.19C1914.6 260.734 1918.39 258.731 1922.92 260.963C1923.3 261.131 1923.71 261.223 1924.13 261.232C1924.54 261.241 1924.95 261.167 1925.34 261.014C1925.72 260.862 1926.07 260.634 1926.37 260.344C1926.67 260.054 1926.9 259.707 1927.06 259.325C1927.63 258.19 1926.46 257.389 1925.4 256.977C1924.03 256.434 1923.14 255.623 1923.95 254.104C1924.77 252.585 1926.01 251.319 1927.87 251.967C1929.56 252.549 1931.61 253.207 1932.59 254.522C1934.5 257.103 1936.87 257.521 1939.69 257.424C1940.53 257.395 1941.51 257.42 1941.69 258.626C1936.34 261.112 1935.49 262.897 1937.81 266.719C1937.72 267.703 1937.41 268.653 1936.9 269.5C1936.39 270.348 1935.7 271.07 1934.87 271.613C1933.76 272.378 1932.5 272.906 1931.17 273.164C1929.84 273.422 1928.47 273.404 1927.15 273.112C1922.93 272.221 1922.91 272.302 1921.99 276.653C1921.88 277.183 1921.78 277.725 1921.66 278.254C1921.02 281.107 1919.92 283.136 1916.36 283.266C1911.7 283.436 1909.52 287.587 1906.51 290.407C1905.72 291.125 1905.84 291.991 1906.94 292.533C1907.78 292.946 1909.33 292.649 1908.85 294.673C1902.63 296.418 1896.15 295.953 1889.8 295.425C1885.17 295.027 1885.2 294.423 1883.67 298.687C1883.37 299.499 1883.42 300.524 1882.1 300.6C1880.74 299.29 1880.54 297.501 1880.24 295.753C1877.65 295.965 1877.47 297.945 1876.88 299.917C1876 302.758 1875.51 306.108 1871.67 306.794C1871.8 303.713 1872.78 300.727 1874.49 298.161C1875.36 296.779 1876.08 295.31 1876.65 293.777C1877.23 292.479 1876.5 290.641 1877.87 289.742C1879.53 288.659 1880.3 290.848 1881.64 291.145C1882.36 291.308 1883.15 291.439 1883.67 290.825C1884.18 290.21 1883.87 289.486 1883.23 289.024C1881.8 288.001 1881.22 285.926 1879 285.9C1877.32 285.819 1875.52 285.581 1875.28 283.51C1875.03 281.439 1876.7 280.299 1877.82 278.923C1878.03 278.666 1878.44 278.581 1878.77 278.422C1881.83 276.791 1881.83 276.791 1879.47 274.513C1879.21 274.268 1878.75 273.99 1878.76 273.746C1879.18 267.161 1871.13 266.271 1870 260.703C1869.87 260.022 1868.75 259.759 1868.15 260.276C1865.31 262.686 1861.1 263.552 1859.75 267.662C1859.14 269.563 1858.3 269.569 1856.19 269.107C1851.98 268.182 1850.41 264 1846.74 262.659C1846.55 262.485 1846.4 262.264 1846.32 262.018C1846.23 261.772 1846.21 261.508 1846.26 261.252C1847.89 257.69 1844.58 255.204 1844.28 252.026C1844.04 249.549 1841.85 249.175 1839.64 249.592C1839.3 247.552 1838.29 245.685 1836.77 244.289C1834.33 241.845 1831.14 242.167 1828.7 240.339C1825.76 238.127 1823.73 239.04 1823.22 242.598C1822.92 244.735 1823.14 246.932 1823 249.1C1822.93 250.597 1821.93 251.712 1820.49 251.049C1815.45 248.711 1808.95 249.246 1805.56 243.662C1808.09 242.378 1810.39 240.663 1812.35 238.594C1812.72 238.967 1813 239.422 1813.16 239.923C1813.32 240.425 1813.36 240.957 1813.28 241.477C1812.87 246.586 1812.87 246.586 1818.11 246.875L1819.71 246.952C1819.69 244.625 1819.74 242.522 1817.61 240.593C1815.8 238.807 1814.47 236.595 1813.74 234.16C1813.13 232.235 1811.61 229.987 1813.04 227.823C1814.79 227.803 1815.17 228.973 1815.9 229.717C1816.82 230.646 1817.92 231.525 1819.26 231.043C1820.89 230.447 1820.71 228.787 1821.03 227.384C1821.62 224.819 1819.05 223.391 1818.64 221.255C1819.03 221.086 1819.46 221.009 1819.89 221.03C1820.32 221.05 1820.73 221.168 1821.11 221.375C1824.53 222.854 1824.45 222.699 1825.5 219.563C1826.2 217.81 1826.31 215.876 1825.81 214.056C1825.31 212.236 1824.22 210.63 1822.72 209.485C1824.47 208.639 1826.76 208.982 1826.45 206.525C1826.13 204.067 1827.93 204.515 1829.28 204.615C1830.11 204.697 1830.89 205.053 1831.5 205.628C1832.1 206.203 1832.49 206.964 1832.62 207.789C1833.95 213.797 1837.79 215.495 1843.41 214.557C1844.13 214.491 1844.87 214.606 1845.54 214.893C1847.07 215.455 1848.1 215.017 1849.45 214.036C1854.4 210.6 1862.48 212.805 1865.29 218.152C1866.98 221.362 1869.77 221.765 1870.77 218.603C1871.89 214.843 1874.47 214.13 1877.44 213.111C1875.87 211.023 1873.58 209.912 1871.45 208.564C1866.44 205.391 1861.28 202.431 1860.45 195.552C1860.14 192.874 1857.58 191.552 1855.57 190.036C1851.7 187.115 1846.74 185.491 1844.68 180.39C1844.13 179.014 1842.36 178.161 1841.24 176.99C1840.17 176.018 1839.24 174.901 1838.49 173.67C1837.28 171.355 1838.33 169.499 1840.98 168.767C1843.34 168.148 1843.88 166.709 1842.33 165.04C1841.05 163.502 1839.34 162.379 1837.42 161.814C1837.14 159.718 1834.85 158.712 1834.18 156.865C1834.9 158.714 1837.19 159.721 1837.42 161.814C1837 162.321 1836.45 162.704 1835.82 162.922C1835.2 163.139 1834.52 163.183 1833.88 163.049C1834.37 166.295 1833.72 169.438 1833.12 172.596C1832.86 173.979 1834.79 176.05 1832.55 176.686C1830.64 177.233 1830.42 174.698 1829.39 173.579C1828.99 173.211 1828.69 172.759 1828.49 172.257C1828.29 171.754 1828.21 171.213 1828.25 170.674C1825.85 170.825 1824.95 168.828 1823.76 167.386C1821.69 164.96 1819.88 162.255 1817.79 159.828C1816.79 158.814 1816.05 157.567 1815.65 156.201C1815.25 154.834 1815.19 153.389 1815.48 151.994C1814.74 151.135 1814.23 150.1 1813.99 148.988C1813.76 147.875 1813.82 146.722 1814.16 145.638C1814.87 142.939 1814.58 140.389 1811.93 138.702L1808.93 140C1809.68 144.014 1811.73 147.776 1811.07 152.048C1811.1 152.591 1811.25 153.12 1811.52 153.593C1813.54 158.471 1814.03 163.973 1817.59 168.251C1818.22 169.002 1818.15 170.302 1818.42 171.361C1815.21 170.845 1813.66 168.014 1811.39 166.171C1813.62 168.012 1815.21 170.845 1818.42 171.361C1820.5 175.34 1822.94 179.121 1825.71 182.658C1826.39 183.494 1827.21 184.418 1826.73 185.592C1825.59 188.189 1827.12 189.519 1828.86 191.057C1830.6 192.595 1830.05 198.616 1828 199.924C1824.07 202.444 1820.21 204.967 1816.48 207.822C1812.47 210.873 1811.88 214.147 1812.5 217.899C1813.13 221.419 1812.08 222.821 1808.81 223.454C1808.6 222.921 1808.46 222.357 1808.42 221.784C1809.04 217.01 1810.83 212.27 1808.73 207.412C1808.66 207.154 1808.64 206.884 1808.68 206.62C1808.72 206.355 1808.81 206.102 1808.95 205.876C1811.35 202.421 1811.22 198.379 1811.72 194.472C1812.5 189.288 1807.9 186.483 1806.78 182.01C1804.31 183.844 1805.15 187.153 1802.78 188.399C1800.08 186.617 1800 182.519 1796.17 182.194C1795.67 182.17 1795.17 182.044 1794.72 181.822C1794.26 181.601 1793.86 181.29 1793.53 180.907C1793.2 180.524 1792.95 180.078 1792.8 179.596C1792.65 179.114 1792.6 178.606 1792.65 178.104C1792.85 175.892 1792.36 172.717 1796.08 172.327C1796.53 172.26 1796.94 172.044 1797.26 171.714C1797.57 171.383 1797.76 170.956 1797.81 170.503C1796.54 169.837 1794.84 169.731 1794.44 168.014L1796.66 165.272C1798.02 164.407 1798.17 163.554 1796.67 162.69L1795.76 157.587C1799.2 155.648 1799.2 155.648 1797.19 152.085L1795.51 151.224L1795.91 147.127C1795.15 146.264 1793.42 146.46 1793.37 144.782C1794.31 143.746 1796.43 145.093 1796.8 143.087C1797.16 141.081 1795.88 140.717 1794.33 140.375C1793.26 140.137 1793.23 139.158 1793.28 138.23C1792.59 137.034 1793.17 135.806 1793.45 134.61C1793.77 133.067 1793.01 132.262 1791.59 132.03C1791.1 129.948 1790.7 127.835 1790.05 125.804C1789.6 124.374 1788.75 122.984 1786.92 124.279C1784.88 125.728 1783.23 125.264 1781.67 123.572C1781.25 123.1 1780.7 122.758 1780.09 122.589C1779.48 122.419 1778.83 122.428 1778.23 122.614C1777.35 122.81 1776.44 122.822 1775.55 122.649C1774.66 122.476 1773.82 122.122 1773.08 121.609C1768.99 118.178 1766.62 119.796 1764.52 123.672C1764.43 123.883 1764.3 124.073 1764.14 124.231C1763.97 124.39 1763.78 124.512 1763.56 124.592C1763.35 124.671 1763.12 124.705 1762.9 124.692C1762.67 124.679 1762.45 124.619 1762.24 124.515C1761.43 124.162 1760.4 123.833 1760.44 122.754C1760.64 118.774 1760.13 114.504 1764.45 112.085C1764.78 108.332 1766.09 106.104 1770.49 105.282C1774.64 104.506 1777.07 100.949 1778.24 96.5043C1778.63 95.4948 1778.63 94.3747 1778.24 93.3639C1777.85 92.3531 1777.1 91.5245 1776.13 91.0407C1775.06 90.3316 1773.78 90.0254 1772.5 90.1768C1771.23 90.3283 1770.06 90.9275 1769.18 91.8674C1767.6 93.3492 1766.09 94.9742 1763.6 94.5628C1763.63 91.0751 1762.8 87.1502 1768.2 86.4698C1770.04 86.2447 1770.35 84.248 1769.88 82.4805C1769.41 80.7131 1768.89 78.9434 1769.45 77.1911C1770.13 75.1538 1772.23 74.4879 1773.38 76.2183C1774.95 78.6204 1775.86 77.3386 1777.08 76.2345C1778.03 75.3732 1778.44 74.0673 1779.24 73.1988C1780.96 71.328 1782.69 68.8418 1785.89 70.7876C1786.8 70.3429 1786.86 69.4622 1787.01 68.6318C1784.29 66.814 1780.56 66.8774 1778.42 63.9709C1775.71 65.6309 1772.57 66.7468 1771.9 70.6336C1771.72 71.2461 1771.42 71.8153 1771.01 72.3058C1770.6 72.7963 1770.1 73.1976 1769.53 73.4846C1762.92 76.5141 1759.47 82.6509 1755.1 87.9056C1753.59 89.6936 1752.58 91.9008 1749.91 92.3883C1747.96 90.875 1746.09 91.3775 1744.55 92.908C1743.25 94.2055 1741.65 95.0005 1740.17 94.2661C1737.62 92.9794 1735.16 93.8024 1732.74 93.5922C1729.35 93.3 1727.73 94.7338 1725.8 96.5944C1725.29 97.1045 1724.77 97.6142 1724.23 98.1C1723.02 99.2042 1721.82 99.9486 1720.53 98.3745C1719.56 97.1642 1719.96 96.0207 1721.14 95.101C1721.84 94.5651 1722.67 94.0933 1722.61 92.9621C1721.39 91.5538 1720.4 92.541 1719.4 93.2602C1717.83 94.3475 1716.91 96.5128 1714.51 96.327C1714.62 95.2438 1714.97 94.197 1715.52 93.2582C1716.07 92.3194 1716.82 91.5107 1717.71 90.8873C1720.56 88.9663 1722.59 86.0558 1723.42 82.72C1723.65 81.7473 1724.17 80.8687 1724.92 80.2035C1725.66 79.5384 1726.59 79.119 1727.59 79.0023C1731.11 78.3586 1733.24 76.3915 1734.98 72.9868C1737.31 68.5476 1740.32 64.4954 1743.89 60.9734C1746.11 58.6826 1748.93 57.0518 1752.02 56.2615C1752.01 55.7121 1752.11 55.1659 1752.34 54.6648C1752.57 54.1637 1752.9 53.7209 1753.33 53.3704C1756.36 50.5862 1755.18 47.2611 1755.35 43.4199C1751.78 45.1311 1751.27 49.3047 1747.66 49.3627C1747.15 49.3586 1746.65 49.2085 1746.22 48.9302C1745.8 48.6519 1745.46 48.2569 1745.25 47.7921C1746.71 45.8394 1749.74 45.8114 1751.07 43.5961C1751.62 42.6577 1752.53 41.7014 1751.5 40.7325C1750.65 39.9472 1749.91 40.8882 1749.21 41.4126C1743.17 45.9472 1738.24 51.8142 1732.68 56.8951C1732.02 57.4913 1731.63 58.6238 1730.9 58.8558C1723.96 61.0203 1721.54 67.5442 1717.64 72.6009C1717.05 73.3051 1716.64 74.1382 1716.44 75.0319C1716.24 75.9256 1716.25 76.8547 1716.47 77.7432C1716.83 78.9934 1717.18 80.348 1716.46 81.4409C1714.02 85.1378 1711.78 89.0769 1708.75 92.2446C1707.22 93.8569 1705.72 95.1802 1705.19 97.364C1704.41 100.549 1702.64 103.407 1700.14 105.529C1697.1 108.173 1694.97 111.582 1692.31 114.535C1691.61 115.304 1690.66 116.095 1691.52 117.335C1691.15 117.916 1690.7 118.436 1690.17 118.874C1687.25 120.617 1686.8 120.375 1685.91 116.715C1682.93 117.466 1681.12 119.542 1679.63 121.819C1680.16 122.716 1680.74 122.826 1681.17 122.58C1682.52 121.935 1684.03 119.833 1685.24 121.904C1686.18 123.508 1684.08 124.779 1682.84 125.661C1677.95 129.363 1672.73 132.614 1667.25 135.374C1665.78 136.074 1664.09 136.196 1662.53 135.715C1663.33 131.962 1667.86 130.949 1668.97 127.211C1667.04 126.513 1665.93 127.924 1665.08 128.72C1660.94 132.614 1655.49 134.479 1651.25 138.181C1650.72 138.679 1650.05 139.014 1649.34 139.147C1644.13 139.79 1640.31 142.571 1637.19 146.607C1636.45 147.652 1635.5 148.529 1634.4 149.182C1629.63 151.638 1626.1 155.561 1622.29 159.063C1618.19 162.912 1614.15 166.81 1609.34 169.788C1608.89 170.097 1608.52 170.499 1608.24 170.967C1607.96 171.435 1607.78 171.958 1607.72 172.501C1607.05 172.689 1606.2 172.671 1606.19 173.682C1606.21 173.768 1606.26 173.845 1606.32 173.907C1606.38 173.97 1606.46 174.014 1606.54 174.037C1607.55 174.086 1607.57 173.214 1607.78 172.527C1608.14 172.573 1608.5 172.551 1608.85 172.462C1615.26 169.12 1621.95 166.048 1627.19 161.092C1633.78 154.816 1640.57 149.027 1648.53 144.597C1648.88 145.208 1649.07 146.089 1649.6 146.382C1652.26 147.825 1651.72 149.195 1649.43 149.991C1647.96 150.431 1646.61 151.206 1645.49 152.253C1644.37 153.3 1643.51 154.593 1642.97 156.029C1642.74 156.48 1642.56 156.955 1642.43 157.444C1645.26 159.222 1643.65 161.318 1643.36 163.642C1643.07 165.966 1645.14 164.147 1646.17 164.162L1649.44 164.262C1649.54 164.802 1649.63 165.33 1649.75 165.859C1650.7 170.266 1649.93 172.043 1645.63 172.789C1639.76 173.819 1636.57 177.305 1635.64 182.959C1635.39 184.424 1634.62 184.643 1633.55 184.881C1632.04 185.215 1630.69 185.906 1630.93 187.709C1631.17 189.511 1632.86 188.965 1633.97 189.438C1632.87 192.199 1630.19 192.639 1627.87 193.411C1624.92 194.431 1622.31 195.467 1620.39 198.271C1618.16 201.594 1613.85 201.699 1610.49 203.292C1605.84 205.498 1601.05 207.394 1596.03 209.571C1597.98 211.456 1600.08 211.686 1602.17 211.95C1602.44 211.952 1602.71 212.041 1602.92 212.205C1603.13 212.368 1603.29 212.597 1603.36 212.857C1603.6 213.729 1603 214.211 1602.36 214.541C1600.93 215.274 1599.11 214.988 1597.89 216.325C1597.28 217.005 1596.56 217.691 1597.11 218.613C1597.51 219.342 1598.37 219.233 1599.07 219.057C1602.25 218.246 1604.95 216.318 1607.96 215.126C1611.39 213.745 1614.56 211.608 1618.32 211.08C1619.13 213.039 1616.85 213.695 1617.16 215.199C1617.82 215.406 1618.66 215.388 1618.66 216.435C1618.65 216.551 1618.42 216.784 1618.29 216.778C1617.29 216.729 1617.32 215.917 1617.14 215.245C1615.67 215.174 1613.88 215.087 1613.34 216.689C1612.08 220.35 1608.99 222.387 1606.59 225.027C1605.89 225.601 1605.41 226.4 1605.23 227.288C1605.21 227.64 1605.28 227.992 1605.44 228.309C1605.76 228.895 1606.57 229.015 1606.82 228.655C1609.07 225.81 1613.51 226.409 1615.41 222.558C1617.02 219.286 1623.41 219.991 1625.54 223.223C1626.01 223.955 1626.77 224.713 1625.92 225.568C1625.37 226.146 1624.62 226.028 1623.88 225.911C1622.84 225.744 1622.31 224.288 1620.64 224.951C1620.79 227.529 1620.81 230.217 1623.81 231.571C1625.98 232.572 1625.57 233.983 1624.78 235.549C1623.92 237.579 1622.31 239.201 1620.29 240.077C1618.4 240.765 1617.96 242.151 1617.52 243.735C1614.16 246.212 1613.82 246.184 1609.04 243.115C1610.19 239.402 1613.95 237.654 1615.68 234.376C1616.78 232.629 1617.98 230.951 1619.29 229.352C1616.41 227.817 1614.28 229.028 1612.53 230.258C1610.69 231.377 1609.05 232.799 1607.68 234.466C1606.73 235.815 1605.56 236.933 1603.58 236.268C1601.92 235.71 1600.9 237.068 1599.78 237.875C1598.04 239.128 1596.41 240.526 1594.01 242.434C1597.9 242.076 1598.94 244.696 1600.37 246.87C1598.09 247.678 1595.68 248.062 1593.27 248.004C1593 247.77 1592.75 247.508 1592.54 247.224C1591.6 245.213 1589.73 245.715 1588.24 245.853C1584.17 246.412 1580.09 246.144 1575.97 246.422C1572.61 246.678 1569.24 245.759 1566.73 248.975C1566.46 249.216 1566.14 249.395 1565.79 249.498C1565.44 249.602 1565.07 249.628 1564.71 249.575C1559.17 248.772 1554.99 251.768 1550.53 254.343C1546.78 256.488 1543.54 259.471 1539.71 261.589C1537.53 262.797 1535.13 263.763 1533.23 265.555C1531.05 267.625 1529.13 270.3 1525.49 269.833C1525.12 269.824 1524.76 269.933 1524.45 270.144C1524.15 270.355 1523.92 270.657 1523.79 271.007C1522.66 273.476 1520.24 274.01 1518.04 274.729C1515.45 275.589 1512.96 276.737 1510.62 278.15C1506.45 280.646 1501.08 280.467 1497.44 284.164C1497.03 284.563 1496.04 284.468 1495.32 284.457C1493.26 284.427 1491.55 285.496 1489.69 286.057C1487.49 286.73 1485.63 289.059 1482.3 288.025C1485.61 285.001 1489.29 282.401 1493.24 280.286C1503.25 274.397 1514.95 271.369 1523.3 262.644C1523.73 262.305 1524.21 262.031 1524.71 261.828C1530.18 258.778 1535.41 255.298 1541.26 252.964C1541.6 252.811 1541.86 252.538 1542.01 252.2C1542.16 251.862 1542.17 251.481 1542.06 251.13C1541.51 250.487 1540.84 250.606 1540.09 250.698C1532.86 251.627 1526.78 256.194 1519.54 257.228C1517.99 257.602 1516.46 258.088 1514.97 258.682C1512.28 259.54 1509.34 260.27 1507.78 263.09C1507 264.506 1506.17 264.373 1504.69 263.871C1500.6 262.51 1496.44 261.006 1492.23 260.628C1485.28 260.001 1478.5 260.987 1472.47 265.009C1470.8 266.136 1468.85 266.767 1466.83 266.83C1463.53 266.906 1460.34 268.044 1457.73 270.076C1453.48 273.36 1448.55 272.993 1442.61 273.531C1447.21 268.892 1454 269.64 1457.59 263.987C1454.86 263.68 1453.12 264.934 1451.35 264.301C1450.21 263.908 1449.91 263.068 1450.74 262.283C1451.74 261.508 1452.81 260.842 1453.95 260.298C1458.34 257.743 1463.33 256.391 1467.52 253.36C1472.21 249.931 1477.31 247.084 1482.69 244.883C1485.4 243.794 1488.09 242.4 1489.37 239.182C1477.83 244.381 1466.45 249.831 1452.86 251.302C1454.58 249.059 1456.53 247.641 1456.79 245.932C1457.35 242.691 1459.44 241.408 1461.93 240.168C1463.05 239.544 1464.11 238.817 1465.1 237.996C1465.26 237.913 1465.4 237.798 1465.52 237.659C1465.64 237.519 1465.72 237.358 1465.77 237.185C1465.83 237.012 1465.84 236.83 1465.82 236.65C1465.8 236.47 1465.75 236.296 1465.66 236.138C1465.27 235.778 1464.76 235.582 1464.23 235.592C1463.23 235.544 1462.15 236.504 1461.47 235.633C1460.51 233.842 1463.29 232.755 1461.89 231.42C1460.78 230.331 1459.12 230.937 1457.74 231.394C1456.35 231.85 1455.04 232.508 1453.64 232.87C1450.2 233.739 1447.78 236.68 1444.55 237.629C1434.41 240.627 1425.08 245.386 1415.63 249.964C1412.35 251.55 1408.8 253.123 1404.84 253.268C1402.28 253.381 1399.8 254.258 1397.74 255.786C1395.13 257.706 1392.89 257.714 1390.39 255.651C1389.92 255.202 1389.36 254.854 1388.75 254.63C1388.14 254.406 1387.49 254.31 1386.85 254.349C1386.2 254.387 1385.57 254.559 1384.99 254.854C1384.41 255.148 1383.9 255.559 1383.48 256.061C1379.11 261.222 1372.78 260.928 1367.15 262.248C1366.54 262.475 1365.86 262.474 1365.25 262.245C1364.64 262.017 1364.13 261.577 1363.81 261.005C1362.76 258.698 1361.11 259.2 1359.22 259.771C1357.3 260.216 1355.41 260.817 1353.58 261.568C1350.49 263.082 1347.24 264.262 1344.28 266.061C1344.09 266.19 1343.87 266.279 1343.65 266.324C1343.42 266.369 1343.19 266.369 1342.96 266.324C1342.74 266.278 1342.52 266.188 1342.33 266.059C1342.14 265.93 1341.98 265.764 1341.85 265.571C1341.28 264.659 1341.7 263.843 1342.61 263.282C1342.94 263.125 1343.25 262.946 1343.56 262.746C1344.17 262.264 1344.56 261.632 1344.12 260.878C1343.91 260.581 1343.62 260.352 1343.28 260.218C1342.94 260.084 1342.58 260.051 1342.22 260.123C1340.21 260.293 1338.73 261.757 1336.65 262.063C1329.34 263.116 1321.82 263.357 1314.98 266.701C1314.53 266.923 1313.66 267.137 1313.46 266.918C1311.11 264.362 1308.02 266.248 1304.32 265.627C1308.01 261.525 1313.6 262.761 1316.27 258.983C1314.19 257.556 1312.17 257.621 1309.71 258.467C1305.83 259.849 1302.06 261.714 1297.9 262.187C1293.93 262.62 1290.04 263.606 1286.34 265.117C1284.89 265.698 1283.33 266.262 1281.55 264.606C1286.05 261.501 1291.11 259.293 1296.44 258.104C1299.46 257.529 1302.42 256.638 1305.39 255.793C1305.57 255.757 1305.74 255.68 1305.88 255.567C1306.03 255.455 1306.14 255.31 1306.22 255.145C1306.29 254.981 1306.33 254.8 1306.33 254.618C1306.32 254.436 1306.27 254.258 1306.19 254.098C1306.03 253.901 1305.82 253.743 1305.59 253.639C1305.36 253.535 1305.11 253.487 1304.85 253.499C1303.04 253.713 1301.14 254.645 1299.54 252.555C1301.32 251.35 1303.18 251.231 1304.72 250.166C1307.42 248.284 1310.33 247.681 1313.28 249.999C1314.66 251.077 1316.37 250.916 1318.01 250.67C1318.38 250.648 1318.73 250.493 1318.99 250.234C1319.25 249.974 1319.41 249.629 1319.43 249.261C1319.45 249.079 1319.43 248.895 1319.37 248.72C1319.32 248.545 1319.23 248.384 1319.11 248.246C1318.98 248.108 1318.84 247.997 1318.67 247.918C1318.5 247.84 1318.32 247.797 1318.14 247.792C1315.01 247.919 1312.69 246.365 1310.31 244.586C1309.29 243.794 1308.02 243.405 1306.73 243.494C1301.64 244.515 1296.26 243.581 1291.4 246.509C1288.25 248.415 1284.77 249.677 1280.57 248.532C1277.96 247.777 1274.23 247.131 1272.7 251.232C1272.24 252.432 1271.03 252.524 1269.92 252.517C1268.47 252.487 1267.02 252.77 1265.69 253.347C1259.07 256.318 1252.79 253.118 1245.15 252.888C1246.94 251.274 1249.24 250.357 1251.65 250.306C1254.37 250.064 1257.01 249.261 1259.4 247.949C1261.44 246.733 1263.74 246.023 1266.11 245.877C1268.93 245.758 1269.97 244.285 1269.8 241.625L1272.8 240.375C1277.79 243.117 1283.18 242.249 1287.99 240.784C1297.06 238.071 1305.92 234.674 1314.47 230.622C1319.7 228.107 1324.63 225.415 1330.46 224.534C1333.19 224.12 1330.6 221.807 1331.17 220.486C1331.42 220.23 1331.64 219.811 1331.93 219.744C1343.96 216.953 1355.64 212.959 1367.41 209.284C1384.24 204.028 1400.9 198.391 1417.18 191.549C1430.91 185.783 1444.28 179.149 1458.33 174.131C1458.4 175.233 1458.09 176.325 1457.44 177.219C1456.79 178.113 1455.85 178.753 1454.78 179.03C1448.41 181.175 1442.92 185.317 1436.34 187.011C1433.87 187.635 1432.28 189.92 1430.11 191.257C1425 194.406 1419.5 196.617 1414.14 199.183C1412.06 200.187 1410.36 201.152 1412.07 204.142C1413.31 206.307 1410.94 207.344 1409.34 207.906C1407.92 208.226 1406.46 208.3 1405.01 208.127C1403.06 208.114 1401.3 208.319 1401.14 210.836C1401.08 211.461 1400.86 212.059 1400.49 212.568C1400.12 213.076 1399.62 213.475 1399.05 213.723C1397.4 214.826 1395.87 216.088 1394.47 217.491C1391.51 220.255 1391.75 221.779 1395.34 223.442C1395.99 223.752 1396.67 224.018 1397.35 224.295C1401.4 226.003 1403.65 225.205 1405.36 220.984C1406.26 218.701 1407.48 217.016 1409.95 217.066C1413.68 217.153 1416.63 214.47 1420.43 214.619C1423.4 214.763 1421.96 211.576 1422.89 209.562C1425.85 212.299 1428.32 211.093 1431.18 209.336C1435.13 206.899 1439.06 204.309 1444.02 203.852C1446.78 203.639 1449.39 202.479 1451.39 200.568C1453.71 198.273 1457.05 198.272 1459.71 196.784C1471.3 190.448 1483.52 185.306 1494.79 178.396C1496.53 177.421 1498.34 176.569 1500.2 175.844C1500.87 175.55 1501.72 175.417 1502.19 176.138C1502.83 177.099 1502.11 177.808 1501.46 178.428C1501.22 178.698 1500.93 178.921 1500.6 179.085C1492.45 182.237 1485.57 187.754 1477.52 191.156C1472.93 193.31 1468.49 195.78 1464.23 198.55C1458.73 202.058 1453.02 205.234 1447.14 208.062C1438.82 211.823 1430.73 216.222 1422.45 220.148C1418.72 222.051 1414.74 223.443 1410.63 224.286C1411.57 225.035 1412.71 225.51 1413.91 225.66C1415.1 225.81 1416.32 225.63 1417.42 225.139C1423.23 223.175 1429.02 221.211 1434.73 218.998C1435.92 218.509 1436.74 216.932 1437.91 216.105C1439.7 214.82 1441.84 214.112 1444.04 214.076C1447.53 214.012 1450.14 212.277 1452.79 210.312C1455.78 208.131 1458.45 205.271 1462.71 205.338C1465.17 205.375 1466.34 202.408 1468.87 202.147C1469.88 202.044 1471.06 201.09 1471.74 202.437C1472.31 203.628 1471.46 204.459 1470.55 205.171C1469.34 206.182 1467.99 207.175 1466.76 208.256C1466.46 208.464 1466.24 208.778 1466.15 209.137C1466.07 209.496 1466.12 209.875 1466.3 210.199C1466.58 210.558 1466.99 210.803 1467.44 210.889C1467.89 210.975 1468.36 210.896 1468.76 210.667C1469.26 210.456 1469.71 210.136 1470.07 209.73C1472.99 206.242 1477.59 205.616 1481.19 203.29C1483.13 202 1486.04 202.117 1488.53 201.715C1493.57 200.912 1498.59 200.096 1502.39 196.187C1502.62 195.9 1502.96 195.715 1503.32 195.674C1503.69 195.633 1504.06 195.738 1504.35 195.967C1504.6 196.23 1504.77 196.559 1504.85 196.916C1504.92 197.274 1504.9 197.645 1504.77 197.988C1504.72 198.537 1504.49 199.054 1504.12 199.457C1503.74 199.861 1503.24 200.127 1502.7 200.214C1499 200.558 1496.9 203.806 1493.66 205.022C1493.35 205.1 1493.05 205.249 1492.8 205.457C1492.55 205.665 1492.35 205.927 1492.21 206.224C1492.08 206.52 1492.01 206.844 1492.02 207.17C1492.03 207.496 1492.11 207.816 1492.26 208.106C1492.89 209.299 1494.12 208.94 1495.16 208.514C1499.78 206.501 1504.04 203.754 1507.78 200.379C1509.75 198.648 1511.55 197.002 1514.42 197.292C1515.15 197.29 1515.87 197.139 1516.54 196.849C1517.2 196.56 1517.8 196.137 1518.3 195.608C1520.11 194.096 1522.01 192.696 1523.98 191.417C1524.78 191.002 1525.47 190.41 1526.01 189.685C1526.54 188.961 1526.9 188.124 1527.06 187.239C1527.29 185.683 1527.95 184.223 1528.96 183.016C1529.97 181.81 1531.29 180.904 1532.78 180.398C1534.14 183.662 1531.37 185.575 1530.85 187.865C1531.34 188.609 1532.08 188.785 1532.4 188.498C1535.46 186.011 1539.04 184.263 1542.88 183.388C1547.59 182.151 1550.15 177.343 1554.64 175.734C1555.29 175.407 1555.9 175.024 1556.48 174.591C1557.29 174.118 1558.21 173.663 1558.97 174.443C1559.98 175.492 1559.19 176.675 1558.51 177.341C1556.91 179.051 1555.11 180.572 1553.15 181.873C1548.98 184.439 1544.65 186.718 1540.39 189.117C1540.07 189.3 1539.73 189.655 1539.43 189.618C1533.65 188.896 1530.92 193.637 1527.26 196.611C1524.6 198.809 1522.55 201.594 1518.94 202.559C1516.73 203.15 1516.32 205.456 1516.26 207.489C1516.19 208.916 1519.88 212.514 1521.4 212.634C1523.36 212.798 1525.55 213.346 1527.24 212.021C1529.54 210.225 1532.17 210.329 1534.54 210.816C1539.07 211.744 1542.54 210.168 1545.98 207.555C1548.74 205.419 1552.16 204.314 1555.64 204.429C1556.54 204.472 1557.63 204.525 1557.71 205.692C1557.79 206.859 1556.85 207.104 1555.99 207.469C1550.05 209.962 1549.78 210.426 1550.03 215.427C1550.13 217.479 1551.09 217.514 1552.49 216.988C1554.53 216.221 1556.45 215.171 1558.2 213.868C1561.65 211.279 1565.22 208.835 1568.77 206.39C1569.55 205.895 1570.43 205.606 1571.35 205.55C1572.27 205.495 1573.19 205.675 1574.02 206.074C1576.51 207.102 1578.68 205.858 1580.94 205.56C1581.57 205.474 1582.16 205.178 1582.6 204.718C1583.04 204.259 1583.32 203.663 1583.39 203.027C1583.6 201.582 1584.33 200.264 1585.44 199.312C1585.87 198.984 1586.24 198.569 1586.51 198.093C1586.78 197.618 1586.94 197.092 1587 196.548C1587.06 196.005 1587 195.456 1586.83 194.935C1586.67 194.415 1586.39 193.935 1586.03 193.525C1584.39 191.713 1582.3 193.344 1580.63 194.357C1578.97 195.37 1577.6 197.001 1575.64 197.604C1574.46 197.989 1572.97 198.58 1572.3 197.071C1571.73 195.787 1573.07 195.2 1574.02 194.735C1579.44 192.02 1584.89 189.341 1590.39 186.63C1591.46 188.426 1589.84 189.011 1589.23 189.946C1588.84 190.556 1588.06 191.553 1588.56 191.833C1593.09 194.297 1588.59 196.661 1588.57 199.044C1588.54 199.555 1588.52 200.065 1588.37 201.152C1592.31 199.574 1595.98 198.112 1598.83 195.494C1603.38 191.306 1607.88 187.116 1613.27 183.981C1613.8 183.681 1613.98 182.783 1614.33 182.148C1619.64 180.474 1621.22 175.073 1624.71 171.578C1625.38 170.901 1624.54 169.302 1623.51 168.927C1622.48 168.551 1622.31 169.764 1622 170.575C1621.67 171.629 1620.95 172.129 1620.02 171.34C1617.49 169.193 1616.22 171.656 1613.39 172.961C1617.88 173.33 1617.93 175.17 1615.98 177.215C1615.37 177.871 1614.91 178.649 1614.62 179.496C1614.33 180.344 1614.22 181.243 1614.3 182.135L1610.01 182.718C1608.94 182.108 1609.61 181.163 1609.52 180.368C1609.13 176.86 1608.33 176.589 1605.11 178.468C1602.91 179.757 1600.98 181.465 1599.44 183.497C1598.76 184.571 1597.75 185.385 1596.55 185.809C1595.36 186.232 1594.06 186.24 1592.86 185.831C1594.24 183.699 1595.45 182.002 1594.08 179.249C1593.13 177.33 1596.25 174.469 1594.45 171.73C1594.78 171.122 1595.29 170.637 1595.92 170.347C1600.76 168.965 1603.11 164.601 1606.45 161.553C1608.58 159.586 1610.37 157.416 1613.16 156.237C1614.23 155.8 1614.93 154.473 1615.78 153.526C1616.07 153.298 1616.27 152.981 1616.36 152.625C1616.44 152.269 1616.41 151.895 1616.26 151.56C1616.11 151.227 1615.83 150.968 1615.48 150.839C1615.14 150.709 1614.76 150.719 1614.42 150.867C1610.49 152.526 1606.21 152.365 1602.19 153.1C1598.57 153.751 1596.03 156.559 1593.36 158.953C1596.01 161.838 1595.99 162.058 1593.22 164.157C1589.02 167.338 1583.98 168.362 1579.02 169.285C1577.25 169.629 1575.29 169.186 1573.41 170.63C1572.93 167.444 1574.77 166.544 1576.27 165.291C1583.73 159.115 1592.86 155.626 1600.77 150.194C1602.1 149.27 1603.52 148.443 1604.88 147.567C1605.5 147.178 1606.09 146.764 1606.71 146.388C1608.77 145.138 1610.81 147.749 1612.88 146.454C1611.71 143.582 1614.34 143.419 1615.78 142.535C1617.56 141.323 1619.49 140.353 1621.52 139.65C1623.56 139.051 1624.77 137.26 1626.64 136.664C1628.75 136.041 1630.69 134.941 1632.3 133.449C1635.44 130.333 1639.95 128.516 1641.57 123.849C1642.23 122.317 1643.46 121.101 1645 120.456C1652.29 117.087 1657.58 111.4 1662.25 105.183C1664.64 102.007 1668.67 101.016 1670.82 97.7472C1668.51 97.4957 1666.79 96.703 1668.53 94.1472C1670.27 91.5913 1668.74 91.2033 1666.68 91.0569C1665.95 93.2782 1665.3 95.5376 1664.51 97.7439C1663.71 99.9502 1662.51 100.52 1661.13 98.2668C1660.38 97.0672 1659.63 96.7522 1658.59 97.6437C1657.55 98.5353 1655.34 99.9752 1656.43 100.842C1659.31 103.157 1656.32 102.977 1655.57 103.825C1652.74 107.025 1649.02 108.974 1645.42 111.056C1643.96 111.904 1642.76 112.264 1643.05 114.57C1643.07 115.598 1642.71 116.596 1642.02 117.364C1641.34 118.131 1640.39 118.611 1639.36 118.706C1635.57 118.941 1632.56 120.621 1629.4 122.306C1623.87 125.272 1617.87 127.458 1613.3 131.994C1612.41 132.881 1611.43 133.962 1610.12 133.992C1603.05 134.161 1598.74 140.198 1592.55 142.201C1591.95 142.393 1591.62 143.261 1591.89 144.402C1595.53 144.288 1598.52 141.502 1602.52 140.939C1598.52 146.468 1591.6 150.424 1586.77 150.226C1586.32 148.134 1590.37 147.969 1588.76 145.123C1584.49 146.515 1580.49 148.636 1576.94 151.39C1573.6 153.868 1570.51 156.684 1567.34 159.392C1566.41 160.288 1565.18 160.791 1563.9 160.795C1562.98 160.751 1562.03 160.705 1561.53 159.808C1561.02 158.912 1561.61 158.137 1562.32 157.521C1563.54 156.417 1565.38 155.703 1565.65 153.658C1564.75 153.305 1563.77 153.255 1562.84 153.514C1561.91 153.774 1561.09 154.329 1560.51 155.095C1558.35 157.526 1555.19 158.106 1552.66 159.844C1550.88 161.072 1549.14 160.5 1547.9 158.823C1546.8 157.398 1547.4 155.484 1549.07 155.728C1552.54 156.221 1554.83 154.052 1557.53 152.799C1560.52 151.409 1562.58 148.682 1565.22 146.961C1569.71 144.026 1574.77 141.852 1578.53 137.917C1581.26 135.083 1586.03 133.744 1585.71 128.507C1585.76 128.243 1585.87 127.993 1586.03 127.777C1586.19 127.561 1586.4 127.385 1586.64 127.261C1591.41 124.747 1594.87 119.518 1601.39 120.299C1603.01 120.505 1604.84 119.396 1606.22 118.055C1608.54 115.841 1611.35 114.163 1613.27 111.418C1614.63 109.449 1616.45 107.234 1619.62 108.411C1620.69 108.823 1621.31 108.12 1621.68 107.208C1622.05 106.295 1622.72 105.072 1623.88 104.988C1628.32 104.692 1630.92 101.514 1633.85 98.8417C1635.9 96.9525 1636.18 95.3724 1634.65 93.8793C1633.11 92.3862 1631.33 92.8931 1629.84 94.2048C1625.44 97.9805 1620.73 101.375 1615.76 104.351C1613.03 106.034 1610.76 108.191 1606.93 106.983C1604.8 106.31 1602.44 107.928 1600.29 108.917C1598.14 109.906 1596.05 112.457 1593 110.519C1592.54 110.229 1591.29 110.924 1590.54 111.388C1580.09 117.86 1569.03 123.512 1558.28 129.33C1551.88 132.766 1545.79 136.658 1539.45 140.166C1535.98 142.079 1531.96 143.001 1528.73 145.462C1524.08 149.04 1518.21 149.128 1513.01 151.109C1512.74 151.213 1512.18 150.546 1511.76 150.234C1512.2 149.686 1512.55 148.935 1513.13 148.626C1519.31 145.219 1525.53 141.856 1531.76 138.537C1543.89 132.146 1556.85 127.214 1568.41 119.656C1567.91 119.236 1567.17 118.572 1567.78 118.102C1568.78 117.301 1569.09 118.514 1569.56 119.119C1572.05 118.464 1574.35 117.237 1576.27 115.535C1575.01 114.626 1574.72 113.611 1575.97 112.473C1576.39 112.192 1576.72 111.793 1576.92 111.326C1577.12 110.858 1577.18 110.342 1577.1 109.841C1576.74 106.824 1577.96 106.045 1582.03 106.382C1581.22 107.244 1580.66 108.306 1580.4 109.459C1580.14 110.612 1580.19 111.814 1580.55 112.94C1581.13 112.859 1581.69 112.662 1582.2 112.358C1582.7 112.055 1583.14 111.652 1583.48 111.174C1592.24 107.169 1600.7 102.525 1608.77 97.2788C1617.91 91.3476 1627.07 85.3711 1636.84 80.5986C1642.35 77.8524 1647.63 74.6744 1652.64 71.0942C1652.67 70.7798 1652.76 70.4747 1652.92 70.2013C1653.08 69.928 1653.29 69.6934 1653.55 69.5151C1653.81 69.3367 1654.11 69.219 1654.42 69.1708C1654.73 69.1225 1655.05 69.1449 1655.35 69.2364C1655.41 69.2565 1655.48 69.2632 1655.54 69.2558C1655.61 69.2485 1655.67 69.2273 1655.73 69.1938C1655.79 69.1602 1655.84 69.1151 1655.87 69.0612C1655.91 69.0074 1655.94 68.9462 1655.95 68.8815C1656.24 66.965 1657.65 66.824 1659.17 66.8628C1660.8 66.3112 1662.31 65.4701 1663.63 64.3803C1665.11 61.6259 1667.06 62.3131 1669.1 63.6447C1675.42 61.7411 1680.7 57.6817 1686.68 55.075C1686.68 54.6345 1686.78 54.2001 1686.96 53.8009C1687.15 53.4016 1687.42 53.0468 1687.75 52.7601C1688.09 52.4734 1688.48 52.2615 1688.9 52.1386C1689.33 52.0157 1689.77 51.9846 1690.21 52.0475C1696.37 50.3339 1701.63 46.6922 1707.37 44.0626C1710.94 42.4326 1714.88 41.3206 1717.46 38.2239C1722.8 31.8067 1730.99 30.9357 1737.75 27.3664C1738.36 27.047 1739.46 27.6584 1740.32 27.8282C1740.95 29.7543 1742.97 30.1781 1744.24 31.4372C1745.02 32.2197 1746.12 32.924 1745.49 34.0916C1744.87 35.2592 1743.33 36.5687 1741.94 35.4432C1740.1 33.9471 1739.04 34.7563 1737.81 35.9991C1733.19 40.6254 1727.53 43.8988 1722.43 47.9086C1720.74 49.2455 1718.64 48.8881 1716.93 50.0383C1707.56 56.2751 1698.87 63.4925 1691.03 71.5684C1690.4 72.2011 1689.87 73.4313 1689.23 73.4816C1684.56 73.8719 1683.3 78.4517 1680.18 80.6965C1679.57 81.1024 1679.1 81.696 1678.85 82.3885C1677.68 87.4374 1674.1 91.1953 1671.91 95.6948C1674.52 95.1348 1676.75 94.1497 1677.57 91.3168C1677.76 90.804 1678.05 90.3388 1678.44 89.9551C1678.83 89.5714 1679.29 89.2789 1679.81 89.0989C1684.93 86.8811 1689.59 83.3268 1692.21 78.9062C1695.8 72.8115 1701.7 69.9798 1706.56 65.714C1710.35 62.4088 1714.36 59.2529 1717.76 55.4286C1718.99 54.0111 1720.51 52.0723 1723.28 52.0087C1723.05 55.1498 1720.01 56.0608 1719.12 58.2974C1719.47 58.5353 1719.87 58.9268 1719.98 58.8506C1725.41 55.4732 1731.54 52.9672 1734.96 47.0149C1735.26 46.3524 1735.73 45.7785 1736.32 45.3478C1743.25 41.566 1748.2 35.3508 1754.46 30.8159C1755.11 30.498 1755.81 30.2843 1756.52 30.1826C1756.24 31.4196 1756.38 32.7149 1756.91 33.8651C1756.38 32.7149 1756.24 31.4196 1756.52 30.1826C1756.91 28.7882 1757.67 27.5254 1758.72 26.5279C1759.77 25.5304 1761.07 24.8353 1762.48 24.5163C1762.93 24.4341 1763.39 24.4788 1763.81 24.6452C1764.24 24.8116 1764.6 25.0932 1764.88 25.4581C1765.01 25.5814 1765.12 25.7331 1765.19 25.9024C1765.26 26.0716 1765.29 26.2543 1765.28 26.4372C1765.27 26.6201 1765.22 26.7988 1765.14 26.9605C1765.05 27.1222 1764.93 27.263 1764.78 27.3726C1762.14 28.9426 1763.58 29.6405 1765.31 30.3872C1766.77 31.0161 1768.78 30.8806 1769.43 32.6339C1770.23 34.9983 1772.13 35.8579 1773.87 37.0821C1775.45 37.998 1776.68 39.406 1777.37 41.0898C1778.7 41.34 1779.49 42.0297 1779.27 43.5076C1780.67 45.1319 1781.83 46.951 1782.72 48.9082C1788.22 52.129 1789.25 56.2027 1785.73 61.0453C1785.6 62.1771 1785.87 63.3207 1786.5 64.2675C1787.14 65.2142 1788.09 65.9009 1789.19 66.2023C1790.61 66.8525 1792 67.5874 1793.33 68.403C1793.61 65.672 1791.72 64.6267 1789.69 63.6559C1788.86 63.2552 1788.06 62.6468 1788.49 61.5857C1788.67 61.0347 1789.05 60.572 1789.56 60.2887C1790.06 60.0055 1790.66 59.9221 1791.22 60.055ZM1764.55 112.078C1764.62 112.732 1764.65 113.432 1765.47 113.588C1765.63 113.596 1766.06 113.198 1766.03 113.033C1765.9 112.213 1765.2 112.156 1764.55 112.078ZM1771.61 78.8189C1771.49 78.8133 1771.33 78.9453 1771.2 79.0203L1771.42 79.4614C1771.57 79.4687 1771.81 79.585 1771.86 79.4828C1772.12 79.2045 1772.07 78.9226 1771.61 78.8189ZM1374.89 213.135C1374.81 213.03 1374.71 212.941 1374.6 212.874C1374.49 212.807 1374.37 212.763 1374.24 212.745C1374.11 212.727 1373.98 212.735 1373.85 212.768C1373.72 212.802 1373.61 212.86 1373.5 212.94C1373.27 213.08 1373.23 213.509 1373.11 213.817C1373.23 214.049 1373.44 214.228 1373.69 214.317C1373.93 214.406 1374.21 214.4 1374.45 214.3C1374.99 214.059 1375.26 213.584 1374.88 213.077L1374.89 213.135ZM1380.82 210.666C1380.78 210.5 1380.7 210.345 1380.59 210.214C1380.47 210.082 1380.34 209.977 1380.18 209.906C1380.02 209.835 1379.85 209.8 1379.68 209.803C1379.51 209.806 1379.34 209.847 1379.18 209.924C1378.42 210.248 1377.34 210.451 1377.6 211.604C1377.77 212.379 1378.59 212.477 1379.3 212.36C1380.28 212.152 1380.99 211.721 1380.81 210.608L1380.82 210.666ZM1546.04 214.547C1544.67 212.155 1543.15 211.977 1541.84 214.6C1541.45 215.388 1540.9 216.083 1540.21 216.634C1539.53 217.186 1538.73 217.581 1537.88 217.793C1535.16 218.739 1532.61 220.124 1530.33 221.894C1526.46 225.044 1521.56 226.272 1517.62 229.233C1516.75 229.904 1515.69 230.28 1514.59 230.308C1511.57 230.231 1510.41 232.234 1508.69 234.256C1506.22 237.149 1503.44 239.968 1499.54 241.326C1496.68 242.351 1493.7 243.312 1491.51 245.59C1490.89 246.257 1490.14 247.024 1490.71 247.947C1491.28 248.87 1492.29 248.733 1493.2 248.509C1494.1 248.285 1495.22 248.223 1495.74 247.644C1498.74 244.3 1503.22 244.4 1506.95 242.79C1509.47 241.748 1512.01 240.848 1513.95 238.79C1514.44 238.267 1515.17 237.5 1515.67 237.536C1520.09 237.808 1523.39 234.665 1527.47 233.874C1531.25 233.138 1534.66 231.826 1536.98 228.344C1538.81 225.832 1541.36 223.929 1544.29 222.883C1546.14 222.135 1547.31 220.89 1547.06 218.819C1547.18 217.311 1546.84 215.803 1546.09 214.492L1546.04 214.547ZM1584.51 228.041C1583.99 226.562 1582.78 227.282 1581.77 227.443C1576.51 228.258 1571.41 229.918 1566.04 230.031C1565.51 230.005 1564.6 230.089 1564.51 230.34C1562.84 234.993 1557.84 234.565 1554.76 236.916C1551.46 239.42 1548.24 242.044 1544.87 244.451C1544.72 244.559 1544.59 244.677 1544.46 244.803C1543.8 245.504 1543.34 246.319 1543.89 247.218C1544.3 247.901 1545.02 247.912 1546.59 247.489C1548.62 247.794 1550.69 247.534 1552.57 246.739C1554.46 245.944 1556.08 244.643 1557.28 242.982C1558.86 240.813 1560.83 239.665 1563.82 240.751C1564.95 241.135 1566.17 241.21 1567.34 240.969C1568.52 240.727 1569.61 240.178 1570.5 239.376C1574.45 235.892 1579.06 233.359 1583.17 230.116C1583.92 229.466 1584.93 228.98 1584.56 227.938L1584.51 228.041ZM1590.09 160.854C1589.74 160.86 1589.4 160.979 1589.13 161.195C1588.85 161.411 1588.66 161.71 1588.57 162.048C1588.41 162.738 1588.89 163.006 1589.5 162.791C1590.1 162.576 1590.87 162.299 1590.8 161.411C1590.84 161.123 1590.41 160.951 1590.2 160.766L1590.09 160.854ZM1714.9 47.7187C1718.81 46.0701 1721.45 42.674 1725.37 41.1658C1727.22 40.4528 1727.45 39.2893 1727.45 35.4512C1722.23 37.885 1718.34 41.9886 1713.67 44.9489C1712.18 45.9127 1710.58 46.6833 1708.9 47.2421C1704.35 48.72 1700.17 50.8783 1697.56 55.9974C1704.71 54.9012 1709.24 50.0964 1714.9 47.7187ZM1679.95 65.333C1683.16 65.4705 1686.33 64.6663 1689.09 63.0193C1689.85 62.579 1690.62 61.7441 1690.19 60.816C1689.76 59.888 1688.69 59.9059 1687.88 60.4252C1686.4 61.4294 1684.68 62.0059 1682.89 62.0912C1682.08 62.0997 1681.29 62.4286 1680.72 63.0073C1680.14 63.586 1679.81 64.3684 1679.8 65.1864C1677.34 64.7999 1675.73 66.5359 1673.93 67.6352C1662.67 74.4986 1650.96 80.6311 1640.16 88.2497C1638.58 89.3359 1636.07 90.3777 1637.62 92.7787C1639.33 95.4085 1641.92 93.4059 1643.31 92.3681C1647.53 89.2462 1652.18 86.8661 1656.51 83.9469C1658.68 82.6301 1660.93 81.4493 1663.24 80.4114C1668.74 77.5954 1672.64 72.6321 1677.98 69.5994C1678.7 69.1676 1679.27 68.5297 1679.62 67.7687C1679.97 67.0077 1680.09 66.159 1679.95 65.333ZM1672.95 84.766C1673.61 84.0305 1674.45 82.8265 1673.21 81.9641C1672.37 81.3651 1671.52 82.0684 1670.98 82.8796C1668.48 86.5268 1664.5 88.009 1660.93 90.0926C1656.07 92.7898 1651.71 96.3046 1648.05 100.483C1649.74 102.17 1650.83 101.048 1651.75 100.441C1653.12 99.553 1654.35 98.4637 1655.39 97.2097C1656.72 95.4915 1658.39 94.0738 1660.31 93.0498C1662.22 92.0259 1664.33 91.4189 1666.49 91.269C1668 88.4692 1670.87 86.9917 1672.95 84.766ZM1670.93 97.6943C1671.22 97.4484 1671.46 97.1455 1671.63 96.8039C1671.8 96.4624 1671.91 96.0893 1671.93 95.7075C1671.6 95.923 1671.34 96.2168 1671.16 96.5616C1670.98 96.9065 1670.89 97.2914 1670.89 97.681L1670.93 97.6943ZM1686.44 94.2816C1685.92 93.9912 1685.3 93.915 1684.72 94.069C1684.14 94.2231 1683.64 94.5954 1683.33 95.108C1680.54 98.4621 1675.4 99.8301 1674.64 105.05C1674.52 105.94 1673.41 106.375 1672.52 106.541C1671.63 106.707 1670.54 106.724 1670.08 107.585C1667.75 111.66 1663.48 112.919 1659.77 115.065C1658.2 115.99 1656.87 117.272 1655.88 118.808C1654.49 121.067 1653.2 123.086 1650.27 123.293C1649.9 123.361 1649.58 123.566 1649.36 123.865C1644.8 130.088 1637.37 132.869 1631.67 138.594C1634.99 138.317 1638.18 137.159 1640.91 135.238C1645.43 132.471 1650.49 130.709 1655.74 130.071C1656.99 129.835 1658.11 129.164 1658.9 128.177C1661.32 125.712 1664.2 123.763 1667.39 122.447C1670 121.306 1672.69 119.936 1672.92 116.365C1673.02 115.921 1673.21 115.503 1673.47 115.136C1673.74 114.769 1674.08 114.46 1674.47 114.23C1675.6 113.65 1676.55 112.781 1677.23 111.712C1677.91 110.644 1678.29 109.414 1678.34 108.148C1678.37 107.129 1678.8 106.162 1679.53 105.446C1680.25 104.73 1681.23 104.321 1682.25 104.302C1683.34 104.18 1684.87 103.196 1684.16 102.301C1681.8 99.3836 1684.18 98.1384 1685.7 96.4907C1686.04 96.2389 1686.28 95.8934 1686.41 95.4994C1686.54 95.1054 1686.55 94.681 1686.44 94.2816ZM1686.84 115.085C1686.05 115.256 1685.98 115.95 1685.83 116.571C1686.46 116.462 1687.16 116.403 1687.35 115.633C1687.42 115.497 1687.02 115.058 1686.89 115.087L1686.84 115.085ZM1708.71 79.7982C1708.25 80.9389 1707.79 82.2773 1708.89 83.296C1709.43 83.8109 1710.26 83.3623 1710.9 83.0677C1712.26 82.4007 1713.59 81.5348 1712.75 79.7842C1711.9 78.0336 1712.81 76.6938 1713.17 74.664C1709.86 75.5505 1709.53 77.8604 1708.76 79.8004L1708.71 79.7982ZM1752 56.214C1751.48 59.5847 1748.52 61.0467 1746.42 63.1663C1744.12 65.4742 1741.28 67.3717 1740.21 71.4951C1739.75 71.6711 1739.41 71.8288 1740.1 71.9205C1739.52 72.881 1739.86 73.0719 1740.2 72.7511C1740.44 72.4989 1740.63 72.2046 1740.77 71.8829C1740.82 71.7738 1740.87 71.659 1740.9 71.5404C1746.74 68.6479 1750.1 64.1936 1753.53 59.9167C1754.79 58.4888 1754.18 56.7732 1752.05 56.2162L1752 56.214ZM1749.27 76.1443C1748.46 78.0356 1746.72 79.1493 1745.04 80.2774C1744 81.0058 1743.04 81.8402 1742.17 82.7672C1741.57 83.3895 1740.79 84.2122 1741.79 85.075C1742.42 85.6054 1743.06 85.1362 1743.72 84.7261C1745.87 83.4348 1748.09 82.2629 1750.29 81.0435L1750.87 81.5368C1750.8 82.0725 1750.82 82.616 1750.93 83.1448C1751.17 83.7843 1751.8 83.7102 1752.09 83.201C1753.34 81.6245 1754.2 79.7785 1754.61 77.81C1755.45 71.57 1758.81 66.2896 1760.99 60.5801C1761.57 59.05 1762.3 57.5962 1762.93 56.0799C1763.31 55.1331 1764.13 53.9165 1762.5 53.419C1762.23 53.3546 1761.95 53.3463 1761.67 53.3948C1761.4 53.4433 1761.14 53.5474 1760.91 53.7008C1760.67 53.8542 1760.48 54.0536 1760.32 54.2866C1760.17 54.5196 1760.07 54.7812 1760.02 55.0554C1757.93 62.8161 1752.43 68.8419 1749.32 76.1465L1749.27 76.1443ZM1803.18 130.393C1803.77 128.678 1805.19 127.071 1803.85 124.611C1801.88 126.271 1800.08 127.569 1800.58 130.268L1803.18 130.393ZM1805.79 150.955C1808.47 148.142 1808.52 147.167 1806.12 143.993C1803.72 147.644 1803.68 148.085 1805.79 150.955ZM1811.07 109.433C1811.96 106.162 1808.11 103.929 1809.17 100.63C1807.53 98.6902 1805.34 97.2877 1802.9 96.6048C1802.67 98.664 1802.43 100.723 1802.2 102.782C1803.55 104.696 1805.78 105.816 1806.86 107.985C1807.77 109.902 1809.5 109.509 1811.12 109.436L1811.07 109.433ZM1800.11 115.497C1800.95 113.212 1797.3 113.931 1796.61 112.49C1797.19 109.343 1800.44 107.849 1800.48 104.711L1798.79 105.013C1798.74 100.846 1798.76 96.7883 1797.05 92.9025C1798.77 96.7889 1798.75 100.847 1798.79 105.013C1796.55 106.515 1794.97 108.805 1794.34 111.427C1793.14 115.3 1796.26 117.881 1796.41 121.285C1796.47 122.718 1797.72 123.756 1799.77 124.029C1799.72 121.061 1799.13 118.323 1800.17 115.5L1800.11 115.497ZM1800.77 83.9761C1799.54 82.94 1798.13 82.135 1796.61 81.5996C1796.38 84.1937 1799.05 85.2069 1799.67 87.4C1799.73 87.9507 1799.92 88.4784 1800.23 88.9393C1799.92 88.4784 1799.73 87.9507 1799.67 87.4C1800.81 87.6998 1801.5 88.233 1800.9 89.5299L1801.08 89.1781C1800.51 91.7907 1799.54 94.5003 1802.31 96.2971C1799.54 94.5003 1800.51 91.7907 1801.09 89.1787C1804.43 89.8289 1805.89 92.8072 1808.02 94.8992C1809.98 96.8313 1811.84 98.643 1815.82 99.0915C1809.44 94.4212 1806.52 87.8247 1800.77 83.9761ZM1822.42 110.262C1818.67 108.918 1816.54 105.081 1812.96 103.338C1813.36 106.602 1813.82 109.741 1817.44 111.3C1818.19 111.635 1818.85 112.136 1819.37 112.767C1819.89 113.397 1820.26 114.139 1820.45 114.935C1820.77 116.695 1821.26 117.452 1823.18 117.219C1824.15 117.091 1824.64 118.197 1824.72 119.12C1825.02 122.204 1826.98 123.428 1829.76 123.795L1830.93 125.654L1829.76 123.795C1831.96 122.355 1829.59 120.6 1830.09 119.042C1829.75 117.012 1828.85 115.116 1827.5 113.566C1826.14 112.016 1824.39 110.872 1822.42 110.262ZM1833.23 119.369L1832.09 120.372L1833.23 119.369ZM1836.41 127.176C1836.4 127.466 1836.39 127.756 1836.37 128.058C1836.39 127.756 1836.4 127.466 1836.41 127.176ZM1840.99 160.358C1841.67 158.472 1841.02 157.464 1839.46 156.958C1839.23 156.877 1838.65 157.186 1838.64 157.337C1838.55 159.007 1839.64 159.7 1840.99 160.358ZM1828.29 170.583C1830.52 170.865 1831.68 170.049 1831.45 167.619C1831.25 165.469 1831.25 163.329 1832.77 161.542C1831.81 160.538 1830.93 159.448 1830.15 158.287C1829.19 156.53 1829.16 154.854 1831.67 154.29L1833.83 155.08L1833.9 155.374C1835.07 155.152 1836.41 155.717 1837.76 154.677C1836.26 150.924 1835.21 147.009 1834.62 143.011C1834.29 140.401 1833.42 137.94 1834.63 135.161C1835.25 133.76 1834.38 131.66 1834.19 129.941C1834.57 130.039 1834.96 130.059 1835.35 129.997C1834.96 130.059 1834.57 130.039 1834.19 129.941C1834.11 129.692 1833.97 129.471 1833.77 129.304C1833.57 129.137 1833.33 129.032 1833.07 129.003C1831.28 131.009 1832.85 133.644 1831.72 135.997C1828.07 135.564 1829.51 130.959 1826.5 129.545C1825.01 132.695 1826.57 135.364 1828.19 137.013C1831.38 140.319 1831.31 144.677 1832.38 148.497C1832.94 150.513 1834.28 152.706 1833.85 155.081L1831.7 154.291C1830.22 152.37 1828.96 149.506 1826.52 153.563C1826.03 154.377 1824.92 153.718 1824.31 152.933C1823.21 151.519 1822.12 150.128 1820.95 148.723C1818.62 148.947 1815.65 148.082 1815.46 151.946C1821.84 156.434 1826.39 163.065 1828.29 170.629L1828.29 170.583ZM1818.97 137.241C1820.34 137.412 1820.09 139.737 1819.19 141.031C1818 142.741 1817.2 144.424 1818.15 146.656L1821.7 145.212C1821.45 146.363 1821.21 147.514 1820.96 148.665C1821.21 147.514 1821.45 146.363 1821.7 145.212C1823.41 142.085 1820.69 138.778 1822.06 135.634C1822.12 135.25 1822.13 134.862 1822.12 134.474C1822.13 134.862 1822.12 135.25 1822.06 135.634C1819 133.811 1816.93 131.431 1817.11 127.567C1817.04 126.513 1816.87 125.468 1816.59 124.448C1812.51 124.251 1812.52 124.251 1812.21 127.853C1812.17 128.712 1811.95 129.55 1811.82 130.405C1814.26 132.616 1814.61 136.751 1818.97 137.287L1818.97 137.241ZM1809.48 162.368C1807.44 162.269 1807.52 161.204 1808.06 159.973C1809.23 157.192 1808.93 154.828 1806.45 152.917C1803.49 154.309 1802.32 156.207 1804.49 159.242C1805.06 160.026 1805.41 161.008 1804.62 161.656C1802.98 163.019 1803.05 164.22 1804.42 165.682C1806.02 167.353 1807.24 166.249 1808.58 165.372C1808.91 165.232 1809.26 165.151 1809.61 165.131C1811.52 162.781 1811.53 162.526 1809.48 162.322L1809.48 162.368ZM1814 205.248C1815.15 205.385 1815.56 204.637 1815.6 203.662C1815.61 203.484 1815.59 203.305 1815.53 203.136C1815.47 202.968 1815.38 202.814 1815.25 202.686C1815.13 202.557 1814.98 202.457 1814.81 202.392C1814.65 202.326 1814.47 202.298 1814.29 202.308C1813.93 202.314 1813.59 202.459 1813.34 202.712C1813.09 202.965 1812.95 203.305 1812.94 203.661C1812.99 204.362 1813.13 205.136 1814 205.248ZM1784.51 108.369C1782.74 112.017 1781.06 116.029 1783.52 120.161C1783.8 120.524 1784.18 120.791 1784.62 120.927C1785.05 121.063 1785.52 121.06 1785.95 120.918C1786.67 120.833 1787.36 120.604 1787.99 120.245C1788.62 119.886 1789.16 119.404 1789.6 118.828C1790.04 118.251 1790.35 117.593 1790.53 116.892C1790.7 116.191 1790.74 115.461 1790.62 114.747C1790.29 113.5 1790.23 112.197 1790.44 110.924C1790.65 109.651 1791.13 108.437 1791.84 107.363C1788.83 107.241 1785.97 105.357 1784.51 108.369ZM1786.44 73.5707C1785.8 75.7843 1784.46 78.1272 1787.55 79.6492C1787.53 77.5196 1788.72 75.2512 1786.44 73.5243L1786.44 73.5707Z" fill="#5D568B"/>
</svg>
