<svg width="108" height="108" viewBox="0 0 108 108" fill="none" xmlns="http://www.w3.org/2000/svg">
<path d="M54 108C24.1766 108 0 83.8234 0 54C0 24.1766 24.1766 0 54 0C83.8234 0 108 24.1766 108 54C108 83.8234 83.8234 108 54 108Z" fill="white"/>
<path d="M45.3299 83.9999C46.0301 84.0013 46.7237 83.8642 47.3708 83.5964C48.0178 83.3287 48.6054 82.9356 49.0999 82.4398L74.4399 57.0999C75.4378 56.0989 75.998 54.7432 75.998 53.3298C75.998 51.9165 75.4378 50.5609 74.4399 49.5599L49.92 25.0499C48.9201 24.0501 47.564 23.4883 46.1499 23.4883C44.7359 23.4883 43.3798 24.0501 42.3799 25.0499C41.3801 26.0498 40.8184 27.4058 40.8184 28.8198C40.8184 30.2338 41.3801 31.59 42.3799 32.5898L63.1199 53.3298L41.5599 74.8999C40.8141 75.6453 40.3061 76.5952 40.1002 77.6294C39.8944 78.6636 39.9999 79.7356 40.4035 80.7098C40.8071 81.684 41.4907 82.5167 42.3676 83.1023C43.2445 83.6879 44.2754 84.0003 45.3299 83.9999V83.9999Z" fill="#383838"/>
</svg>
