<svg width="108" height="109" viewBox="0 0 108 109" fill="none" xmlns="http://www.w3.org/2000/svg">
<path d="M54 108.027C83.8234 108.027 108 83.8507 108 54.0273C108 24.204 83.8234 0.0273438 54 0.0273438C24.1766 0.0273438 0 24.204 0 54.0273C0 83.8507 24.1766 108.027 54 108.027Z" fill="white"/>
<path d="M62.6701 84.0272C61.9699 84.0286 61.2763 83.8915 60.6292 83.6238C59.9822 83.356 59.3946 82.9629 58.9001 82.4672L33.5601 57.1272C32.5622 56.1262 32.002 54.7705 32.002 53.3572C32.002 51.9438 32.5622 50.5882 33.5601 49.5873L58.08 25.0773C59.0799 24.0774 60.436 23.5156 61.8501 23.5156C63.2641 23.5156 64.6202 24.0774 65.6201 25.0773C66.6199 26.0771 67.1816 27.4331 67.1816 28.8472C67.1816 30.2612 66.6199 31.6173 65.6201 32.6172L44.8801 53.3572L66.4401 74.9272C67.1859 75.6727 67.6939 76.6225 67.8998 77.6567C68.1056 78.691 68.0001 79.763 67.5965 80.7372C67.1929 81.7114 66.5093 82.544 65.6324 83.1296C64.7555 83.7153 63.7246 84.0277 62.6701 84.0272V84.0272Z" fill="#383838"/>
</svg>
