<?xml version="1.0" encoding="UTF-8" standalone="no"?>
<svg
   width="572"
   height="769"
   viewBox="0 0 572 769"
   fill="none"
   version="1.1"
   id="svg28"
   sodipodi:docname="buku_kiri.svg"
   inkscape:version="1.1.1 (3bf5ae0d25, 2021-09-20)"
   xmlns:inkscape="http://www.inkscape.org/namespaces/inkscape"
   xmlns:sodipodi="http://sodipodi.sourceforge.net/DTD/sodipodi-0.dtd"
   xmlns="http://www.w3.org/2000/svg"
   xmlns:svg="http://www.w3.org/2000/svg">
  <defs
     id="defs32" />
  <sodipodi:namedview
     id="namedview30"
     pagecolor="#ffffff"
     bordercolor="#666666"
     borderopacity="1.0"
     inkscape:pageshadow="2"
     inkscape:pageopacity="0.0"
     inkscape:pagecheckerboard="0"
     showgrid="false"
     height="767px"
     inkscape:zoom="1.0130548"
     inkscape:cx="280.83377"
     inkscape:cy="383.00001"
     inkscape:window-width="1920"
     inkscape:window-height="1011"
     inkscape:window-x="0"
     inkscape:window-y="0"
     inkscape:window-maximized="1"
     inkscape:current-layer="svg28"
     width="562px" />
  <path
     d="m 509.073,339.831 c -1.42,-0.37 -1.58,-1.94 -1.82,-3.34 -1.14,-6.61 -0.13,-13.3 -0.82,-19.86 -0.74,-7.09 2,-14.16 0,-21.08 -1.15,-4.08 0.31,-7.94 -0.06,-11.75 -1.25,-12.47 -0.59,-24.93 -0.41,-37.37 0.13,-8.59 -0.48,-17.34 0.84,-25.74 1.69,-10.74 -1.67,-21.2 -0.34,-31.79 0.14,-1.11 -0.51,-2.36 -0.91,-3.51 -0.4,-1.15 -0.77,-2.57 0.4,-3.39 2.89,-2 2.51,-4.78 1.56,-7.27 -1.81,-4.7 0,-9.87 -2.24,-14.48 -0.36,-0.72 0.5,-2.07 0.83,-3.11 0.71,-1.864 0.71,-3.925 0,-5.79 -1.07,-2.45 -1.32,-4.48 0.5,-6.82 0.322,-0.384 0.557,-0.835 0.688,-1.319 0.131,-0.485 0.155,-0.992 0.07,-1.487 -0.084,-0.494 -0.276,-0.965 -0.56,-1.378 -0.285,-0.414 -0.656,-0.76 -1.088,-1.016 -1.7,-1.24 -1.69,-2.95 -1.07,-4.64 1.8,-4.596 1.8,-9.703 0,-14.3 -0.314,-1.064 -0.338,-2.193 -0.07,-3.27 1.74,-11.13 2.71,-22.2996 1.36,-33.5696 -0.23,-2 -0.91,-3.1701 -3.09,-3.3401 -0.376,0.0059 -0.749,-0.0653 -1.096,-0.2091 -0.347,-0.1438 -0.661,-0.3572 -0.922,-0.6271 -0.262,-0.2698 -0.465,-0.5905 -0.598,-0.942 -0.133,-0.3515 -0.192,-0.7265 -0.174,-1.1018 0,-1.91 1.07,-2.9099 3,-2.9399 0.371,0.0389 0.746,-0.0065 1.097,-0.1327 0.351,-0.1262 0.67,-0.33 0.931,-0.5962 0.262,-0.2663 0.46,-0.5881 0.579,-0.9416 0.12,-0.3534 0.159,-0.7292 0.113,-1.0996 0,-1.92 -0.71,-3.09 -2.75,-3.12 -0.372,0.0464 -0.749,0.014 -1.107,-0.0948 -0.358,-0.1088 -0.689,-0.2918 -0.972,-0.537 -0.283,-0.2452 -0.511,-0.547 -0.67,-0.8861 -0.159,-0.3391 -0.244,-0.7077 -0.251,-1.082 -0.16,-1.74 0.84,-2.6801 2.43,-3.2101 3.47,-1.17 4.39,-3.07 2.61,-6.19 -0.554,-0.7878 -0.863,-1.7223 -0.886,-2.6853 -0.023,-0.9629 0.24,-1.9112 0.756,-2.7247 1.75,-3.28 0.84,-7 0.61,-10.49 -0.08,-1.28 -1.39,-1.5699 -2.54,-1.6799 -1.66,-0.17 -2.33,-1.17 -2.36,-2.75 -0.03,-1.58 0.48,-3.0001 2.37,-3.0901 2.28,-0.15 2.8,-1.5799 2.78,-3.5399 0,-2.83 -0.1,-5.66 0,-8.49 0.13,-3 0.09,-5.78 -4,-5.9 -0.251,-0.0023 -0.499,-0.0578 -0.727,-0.1625 -0.228,-0.1048 -0.431,-0.2565 -0.596,-0.4453 -0.166,-0.1889 -0.289,-0.4106 -0.363,-0.6505 -0.073,-0.24 -0.095,-0.4927 -0.064,-0.7417 0.7,-3.84003 -1.38,-6.00002 -4.29,-7.74002 -0.707,-0.49189 -1.376,-1.0368 -2,-1.63001 l -5.53,-0.09009 h -1 -4.93 c -5,1.21 -10,0.84008 -15,0.45008 -1.68,-0.14 -3.37,-0.24997 -5,-0.33997 -13,-0.67 -26,-0.06011 -39,-0.36011 -1.66,0 -3.49,0.47007 -4.83,-1.059932 l -17.36,-0.119995 c -0.59,0.999997 -1.17,0.999997 -1.76,0 h -4.19 c -1.57,1.869997 -3.47,0.350014 -5.17,0.390014 -8.2,0.18 -16.41,0.07 -24.62,0 -1.46,0 -3,0.189961 -4.33,-0.540039 h -2.19 c -2.158,0.800372 -4.532,0.800372 -6.69,0 -15.12,0.21 -30.24,3.4e-5 -45.36,0.410034 -23.59,0.629998 -47.2,0.25 -70.79,0.749998 -31.71,0.66 -63.43,0.21992 -95.15,0.78992 -30.6,0.56 -61.2101,0.62005 -91.8201,0.93005 -1.4617,0.05921 -2.9181,0.21283 -4.36,0.45996 -7.83,1.14 -15.66,2.31009 -23.48,3.46009 L 19.19293,9.4613 c 0,110.8267 0,221.6637 0,332.5097 0,99.267 0,198.537 0,297.81 0,1.36 0,2.71 -0.06,4.06 v 1.46 c 0.04667,23.5 0.08998,46.994 0.12998,70.48 0,13.79 3e-5,27.56 0.06003,41.34 0,1.58 -0.65,3.54 1.99996,4.05 9.689,2.068 19.5394,3.29 29.44,3.65 20.77,0.41 41.55,0.16 62.3401,0.58 35.16,0.69 70.34,0.22 105.52,0.82 39.06,0.66 78.13,0.85 117.19,0.91 34.88,0 69.75,0.49 104.62,-0.56 7.29,-0.23 14.58,-0.37 21.88,-0.5 11.75,-0.19 23.52,-0.3 35.28,-0.5 -1.83,-3.87 1.44,-6.45 2.66,-9.4 2.15,-5.26 0.11,-9.87 -1.15,-14.65 -1.06,-3.412 -1.06,-7.067 0,-10.48 0.875,-2.293 0.991,-4.806 0.33,-7.17 -1.16,-4.33 -2.33,-8.57 2,-12.13 1.39,-1.16 1,-3.34 0.32,-4.89 -1.06,-2.32 -0.89,-5.08 -2.8,-7.12 -0.85,-0.9 -0.59,-2.34 -0.24,-3.56 1.98,-6.7 1.98,-13.83 0,-20.53 -0.215,-0.516 -0.315,-1.074 -0.295,-1.633 0.021,-0.559 0.162,-1.107 0.415,-1.607 3.53,-5.34 3.12,-11.95 1.3,-16.67 -2.2,-5.72 0.2,-10.2 0.37,-15.18 0.24,-6.89 0.09,-13.77 0.15,-20.65 0.008,-0.435 -0.077,-0.868 -0.249,-1.268 -0.173,-0.4 -0.429,-0.758 -0.751,-1.052 -0.381,-0.32 -0.69,-0.715 -0.91,-1.161 -0.219,-0.447 -0.343,-0.933 -0.364,-1.43 -0.02,-0.497 0.063,-0.992 0.244,-1.455 0.182,-0.463 0.457,-0.883 0.81,-1.234 0.585,-0.644 0.995,-1.426 1.193,-2.273 0.198,-0.847 0.176,-1.73 -0.063,-2.567 -1.16,-3.57 0.23,-6.77 0.86,-10.1 0.16,-0.89 0.4,-1.92 1.19,-2.19 3.81,-1.27 3.27,-4.35 3.22,-7.27 -0.07,-3.33 1,-6.55 0.78,-9.91 -0.23,-2.89 -0.24,-5.57 -1.69,-8.45 -1.73,-3.42 0.92,-7 2.11,-10.37 0.68,-2 1.43,-3.79 0.72,-5.65 -1.142,-3.395 -1.531,-6.999 -1.14,-10.56 0.369,-5.762 -0.014,-11.547 -1.14,-17.21 -1,-4.93 0.23,-9 0.92,-13.49 0.22,-0.96 0.267,-1.952 0.14,-2.93 -1.88,-8.6 0.88,-17.17 0.08,-25.77 -1.2,-12.87 0.31,-25.75 0,-38.62 -0.09,-3.56 -0.15,-7.11 1.13,-10.57 0.52,-1.396 0.569,-2.923 0.14,-4.35 -2,-5.52 -1,-11.21 -1.28,-16.82 -0.14,-3.29 -1.08,-6.8 -0.87,-9.74 0.49,-6.69 1,-13.19 -0.11,-19.89 -0.31,-1.82 0.7,-4.53 1.51,-6.69 0.559,-1.226 0.799,-2.575 0.698,-3.919 -0.102,-1.345 -0.541,-2.642 -1.278,-3.771 -1.68,-2.66 0.78,-9.9 3.61,-11.18 0.756,-0.248 1.403,-0.75 1.831,-1.421 0.428,-0.67 0.612,-1.468 0.519,-2.259 -0.06,-2.7 -0.07,-5.42 0,-8.13 0.07,-2.71 0.14,-5.46 -3.44,-6.37 z M 38.5929,759.991 h -0.58 V 13.2313 h 0.58 z"
     fill="#fae4d1"
     id="path2" />
  <path
     d="m 14.36299,663.99 c 0.15,0.09 0.44002,0.18 0.49002,0.33 0.12,0.42 -0.17002,0.65 -0.55002,0.64 -0.10806,-0.009 -0.21236,-0.044 -0.30444,-0.101 -0.09209,-0.058 -0.16938,-0.136 -0.22556,-0.229 -0.12,-0.41 0.14,-0.64 0.59,-0.64 z"
     fill="#f06224"
     id="path4" />
  <path
     d="m 570.503,9.17018 c -0.999,-0.46828 -2.054,-0.80445 -3.14,-1 -9,-0.21 -17.91,-1.87009 -26.9,-2.35009 -5.27,-0.29 -10.54,-0.54 -15.82,-0.87 -10.28,-0.63 -20.57,-1.4499 -30.89,-1.1499 0.624,0.59321 1.293,1.138 2,1.62988 2.91,1.77 5,3.90012 4.29,7.74013 -0.031,0.249 -0.009,0.5017 0.064,0.7417 0.074,0.2399 0.197,0.4616 0.363,0.6505 0.165,0.1889 0.368,0.3406 0.596,0.4453 0.228,0.1048 0.476,0.1602 0.727,0.1625 4.14,0.12 4.18,2.8599 4,5.8999 -0.11,2.83 0,5.66 0,8.49 0,2 -0.5,3.39 -2.78,3.54 -1.89,0.14 -2.41,1.4 -2.37,3.09 0.04,1.69 0.7,2.58 2.36,2.75 1.15,0.11 2.46,0.4 2.54,1.68 0.23,3.52 1.14,7.21 -0.61,10.49 -0.516,0.8136 -0.779,1.7618 -0.756,2.7248 0.024,0.9629 0.332,1.8974 0.886,2.6853 1.78,3.12 0.86,4.9999 -2.61,6.1899 -1.59,0.53 -2.59,1.4701 -2.43,3.2101 0.007,0.3743 0.092,0.7429 0.251,1.082 0.159,0.3391 0.387,0.6409 0.67,0.8861 0.283,0.2452 0.614,0.4282 0.972,0.537 0.358,0.1089 0.735,0.1412 1.107,0.0949 2,0 2.8,1.2 2.75,3.12 0.046,0.3703 0.007,0.7462 -0.113,1.0996 -0.119,0.3534 -0.317,0.6752 -0.579,0.9415 -0.261,0.2662 -0.58,0.47 -0.931,0.5962 -0.351,0.1262 -0.726,0.1716 -1.097,0.1327 -1.95,0 -3,0.9999 -3,2.9399 -0.018,0.3753 0.041,0.7503 0.174,1.1018 0.133,0.3515 0.336,0.6722 0.598,0.942 0.261,0.2699 0.575,0.4833 0.922,0.6271 0.347,0.1438 0.72,0.215 1.096,0.2091 2.18,0.17 2.86,1.35 3.09,3.34 1.35,11.27 0.38,22.4399 -1.36,33.5699 -0.268,1.077 -0.244,2.206 0.07,3.27 1.8,4.597 1.8,9.703 0,14.3 -0.62,1.69 -0.63,3.4 1.07,4.64 0.432,0.256 0.803,0.602 1.088,1.016 0.284,0.413 0.476,0.883 0.56,1.378 0.085,0.495 0.061,1.002 -0.07,1.487 -0.131,0.484 -0.366,0.934 -0.688,1.319 -1.82,2.34 -1.57,4.37 -0.5,6.82 0.71,1.865 0.71,3.925 0,5.79 -0.33,1 -1.19,2.39 -0.83,3.11 2.27,4.61 0.43,9.78 2.24,14.48 1,2.49 1.33,5.28 -1.56,7.27 -1.17,0.82 -0.84,2.15 -0.4,3.39 0.44,1.24 1.05,2.4 0.91,3.51 -1.33,10.59 2,21 0.34,31.79 -1.32,8.4 -0.71,17.15 -0.84,25.74 -0.18,12.44 -0.84,24.9 0.41,37.37 0.37,3.81 -1.09,7.67 0.06,11.75 2,6.92 -0.75,14 0,21.08 0.69,6.56 -0.32,13.25 0.82,19.86 0.24,1.4 0.4,3 1.82,3.34 3.62,0.91 3.49,3.54 3.4,6.33 -0.09,2.79 -0.07,5.43 0,8.13 0.093,0.79 -0.091,1.589 -0.519,2.259 -0.428,0.671 -1.075,1.173 -1.831,1.421 -2.83,1.28 -5.29,8.52 -3.61,11.18 0.737,1.129 1.176,2.426 1.278,3.771 0.101,1.344 -0.139,2.692 -0.698,3.919 -0.81,2.16 -1.82,4.87 -1.51,6.69 1.09,6.7 0.6,13.2 0.11,19.89 -0.21,2.94 0.73,6.45 0.87,9.74 0.24,5.61 -0.72,11.3 1.28,16.82 0.429,1.427 0.38,2.954 -0.14,4.35 -1.28,3.46 -1.22,7 -1.13,10.57 0.34,12.87 -1.17,25.75 0,38.62 0.8,8.6 -2,17.17 -0.08,25.77 0.127,0.977 0.08,1.97 -0.14,2.93 -0.69,4.46 -1.93,8.56 -0.92,13.49 1.126,5.663 1.509,11.448 1.14,17.21 -0.391,3.561 -0.002,7.165 1.14,10.56 0.71,1.86 0,3.7 -0.72,5.65 -1.19,3.34 -3.84,6.95 -2.11,10.37 1.45,2.88 1.46,5.56 1.69,8.45 0.25,3.36 -0.85,6.58 -0.78,9.91 0.05,2.92 0.59,6 -3.22,7.27 -0.79,0.27 -1,1.3 -1.19,2.19 -0.63,3.33 -2,6.53 -0.86,10.1 0.239,0.836 0.261,1.72 0.063,2.567 -0.198,0.847 -0.608,1.629 -1.193,2.273 -0.353,0.351 -0.628,0.771 -0.81,1.233 -0.181,0.463 -0.264,0.959 -0.244,1.456 0.021,0.496 0.145,0.983 0.364,1.429 0.22,0.447 0.529,0.842 0.91,1.162 0.322,0.293 0.578,0.652 0.751,1.052 0.172,0.4 0.257,0.833 0.249,1.268 -0.06,6.88 0.09,13.76 -0.15,20.65 -0.17,5 -2.57,9.46 -0.37,15.18 1.82,4.72 2.23,11.33 -1.3,16.67 -0.253,0.5 -0.394,1.048 -0.415,1.607 -0.02,0.559 0.08,1.116 0.295,1.633 1.98,6.7 1.98,13.83 0,20.53 -0.35,1.22 -0.61,2.66 0.24,3.56 1.91,2 1.74,4.8 2.8,7.12 0.72,1.55 1.07,3.73 -0.32,4.89 -4.35,3.56 -3.18,7.8 -2,12.13 0.661,2.364 0.545,4.877 -0.33,7.17 -1.06,3.413 -1.06,7.067 0,10.48 1.26,4.78 3.3,9.39 1.15,14.65 -1.22,2.95 -4.49,5.53 -2.66,9.4 0.394,0.102 0.805,0.123 1.207,0.061 0.402,-0.062 0.788,-0.205 1.133,-0.421 0.13,-0.34 0.17,-0.82 0.42,-1 2.06,-1.38 9.39,-1 11.28,0.62 12.26,-0.5 24.55,-0.75 36.78,-1.62 5.6,-0.4 11.25,-0.47 16.85,-1.53 3.89,-0.74 5,-1.93 3.14,-5.49 -0.275,-0.676 -0.331,-1.421 -0.16,-2.13 1.12,-5.37 -2.29,-10.59 -0.47,-16 -3.57,-5.42 2,-11.53 -1.25,-17 -0.29,-0.5 0.33,-1.64 0.72,-2.38 0.294,-0.472 0.472,-1.008 0.519,-1.562 0.047,-0.555 -0.039,-1.113 -0.249,-1.628 -2.28,-5.14 -0.09,-11 -2.53,-16.09 -0.115,-0.354 -0.115,-0.736 0,-1.09 1.2,-5 0,-10 0,-15 -0.05,-5.89 1,-11.72 0.84,-17.64 -0.13,-4.79 -1,-9.51 -0.9,-14.33 0.2,-14.88 -0.2,-29.76 0.17,-44.63 0.28,-11 -1.67,-22.07 1.23,-33 0.074,-0.616 -0.059,-1.239 -0.38,-1.77 -1,-1.82 -0.71,-3.82 -1,-5.75 -0.65,-4.45 0.49,-8.83 0.57,-13.25 0.06,-3.79 -1,-7.49 -0.35,-11.32 1,-5.65 0.53,-11.49 0.2,-17.12 -0.45,-7.56 0.53,-15 0.06,-22.63 -0.26,-4.32 -0.2,-9 -0.12,-13.45 0.16,-9 -0.54,-18 0.25,-27 0.23,-2.64 0.81,-5.32 0.68,-7.9 -0.62,-12 -1.42,-24 -1.18,-36 0.08,-4 1.36,-8 1.12,-11.92 -0.75,-12.45 -1,-24.88 -0.5,-37.35 0.16,-4.38 -1,-8.76 -0.68,-13.21 0.18,-2.69 1.33,-5.36 0.63,-8 -1.36,-5.21 -0.6,-10.63 -0.25,-15.65 0.63,-8.85 -0.43,-17.65 0.34,-26.43 0.59,-6.65 -1.05,-13.24 -0.67,-19.87 0.26,-4.52 1.28,-9.09 0.57,-13.57 -0.87,-5.53 -0.54,-11 -0.59,-16.56 -0.1,-9 1.13,-18 0,-27.07 -0.36,-2.77 1.77,-5.68 1.15,-7.74 -1.4,-4.61 -0.49,-9 -0.49,-13.45 0,-7.92 -0.31,-15.86 -0.67,-23.78 -0.57,-12.51 1.26,-25 0.16,-37.52 -0.76,-8.63 0.49,-17.35 0,-26.07 -0.437,-4.728 -0.044,-9.497 1.16,-14.09 0.117,-0.846 -0.015,-1.708 -0.38,-2.48 -0.673,-2.1122 -0.977,-4.3244 -0.9,-6.5399 -0.28,-15.08 1.06,-30.17 -0.07,-45.24 -0.43,-5.78 2.79,-11.23 1,-17 -0.06,-0.21 0.09,-0.48 0.16,-0.72 1.481,-4.9475 2.107,-10.1118 1.85,-15.27 -0.23,-3.21 -0.24,-6.25992 2.55,-8.79992 z m -65.85,-2.18005 c 0,0.12 -0.45,0.20005 -0.65,0.18005 -0.318,-0.08948 -0.629,-0.20323 -0.93,-0.34008 l 0.88,-0.39002 c 0.4,0.15 0.91,-0.01995 0.7,0.55005 z"
     fill="#f8bf0d"
     id="path6" />
  <path
     d="m 511.573,764.801 c -3.9,0.133 -7.8,0.256 -11.7,0.37 0.13,-0.34 0.17,-0.82 0.42,-1 2.06,-1.37 9.36,-0.94 11.28,0.63 z"
     fill="#fae4d1"
     id="path8" />
  <path
     d="m 12.65293,720.821 c -0.25395,0.262 -0.5841,0.436 -0.94327,0.499 -0.35918,0.063 -0.729017,0.011 -1.056733,-0.149 -0.5,-0.16 -0.849999,-0.57 -0.529999,-1.1 0.08808,-0.16 0.210178,-0.299 0.357666,-0.407 0.147487,-0.107 0.316785,-0.181 0.496002,-0.217 0.179214,-0.035 0.363974,-0.03 0.541294,0.013 0.17732,0.044 0.34289,0.126 0.48504,0.241 0.38,0.23 0.83,0.49 0.65,1.12 z"
     fill="#f8bf0d"
     id="path10" />
  <path
     d="m 14.95291,715.89 c -0.14,0.32 -0.23,0.7 -0.31,0.69 -0.31133,-0.046 -0.61656,-0.126 -0.91,-0.24 0.08,-0.2 0.14,-0.56 0.25,-0.57 0.3274,-0.006 0.65405,0.034 0.97,0.12 z"
     fill="#f8bf0d"
     id="path12" />
  <path
     d="m 15.53295,699.629 c 0.01993,0.187 0.01993,0.374 0,0.56 -0.09977,0.01 -0.20024,0.01 -0.30001,0 -0.01,-0.186 -0.01,-0.373 0,-0.56 0.09982,-0.008 0.20019,-0.008 0.30001,0 z"
     fill="#f8bf0d"
     id="path14" />
  <path
     d="M 38.0129,760.051 V 13.2305 H 38.593 V 759.99 Z"
     fill="#f8bf0d"
     id="path16" />
  <path
     d="m 482.273,3.59956 c -5,1.21 -10,0.84007 -15,0.45007 -1.68,-0.14 -3.37,-0.25009 -5,-0.34009 -13,-0.67 -26,-0.05998 -39,-0.35998 -1.66,0 -3.49,0.47006 -4.83,-1.059941 11,-0.17 22,-0.540044 33,0.329956 3.59,0.29 7.2,0.230044 10.8,0.170044 h 0.22 c 6.63,-0.1 13.19,0.279941 19.81,0.809941 z"
     fill="#f8bf0d"
     id="path18" />
  <path
     d="m 395.153,2.150024 c -1.56,1.859996 -3.47,0.350015 -5.16,0.390015 -8.21,0.18 -16.42,0.07 -24.63,0 -1.46,0 -3,0.189961 -4.33,-0.540039 z"
     fill="#f8bf0d"
     id="path20" />
  <path
     d="m 358.843,2.0507812 c -2.159,0.7950838 -4.531,0.7950838 -6.69,0 z"
     fill="#f8bf0d"
     id="path22" />
  <path
     d="m 401.073,2.169922 c -0.59,0.999998 -1.18,0.999998 -1.76,0 z"
     fill="#f8bf0d"
     id="path24" />
  <path
     d="m 503.993,6.42969 c 0.36,0.16 0.87,5e-5 0.69,0.55005 0,0.12 -0.43,0.21005 -0.65,0.18005 -0.317,-0.08221 -0.625,-0.19621 -0.92,-0.34009 z"
     fill="#fae4d1"
     id="path26" />
</svg>
