<svg width="153" height="69" viewBox="0 0 153 69" fill="none" xmlns="http://www.w3.org/2000/svg">
<path d="M58.2235 8.99275H147V59.4341H58.2235V8.99275Z" fill="#E62434"/>
<path d="M0 34.5L60.0971 0V69L0 34.5Z" fill="#E62434"/>
<path d="M71.9663 42V26.4H77.5823C78.3983 26.4 79.1663 26.464 79.8863 26.592C80.6063 26.704 81.2303 26.904 81.7583 27.192C82.2863 27.48 82.7023 27.88 83.0063 28.392C83.3263 28.888 83.4863 29.52 83.4863 30.288C83.4863 30.624 83.4383 30.968 83.3423 31.32C83.2463 31.656 83.1103 31.984 82.9343 32.304C82.7743 32.608 82.5743 32.88 82.3343 33.12C82.0943 33.36 81.8223 33.536 81.5183 33.648V33.744C82.2703 33.968 82.9023 34.376 83.4143 34.968C83.9423 35.544 84.2063 36.352 84.2063 37.392C84.2063 38.192 84.0383 38.888 83.7023 39.48C83.3823 40.056 82.9423 40.536 82.3823 40.92C81.8383 41.288 81.1903 41.56 80.4383 41.736C79.6863 41.912 78.8943 42 78.0623 42H71.9663ZM76.0943 32.496H77.4863C78.1583 32.496 78.6543 32.352 78.9743 32.064C79.2943 31.776 79.4543 31.392 79.4543 30.912C79.4543 30.432 79.2943 30.088 78.9743 29.88C78.6543 29.672 78.1583 29.568 77.4863 29.568H76.0943V32.496ZM76.0943 38.832H77.7743C79.3743 38.832 80.1743 38.256 80.1743 37.104C80.1743 36.528 79.9743 36.12 79.5743 35.88C79.1903 35.64 78.5903 35.52 77.7743 35.52H76.0943V38.832ZM89.4456 42.288C88.8856 42.288 88.3816 42.192 87.9336 42C87.4856 41.792 87.1016 41.52 86.7816 41.184C86.4776 40.848 86.2456 40.456 86.0856 40.008C85.9256 39.56 85.8456 39.088 85.8456 38.592C85.8456 37.344 86.3576 36.368 87.3816 35.664C88.4056 34.944 90.0696 34.464 92.3736 34.224C92.2776 33.392 91.7176 32.976 90.6936 32.976C90.2616 32.976 89.8056 33.064 89.3256 33.24C88.8456 33.4 88.2936 33.648 87.6696 33.984L86.2296 31.296C87.0776 30.784 87.9336 30.392 88.7976 30.12C89.6616 29.848 90.5656 29.712 91.5096 29.712C93.0616 29.712 94.2776 30.16 95.1576 31.056C96.0536 31.936 96.5016 33.36 96.5016 35.328V42H93.1416L92.8536 40.848H92.7576C92.2776 41.28 91.7656 41.632 91.2216 41.904C90.6936 42.16 90.1016 42.288 89.4456 42.288ZM90.8856 39.12C91.2216 39.12 91.4936 39.048 91.7016 38.904C91.9256 38.744 92.1496 38.544 92.3736 38.304V36.672C91.3816 36.816 90.7016 37.032 90.3336 37.32C89.9656 37.608 89.7816 37.92 89.7816 38.256C89.7816 38.832 90.1496 39.12 90.8856 39.12ZM104.617 42.288C103.769 42.288 102.977 42.152 102.241 41.88C101.505 41.592 100.865 41.184 100.321 40.656C99.7768 40.112 99.3448 39.448 99.0248 38.664C98.7208 37.88 98.5688 36.992 98.5688 36C98.5688 35.008 98.7448 34.12 99.0968 33.336C99.4488 32.552 99.9208 31.896 100.513 31.368C101.105 30.824 101.785 30.416 102.553 30.144C103.337 29.856 104.153 29.712 105.001 29.712C105.721 29.712 106.369 29.824 106.945 30.048C107.521 30.272 108.041 30.576 108.505 30.96L106.585 33.6C106.313 33.376 106.073 33.224 105.865 33.144C105.673 33.064 105.465 33.024 105.241 33.024C104.473 33.024 103.873 33.296 103.441 33.84C103.009 34.368 102.793 35.088 102.793 36C102.793 36.912 103.009 37.64 103.441 38.184C103.889 38.712 104.441 38.976 105.097 38.976C105.433 38.976 105.761 38.904 106.081 38.76C106.417 38.616 106.729 38.432 107.017 38.208L108.601 40.896C107.993 41.424 107.329 41.792 106.609 42C105.905 42.192 105.241 42.288 104.617 42.288ZM110.513 42V25.296H114.545V34.176H114.641L117.953 30H122.417L118.145 34.992L122.657 42H118.193L115.793 37.728L114.545 39.12V42H110.513Z" fill="#F9C00D"/>
<path d="M71.9663 42H70.9663V43H71.9663V42ZM71.9663 26.4V25.4H70.9663V26.4H71.9663ZM79.8863 26.592L79.7112 27.5766L79.7219 27.5785L79.7326 27.5801L79.8863 26.592ZM83.0063 28.392L82.1464 28.9025L82.1559 28.9185L82.166 28.9341L83.0063 28.392ZM83.3423 31.32L84.3039 31.5947L84.307 31.5831L83.3423 31.32ZM82.9343 32.304L82.0581 31.8221L82.0536 31.8301L82.0494 31.8383L82.9343 32.304ZM82.3343 33.12L81.6272 32.4129L82.3343 33.12ZM81.5183 33.648L81.1726 32.7097L80.5183 32.9507V33.648H81.5183ZM81.5183 33.744H80.5183V34.4895L81.2328 34.7024L81.5183 33.744ZM83.4143 34.968L82.6579 35.6222L82.6674 35.6331L82.6771 35.6437L83.4143 34.968ZM83.7023 39.48L82.8326 38.9864L82.8281 38.9944L83.7023 39.48ZM82.3823 40.92L82.9426 41.7483L82.9478 41.7447L82.3823 40.92ZM80.4383 41.736L80.2104 40.7623L80.4383 41.736ZM76.0943 32.496H75.0943V33.496H76.0943V32.496ZM78.9743 32.064L78.3053 31.3207L78.9743 32.064ZM78.9743 29.88L78.4293 30.7184L78.9743 29.88ZM76.0943 29.568V28.568H75.0943V29.568H76.0943ZM76.0943 38.832H75.0943V39.832H76.0943V38.832ZM79.5743 35.88L79.0443 36.728L79.052 36.7328L79.0598 36.7375L79.5743 35.88ZM76.0943 35.52V34.52H75.0943V35.52H76.0943ZM72.9663 42V26.4H70.9663V42H72.9663ZM71.9663 27.4H77.5823V25.4H71.9663V27.4ZM77.5823 27.4C78.3462 27.4 79.0552 27.4599 79.7112 27.5766L80.0613 25.6074C79.2773 25.4681 78.4503 25.4 77.5823 25.4V27.4ZM79.7326 27.5801C80.362 27.678 80.8715 27.8474 81.2794 28.0699L82.2371 26.3141C81.5891 25.9606 80.8506 25.73 80.04 25.6039L79.7326 27.5801ZM81.2794 28.0699C81.6514 28.2728 81.9351 28.5466 82.1464 28.9025L83.8661 27.8815C83.4695 27.2134 82.9212 26.6872 82.2371 26.3141L81.2794 28.0699ZM82.166 28.9341C82.3546 29.2265 82.4863 29.6553 82.4863 30.288H84.4863C84.4863 29.3847 84.298 28.5495 83.8466 27.8499L82.166 28.9341ZM82.4863 30.288C82.4863 30.5279 82.4521 30.7833 82.3775 31.0569L84.307 31.5831C84.4244 31.1527 84.4863 30.7201 84.4863 30.288H82.4863ZM82.3808 31.0453C82.3062 31.3061 82.1996 31.5648 82.0581 31.8221L83.8105 32.7859C84.021 32.4032 84.1863 32.0059 84.3038 31.5947L82.3808 31.0453ZM82.0494 31.8383C81.9356 32.0544 81.7952 32.2448 81.6272 32.4129L83.0414 33.8271C83.3533 33.5152 83.613 33.1616 83.8192 32.7697L82.0494 31.8383ZM81.6272 32.4129C81.4845 32.5556 81.3343 32.6501 81.1726 32.7097L81.864 34.5863C82.3102 34.4219 82.7041 34.1644 83.0414 33.8271L81.6272 32.4129ZM80.5183 33.648V33.744H82.5183V33.648H80.5183ZM81.2328 34.7024C81.8025 34.8721 82.271 35.1748 82.6579 35.6222L84.1706 34.3138C83.5336 33.5772 82.738 33.0639 81.8038 32.7856L81.2328 34.7024ZM82.6771 35.6437C82.9865 35.9813 83.2063 36.5177 83.2063 37.392H85.2063C85.2063 36.1863 84.898 35.1067 84.1514 34.2923L82.6771 35.6437ZM83.2063 37.392C83.2063 38.0495 83.0693 38.5694 82.8326 38.9864L84.572 39.9736C85.0073 39.2066 85.2063 38.3345 85.2063 37.392H83.2063ZM82.8281 38.9944C82.5857 39.4307 82.253 39.7961 81.8168 40.0953L82.9478 41.7447C83.6315 41.2759 84.1789 40.6813 84.5764 39.9656L82.8281 38.9944ZM81.822 40.0917C81.3951 40.3805 80.8641 40.6093 80.2104 40.7623L80.6662 42.7097C81.5164 42.5107 82.2815 42.1955 82.9426 41.7483L81.822 40.0917ZM80.2104 40.7623C79.5386 40.9195 78.8234 41 78.0623 41V43C78.9651 43 79.834 42.9045 80.6662 42.7097L80.2104 40.7623ZM78.0623 41H71.9663V43H78.0623V41ZM76.0943 33.496H77.4863V31.496H76.0943V33.496ZM77.4863 33.496C78.2726 33.496 79.0604 33.3318 79.6432 32.8073L78.3053 31.3207C78.2481 31.3722 78.0439 31.496 77.4863 31.496V33.496ZM79.6432 32.8073C80.1995 32.3067 80.4543 31.6392 80.4543 30.912H78.4543C78.4543 31.1448 78.3891 31.2453 78.3053 31.3207L79.6432 32.8073ZM80.4543 30.912C80.4543 30.1926 80.1972 29.4822 79.5193 29.0416L78.4293 30.7184C78.4347 30.7219 78.4333 30.7219 78.4297 30.7177C78.426 30.7134 78.4256 30.7114 78.4276 30.7157C78.4321 30.7255 78.4543 30.7803 78.4543 30.912H80.4543ZM79.5193 29.0416C78.9552 28.6749 78.223 28.568 77.4863 28.568V30.568C78.0936 30.568 78.3534 30.6691 78.4293 30.7184L79.5193 29.0416ZM77.4863 28.568H76.0943V30.568H77.4863V28.568ZM75.0943 29.568V32.496H77.0943V29.568H75.0943ZM76.0943 39.832H77.7743V37.832H76.0943V39.832ZM77.7743 39.832C78.6643 39.832 79.5118 39.6772 80.1586 39.2115C80.8661 38.7021 81.1743 37.9397 81.1743 37.104H79.1743C79.1743 37.4203 79.0825 37.5219 78.99 37.5885C78.8367 37.6988 78.4843 37.832 77.7743 37.832V39.832ZM81.1743 37.104C81.1743 36.2725 80.8639 35.4876 80.0888 35.0225L79.0598 36.7375C79.0991 36.7611 79.1136 36.7801 79.1264 36.8062C79.1437 36.8415 79.1743 36.9289 79.1743 37.104H81.1743ZM80.1043 35.032C79.4789 34.6411 78.648 34.52 77.7743 34.52V36.52C78.5326 36.52 78.9017 36.6389 79.0443 36.728L80.1043 35.032ZM77.7743 34.52H76.0943V36.52H77.7743V34.52ZM75.0943 35.52V38.832H77.0943V35.52H75.0943ZM87.9336 42L87.5125 42.907L87.526 42.9133L87.5397 42.9191L87.9336 42ZM86.7816 41.184L86.0401 41.8549L86.0486 41.8644L86.0575 41.8737L86.7816 41.184ZM86.0856 40.008L85.1439 40.3443L86.0856 40.008ZM87.3816 35.664L87.9482 36.4881L87.9568 36.482L87.3816 35.664ZM92.3736 34.224L92.4772 35.2186L93.4829 35.1139L93.367 34.1094L92.3736 34.224ZM89.3256 33.24L89.6418 34.1887L89.6559 34.184L89.6698 34.1789L89.3256 33.24ZM87.6696 33.984L86.7881 34.4562L87.2613 35.3396L88.1437 34.8645L87.6696 33.984ZM86.2296 31.296L85.7127 30.4399L84.8996 30.9309L85.3481 31.7682L86.2296 31.296ZM88.7976 30.12L88.4973 29.1662L88.7976 30.12ZM95.1576 31.056L94.4441 31.7567L94.4505 31.7631L94.4569 31.7694L95.1576 31.056ZM96.5016 42V43H97.5016V42H96.5016ZM93.1416 42L92.1715 42.2425L92.3608 43H93.1416V42ZM92.8536 40.848L93.8237 40.6055L93.6344 39.848H92.8536V40.848ZM92.7576 40.848V39.848H92.3739L92.0886 40.1047L92.7576 40.848ZM91.2216 41.904L91.6579 42.8039L91.6688 42.7984L91.2216 41.904ZM91.7016 38.904L92.2708 39.7262L92.2768 39.722L92.2828 39.7177L91.7016 38.904ZM92.3736 38.304L93.1046 38.9863L93.3736 38.6982V38.304H92.3736ZM92.3736 36.672H93.3736V35.5164L92.2299 35.6824L92.3736 36.672ZM89.4456 41.288C89.001 41.288 88.6339 41.2121 88.3275 41.0809L87.5397 42.9191C88.1293 43.1719 88.7702 43.288 89.4456 43.288V41.288ZM88.3547 41.093C88.013 40.9344 87.7338 40.7338 87.5057 40.4943L86.0575 41.8737C86.4694 42.3062 86.9582 42.6496 87.5125 42.907L88.3547 41.093ZM87.5231 40.5131C87.3115 40.2792 87.1454 40.0023 87.0273 39.6717L85.1439 40.3443C85.3457 40.9097 85.6437 41.4168 86.0401 41.8549L87.5231 40.5131ZM87.0273 39.6717C86.9075 39.3362 86.8456 38.9783 86.8456 38.592H84.8456C84.8456 39.1977 84.9437 39.7838 85.1439 40.3443L87.0273 39.6717ZM86.8456 38.592C86.8456 37.6716 87.1969 37.0045 87.9481 36.488L86.8151 34.84C85.5183 35.7315 84.8456 37.0164 84.8456 38.592H86.8456ZM87.9568 36.482C88.767 35.9123 90.221 35.4536 92.4772 35.2186L92.27 33.2294C89.9182 33.4744 88.0442 33.9757 86.8064 34.846L87.9568 36.482ZM93.367 34.1094C93.2942 33.4785 93.0235 32.8906 92.4779 32.4853C91.9616 32.1017 91.3242 31.976 90.6936 31.976V33.976C91.087 33.976 91.2416 34.0583 91.2853 34.0907C91.2997 34.1014 91.357 34.1375 91.3802 34.3386L93.367 34.1094ZM90.6936 31.976C90.1248 31.976 89.5518 32.0919 88.9813 32.3011L89.6698 34.1789C90.0593 34.0361 90.3984 33.976 90.6936 33.976V31.976ZM89.0094 32.2913C88.4581 32.4751 87.8517 32.7502 87.1955 33.1035L88.1437 34.8645C88.7355 34.5458 89.2331 34.3249 89.6418 34.1887L89.0094 32.2913ZM88.5511 33.5118L87.1111 30.8238L85.3481 31.7682L86.7881 34.4562L88.5511 33.5118ZM86.7465 32.1521C87.5327 31.6774 88.3164 31.3199 89.0979 31.0738L88.4973 29.1662C87.5508 29.4641 86.6225 29.8906 85.7127 30.4399L86.7465 32.1521ZM89.0979 31.0738C89.8607 30.8337 90.6631 30.712 91.5096 30.712V28.712C90.4681 28.712 89.4625 28.8623 88.4973 29.1662L89.0979 31.0738ZM91.5096 30.712C92.8605 30.712 93.7946 31.0953 94.4441 31.7567L95.871 30.3553C94.7606 29.2247 93.2627 28.712 91.5096 28.712V30.712ZM94.4569 31.7694C95.0767 32.3782 95.5016 33.4802 95.5016 35.328H97.5016C97.5016 33.2398 97.0304 31.4938 95.8583 30.3426L94.4569 31.7694ZM95.5016 35.328V42H97.5016V35.328H95.5016ZM96.5016 41H93.1416V43H96.5016V41ZM94.1117 41.7575L93.8237 40.6055L91.8835 41.0905L92.1715 42.2425L94.1117 41.7575ZM92.8536 39.848H92.7576V41.848H92.8536V39.848ZM92.0886 40.1047C91.6713 40.4803 91.2332 40.7802 90.7744 41.0096L91.6688 42.7984C92.298 42.4838 92.8839 42.0797 93.4266 41.5913L92.0886 40.1047ZM90.7853 41.0042C90.4086 41.1868 89.9684 41.288 89.4456 41.288V43.288C90.2347 43.288 90.9786 43.1332 91.6579 42.8038L90.7853 41.0042ZM90.8856 40.12C91.3592 40.12 91.8486 40.0185 92.2708 39.7262L91.1324 38.0818C91.1323 38.0819 91.1317 38.0823 91.1303 38.083C91.129 38.0838 91.1267 38.085 91.1232 38.0866C91.1164 38.0896 91.1044 38.0943 91.0857 38.0993C91.0475 38.1094 90.9834 38.12 90.8856 38.12V40.12ZM92.2828 39.7177C92.5702 39.5125 92.8436 39.266 93.1046 38.9863L91.6425 37.6217C91.4556 37.822 91.281 37.9755 91.1204 38.0903L92.2828 39.7177ZM93.3736 38.304V36.672H91.3736V38.304H93.3736ZM92.2299 35.6824C91.221 35.8288 90.3082 36.07 89.7173 36.5325L90.9499 38.1075C91.095 37.994 91.5422 37.8032 92.5173 37.6616L92.2299 35.6824ZM89.7173 36.5325C89.2074 36.9315 88.7816 37.5043 88.7816 38.256H90.7816C90.7816 38.2646 90.7802 38.274 90.7781 38.2817C90.776 38.2889 90.7751 38.2878 90.781 38.278C90.794 38.2559 90.8371 38.1958 90.9499 38.1075L89.7173 36.5325ZM88.7816 38.256C88.7816 38.7724 88.959 39.314 89.4413 39.6915C89.877 40.0325 90.4145 40.12 90.8856 40.12V38.12C90.7635 38.12 90.6908 38.1077 90.655 38.0984C90.6208 38.0895 90.6372 38.0878 90.6739 38.1165C90.6923 38.1309 90.7121 38.1501 90.7304 38.1741C90.7488 38.198 90.7619 38.2216 90.7706 38.2421C90.7879 38.2827 90.7816 38.295 90.7816 38.256H88.7816ZM102.241 41.88L101.876 42.8112L101.885 42.8147L101.894 42.818L102.241 41.88ZM100.321 40.656L99.6137 41.3631L99.6189 41.3684L99.6243 41.3736L100.321 40.656ZM99.0248 38.664L98.0924 39.0255L98.0956 39.0337L98.0989 39.0419L99.0248 38.664ZM99.0968 33.336L98.1845 32.9264L99.0968 33.336ZM100.513 31.368L101.178 32.1143L101.184 32.1094L101.189 32.1043L100.513 31.368ZM102.553 30.144L102.887 31.0867L102.898 31.0827L102.553 30.144ZM106.945 30.048L106.582 30.98L106.945 30.048ZM108.505 30.96L109.314 31.5482L109.866 30.7885L109.142 30.1896L108.505 30.96ZM106.585 33.6L105.949 34.3719L106.769 35.0471L107.394 34.1882L106.585 33.6ZM105.865 33.144L105.48 34.0671L105.493 34.0724L105.506 34.0773L105.865 33.144ZM103.441 33.84L104.215 34.4732L104.219 34.4676L104.224 34.4619L103.441 33.84ZM103.441 38.184L102.658 38.8059L102.668 38.8186L102.678 38.831L103.441 38.184ZM106.081 38.76L105.687 37.8409L105.679 37.8444L105.67 37.8481L106.081 38.76ZM107.017 38.208L107.878 37.7003L107.301 36.7202L106.403 37.4186L107.017 38.208ZM108.601 40.896L109.256 41.651L109.885 41.1053L109.462 40.3883L108.601 40.896ZM106.609 42L106.872 42.9648L106.879 42.9628L106.886 42.9607L106.609 42ZM104.617 41.288C103.878 41.288 103.204 41.1698 102.587 40.942L101.894 42.818C102.75 43.1342 103.66 43.288 104.617 43.288V41.288ZM102.605 40.9488C101.988 40.7071 101.462 40.3699 101.017 39.9384L99.6243 41.3736C100.268 41.9981 101.022 42.4769 101.876 42.8112L102.605 40.9488ZM101.028 39.9489C100.587 39.5081 100.225 38.9594 99.9506 38.2861L98.0989 39.0419C98.4641 39.9366 98.9665 40.7159 99.6137 41.3631L101.028 39.9489ZM99.9571 38.3025C99.7051 37.6525 99.5688 36.8901 99.5688 36H97.5688C97.5688 37.0939 97.7365 38.1075 98.0924 39.0255L99.9571 38.3025ZM99.5688 36C99.5688 35.1275 99.7231 34.3824 100.009 33.7456L98.1845 32.9264C97.7664 33.8576 97.5688 34.8885 97.5688 36H99.5688ZM100.009 33.7456C100.308 33.0791 100.7 32.5411 101.178 32.1143L99.8472 30.6217C99.1417 31.2509 98.5893 32.0249 98.1845 32.9264L100.009 33.7456ZM101.189 32.1043C101.681 31.6527 102.244 31.3143 102.887 31.0866L102.219 29.2014C101.326 29.5177 100.529 29.9953 99.8362 30.6317L101.189 32.1043ZM102.898 31.0827C103.569 30.8359 104.269 30.712 105.001 30.712V28.712C104.037 28.712 103.104 28.8761 102.208 29.2053L102.898 31.0827ZM105.001 30.712C105.617 30.712 106.139 30.8077 106.582 30.98L107.307 29.116C106.598 28.8403 105.825 28.712 105.001 28.712V30.712ZM106.582 30.98C107.061 31.1662 107.488 31.4164 107.867 31.7304L109.142 30.1896C108.594 29.7356 107.98 29.3778 107.307 29.116L106.582 30.98ZM107.696 30.3718L105.776 33.0118L107.394 34.1882L109.314 31.5482L107.696 30.3718ZM107.22 32.8281C106.908 32.5706 106.573 32.3449 106.224 32.2107L105.506 34.0773C105.573 34.103 105.718 34.1814 105.949 34.3719L107.22 32.8281ZM106.249 32.2209C105.926 32.0863 105.587 32.024 105.241 32.024V34.024C105.343 34.024 105.419 34.0417 105.48 34.0671L106.249 32.2209ZM105.241 32.024C104.204 32.024 103.301 32.4079 102.658 33.2181L104.224 34.4619C104.444 34.1841 104.741 34.024 105.241 34.024V32.024ZM102.667 33.2068C102.046 33.9657 101.793 34.9351 101.793 36H103.793C103.793 35.2409 103.972 34.7703 104.215 34.4732L102.667 33.2068ZM101.793 36C101.793 37.0668 102.047 38.0364 102.658 38.8059L104.224 37.5621C103.971 37.2436 103.793 36.7572 103.793 36H101.793ZM102.678 38.831C103.304 39.5687 104.129 39.976 105.097 39.976V37.976C104.753 37.976 104.473 37.8553 104.203 37.537L102.678 38.831ZM105.097 39.976C105.581 39.976 106.048 39.8713 106.491 39.6719L105.67 37.8481C105.474 37.9367 105.285 37.976 105.097 37.976V39.976ZM106.475 39.6791C106.889 39.5015 107.275 39.2739 107.631 38.9974L106.403 37.4186C106.182 37.5901 105.944 37.7305 105.687 37.8409L106.475 39.6791ZM106.155 38.7157L107.739 41.4037L109.462 40.3883L107.878 37.7003L106.155 38.7157ZM107.945 40.141C107.438 40.581 106.902 40.8745 106.331 41.0393L106.886 42.9607C107.756 42.7095 108.547 42.267 109.256 41.651L107.945 40.141ZM106.346 41.0352C105.713 41.2077 105.138 41.288 104.617 41.288V43.288C105.343 43.288 106.096 43.1763 106.872 42.9648L106.346 41.0352ZM110.513 42H109.513V43H110.513V42ZM110.513 25.296V24.296H109.513V25.296H110.513ZM114.545 25.296H115.545V24.296H114.545V25.296ZM114.545 34.176H113.545V35.176H114.545V34.176ZM114.641 34.176V35.176H115.124L115.425 34.7974L114.641 34.176ZM117.953 30V29H117.47L117.17 29.3786L117.953 30ZM122.417 30L123.177 30.6502L124.589 29H122.417V30ZM118.145 34.992L117.385 34.3418L116.901 34.9074L117.304 35.5333L118.145 34.992ZM122.657 42V43H124.49L123.498 41.4587L122.657 42ZM118.193 42L117.321 42.4898L117.608 43H118.193V42ZM115.793 37.728L116.665 37.2382L115.981 36.0205L115.049 37.0605L115.793 37.728ZM114.545 39.12L113.801 38.4525L113.545 38.7374V39.12H114.545ZM114.545 42V43H115.545V42H114.545ZM111.513 42V25.296H109.513V42H111.513ZM110.513 26.296H114.545V24.296H110.513V26.296ZM113.545 25.296V34.176H115.545V25.296H113.545ZM114.545 35.176H114.641V33.176H114.545V35.176ZM115.425 34.7974L118.737 30.6214L117.17 29.3786L113.858 33.5546L115.425 34.7974ZM117.953 31H122.417V29H117.953V31ZM121.657 29.3498L117.385 34.3418L118.905 35.6422L123.177 30.6502L121.657 29.3498ZM117.304 35.5333L121.816 42.5413L123.498 41.4587L118.986 34.4507L117.304 35.5333ZM122.657 41H118.193V43H122.657V41ZM119.065 41.5102L116.665 37.2382L114.921 38.2178L117.321 42.4898L119.065 41.5102ZM115.049 37.0605L113.801 38.4525L115.29 39.7875L116.538 38.3955L115.049 37.0605ZM113.545 39.12V42H115.545V39.12H113.545ZM114.545 41H110.513V43H114.545V41Z" fill="black"/>
</svg>
