<svg width="546" height="158" viewBox="0 0 546 158" fill="none" xmlns="http://www.w3.org/2000/svg">
<rect x="10.6035" y="9.44434" width="532.897" height="146.056" rx="32.5" fill="#FBE5D2" stroke="#1E234C" stroke-width="5"/>
<rect x="2.5" y="2.5" width="532.897" height="146.056" rx="27.5" fill="#FBE5D2" stroke="#1E234C" stroke-width="5"/>
<path d="M85.6104 73.1445C85.6417 66.957 88.8136 63.8633 95.1261 63.8633C101.282 63.8633 104.314 67.0195 104.22 73.332L104.36 87.2539C104.298 93.5352 101.189 96.6758 95.0323 96.6758C88.7198 96.6758 85.5792 93.5352 85.6104 87.2539V73.1445ZM118.423 73.1914C118.423 57.5977 110.673 49.8008 95.1729 49.8008C79.4542 49.832 71.5948 57.6445 71.5948 73.2383V87.3945C71.5323 102.926 79.3604 110.707 95.0792 110.738C110.579 110.707 118.329 102.91 118.329 87.3477L118.423 73.1914ZM123.064 49.6602L123.11 110.691H160.751V96.6289H137.126L137.267 49.5195L123.064 49.6602ZM184.001 63.7695H196.376V73.1914H184.001V63.7695ZM170.032 110.598C179.126 106.535 183.814 98.6914 184.095 87.0664H196.376L196.517 115.191L210.439 110.504V49.7539H184.095V45.1133H170.032V49.7539H165.157V63.8164H169.985V87.207C169.704 91.332 168.064 94.457 165.064 96.582L169.798 110.691C169.86 110.66 169.923 110.629 169.985 110.598V110.691L170.032 110.598ZM233.079 110.645V87.0664H247.142V115.754L261.204 110.691V49.707H247.189L247.235 73.1914H233.079L233.032 49.4727H219.017V73.0977L214.329 73.1445V87.2539H219.017V110.691L233.079 110.645ZM284.501 63.8164L298.61 63.8633C298.61 73.1758 295.423 77.832 289.048 77.832H284.548L284.501 63.8164ZM300.017 110.785H315.86L303.814 87.5352C309.751 83.1289 312.689 75.207 312.626 63.7695V49.7539H284.501V45.1133H270.439V49.7539H265.564V63.8164H270.439V110.738L284.314 110.691L284.407 91.6602H290.126L300.017 110.785ZM335.876 63.7695H348.251V73.1914H335.876V63.7695ZM321.907 110.598C331.001 106.535 335.689 98.6914 335.97 87.0664H348.251L348.392 115.191L362.314 110.504V49.7539H335.97V45.1133H321.907V49.7539H317.032V63.8164H321.86V87.207C321.579 91.332 319.939 94.457 316.939 96.582L321.673 110.691C321.735 110.66 321.798 110.629 321.86 110.598V110.691L321.907 110.598ZM370.704 91.9883C370.704 104.395 376.954 110.598 389.454 110.598H412.892V73.1914H398.829V96.5352H389.454C386.329 96.5352 384.767 95.0039 384.767 91.9414V63.8164H412.892V49.7539H384.767V45.1133H370.704V49.7539H366.11V63.8164H370.704V91.9883ZM436.189 63.7695H448.564V73.1914H436.189V63.7695ZM422.22 110.598C431.314 106.535 436.001 98.6914 436.282 87.0664H448.564L448.704 115.191L462.626 110.504V49.7539H436.282V45.1133H422.22V49.7539H417.345V63.8164H422.173V87.207C421.892 91.332 420.251 94.457 417.251 96.582L421.985 110.691C422.048 110.66 422.11 110.629 422.173 110.598V110.691L422.22 110.598Z" fill="black"/>
</svg>
