<svg width="546" height="158" viewBox="0 0 546 158" fill="none" xmlns="http://www.w3.org/2000/svg">
<rect x="10.6045" y="9.44434" width="532.895" height="146.056" rx="32.5" fill="#FBE5D2" stroke="#1E234C" stroke-width="5"/>
<rect x="2.5" y="2.5" width="532.895" height="146.056" rx="27.5" fill="#FBE5D2" stroke="#1E234C" stroke-width="5"/>
<path d="M230.486 66.0156C224.361 61.1094 216.361 60.0938 206.486 62.9688L202.268 64.2344C202.799 58.7031 206.002 55.9375 211.877 55.9375H230.486L230.393 41.9219H211.783C196.064 41.8906 188.221 49.7656 188.252 65.5469V68.4062L186.236 69.0156L188.299 78.5781V79.6562H188.533L189.189 82.7031L210.33 76.5156C212.268 75.9531 214.08 75.7344 215.768 75.8594L215.861 79.7031C216.111 85.7969 213.143 88.8438 206.955 88.8438H188.158V102.906H206.955C222.518 102.906 230.33 95.1719 230.393 79.7031L230.486 66.0156ZM239.721 84.2969C239.721 96.7031 245.971 102.906 258.471 102.906H277.221V88.8438H258.471C255.346 88.8438 253.783 87.3125 253.783 84.25V79.6094H277.221V65.5469H253.783V56.125H277.221V42.0625H253.783V37.4219H239.721V42.0625H235.127V56.125H239.721V84.2969ZM296.064 48.3438V41.7812H281.908V103L295.971 102.953L296.018 67.4219L305.252 75.9531C308.627 78.9844 310.205 82.6562 309.986 86.9688L310.033 108.062L324.096 103V42.0156L309.939 42.0625L309.986 61.1875L296.064 48.3438ZM352.221 88.8438V56.0781L361.549 56.125V42.0625L352.221 42.0156V37.375H338.158V42.0156L329.111 42.0625V56.125L338.158 56.0781V88.7969L329.158 88.9844V103.094L361.455 102.953L361.502 88.8906L352.221 88.8438Z" fill="black"/>
</svg>
