<?xml version="1.0" encoding="UTF-8" standalone="no"?>
<svg
   width="1920.4436"
   height="163.27899"
   viewBox="0 0 1920.4436 163.27899"
   fill="none"
   version="1.1"
   id="svg6"
   sodipodi:docname="bg (copy).svg"
   inkscape:version="1.1.1 (3bf5ae0d25, 2021-09-20)"
   xmlns:inkscape="http://www.inkscape.org/namespaces/inkscape"
   xmlns:sodipodi="http://sodipodi.sourceforge.net/DTD/sodipodi-0.dtd"
   xmlns="http://www.w3.org/2000/svg"
   xmlns:svg="http://www.w3.org/2000/svg">
  <defs
     id="defs10">
    <clipPath
       clipPathUnits="userSpaceOnUse"
       id="clipPath40">
      <rect
         style="fill:#0000ff;fill-rule:evenodd"
         id="rect42"
         width="1921.0127"
         height="179.29762"
         x="3.5864232"
         y="0.70214516" />
    </clipPath>
    <clipPath
       clipPathUnits="userSpaceOnUse"
       id="clipPath44">
      <rect
         style="fill:#0000ff;fill-rule:evenodd"
         id="rect46"
         width="1921.0127"
         height="179.29762"
         x="3.5864232"
         y="0.70214516" />
    </clipPath>
    <clipPath
       clipPathUnits="userSpaceOnUse"
       id="clipPath50">
      <rect
         style="fill:#0000ff;fill-rule:evenodd"
         id="rect52"
         width="1921.0127"
         height="163.27899"
         x="3.5864232"
         y="0.70214516" />
    </clipPath>
    <clipPath
       clipPathUnits="userSpaceOnUse"
       id="clipPath54">
      <rect
         style="fill:#0000ff;fill-rule:evenodd"
         id="rect56"
         width="1921.0127"
         height="163.27899"
         x="3.5864232"
         y="0.70214516" />
    </clipPath>
  </defs>
  <sodipodi:namedview
     id="namedview8"
     pagecolor="#ffffff"
     bordercolor="#666666"
     borderopacity="1.0"
     inkscape:pageshadow="2"
     inkscape:pageopacity="0.0"
     inkscape:pagecheckerboard="0"
     showgrid="false"
     fit-margin-top="0"
     fit-margin-left="0"
     fit-margin-right="0"
     fit-margin-bottom="0"
     inkscape:zoom="0.50408131"
     inkscape:cx="1044.4743"
     inkscape:cy="-121.01222"
     inkscape:window-width="1920"
     inkscape:window-height="1011"
     inkscape:window-x="0"
     inkscape:window-y="0"
     inkscape:window-maximized="1"
     inkscape:current-layer="svg6" />
  <path
     fill-rule="evenodd"
     clip-rule="evenodd"
     d="m 1924,113.552 c -0.67,0.28 -1.33,0.55 -2,0.81 -2.67,1.01 -4,3.56 -0.61,4.69 0.88,0.32 1.75,0.65 2.61,1 v 2 c -0.53,-0.19 -1.07,-0.37 -1.61,-0.54 -0.14,-0.044 -0.29,-0.098 -0.43,-0.157 -0.13,-0.049 -0.25,-0.102 -0.37,-0.156 -0.08,-0.032 -0.15,-0.065 -0.23,-0.098 l -0.06,-0.028 c -1.36,-0.606 -2.81,-1.254 -3.81,0.549 -0.66,1.058 -1.03,2.278 -1.05,3.527 -0.02,1.249 0.3,2.48 0.92,3.563 1.27,2.05 2.92,2.43 5.27,2 l 1.37,-0.25 v 2.61 c -0.75,0.371 -1.44,0.845 -2.06,1.41 l 2.06,0.28 v 2.05 c -1.75,-0.45 -3.45,-0.3 -4.6,1.66 -1.15,1.96 -0.69,5.96 1.63,6.52 0.5,0.159 1.02,0.207 1.54,0.139 0.52,-0.067 1.02,-0.248 1.46,-0.529 v 167.48 L 1920,312.08 v 2385.93 h -0.01 V 2528.5 l -2,-0.2 c -11.15,-1.07 -22.3,-1.92 -33.45,-2.77 -7.85,-0.59 -15.7,-1.19 -23.55,-1.86 -0.52,-0.05 -1.07,-0.07 -1.64,-0.09 -3.14,-0.12 -6.71,-0.25 -6.65,-4.44 0.05,-3.31 2.89,-3.48 5.54,-3.64 0.82,-0.05 1.62,-0.09 2.31,-0.23 19.12,-3.86 38.29,-4.11 57.48,-3 v -4.39 h -0.17 c -3.02,-0.19 -6.11,0 -9.19,0.18 v 0 c -5.83,0.34 -11.65,0.69 -17.02,-1.45 -20.16,-8.02 -41.32,-10.58 -62.47,-13.14 v -0.01 h -0.01 -0.01 c -11,-1.33 -22,-2.66 -32.85,-4.76 l -1.53,-0.3 c -19.5,-3.78 -39.27,-7.61 -59.47,-6.15 -1.63,-0.06 -3.24,-0.33 -4.8,-0.81 -31.41,-6.54 -63.07,-8.35 -94.93,-4.21 -6.13,0.79 -12.84,3.07 -15.8,8.66 -3.94,7.44 -9.6,8.74 -16.92,8.58 -2.52,-0.06 -5.05,0.22 -7.59,0.49 -2.32,0.25 -4.65,0.51 -6.98,0.51 -6.56,0.03 -13.11,0.27 -19.66,0.5 -18.68,0.68 -37.35,1.35 -56.07,-2.66 -3.76,-0.82 -7.41,-1.97 -11.06,-3.12 v 0 0 h -0.01 c -5.29,-1.66 -10.57,-3.32 -16.15,-3.96 -4.75,-0.55 -9.51,-0.94 -14.28,-1.32 -10.41,-0.84 -20.82,-1.67 -31.02,-4.24 -0.55,-0.14 -1.14,-0.2 -1.74,-0.27 -1.75,-0.18 -3.49,-0.36 -3.96,-2.42 -0.41,-1.76 0.96,-2.44 2.33,-3.11 v 0 c 0.26,-0.13 0.52,-0.26 0.76,-0.39 0.2,-0.11 0.39,-0.22 0.57,-0.34 6.41,-4.46 2.43,-6.21 -1.59,-7.98 l -0.61,-0.27 c -0.74,-0.33 -1.65,-0.52 -2.56,-0.72 -2.47,-0.52 -5,-1.06 -4.55,-4.28 0.53,-3.86 3.83,-3.76 6.84,-3.67 0.71,0.02 1.41,0.04 2.05,0.01 3.59,-0.17 7.19,-0.2 10.79,-0.23 v 0 0 c 2.91,-0.02 5.83,-0.04 8.75,-0.14 3.62,-0.12 6.87,-1.08 5,-5.85 -2.47,-6.34 1.48,-8.52 5.56,-10.78 0.5,-0.28 1.01,-0.56 1.51,-0.85 2.6,-1.53 5.51,-2.27 8.42,-3 3.73,-0.95 7.44,-1.89 10.49,-4.48 0.83,-0.71 1.85,-1.34 2.88,-1.98 3.02,-1.86 6.12,-3.78 4.81,-8.02 -1.68,-5.42 -7.17,-7.46 -12.61,-7.54 -3.51,-0.05 -7.02,-0.08 -10.52,-0.1 -17.62,-0.11 -35.2,-0.22 -52.67,-3.79 -7.79,-1.6 -14.81,1.17 -21.91,3.97 -2.57,1.02 -5.15,2.04 -7.79,2.86 -5.56,1.71 -10.94,4.02 -16.33,6.32 -9.98,4.27 -19.96,8.55 -31.1,9.11 -1.67,0.09 -3.77,1.64 -4.78,3.12 -4.69,6.86 -11.71,7.92 -18.77,8.99 -1.27,0.19 -2.53,0.38 -3.79,0.61 -0.89,0.15 -1.82,0.11 -2.76,0.07 v 0 c -2.23,-0.09 -4.54,-0.18 -6.56,2.27 3.16,1.68 6.32,1.54 9.39,1.42 l 0.02,-0.01 c 1.03,-0.04 2.06,-0.08 3.07,-0.05 18.27,0.47 36.29,3 54.23,6.28 2.85,0.51 6.49,1.17 6.89,4.5 0.41,3.31 -2.35,3.88 -4.78,4.38 -0.51,0.1 -1,0.21 -1.44,0.33 -12.12,3.5 -24.84,4.3 -36.69,1.11 -10.04,-2.77 -20.53,-3.5 -30.86,-2.16 -17.72,2.36 -35.29,0.99 -52.83,-0.37 h -0.01 c -7.36,-0.57 -14.72,-1.14 -22.08,-1.43 -7.41,-0.3 -14.59,-1.75 -21.75,-3.19 h -0.01 c -5.83,-1.18 -11.65,-2.35 -17.59,-2.9 -4.12,-0.38 -8.57,-0.25 -9.62,4.42 -1.11,4.95 3.46,6.66 7.14,7.7 1.97,0.56 4.07,0.8 6.16,1.04 2.83,0.33 5.65,0.66 8.12,1.78 9.65,4.32 19.9,5.78 30.15,7.24 7.73,1.1 15.46,2.2 22.94,4.53 7.42,2.31 15.16,2.41 22.94,2.52 6.6,0.09 13.24,0.18 19.71,1.63 12.46,2.66 25.32,2.85 37.85,0.56 3.7,-0.69 7.52,-0.51 11.14,0.5 3.63,1.02 6.97,2.86 9.78,5.38 5.28,4.5 4.54,9.54 -2,11.79 -4.87,1.66 -10.2,3.08 -15.27,2.92 -15.21,-0.49 -30.31,0.85 -45.41,2.19 -11.14,0.99 -22.28,1.98 -33.47,2.24 -9.79,0.08 -19.51,1.62 -28.84,4.57 -4.84,1.6 -11,5 -10.76,9.61 0.17,3.13 4.35,3.63 8.25,4.1 v 0 c 1.28,0.15 2.52,0.3 3.58,0.54 1.47,0.32 3.02,0.19 4.59,0.06 1.06,-0.09 2.12,-0.18 3.17,-0.12 1.16,0.06 2.33,0.12 3.49,0.18 h 0.01 0.01 0.01 c 7.58,0.4 15.16,0.8 22.71,1.55 2.72,0.27 6.35,1.09 6.41,4.84 0.06,3.75 -3,5.71 -6.16,6.69 -2.49,0.77 -5.1,1.06 -7.7,0.85 -11.39,-1.11 -22.23,1.45 -33.06,4 -5,1.18 -10,2.36 -15.04,3.18 -5.76,0.93 -11.51,1.94 -17.26,2.95 -20.47,3.58 -40.93,7.16 -61.82,7.57 -9.91,0.17 -19.72,1.22 -29.54,2.27 v 0 c -2.79,0.3 -5.57,0.6 -8.35,0.88 -3.51,0.35 -6.99,0.44 -10.49,0.54 -6.3,0.16 -12.62,0.32 -19.16,2.05 -12.87,3.38 -26.56,6.26 -40.32,5.34 -5.06,-0.34 -10.08,-0.81 -15.07,-1.28 -8.6,-0.81 -17.138,-1.61 -25.75,-1.72 -16.758,-0.25 -33.525,-0.2 -50.293,-0.14 -12.88,0.04 -25.76,0.08 -38.637,-0.01 -8.06,-0.06 -14.74,2.07 -20,8.24 -4.53,5.36 -10.12,7.39 -17.21,7.4 -10.06,0 -19.3,2.64 -28.83,7.07 -14.495,6.93 -31.125,7.92 -46.34,2.76 l -0.25,0.35 c 1.55,7.3 -1.29,11.13 -8.85,11.61 -3.581,0.22 -7.146,0.66 -10.711,1.1 h -0.003 c -1.251,0.16 -2.503,0.31 -3.756,0.46 -0.8,2.25 -2.53,2.9 -4.74,2.74 l -0.5,0.36 v 0.62 l -0.49,-0.36 c -1.786,0.26 -3.475,-0.13 -5.211,-0.53 -2.386,-0.55 -4.86,-1.12 -7.789,-0.03 -2.78,1 -8.45,-1.15 -12.71,-4.25 -9.42,-6.84 -20.66,-10.26 -32.35,-11.68 2.915,4.54 2.605,9.46 2.296,14.38 -0.155,2.46 -0.31,4.93 -0.056,7.35 0.413,3.88 0.807,7.78 1.18,11.69 0.24,2.33 0.46,4.66 0.68,7 h -3.37 c -0.23,-2.34 -0.45,-4.67 -0.64,-7 -0.06,-0.64 -0.12,-1.29 -0.17,-1.93 -0.021,-0.27 -0.047,-0.56 -0.076,-0.87 -0.023,-0.22 -0.046,-0.45 -0.071,-0.68 -0.021,-0.2 -0.042,-0.39 -0.063,-0.57 0.87,-3.34 0.36,-5.64 -1.19,-7.42 -1.024,-4.77 -2.672,-9.38 -4.9,-13.71 -1.3,-2.5 -2.7,-4.85 -5.69,-4.41 -6.155,0.91 -12.408,1.03 -18.664,1.15 -12.172,0.24 -24.357,0.47 -35.856,6.52 -5.92,3.12 -9,6.08 -6.41,12.61 1.162,2.94 1.45,6.16 0.83,9.27 -0.466,2.37 -1.097,4.71 -1.89,7 h -1.46 v -7 c -0.104,-1.96 -0.421,-3.92 -0.739,-5.88 -0.786,-4.85 -1.573,-9.71 0.869,-14.51 -11.49,2.56 -22.34,7.06 -31,14.79 -3.49,3.11 -8.15,5.6 -11.16,5.6 -0.364,0 -0.727,-0.04 -1.08,-0.13 -1.824,-0.47 -3.74,-0.42 -5.54,0.13 -0.739,0.19 -1.456,0.43 -2.165,0.67 -1.682,0.57 -3.325,1.12 -5.125,1.03 l -0.46,0.41 -0.05,-0.62 -0.54,-0.31 c -0.756,0.22 -1.557,0.22 -2.316,0.01 -0.759,-0.21 -1.446,-0.62 -1.984,-1.19 -0.271,-0.33 -0.499,-0.7 -0.68,-1.08 -1.455,-0.02 -2.912,-0.06 -4.368,-0.1 -3.398,-0.09 -6.797,-0.17 -10.192,-0.05 -7.57,0.27 -10.77,-3.26 -9.95,-10.68 l -0.28,-0.32 c -14.635,6.62 -31.278,7.26 -46.38,1.79 -9.92,-3.47 -19.37,-5.18 -29.39,-4.21 -7,0.68 -12.82,-0.79 -17.84,-5.68 -5.8,-5.64 -12.65,-7.1 -20.67,-6.25 -12.73,1.34 -25.467,2.56 -38.205,3.77 -16.763,1.6 -33.529,3.19 -50.285,5.1 -8.498,0.96 -16.917,2.59 -25.339,4.23 h -0.002 c -4.986,0.97 -9.974,1.94 -14.979,2.77 -13.46,2.23 -27.52,0.73 -40.65,-1.38 -6.687,-1.07 -13.009,-0.62 -19.302,-0.16 -3.476,0.25 -6.943,0.5 -10.458,0.5 -2.991,0 -5.982,-0.03 -8.971,-0.05 h -0.003 -0.002 -0.003 c -9.68,-0.09 -19.35,-0.17 -29.021,0.62 -20.734,1.67 -41.36,0.11 -61.999,-1.46 h -0.093 c -5.877,-0.45 -11.756,-0.89 -17.638,-1.26 -5.1064,-0.32 -10.2007,-1 -15.2983,-1.69 h -0.0076 -0.0077 -0.0178 -0.0038 c -11.0123,-1.48 -22.0396,-2.97 -33.2348,-0.75 -2.565,0.47 -5.1967,0.44 -7.75,-0.09 -3.25,-0.67 -6.48,-2.31 -6.79,-6.05 -0.31,-3.74 3.23,-4.91 5.91,-5.45 8.5026,-1.7 17.1032,-2.98 25.6756,-4.25 l 0.2644,-0.04 c 1.0403,-0.16 2.1153,-0.18 3.1854,-0.19 h 0.0036 c 1.5619,-0.02 3.1133,-0.04 4.531,-0.51 1.0365,-0.34 2.2617,-0.61 3.5169,-0.89 h 0.0096 c 3.8284,-0.85 7.9314,-1.75 7.8035,-4.88 -0.19,-4.57 -6.69,-7.4 -11.66,-8.52 -9.5784,-2.01 -19.4017,-2.59 -29.15,-1.72 -11.1389,0.84 -22.3074,0.94 -33.478,1.05 h -0.0214 -9e-4 -9e-4 -10e-4 c -5.3764,0.05 -10.75341,0.1 -16.1278,0.24 v -20.41 c 3.31698,-0.68 6.59244,-1.55 9.81,-2.61 6.3477,-2.12 12.987,-2.87 19.6021,-3.62 h 6e-4 5e-4 0.0041 c 7.6708,-0.87 15.309,-1.73 22.4227,-4.72 7.2153,-3.05 14.7999,-4.91 22.3817,-6.76 h 0.004 0.0021 0.0019 0.0018 c 10.0578,-2.46 20.1103,-4.91 29.2885,-10.16 2.359,-1.35 5.122,-1.95 7.902,-2.56 2.052,-0.44 4.113,-0.89 6.028,-1.64 3.56,-1.39 8,-3.55 6.36,-8.36 -1.51,-4.54 -5.95,-4.24 -10,-3.45 -5.827,1.12 -11.504,2.86 -17.1928,4.6 -7.0024,2.14 -14.0234,4.29 -21.3672,5.31 -7.326,1.02 -14.6082,2.31 -21.8892,3.6 -17.3167,3.07 -34.6263,6.14 -52.5008,5.53 H 0 V 239.012 h 3.03 v -85.23 c 1.02358,-0.351 1.40042,-1.726 1.70091,-2.822 L 4.78,150.782 c 0.33654,-1.242 0.70592,-2.478 1.07507,-3.714 l 0.00277,-0.009 h 7e-5 c 1.32999,-4.451 2.65983,-8.901 2.47209,-13.657 0.06893,-0.241 0.13601,-0.483 0.20283,-0.723 l 0.00373,-0.014 C 8.62358,132.352 8.71022,132.04 8.8,131.732 l 0.59,-2.18 1,-5.4 c 1.26,-4.66 1.03,-9.44 0.45,-14.09 -0.1111,-0.886 0.0617,-2.003 0.2362,-3.131 v 0 c 0.4068,-2.631 0.823,-5.321 -2.3262,-5.279 -3.58689,0.057 -3.32434,3.017 -3.06664,5.922 0.10153,1.145 0.2023,2.281 0.06664,3.228 -1.48445,6.529 -2.40451,13.173 -2.75,19.86 V 92.0117 c 5.16011,-0.9004 10.3602,-1.511 15.5484,-2.1201 3.8004,-0.4463 7.5944,-0.8918 11.3616,-1.4499 5.8848,-0.8887 11.7575,-1.9112 17.6315,-2.9339 10.1863,-1.7737 20.3762,-3.5478 30.6385,-4.626 1.4805,-0.1628 2.4184,-1.2981 3.395,-2.4804 0.224,-0.2713 0.45,-0.5447 0.685,-0.8096 -2.0631,-0.959 -4.0667,-2.041 -6,-3.24 -1.63,-1.1401 -2.45,-2.9402 -1.53,-4.9001 0.92,-1.96 2.72,-2.3999 4.72,-2.1099 8.11,1.1599 8.17,1.1499 7.46,-7.1301 -0.1993,-2.2627 -0.6213,-4.5003 -1.26,-6.68 l -0.1103,-0.3796 c -0.8102,-2.7776 -1.5947,-5.4673 2.0303,-6.9404 3.7614,-1.531 4.888,1.1271 5.9796,3.7027 v 2e-4 c 0.0634,0.1496 0.1267,0.299 0.1904,0.4472 1.83,4.3499 4,4.8499 7,0.8499 0.154,-0.2056 0.308,-0.4177 0.463,-0.6321 v -10e-5 c 1.642,-2.2661 3.437,-4.7433 6.827,-1.6278 0.29,1.7707 -0.573,3.0812 -1.435,4.3907 v 1e-4 c -0.477,0.7242 -0.954,1.448 -1.235,2.2493 l -1.23,1.1799 -0.13,0.1302 c -0.829,0.3703 -1.57,0.9121 -2.175,1.5893 -0.605,0.6775 -1.06,1.4751 -1.335,2.3406 -5.13,6.97 -5.09,8.8699 0.18,11.3201 2.19,0.623 4.428,1.0644 6.69,1.3198 4.92,0.1716 9.845,0.3898 14.771,0.608 l 0.02,9e-4 0.057,0.0022 h 0.01 l 0.003,10e-5 c 13.118,0.5808 26.245,1.162 39.309,0.8788 16.295,-0.3631 32.573,-1.2835 48.848,-2.2039 l 0.045,-0.0022 0.015,-8e-4 c 8.364,-0.4731 16.728,-0.9462 25.092,-1.3432 l 0.226,-0.0151 v 0 c 1.613,-0.1087 2.867,-0.1931 2.494,-2.1047 -0.09,-0.4681 -0.003,-1.0555 0.086,-1.6517 0.206,-1.3918 0.42,-2.8313 -1.596,-2.9084 -3.32,-0.1199 -4.75,-1.45 -4.39,-4.45 0.359,-2.9311 2.473,-2.842 4.426,-2.7597 0.552,0.0234 1.091,0.0461 1.574,-3e-4 4.263,-0.4023 8.556,-0.6469 12.848,-0.8913 8.403,-0.4788 16.801,-0.9573 24.962,-2.6187 10.356,-2.1069 20.816,-2.967 31.259,-3.8257 h 0.004 l 0.002,-1e-4 c 10.57,-0.8689 21.123,-1.7363 31.535,-3.8941 3.98,-0.8301 5.55,-1.94 3.63,-5.2801 -3.093,-5.4001 -0.513,-8.4035 2.145,-11.4968 v -3e-4 c 0.959,-1.1169 1.929,-2.2454 2.645,-3.5029 0.338,0.2717 0.581,0.4507 0.748,0.5744 l 0.001,8e-4 0.003,0.0022 c 0.231,0.1702 0.318,0.2346 0.318,0.2927 -0.175,2.2151 -0.367,4.4258 -0.56,6.6351 -0.094,1.0817 -0.188,2.1633 -0.28,3.2448 -0.66,7.8201 -0.18,8.8401 7.39,8.25 6.292,-0.4914 12.601,-0.8286 18.908,-1.1655 h 0.01 c 19.352,-1.0337 38.697,-2.0671 57.542,-7.5645 1.018,-0.2109 2.051,-0.3413 3.09,-0.3898 8.879,-1.0879 17.716,-0.4253 26.54,0.2365 l 0.026,0.0015 0.013,9e-4 c 3.168,0.2378 6.334,0.4754 9.501,0.6309 0.948,0.0461 1.91,0.0578 2.878,0.0697 l 0.036,4e-4 c 3.441,0.041 6.939,0.083 10.006,1.6399 6.377,3.2388 13.187,5.1437 19.991,7.0474 l 0.002,4e-4 0.002,8e-4 0.002,7e-4 10e-4,5e-4 c 4.77,1.3343 9.538,2.6679 14.152,4.4602 2.52,0.98 4.46,1.1602 7.16,-1.1699 3.29,-2.8101 7.44,-5.3902 12.29,-5.3101 9.149,0.1846 17.974,-1.6763 26.798,-3.5368 0.734,-0.1548 1.468,-0.3096 2.202,-0.4632 3.437,-0.7195 6.864,-1.5996 10.293,-2.4802 l 0.008,-0.0022 0.003,-7e-4 c 6.862,-1.7627 13.73,-3.5269 20.696,-4.0069 10.69,-0.7112 21.303,-2.3066 31.73,-4.77 10.687,-2.6665 21.638,-4.1289 32.65,-4.3599 7.86,-0.09 11.28,-3.2399 11.13,-11.09 -0.081,-2.075 0.307,-4.14116 1.135,-6.0457 0.827,-1.90429 2.073,-3.59765 3.645,-4.95434 3.23,-2.97998 10.93,-2.020023 11.41,1.41992 0.122,0.85642 0.28,1.7148 0.438,2.57562 v 0.00153 c 0.591,3.21972 1.187,6.47067 -0.028,9.75297 -1.84,4.9799 0.3,5.4299 4.74,4.78 16.62,-2.4299 33.35,-4.3101 50.13,-6.1101 5.068,-0.5745 10.03,-0.0994 14.981,0.375 l 0.002,2e-4 c 3.665,0.351 7.325,0.7014 11.017,0.6248 8.285,-0.1524 16.162,-2.3787 24.014,-4.5977 l 0.004,-7e-4 c 2.449,-0.69239 4.896,-1.3838 7.352,-2.01148 V 7.24171 c 1,0.18994 2,0.41015 3,0.64013 0.222,-0.05127 0.445,-0.1018 0.667,-0.15161 0.16,-0.03613 0.321,-0.07177 0.481,-0.10693 0.618,-0.1355 1.235,-0.2644 1.852,-0.38159 v 1.3501 c 2.585,0.64729 5.152,1.36578 7.715,2.08359 l 0.005,0.0014 0.01,0.0029 0.004,7e-4 v 2e-4 c 7.763,2.1735 15.505,4.3409 23.686,4.5211 3.67,0.0764 7.314,-0.2727 10.972,-0.6233 4.954,-0.4749 9.931,-0.9519 15.028,-0.3767 16.74,1.8 33.47,3.6801 50.12,6.1101 4.44,0.6499 6.58,0.2199 4.74,-4.7801 -1.215,-3.2822 -0.619,-6.53316 -0.028,-9.75313 l 0.001,-0.00293 c 0.11,-0.59912 0.219,-1.19726 0.317,-1.79467 0.043,-0.26001 0.083,-0.51978 0.12,-0.7793 0.48,-3.419923 8.18,-4.41992 11.41,-1.41992 1.572,1.35669 2.818,3.05005 3.645,4.95434 0.828,1.90454 1.216,3.97091 1.135,6.04561 -0.15,7.8501 3.27,11 11.13,11.0901 11.012,0.231 21.963,1.6936 32.65,4.3599 10.416,2.4753 21.02,4.0842 31.7,4.8101 6.95,0.4785 13.79,2.2338 20.65,3.9914 v 7e-4 c 3.46,0.8868 6.92,1.7737 10.4,2.4978 0.39,0.0821 0.79,0.1645 1.18,0.2469 l 0.87,0.1816 v 2e-4 c 8.91,1.8684 17.78,3.7293 26.95,3.5713 4.85,-0.08 9.04,2.5 12.29,5.3101 2.7,2.3298 4.64,2.1699 7.16,1.1699 4.6,-1.7964 9.38,-3.1291 14.16,-4.4641 6.8,-1.8974 13.62,-3.7998 19.99,-7.0459 3.05,-1.5623 6.55,-1.602 9.99,-1.6411 v 0 c 0.99,-0.011 1.97,-0.0222 2.93,-0.0688 3.18,-0.1565 6.37,-0.3951 9.55,-0.6338 8.83,-0.6617 17.66,-1.3238 26.53,-0.2364 1.04,0.0486 2.07,0.1792 3.09,0.3902 18.77,5.4249 38.04,6.4462 57.31,7.4672 v 10e-5 c 6.37,0.3376 12.75,0.6755 19.1,1.1726 7.57,0.5901 8.05,-0.43 7.39,-8.25 -0.09,-1.0582 -0.18,-2.1163 -0.27,-3.1749 l -0.01,-0.0615 V 33.4478 33.442 c -0.19,-2.2044 -0.39,-4.41 -0.56,-6.6202 0,-0.0388 0.03,-0.0806 0.13,-0.155 0.02,-0.0192 0.05,-0.0406 0.09,-0.0647 l 0.1,-0.0738 0.01,-0.011 0.03,-0.0205 c 0.08,-0.0615 0.18,-0.1355 0.3,-0.2253 0.05,-0.04 0.11,-0.0835 0.17,-0.1304 0.04,-0.0272 0.07,-0.0556 0.11,-0.0853 0.04,-0.0331 0.08,-0.0678 0.13,-0.1041 0.72,1.2763 1.7,2.4194 2.66,3.5483 2.66,3.0994 5.22,6.0935 2.13,11.4517 -1.92,3.3401 -0.37,4.4502 3.63,5.28 10.5,2.2014 21.14,3.0813 31.78,3.9614 10.39,0.8594 20.79,1.7193 31.06,3.8086 8.16,1.6614 16.56,2.1399 24.96,2.6187 4.29,0.2444 8.59,0.489 12.85,0.8913 0.48,0.0457 1.01,0.0264 1.55,0.0066 h 0.01 c 1.95,-0.0708 4.08,-0.1479 4.44,2.7534 0.36,2.96 -1.07,4.3301 -4.39,4.45 -2.01,0.0769 -1.8,1.5044 -1.6,2.8962 0.04,0.2234 0.07,0.4458 0.09,0.6614 0.04,0.3618 0.06,0.7051 0,1.0024 -0.38,1.9603 0.94,2.0281 2.62,2.1148 l 0.1,0.0054 c 8.39,0.3979 16.78,0.8735 25.17,1.3491 l 0.03,0.0014 0.01,8e-4 c 16.26,0.9214 32.52,1.8425 48.79,2.1985 13.09,0.2832 26.21,-0.2979 39.32,-0.8787 l 0.01,-5e-4 c 4.95,-0.219 9.9,-0.4381 14.84,-0.6108 2.26,-0.2554 4.5,-0.6968 6.69,-1.3198 5.27,-2.4502 5.31,-4.3201 0.18,-11.3201 -0.27,-0.8609 -0.72,-1.6548 -1.32,-2.3301 -0.6,-0.6753 -1.34,-1.217 -2.16,-1.5898 l -0.13,-0.1302 -1.23,-1.1799 c -0.28,-0.8013 -0.76,-1.5251 -1.23,-2.2493 -0.87,-1.3095 -1.73,-2.6201 -1.44,-4.3908 3.39,-3.1155 5.18,-0.6382 6.83,1.6279 0.15,0.2144 0.31,0.4265 0.46,0.6321 3,3.99 5.13,3.5 7,-0.8499 0.07,-0.1592 0.14,-0.3196 0.21,-0.4802 V 49.875 49.8604 c 1.09,-2.5586 2.21,-5.169 5.96,-3.6487 3.63,1.4731 2.84,4.1626 2.03,6.9404 l -0.11,0.3796 c -0.64,2.1797 -1.06,4.4173 -1.26,6.68 -0.71,8.28 -0.65,8.29 7.46,7.1301 2.04,-0.29 3.77,0.1099 4.72,2.1099 0.95,2 0.1,3.76 -1.53,4.9001 -1.93,1.199 -3.94,2.281 -6,3.24 0.17,0.212 0.34,0.4291 0.51,0.6451 v 0.007 l 0.02,0.0161 c 0.96,1.2417 1.89,2.4524 3.47,2.6218 10.19,1.0703 20.31,2.8268 30.42,4.5826 v 2e-4 c 5.95,1.0325 11.89,2.0647 17.85,2.957 3.83,0.5728 7.7,1.0264 11.59,1.4815 10.71,1.2532 21.52,2.5183 31.79,6.3186 2.24,0.8201 3.02,2.05 3.58,4.3503 0.38,1.606 0.5,3.275 0.61,4.944 0.21,3.247 0.43,6.492 2.65,9.266 -0.12,0.759 -0.37,1.503 -0.62,2.246 v 0.002 c -0.54,1.606 -1.09,3.212 -0.28,4.982 l 1.29,16.36 c -0.57,3.084 -0.08,6.079 0.41,9.084 0.31,1.906 0.62,3.816 0.66,5.756 0.06,2.52 1.5,3.03 3.7,3 2.2,-0.03 2.75,-1.32 2.75,-3.26 0.28,-11.395 -0.02,-22.797 -0.92,-34.16 -0.06,-0.603 -0.09,-1.207 -0.11,-1.811 -0.03,-0.91 -0.03,-1.822 -0.03,-2.734 -0.01,-3.375 -0.01,-6.757 -1.53,-10.095 -1.36,-3 1.12,-4.2702 4.12,-4.4003 1.15,-0.0473 2.29,-0.0884 3.44,-0.1262 0.97,-0.0322 1.95,-0.0623 2.92,-0.0923 l 0.06,-0.0022 h 0.01 c 5.1,-0.1572 10.2,-0.3147 15.31,-0.7793 14.78,-1.3031 29.63,-1.3847 44.47,-1.4663 v 0 h 0.01 c 2.35,-0.0129 4.71,-0.0259 7.06,-0.0437 5.3,-0.0364 10.6,-0.4622 15.89,-0.8879 l 0.01,-8e-4 c 1.06,-0.0852 2.12,-0.1704 3.18,-0.2524 0.89,-0.0691 1.79,-0.136 2.68,-0.1987 1.88,-0.1302 4.1,-0.4102 4.16,-2.8301 0.05,-1.5923 0.28,-3.1875 0.51,-4.783 0.48,-3.3344 0.97,-6.6694 -0.25,-9.977 -0.06,-0.1709 -0.13,-0.3413 -0.2,-0.5103 l -0.13,-0.3511 c -0.85,-2.1066 -1.59,-3.9672 1.85,-4.8486 3.49,-0.8401 5.08,0.6699 4.88,4.24 -0.05,0.322 0.17,0.6563 0.44,1.0806 0.16,0.2346 0.33,0.4968 0.48,0.7993 0.67,-0.4487 1.08,-1.1902 1.49,-1.9151 0.69,-1.2453 1.35,-2.4421 3.25,-2.0249 1.2,1.3489 0.84,2.9554 0.47,4.5616 -0.43,1.8469 -0.85,3.6936 1.12,5.1484 -0.11,0.3369 -0.09,0.7041 0.07,1.0225 0.16,0.3181 0.43,0.5615 0.77,0.6775 v 0.1201 c 0.39,2.7326 1.56,5.2937 3.38,7.3698 l 0.17,0.2801 c 0.04,0.0926 0.09,0.1852 0.13,0.2779 l 0.05,0.1208 c 0.07,0.1389 0.13,0.2778 0.19,0.417 l 0.12,0.2819 0.2,0.4429 0.31,0.7195 0.15,0.31 c 0.51,3.8253 3.17,3.7293 5.79,3.6353 0.29,-0.01 0.58,-0.02 0.87,-0.025 10.42,-0.1903 10.6,-0.2702 7.6,-10.3502 -3.34,-11.0918 -5.5,-22.5052 -6.44,-34.0501 0.05,-16.5266 0.08,-33.05 0.08,-49.57006 l 42.58,62.45016 c 0,0.2732 0,0.5469 0,0.8213 -0.01,3.5928 -0.01,7.2635 2.47,10.3386 -0.44,3.9583 0.5,7.7137 1.43,11.4688 v 0.0012 c 0.59,2.3731 1.19,4.746 1.43,7.1699 0.11,1.1802 1.41,1.2901 2.5,1 l 2.15,-0.0498 c 0.55,0.231 1.16,0.314 1.76,0.2403 0.59,-0.0738 1.16,-0.3013 1.64,-0.6604 7.74,-1.5147 14.91,0.646 22.02,2.7933 l 0.01,10e-4 c 2.65,0.801 5.3,1.6 7.97,2.206 4.52,1.022 5.22,-0.673 6.4,-3.488 l 0.13,-0.312 c 1.47,-3.4657 1.47,-7.0863 1.47,-10.7035 0.01,-2.8125 0.01,-5.6228 0.7,-8.3567 4.02,-0.7532 5.55,1.7642 7.07,4.272 v 0.0019 c 0.54,0.8885 1.08,1.7759 1.73,2.5161 0.01,0.0318 0.03,0.0638 0.04,0.096 0.03,0.0815 0.06,0.165 0.08,0.2497 0.04,0.1597 0.06,0.324 0.06,0.4893 0,0.2876 -0.06,0.572 -0.18,0.835 -3.38,1.1113 -3.21,3.5036 -3.04,5.8691 v 0.0012 c 0.07,0.9974 0.15,1.9899 -0.05,2.8797 -1.29,5.7702 -0.17,6.8502 5.83,5.2702 6.19,-1.709 12.58,-2.573 19,-2.57 2.56,0.01 3.8,0.89 5.56,2.77 2.82,3.022 6.14,5.595 9.45,8.158 v 10e-4 l 0.02,0.008 c 0.9,0.699 1.8,1.397 2.69,2.103 1.42,1.13 2.71,0.76 3.28,-1.13 0.29,-1.206 0.65,-2.395 1.08,-3.56 0.25,-0.581 0.43,-1.285 0.6,-1.997 0.46,-1.912 0.94,-3.879 3.1,-3.653 2.22,0.231 1.93,2.22 1.66,4.046 -0.09,0.622 -0.18,1.226 -0.16,1.734 0.2,5.88 4.39,3.53 5.39,1.88 0.07,-0.112 0.14,-0.223 0.21,-0.332 0.19,-0.293 0.4,-0.577 0.62,-0.848 z M 14.07,135.912 c -3.97,3.73 -5.4,10.47 -3.79,15.82 2.8053,-2.763 2.8704,-6.133 2.9353,-9.497 0.0418,-2.165 0.0835,-4.327 0.8547,-6.323 z m 0.1284,-21.498 c 0.1141,3.451 0.2282,6.9 -0.2784,10.318 l 1.59,0.07 1.83,-24.78 -1.89,-0.1004 c -1.5731,4.7724 -1.4123,9.6324 -1.2516,14.4924 z m 10.531,-4.977 c 0.0713,-0.975 0.1314,-1.797 0.2706,-2.605 0.43,-2.33 0.84,-5.38 -1.94,-5.65 -2.0348,-0.144 -2.1503,2.112 -2.2481,4.021 v 10e-4 c -0.0176,0.343 -0.0345,0.674 -0.0619,0.978 -1.24,13.55 -2.46,27.1 -3.58,40.65 -0.0287,0.331 -0.1874,0.724 -0.3517,1.131 v 0 l -10e-5,0.001 c -0.4652,1.152 -0.9744,2.414 1.3018,2.688 2.72,0.33 3.05,-2.56 3,-3.86 -0.2758,-6.508 0.7424,-12.881 1.7477,-19.172 0.89,-5.571 1.7699,-11.078 1.7323,-16.558 0.054,-0.594 0.0931,-1.129 0.1294,-1.625 z m 7.3989,1.312 c 0.3907,-2.577 0.7809,-5.151 1.1317,-7.737 0.019,-0.146 0.0432,-0.299 0.068,-0.456 0.1708,-1.081 0.3719,-2.353 -0.868,-2.8243 -1.4132,-0.5556 -1.8428,0.3763 -2.2703,1.3033 v 0 c -0.1957,0.424 -0.3909,0.847 -0.6797,1.127 -1.1365,1.11 -1.1113,2.626 -1.087,4.085 v 0 c 0.0035,0.21 0.007,0.419 0.007,0.625 -0.1388,4.967 -0.5628,9.921 -1.27,14.84 -1.08,9.21 -1.9,18.47 -0.08,27.79 0.4164,-3.304 0.8283,-6.617 1.2409,-9.937 0.8263,-6.645 1.6554,-13.314 2.5291,-19.983 0.3885,-2.965 0.8337,-5.901 1.2783,-8.833 z m 1.9743,20.746 c -0.552,5.7 -1.1082,11.442 0.3274,17.207 v -0.02 c 0.3979,-5.054 1.1015,-10.076 1.8044,-15.095 h 10e-5 c 1.417,-10.116 2.8317,-20.215 1.7355,-30.515 -0.3738,2.454 -0.8173,4.89 -1.2601,7.322 h -10e-5 l -7e-4,0.004 h -10e-5 c -0.9193,5.05 -1.8356,10.082 -2.119,15.224 -0.1076,1.952 -0.2972,3.91 -0.4874,5.873 z m 13.371,9.638 3e-4,-0.003 c 0.6096,-5.701 1.219,-11.399 1.6461,-17.118 0.531,-7.188 0.9446,-14.409 1.3703,-21.843 l 1e-4,-10e-4 c 0.1435,-2.5054 0.2884,-5.0352 0.4396,-7.5962 -0.481,0.2009 -0.9131,0.344 -1.2915,0.4692 l -0.0024,8e-4 -9e-4,3e-4 c -0.6742,0.2234 -1.178,0.3904 -1.4852,0.7296 -1.7203,1.8985 -1.6603,4.1587 -1.6003,6.4163 0.0275,1.037 0.055,2.073 -0.0897,3.074 -1.7493,12.915 -2.751,25.919 -3,38.95 -0.0061,0.222 -0.0273,0.466 -0.0493,0.719 v 0 c -0.1214,1.397 -0.2672,3.074 1.9593,2.981 1.6216,-0.066 1.667,-1.453 1.7071,-2.683 0.0089,-0.272 0.0176,-0.537 0.0429,-0.777 0.117,-1.107 0.2353,-2.213 0.3536,-3.319 z m 6.7464,7.879 2.07,0.14 v 0.04 c 1.0133,-14.167 2.03,-28.347 3.05,-42.54 l -1.81,-0.21 c -1.67,14.15 -2.93,28.33 -3.31,42.57 z m 13.78,-18 0.91,-14.84 c 0.1431,-2.331 0.3994,-4.66 0.6559,-6.989 0.6577,-5.975 1.316,-11.9547 0.0641,-17.9913 -2.45,8.03 -2.92,16.2603 -3.22,24.5203 l -1,11.18 c -1.2114,8.066 -1.3493,16.257 -0.41,24.36 3.06,-6.5 3.55,-13.24 3,-20.24 z m 6.06,19.22 1.85,0.12 0.01,0.02 c 1.5467,-20.454 3.1,-40.907 4.66,-61.3603 H 78.3 Z m 12.34,-2.09 c -0.13,2.12 1,3 3,2.91 l 0.01,0.02 c 0.1144,-0.006 0.2357,-0.01 0.3613,-0.015 1.1915,-0.043 2.7663,-0.099 2.4587,-1.465 -0.2635,-1.1 -0.2993,-2.291 -0.3357,-3.504 -0.0991,-3.298 -0.2029,-6.753 -4.9043,-8.946 -0.22,4 -0.41,7.53 -0.59,11 z M 457.404,41.9075 c -1.638,-0.0884 -3.315,-0.1787 -3.354,2.4043 -0.02,1.9009 -0.369,3.7717 -0.718,5.6438 -0.526,2.8257 -1.053,5.6548 -0.452,8.5962 -0.18,1 -0.31,2.08 1.32,2 l 2.25,0.1399 c 3.223,0.1644 6.445,0.3862 9.667,0.608 l 0.005,4e-4 0.046,0.0029 c 8.127,0.5596 16.256,1.1191 24.422,0.7688 1.778,0.0762 3.556,0.1855 5.334,0.2952 l 0.011,7e-4 h 0.006 l 0.003,2e-4 c 3.815,0.2348 7.628,0.4695 11.436,0.3738 6.436,-0.1648 12.882,0.3129 19.325,0.7904 l 10e-4,1e-4 0.009,8e-4 c 13.115,0.9724 26.218,1.9438 39.205,-2.5013 5.24,-1.7949 10.576,-3.3137 15.911,-4.8322 2.393,-0.6809 4.785,-1.3618 7.169,-2.0677 -9.102,-1.8005 -18.54,-0.6589 -26.95,3.2601 -7.338,3.5051 -14.675,2.5506 -21.814,1.622 l -0.002,-2e-4 c -2.025,-0.2637 -4.035,-0.5249 -6.024,-0.6819 -11.795,-0.9331 -23.18,-4.9799 -34.468,-8.9923 v -1e-4 l -0.087,-0.0308 c -0.873,-0.3103 -1.746,-0.6204 -2.617,-0.9287 -0.49,-0.1733 -0.98,-0.346 -1.47,-0.5178 -0.506,-0.1778 -1.012,-0.3545 -1.518,-0.5303 -11.43,-3.96 -23.11,-6.4102 -35.31,-5.4102 -0.157,0.0132 -0.319,0.0181 -0.485,0.0176 -0.274,-10e-4 -0.558,-0.0162 -0.843,-0.0315 l -0.004,-2e-4 z m -5.853,36.4526 c -0.082,1.9404 -0.166,3.9024 -0.551,5.6516 -1.36,6 1.4,6.8201 6.04,6.75 9.341,-0.4399 18.621,-1.749 27.72,-3.9099 0.605,-0.1355 1.21,-0.2693 1.816,-0.4021 0.98,-0.2148 1.961,-0.427 2.943,-0.6394 l 0.045,-0.0095 0.051,-0.011 c 11.127,-2.4058 22.332,-4.8284 32.265,-10.938 2.966,0.7193 5.629,-0.3037 8.315,-1.3359 1.533,-0.5894 3.075,-1.1817 4.685,-1.4541 h -11.79 c -6.671,-0.5105 -13.355,-0.7625 -20.041,-1.0144 -11.386,-0.429 -22.779,-0.8582 -34.119,-2.5657 -0.443,-0.0681 -0.901,-0.1416 -1.37,-0.2173 h -10e-4 c -4.771,-0.7669 -10.725,-1.7238 -13.629,1.0073 -2.074,1.9505 -2.225,5.4817 -2.379,9.0882 z m -3.093,25.8959 c -0.692,0.505 -1.158,1.261 -1.298,2.106 l -0.03,-0.04 c -0.258,2.143 1.454,2.301 2.86,2.43 0.178,0.017 0.352,0.033 0.516,0.053 l 0.059,0.007 0.075,0.01 c 8.607,1.1 17.223,2.1 25.85,3 1.525,0.157 3.046,0.371 4.591,0.589 v 0 c 4.861,0.685 9.962,1.404 16.169,0.471 -10.416,-6.112 -21.143,-6.864 -31.617,-7.598 l -10e-4,-0.001 c -5.002,-0.35 -9.947,-0.697 -14.772,-1.621 -0.847,-0.124 -1.71,0.089 -2.402,0.594 z M 305.572,56.4182 c -10.012,0.3819 -19.992,0.7625 -29.972,3.0435 -6.489,1.4821 -13.208,1.9426 -19.852,2.3979 h -10e-4 l -0.02,0.0015 c -2.942,0.2017 -5.87,0.4023 -8.757,0.6907 0.37,7.3899 5.06,6.8698 9.57,5.6198 18.18,-5.0097 36.65,-6.6599 55.46,-6.1098 4.814,0.1389 9.521,-0.8299 14.248,-1.8028 l 0.005,-7e-4 0.002,-3e-4 c 4.452,-0.9164 8.923,-1.8364 13.515,-1.8364 1.84,0 6.29,-0.4399 5.92,-4 -0.307,-2.9343 -2.457,-2.677 -4.521,-2.4299 v 0 c -0.756,0.0906 -1.501,0.1797 -2.139,0.1101 -4.326,-0.487 -8.39,0.6768 -12.445,1.8384 l -10e-4,4e-4 c -2.937,0.8412 -5.87,1.681 -8.894,1.8912 -4.046,0.2786 -8.085,0.4326 -12.118,0.5864 z m -66.986,37.6775 c 0.043,-1.1128 0.086,-2.2517 -1.156,-2.634 v 0.02 c -1.769,-0.5388 -2.716,1.1242 -3.39,2.309 v 1e-4 c -0.049,0.0859 -0.096,0.1692 -0.143,0.249 l -0.077,0.1318 c -1.025,1.8753 -1.887,3.8565 -2.751,5.8414 l -0.002,0.006 c -0.66,1.517 -1.321,3.036 -2.057,4.513 l -0.045,0.09 v 0 c -0.662,1.333 -1.252,2.519 -0.215,3.82 1.06,1.33 2.49,1.31 3.94,1.1 6.04,-0.88 6.83,-4.95 5.91,-9.7002 0,-0.5915 0.02,-1.1616 0.04,-1.71 0.037,-1.0371 0.071,-1.997 -0.04,-2.8801 -0.025,-0.1972 -0.031,-0.4067 -0.03,-0.6223 0.002,-0.1746 0.009,-0.3531 0.016,-0.5324 z M 214.97,109.332 c 5.71,0.12 9.27,-2.73 10.46,-8.39 l 0.01,0.07 0.519,-0.965 0.008,-0.014 0.011,-0.02 0.006,-0.012 0.011,-0.0211 c 1.04,-1.9323 2.111,-3.9245 3.435,-6.4782 -0.987,0.1458 -1.859,0.0991 -2.677,0.0552 h -10e-4 c -1.428,-0.0764 -2.695,-0.1442 -4.132,0.835 -0.316,0.2213 -0.634,0.4595 -0.957,0.7014 l -0.035,0.0258 -0.015,0.0118 -0.001,3e-4 c -1.705,1.2795 -3.549,2.664 -5.992,2.3805 -0.201,-0.1184 -0.426,-0.1911 -0.659,-0.2134 -0.232,-0.0222 -0.467,0.0066 -0.687,0.085 -0.22,0.0781 -0.421,0.2034 -0.587,0.3674 -0.167,0.1639 -0.295,0.3621 -0.377,0.5811 -0.127,0.0093 -0.247,0.0605 -0.341,0.1455 -0.094,0.0852 -0.157,0.1995 -0.179,0.3245 h -0.4 v 0.3899 l -1.83,0.08 c -1.304,-1.3486 -2.592,-0.8083 -3.843,-0.2834 -0.437,0.1836 -0.87,0.365 -1.297,0.4634 -2.009,0.4668 -4.002,1.0223 -5.994,1.5783 l -0.004,0.001 -0.003,10e-4 h -0.003 l -0.003,0.001 c -3.169,0.884 -6.336,1.767 -9.563,2.289 -4.4,0.71 -7.83,2.24 -10,6.24 -0.205,0.378 -0.534,0.72 -0.862,1.062 v 0 c -0.711,0.74 -1.419,1.476 -0.858,2.578 0.859,1.667 2.39,1.244 3.769,0.864 l 0.011,-0.003 0.009,-0.002 0.004,-0.001 c 0.149,-0.042 0.297,-0.083 0.442,-0.12 0.065,-0.017 0.131,-0.033 0.195,-0.048 10.67,-2.56 21.34,-4.81 32.41,-4.56 z m -117.3488,4.737 c 0.549,4.456 1.0981,8.912 1.8088,13.333 l 0.01,0.02 c 0.596,3.518 2.811,3.041 4.958,2.578 h 0.001 c 0.697,-0.15 1.386,-0.299 2.011,-0.308 1.77,-0.02 2.87,-1.09 2,-2.83 -2.363,-4.696 -4.814,-9.342 -7.267,-13.993 l -0.005,-0.008 -0.012,-0.024 c -0.843,-1.597 -1.6862,-3.195 -2.526,-4.795 l -1.66,0.59 c 0.2335,1.804 0.4561,3.611 0.6787,5.417 l 0.0023,0.019 z m 10.2678,34.03 c 0.184,0.006 0.365,0.013 0.541,0.023 l 0.03,0.02 c 5.54,0.07 6.54,-1.89 5.04,-8.02 -0.96,-4 -2.84,-4.65 -6.57,-4 -5.767,0.995 -4.377,3.462 -3.029,5.853 v 0.001 c 0.683,1.212 1.355,2.404 1.079,3.376 -0.742,2.613 1.175,2.683 2.909,2.747 z m 1.401,-37.557 c 2.56,3.31 4.85,6.82 4.71,10.72 -0.18,6.5 3.41,6.75 7.95,5.53 3.242,-0.82 6.463,-1.795 9.683,-2.771 l 0.005,-0.001 0.005,-0.002 0.005,-0.001 0.005,-0.002 h 0.002 c 6.358,-1.926 12.711,-3.85 19.205,-4.573 4.917,-0.544 9.074,-2.6 13.201,-4.642 h 0.001 c 3.233,-1.6 6.449,-3.19 9.998,-4.038 1.042,-0.266 1.952,-0.899 2.564,-1.783 0.612,-0.884 0.884,-1.959 0.766,-3.027 -2.644,0.692 -5.214,1.48 -7.752,2.258 -5.162,1.583 -10.193,3.125 -15.448,3.742 -7.852,0.825 -15.777,0.633 -23.58,-0.57 -1.555,-0.221 -3.12,-0.392 -4.699,-0.564 -6.062,-0.661 -12.324,-1.344 -19.021,-4.986 3.147,0.219 6.143,0.332 9.022,0.441 h 0.004 0.012 v 0 c 5.932,0.224 11.367,0.429 16.602,1.499 15.461,3.164 29.56,-1.271 43.735,-5.73 h 0.001 c 1.19,-0.375 2.381,-0.75 3.574,-1.12 0.226,-0.069 0.396,-0.326 0.565,-0.58 v -0.001 c 0.077,-0.116 0.153,-0.232 0.235,-0.329 1.82,-0.4002 2.76,-1.8103 3.53,-3.2803 1.02,-1.97 2.6,-2.8899 4.6,-2.1099 1.658,0.6589 1.054,1.3896 0.406,2.1743 v 1e-4 c -0.61,0.739 -1.26,1.5258 -0.096,2.3457 2.599,-0.8196 5.243,-1.4876 7.92,-2 8.702,-1.2728 16.994,-3.9134 25.272,-6.5501 1.805,-0.5749 3.61,-1.1497 5.418,-1.71 1.187,-0.3466 2.289,-0.9338 3.239,-1.7253 0.95,-0.7915 1.726,-1.77 2.281,-2.8748 1.61,-3.1001 1.59,-4.8999 -2.91,-4.6999 -2.915,0.1199 -5.831,0.2251 -8.746,0.3301 -5.345,0.1926 -10.689,0.3852 -16.034,0.6699 -4.75,0.2561 -9.499,0.5652 -14.248,0.8745 h -0.005 l -0.001,1e-4 c -18.608,1.2111 -37.226,2.423 -55.946,0.4552 -7.91,-0.7978 -15.9,-0.886 -23.889,-0.9741 h -10e-4 -0.008 c -3.623,-0.0398 -7.247,-0.0796 -10.862,-0.1858 -2.8,-1.6499 -5.05,-2.3301 -4.55,2.3501 l 0.3,3 c 0.1021,1.2275 0.0717,2.4458 0.0414,3.6623 v 1e-4 c -0.0795,3.1938 -0.1587,6.3755 2.1586,9.6775 0.6189,0.8903 1.572,1.8223 2.464,2.6953 1.313,1.285 2.494,2.442 2.286,3.145 -1.748,5.907 0.85,9.921 3.585,14.145 v 0 10e-4 c 1.677,2.59 3.405,5.259 4.215,8.494 2.285,-4.815 0.926,-8.545 -0.359,-12.072 -0.649,-1.783 -1.28,-3.515 -1.411,-5.308 z m 30.627,31.368 c 2.994,-0.624 5.987,-1.248 8.973,-1.898 2.86,-0.64 5.51,-1.5 7.2,-4.33 1.629,-2.749 3.41,-5.415 5.455,-8.477 l 0.008,-0.012 0.003,-0.003 c 0.965,-1.444 1.989,-2.977 3.084,-4.648 -16.3,3.14 -30.78,7.27 -45.3,11.42 -3.589,1.025 -2.844,3.164 -2.118,5.249 l 0.001,0.002 c 0.222,0.639 0.443,1.273 0.537,1.869 0.49,3.1 1.42,5.45 5.61,4.45 5.488,-1.317 11.018,-2.47 16.547,-3.622 z m 67.193,-10.108 c 7.16,0.01 9.56,-4.21 11,-10.21 v -0.02 c 1.02,-4.26 0.21,-6 -4.59,-5.87 -7.609,0.224 -15.074,1.475 -22.536,2.726 l -0.004,0.001 c -5.835,0.978 -11.669,1.956 -17.57,2.443 -0.939,0.073 -1.841,0.397 -2.613,0.937 -0.772,0.539 -1.386,1.276 -1.777,2.133 l -7.5,14.08 c 1.263,0.132 2.537,0.132 3.8,0 13.71,-3.6 27.58,-6.22 41.79,-6.22 z m 13.27,-0.83 c 7.43,-2.51 13.01,-5.61 17.61,-10.38 l 0.01,-0.05 c 0.608,-0.566 1.04,-1.296 1.242,-2.102 0.202,-0.805 0.167,-1.652 -0.102,-2.438 -0.576,-1.518 -1.73,-1.401 -2.885,-1.285 h -0.001 l -0.002,0.001 c -0.488,0.049 -0.977,0.098 -1.422,0.024 -6.72,-1.13 -11.05,0.82 -11.72,8.37 -0.124,1.411 -0.696,2.789 -1.436,4.571 v 0 10e-4 c -0.398,0.957 -0.843,2.03 -1.294,3.288 z m 53.922,-3.15 c 5.986,-0.182 11.988,-0.008 17.99,0.166 h 0.003 c 13.58,0.395 27.16,0.789 40.555,-2.946 -10.451,0.727 -20.915,1.127 -31.378,1.528 h -0.002 -0.006 l -0.088,0.004 -0.029,0.002 c -9.019,0.345 -18.036,0.69 -27.045,1.246 z m -22.903,-8.067 c 6.624,-6.28 12.495,-7.96 19.911,-6.453 4.365,0.911 8.709,1.931 13.056,2.952 l 0.026,0.006 h 0.005 l 0.004,10e-4 0.004,0.001 0.004,0.001 c 9.284,2.179 18.582,4.363 28.121,5.499 -6.691,-0.252 -13.408,0.249 -20.174,0.754 h -0.002 l -0.007,10e-4 c -13.394,1 -26.982,2.014 -40.948,-2.762 z m 92.981,1.257 c 3.54,-0.22 5.5,-1.17 6.24,-5.22 v -0.07 l 0.13,-0.707 c 0.891,-4.83 1.348,-7.309 0.352,-8.847 -1.052,-1.622 -3.724,-2.194 -9.215,-3.37 v 0 l -0.077,-0.016 c -0.323,-0.07 -0.642,-0.148 -0.961,-0.226 h -10e-4 c -1.291,-0.316 -2.563,-0.627 -3.918,-0.314 -2.372,-0.416 -4.773,-0.744 -7.173,-1.071 l -0.004,-0.001 -0.015,-0.002 -0.003,-0.001 h -0.003 l -0.003,-0.001 h -0.003 c -5.269,-0.719 -10.535,-1.4373 -15.496,-3.0842 -18.43,-6.1001 -37.49,-7.4299 -56.57,-8.24 -1.502,-0.0646 -2.8,-0.1524 -3.923,-0.2283 l -0.002,-2e-4 h -0.002 c -3.248,-0.2197 -5.019,-0.3394 -5.967,0.4861 -1.138,0.99 -1.092,3.3398 -0.991,8.5083 v 0.0022 0.0116 c 0.015,0.7641 0.031,1.5895 0.045,2.4805 l -0.015,0.126 -0.03,0.25 c -0.247,2.011 -0.553,4.501 2.485,3.984 8.717,-1.49 16.909,0.618 25.07,2.718 h 0.001 c 2.464,0.635 4.926,1.268 7.399,1.802 6.682,1.442 13.447,2.303 20.21,3.164 h 0.008 c 8.052,1.026 16.101,2.051 24.002,4.056 1.635,0.413 3.256,0.909 4.878,1.407 h 0.001 c 4.388,1.345 8.791,2.695 13.551,2.403 z m -4.725,-26.011 h 0.005 c 3.667,0.2107 7.335,0.4216 10.9,1.3108 v -0.0701 c 0.091,-0.0122 0.181,-0.031 0.27,-0.0559 0.157,-0.0447 0.309,-0.1096 0.451,-0.1931 0.027,-0.0157 0.053,-0.0319 0.079,-0.0488 0.018,-0.0118 0.036,-0.024 0.054,-0.0364 0.033,-0.0232 0.065,-0.0474 0.096,-0.0728 0.128,-0.102 0.242,-0.2199 0.34,-0.351 0.153,-0.2059 0.264,-0.4405 0.326,-0.6897 0.062,-0.2493 0.074,-0.5083 0.034,-0.7623 0.04,-0.0676 0.069,-0.1403 0.087,-0.2158 0.005,-0.021 0.009,-0.0422 0.012,-0.0635 0.007,-0.0397 0.01,-0.08 0.01,-0.1206 0,-0.0306 -0.002,-0.061 -0.006,-0.0911 -0.002,-0.0213 -0.005,-0.0425 -0.01,-0.0634 -0.005,-0.0281 -0.012,-0.0559 -0.021,-0.0832 -0.018,-0.0564 -0.042,-0.1109 -0.072,-0.1624 l -0.21,-2.22 -0.1,-0.25 c -0.101,-2.1204 -1.512,-2.1662 -2.886,-2.2109 v 0 c -0.093,-0.0029 -0.185,-0.0059 -0.277,-0.0095 -0.135,-0.0054 -0.27,-0.0122 -0.402,-0.0225 l -0.085,-0.0071 c -12.547,-1.1467 -25.093,-2.2832 -37.64,-3.4099 -2.69,-1.4202 -2.14,-3.6201 -1.49,-5.9001 0.736,-2.5852 2.778,-2.3904 4.54,-2.2222 l 0.227,0.021 0.136,0.0124 c 0.024,0.0022 0.048,0.0043 0.072,0.0063 0.052,0.0045 0.104,0.0087 0.155,0.0125 l 1.371,0.1006 c 9.884,0.7256 19.784,1.4524 29.629,2.5994 4.86,0.55 5.97,-1.2 4.86,-5.45 -0.446,-1.1621 -0.748,-2.3745 -0.9,-3.6101 -0.05,-5.51 -2.63,-6.0297 -7.63,-5.2998 -10.884,1.648 -21.857,2.6499 -32.86,3 -18.61,0.4554 -36.708,4.0237 -54.839,7.5987 l -2.951,0.5813 c -3.028,0.5742 -2.967,2.2844 -2.9,4.1552 0.01,0.2791 0.02,0.5618 0.02,0.8448 10e-4,0.0537 10e-4,0.1084 0,0.164 -0.001,0.0847 -0.003,0.1714 -0.005,0.2595 -0.003,0.0948 -0.007,0.191 -0.011,0.2881 v 0.003 c -0.055,1.4287 -0.118,3.0673 2.106,2.9052 8.736,-0.7163 17.523,-0.5288 26.22,0.5601 -0.355,-1.9983 -1.687,-2.6563 -2.947,-3.2788 -1.011,-0.499 -1.975,-0.9754 -2.353,-2.1011 3.291,-1.7671 5.768,-0.4455 8.239,0.8723 l 0.258,0.1372 c 0.184,0.0979 0.368,0.1951 0.553,0.2906 0.543,0.2792 1.085,0.5665 1.626,0.8538 l 0.009,0.0046 0.011,0.0058 0.014,0.0073 0.001,4e-4 c 3.631,1.9254 7.27,3.8549 11.609,3.6378 7.167,2.1043 14.553,3.0181 21.911,3.9283 0.65,0.0803 1.3,0.1606 1.949,0.2419 l 0.35,0.1799 c 1.016,0.7879 2.182,1.3601 3.427,1.6817 1.245,0.3215 2.542,0.3855 3.813,0.1884 4.76,2.0416 9.791,2.3303 14.824,2.6191 z m 16.235,19.031 c -0.96,4.37 0.86,5.36 4.61,4.45 v -0.07 c 5.79,-1.4 10.68,-4.21 14.03,-9.44 -1.556,-1.309 -3.338,-1.502 -5.079,-1.69 -0.72,-0.078 -1.433,-0.155 -2.121,-0.31 -9.431,-2.128 -9.441,-2.081 -11.378,6.777 z m 8.064,-15.6145 0.018,0.0037 c 1.682,0.3518 3.362,0.7033 5.028,1.1005 2.906,0.6913 2.802,-0.739 2.696,-2.1801 v -3e-4 c -0.037,-0.4977 -0.073,-0.9964 0.014,-1.4097 9.965,8.4994 19.05,4.2124 28.164,-0.0876 1.706,-0.8049 3.412,-1.6101 5.126,-2.3323 -14.797,-2.7104 -29.807,-4.0859 -44.85,-4.1098 -0.365,-0.0525 -0.736,-0.0127 -1.082,0.1152 -0.345,0.1279 -0.653,0.3401 -0.895,0.6174 -0.243,0.2771 -0.412,0.6106 -0.493,0.97 -0.081,0.3591 -0.07,0.7329 0.03,1.0872 0.054,0.4089 0.075,0.8374 0.096,1.2683 0.091,1.8137 0.183,3.6643 2.704,4.2216 1.135,0.253 2.274,0.491 3.411,0.729 z m 8.656,16.3745 c 3.72,-4.43 6.93,-6.54 13.08,-3.61 z m 22.67,-7.15 c 11.23,-1.85 22.32,-4.29 33.39,-6.85 l 0.03,-0.01 c -12.2,-2.7703 -23.05,0.82 -33.42,6.86 z m 14.91,4.92 c -4.968,0.347 -9.828,1.618 -14.33,3.75 l 0.03,-0.01 c 6.43,4.41 8.67,3.84 14.3,-3.74 z m 4.509,7.177 c 5.385,0.311 10.766,0.621 16.161,0.803 l 0.04,-0.01 c 3.1,0.1 4.33,-1.98 4.43,-4.81 0.1,-3.03 -2.27,-2.69 -3.9,-2.39 -0.87,0.165 -1.743,0.323 -2.617,0.481 -5.942,1.073 -11.929,2.154 -17.543,5.729 z m 15.263,-31.8044 c 8.109,0.9275 8.214,0.9394 9.468,-7.3028 l 0.04,-0.01 0.013,-0.0827 c 1.058,-6.9949 1.583,-10.4646 0.095,-12.3152 -1.465,-1.8218 -4.881,-2.075 -11.658,-2.5774 v 0 l -1.14,-0.0847 c -4.374,-0.3346 -8.775,-0.465 -13.183,-0.5956 l -0.004,-1e-4 h -0.012 l -0.001,-1e-4 c -7.587,-0.2246 -15.193,-0.4497 -22.71,-1.7143 l -0.28,-0.3401 c -0.94,-2.8598 -3.2,-3.5498 -5.86,-3.5498 -7.45,-0.1472 -14.889,0.6458 -22.14,2.3599 -9.642,2.4302 -9.634,2.479 -8.172,12.0574 l 0.092,0.6027 c 0.71,4.6199 2.39,6.8899 7.39,7 4.913,0.1123 9.827,0.5843 14.74,1.0562 2.087,0.2004 4.173,0.4009 6.26,0.5737 l 3.76,0.25 c 4.571,0.4922 9.143,0.9751 13.714,1.4579 l 0.043,0.0045 0.198,0.0205 c 9.751,1.0301 19.5,2.0601 29.235,3.177 z m 10.624,-28.9905 c 1.591,-1.2822 1.872,-4.1899 2.433,-10.0059 l 0.071,-0.7365 0.04,-0.01 c 0.47,-4.8099 -0.04,-7.3399 -5.27,-5.97 -3.944,-0.3296 -7.495,0.788 -11.011,1.8948 l -10e-4,5e-4 c -2.67,0.8405 -5.32,1.6748 -8.108,1.8647 -17.593,1.22 -35.18,2.4734 -52.76,3.76 -2.326,0.1689 -4.647,0.3952 -6.968,0.6214 l -0.002,2e-4 h -0.002 c -2.218,0.2163 -4.435,0.4324 -6.658,0.5984 -2.61,0.1999 -3.07,1.6902 -2.61,3.8501 0.4,1.81 1.03,2.82 3.4,2 11.461,-3.969 23.363,-4.7364 35.284,-5.5049 2.766,-0.1782 5.533,-0.3567 8.296,-0.5752 4.02,-0.3201 6.05,1.74 5.46,4.4299 -0.671,3.0643 0.51,3.0078 1.975,2.9378 v 0 h 0.011 l 0.005,-3e-4 c 0.299,-0.0143 0.61,-0.0292 0.919,-0.0173 2.437,0.0842 4.88,0.1233 7.323,0.1623 5.668,0.0904 11.337,0.1807 16.927,0.8377 l 0.951,0.1125 c 5.803,0.688 8.704,1.032 10.295,-0.2502 z m 4.114,59.8679 c -0.21,1.21 0.38,2.07 1.6,2 l 0.04,-0.01 c 2.945,-0.164 5.908,-0.021 8.873,0.121 l 0.009,0.001 c 6.446,0.311 12.899,0.623 19.178,-2.212 -6.1,-2.42 -12.453,-2.799 -18.796,-3.176 h -10e-4 c -2.569,-0.153 -5.135,-0.306 -7.683,-0.594 -2.22,-0.25 -2.89,1.95 -3.22,3.87 z m 31.05,5.231 c 3.717,0.624 6.857,1.151 10.02,-0.451 l 0.04,-0.01 c 0.41,-0.2 0.54,-2.03 0.38,-2.06 -3.668,-1.252 -7.681,-1.008 -11.17,0.68 -0.043,0.016 -0.08,0.043 -0.124,0.089 -0.039,0.042 -0.084,0.099 -0.143,0.181 -0.041,0.056 -0.088,0.124 -0.146,0.205 l -0.002,0.004 c -0.16,0.226 -0.394,0.559 -0.765,1.051 0.639,0.097 1.26,0.201 1.866,0.303 z m 55.02,-0.931 c -13.51,-4.97 -26.86,-2.99 -40.17,0.85 l 0.04,-0.01 c 13.41,0.78 26.82,1.34 40.13,-0.84 z m 105.081,-2.69 c -19.4,-0.836 -38.701,-1.667 -58.161,5.72 l 0.04,-0.01 c 15.81,3.31 60.84,-0.25 68.48,-5.31 -3.432,-0.102 -6.861,-0.25 -10.286,-0.398 l -0.023,-0.001 z m 13.989,-20.1 -28.15,4.82 0.03,0.02 c 2.537,-0.04 5.096,0.063 7.655,0.166 7.125,0.286 14.249,0.572 20.885,-2.216 z m 4.077,-10.1941 c 0.53,-2.7138 1.06,-5.4294 1.713,-8.1162 0.59,-2.3899 -0.27,-3.51 -2.67,-3.6098 -12.36,-5.3001 -24.88,-4.8201 -37.5,-1.1302 -0.603,0.086 -1.207,0.1639 -1.811,0.24 l -0.51,0.0642 -0.007,8e-4 c -1.685,0.2116 -3.365,0.4228 -5.022,0.7651 -2.135,0.4421 -4.285,0.7947 -6.431,1.1465 -8.093,1.3274 -16.127,2.645 -23.099,8.7234 -3.28,2.8601 -8.41,6.56 -14.95,5.3 -4.36,-0.8301 -9.19,1.8902 -14.57,5.5301 9.76,1.1902 17.86,2.0802 26.16,1.1402 1.953,-0.2191 3.91,-0.4923 5.868,-0.7657 9.224,-1.2881 18.489,-2.5816 27.562,1.7657 1.382,0.477 2.873,0.54 4.29,0.18 5.501,-1.002 10.999,-2.0353 16.497,-3.0688 6.904,-1.2978 13.809,-2.5957 20.723,-3.8315 1.9,-0.3399 3.08,-0.98 3.47,-2.8699 0.096,-0.4878 0.191,-0.9758 0.287,-1.4639 z m 6.253,-12.7561 c 1.98,0.49 4.09,0.6599 3.83,-2.1902 -0.073,-0.8689 0.25,-1.9318 0.574,-2.994 v -8e-4 c 0.689,-2.2622 1.376,-4.5208 -1.774,-4.895 -2.93,-0.3555 -5.858,-0.8509 -8.788,-1.3467 l -0.002,-3e-4 c -7.868,-1.3312 -15.755,-2.6656 -23.77,-1.3029 -4.537,0.7761 -9.014,1.8923 -13.493,3.0087 -9.598,2.3929 -19.197,4.7857 -29.377,3.8311 -1.823,-0.1719 -3.601,0.3889 -5.401,0.9565 -2.178,0.6871 -4.389,1.3841 -6.749,0.8035 -5.034,-1.8638 -9.928,-0.8855 -14.834,0.0952 l -0.007,0.0015 c -1.251,0.25 -2.504,0.5 -3.759,0.7034 -3.089,0.4999 -5.859,1.8668 -8.605,3.2226 l -10e-4,5e-4 -0.002,6e-4 c -2.747,1.3563 -5.472,2.7014 -8.472,3.1561 -4.814,0.7256 -9.302,2.2937 -13.603,3.7964 l -0.005,0.0015 -0.003,7e-4 -0.002,8e-4 -10e-4,2e-4 c -2.691,0.9404 -5.309,1.855 -7.886,2.5205 -1.09,1.0203 0.177,1.4058 1.358,1.7644 1.526,0.4641 2.907,0.8838 -1.148,2.5757 L 508,92.9216 c 20,7.2304 37.8,5.99 54.87,-4.3899 1.57,0.0901 3.11,0.1001 4.26,-1.26 2.29,0.26 4.41,0.2 6.29,-1.3 h 0.43 c 1.05,-0.0698 2.09,-0.1799 2.64,-1.25 0.356,-0.2031 0.71,-0.4094 1.062,-0.6177 0.629,-0.3713 1.253,-0.7485 1.877,-1.1255 l 10e-4,-3e-4 c 4.415,-2.6678 8.797,-5.3151 14.36,-5.6264 5.389,-0.4016 10.739,-1.2241 16,-2.4599 l 1.605,-0.3484 c 12.637,-2.7476 25.195,-5.4778 37.965,0.0483 2.33,1.0093 4.875,1.5264 7.42,2.0435 h 0.002 c 1.136,0.2309 2.271,0.4621 3.388,0.7365 z m -57.028,-18.57 c -2.152,0.7468 -4.236,1.4699 -6.442,1.4699 5.71,1.22 11.08,0.0701 17.43,-2.57 -4.27,-1.232 -7.708,-0.0386 -10.988,1.1001 z m 33.626,-7.9295 c -4.598,0.2854 -9.203,0.5713 -12.418,4.2696 0.949,-0.1687 1.913,-0.292 2.876,-0.4148 3.659,-0.4676 7.295,-0.9322 10.034,-3.8853 z m 16.449,6.9683 c -2.686,0.3904 -5.264,1.323 -7.577,2.7412 1.191,0.1399 2.382,0.2822 3.573,0.4246 l 0.031,0.0036 c 3.816,0.4558 7.63,0.9114 11.456,1.2918 l 0.195,0.0166 h 10e-4 c 1.313,0.1133 2.951,0.2545 2.894,-1.9068 -0.039,-1.5259 -1.193,-1.7917 -2.47,-2.0859 l -0.06,-0.0139 c -2.621,-0.7012 -5.358,-0.8614 -8.043,-0.4712 z m 15.835,-12.3023 c 0.009,-0.5036 0.019,-0.9926 0.098,-1.3864 0.33,-1.6902 -0.86,-2.2102 -2.26,-1.8401 -2.378,0.6428 -4.731,1.3523 -7.361,2.1455 l -1.385,0.4172 c -0.751,0.2258 -1.527,0.458 -2.334,0.6973 2.67,2.0166 5.355,2.1809 7.875,2.3352 h 0.002 c 1.14,0.0701 2.247,0.1382 3.303,0.3747 2.001,0.4515 2.033,-1.2136 2.062,-2.7434 z M 638.92,41.6419 c 5.475,-2.9053 11.604,-4.355 17.8,-4.2103 4.918,0.1778 9.774,-1.1477 13.92,-3.7998 -2.293,0.0201 -4.591,-0.0373 -6.886,-0.0947 h -0.002 c -7.924,-0.1982 -15.829,-0.396 -23.482,2.6048 l -2.77,0.2998 -2,0.6401 c -2.91,1.6599 -5.84,3.22 -9.37,2.8201 -0.083,-0.0088 -0.165,-0.0183 -0.248,-0.0286 -0.101,-0.0125 -0.203,-0.0259 -0.304,-0.04 -0.224,-0.0315 -0.449,-0.0662 -0.674,-0.1006 -1.662,-0.2556 -3.319,-0.5105 -4.924,0.549 l -3.53,0.6102 -1.1,0.1599 -33.37,5 c -1.982,0.666 -4.07,0.8825 -6.161,1.0993 l -10e-4,1e-4 c -3.184,0.3303 -6.376,0.6615 -9.218,2.5805 5.18,-1.0806 10.341,-1.2837 15.509,-1.4868 l 0.067,-0.0029 h 0.004 l 0.005,-2e-4 c 0.805,-0.0317 1.61,-0.0634 2.415,-0.0987 0.284,-0.0125 0.568,-0.0254 0.852,-0.0388 0.222,-0.0105 0.445,-0.0213 0.668,-0.0325 14.08,1.6999 27.94,0.8498 41.49,-3.5801 3.752,-0.3198 7.425,-1.2593 10.87,-2.78 z m 287.76,41.75 c 1.694,-2.8465 2.462,-6.1485 2.2,-9.4502 -0.07,-1.3399 -0.97,-1.6299 -2.13,-1.3699 -0.664,0.2385 -1.329,0.4763 -1.994,0.7134 -0.862,0.3071 -1.724,0.6135 -2.586,0.9199 -1.145,0.407 -2.291,0.8142 -3.436,1.2236 -1.206,0.4312 -2.411,0.8648 -3.614,1.303 -0.027,0.0071 -0.055,0.0149 -0.082,0.0235 l -0.027,0.009 c -0.029,0.0097 -0.057,0.0202 -0.086,0.0317 -0.046,0.0186 -0.091,0.0396 -0.135,0.0628 -0.079,0.041 -0.153,0.0891 -0.224,0.1435 -0.084,0.0654 -0.162,0.1397 -0.23,0.221 -0.065,0.0764 -0.122,0.1591 -0.171,0.247 -0.1,0.1819 -0.162,0.3823 -0.182,0.5889 -0.019,0.2065 0.003,0.415 0.067,0.6125 0.93,2.3872 3.041,3.076 5.114,3.752 0.644,0.2102 1.285,0.4194 1.886,0.6782 0.263,0.1135 0.544,0.249 0.836,0.3902 1.638,0.791 3.623,1.75 4.794,-0.1001 z m -10.329,10.1572 c 0.259,0.0146 0.518,0.0293 0.774,0.0486 0.421,0.0319 0.834,0.0766 1.225,0.154 0.642,-0.1769 1.497,-0.216 2.351,-0.255 l 10e-4,-1e-4 c 1.847,-0.0842 3.684,-0.168 3.328,-1.6448 -0.631,-2.7148 -3.611,-3.0132 -6.363,-3.2886 -0.735,-0.0734 -1.454,-0.1455 -2.107,-0.2614 -1.57,-0.2801 -4.52,-0.1302 -4,2.4499 0.519,2.5574 2.639,2.6763 4.756,2.7952 z M 901.48,27.6318 c -11,1.3399 -24.41,-0.8701 -28.82,-4.4201 z M 736.34,23.2117 c -4.41,3.55 -17.82,5.76 -28.82,4.4201 z m -51.54,20.738 c 0.047,1.2464 0.096,2.5147 -0.46,3.512 h 0.02 c -1.95,3.55 0.42,3.9599 3.04,3.75 6.581,-0.5271 13.022,0.4289 19.472,1.3865 l 0.003,7e-4 c 4.194,0.6228 8.392,1.2461 12.635,1.4629 6.774,0.343 13.545,0.8579 20.314,1.3728 h 0.006 l 0.002,10e-5 c 18.48,1.4055 36.953,2.8103 55.468,0.7172 2.069,-0.1053 4.141,-0.1053 6.21,0 v -1.4602 c 0.902,0.5654 1.898,0.9648 2.94,1.1801 1.063,-0.2097 2.079,-0.6093 3,-1.1801 v 1.4602 c 2.069,-0.1053 4.141,-0.1053 6.21,0 18.55,2.1267 36.993,0.7119 55.442,-0.7034 l 0.02,-0.0016 c 6.787,-0.5205 13.574,-1.041 20.368,-1.3851 4.243,-0.2168 8.441,-0.8401 12.635,-1.4629 l 0.003,-7e-4 c 6.45,-0.9576 12.891,-1.9136 19.472,-1.3865 2.58,0.25 5,-0.25 3,-3.75 -0.556,-0.9973 -0.507,-2.2656 -0.46,-3.512 0.078,-2.0278 0.153,-3.9975 -2.38,-4.6479 -0.756,-0.1939 -1.515,-0.398 -2.278,-0.6031 -5.65,-1.5195 -11.461,-3.082 -17.232,-0.747 -0.412,0.1602 -0.776,0.3399 -1.098,0.4994 l -0.012,0.0057 -0.005,0.0029 -0.002,8e-4 c -1.275,0.632 -1.901,0.9426 -2.363,-1.5088 -0.214,-1.0799 -1.251,-1.0432 -2.173,-1.0108 -0.154,0.0056 -0.304,0.0108 -0.447,0.0108 -15.09,-0.6399 -29.54,-4.5699 -43.91,-8.71 -7.365,-2.1219 -14.885,-2.32 -22.4,-2.518 l -10e-4,-10e-5 h -0.005 c -5.339,-0.1406 -10.676,-0.2812 -15.954,-1.1118 -2.959,-0.4663 -5.954,-0.7424 -8.942,-1.0178 l -0.458,-0.0422 -0.748,0.0686 h -0.002 c -2.9,0.2656 -5.798,0.5312 -8.67,0.9914 -5.301,0.8426 -10.662,0.9839 -16.024,1.1253 h -0.005 -10e-4 c -7.492,0.1975 -14.987,0.3951 -22.33,2.5046 -14.37,4.1401 -28.82,8.0701 -43.91,8.71 -0.048,0 -0.096,-8e-4 -0.146,-0.002 -0.106,-0.0029 -0.217,-0.0078 -0.329,-0.0132 -0.896,-0.042 -1.934,-0.0908 -2.145,1.0152 -0.464,2.4863 -1.093,2.167 -2.38,1.5149 -0.323,-0.1639 -0.687,-0.3484 -1.1,-0.5149 -5.744,-2.3381 -11.589,-0.7682 -17.253,0.7532 l -10e-4,2e-4 -0.453,0.1218 c -0.211,0.0564 -0.421,0.1128 -0.632,0.1685 -0.391,0.104 -0.782,0.2065 -1.171,0.3064 -2.533,0.6504 -2.458,2.6201 -2.38,4.6479 z m 2.151,15.6489 c -2.131,-0.218 -4.511,-0.4616 -5.281,2.4131 -0.853,3.1614 1.362,3.948 3.427,4.6814 l 10e-4,4e-4 c 0.501,0.1781 0.994,0.353 1.432,0.5582 23.81,10.8301 49.29,14.9099 74.81,18.76 8.869,1.3369 17.776,0.8313 26.691,0.3252 h 0.009 l 0.003,-2e-4 c 5.485,-0.3114 10.973,-0.623 16.457,-0.5049 5.484,-0.1181 10.972,0.1935 16.457,0.5049 l 0.003,2e-4 h 0.009 c 8.915,0.5061 17.822,1.0117 26.691,-0.3252 25.52,-3.8799 51.03,-8 74.81,-18.79 0.429,-0.1953 0.911,-0.363 1.403,-0.5337 2.073,-0.7207 4.314,-1.4993 3.457,-4.6763 -0.775,-2.8569 -3.186,-2.6186 -5.322,-2.4072 l -0.261,0.0256 c -0.125,0.012 -0.249,0.0235 -0.371,0.034 -0.063,0.0053 -0.125,0.0102 -0.187,0.0149 -0.064,0.0046 -0.127,0.0088 -0.189,0.0127 -6.194,0.3903 -12.397,0.7238 -18.6,1.0573 -14.779,0.7945 -29.561,1.5891 -44.24,3.1529 -16.792,1.7923 -33.419,0.848 -50.091,-0.099 l -0.003,-2e-4 h -0.009 c -1.185,-0.0673 -2.371,-0.1345 -3.557,-0.2009 l -2.381,0.1392 c -17.07,0.9995 -34.079,1.9953 -51.279,0.1609 -15.288,-1.6214 -30.662,-2.4461 -46.059,-3.272 l -0.014,-7e-4 C 699.18,60.3296 693.59,60.0298 688,59.6917 687.969,59.6899 687.939,59.688 687.908,59.686 l -0.063,-0.0044 c -0.094,-0.0068 -0.189,-0.0146 -0.285,-0.0231 -0.183,-0.0164 -0.37,-0.0355 -0.559,-0.0548 z m 201.726,25.8869 c 5.076,-0.6921 10.145,-1.3832 15.203,-2.1437 1.22,-0.1899 2.4,-1.0601 1.92,-2.5701 -0.36,-1.24 -1.59,-1.24 -2.59,-1 -4.923,1.1482 -9.802,2.336 -14.686,3.5252 l -0.456,0.1106 -0.234,0.0571 -0.17,0.0412 c -1.337,0.3257 -2.674,0.6515 -4.014,0.9759 0.04,0.2751 0.077,0.5525 0.115,0.8301 l 0.003,0.0263 0.056,0.4092 c 0.018,0.1319 0.037,0.2634 0.056,0.3946 l 4.797,-0.6563 z m -93.336,10.3756 c 3.065,-0.1284 6.131,-0.2568 9.189,-0.1494 3.054,-0.1074 6.116,0.0198 9.179,0.1472 h 0.001 c 6.053,0.2515 12.108,0.5031 18.11,-1.0571 0.529,0 1.061,0.0141 1.597,0.0285 3.03,0.0811 6.185,0.1656 9.643,-2.2986 -3.728,-1.0273 -6.701,-0.8466 -9.528,-0.6748 -0.585,0.0357 -1.164,0.0708 -1.742,0.0948 -9.07,-1 -18.16,-1 -27.26,-1 -9.1,0 -18.19,0 -27.26,1 -0.578,-0.024 -1.157,-0.0591 -1.742,-0.0948 -2.827,-0.1718 -5.8,-0.3525 -9.528,0.6748 3.458,2.4642 6.613,2.3797 9.643,2.2986 0.536,-0.0144 1.068,-0.0285 1.597,-0.0285 5.989,1.5669 12.044,1.3132 18.101,1.0593 z M 725.215,85.3118 c 0.038,-0.2776 0.075,-0.555 0.115,-0.8301 -1.291,-0.313 -2.583,-0.6267 -3.874,-0.9407 l -2.205,-0.5366 c -4.492,-1.0935 -8.987,-2.1875 -13.501,-3.2627 -0.98,-0.21 -2.23,-0.21 -2.59,1 -0.46,1.54 0.72,2.4102 1.94,2.6001 4.88,0.7388 9.759,1.4028 14.635,2.0662 1.789,0.2434 3.577,0.4868 5.365,0.7339 0.04,-0.272 0.077,-0.5464 0.114,-0.8206 z m -32.601,8.2165 c 2.14,-0.1008 4.301,-0.2027 4.826,-2.8266 0.56,-2.5799 -2.44,-2.69 -4.01,-2.5 -0.653,0.1159 -1.372,0.188 -2.107,0.2614 l -10e-4,1e-4 c -2.752,0.2757 -5.731,0.574 -6.362,3.2885 -0.35,1.5176 1.521,1.6065 3.375,1.6944 h 10e-4 c 0.846,0.0403 1.688,0.0804 2.314,0.2556 0.297,-0.053 0.607,-0.0879 0.923,-0.1133 0.34,-0.0274 0.688,-0.0437 1.036,-0.0601 h 0.004 z M 682.27,72.5718 c -1.15,-0.26 -2.08,0.03 -2.15,1.3699 -0.248,3.3071 0.539,6.6093 2.25,9.4502 1.171,1.8501 3.156,0.8911 4.794,0.1001 l 0.005,-0.0022 c 0.066,-0.0319 0.131,-0.0635 0.196,-0.0946 0.07,-0.034 0.14,-0.0674 0.209,-0.1 0.146,-0.0689 0.289,-0.1341 0.426,-0.1934 0.144,-0.0625 0.291,-0.1223 0.439,-0.1797 0.186,-0.072 0.375,-0.1406 0.565,-0.207 0.284,-0.0989 0.571,-0.1934 0.86,-0.2881 l 0.023,-0.0073 c 2.06,-0.6746 4.169,-1.3652 5.113,-3.7481 0.063,-0.1994 0.085,-0.4099 0.063,-0.6181 -0.021,-0.2083 -0.086,-0.4099 -0.189,-0.5921 -0.104,-0.1821 -0.243,-0.3408 -0.411,-0.4665 -0.167,-0.1255 -0.359,-0.2151 -0.563,-0.2632 -2.346,-0.8545 -4.699,-1.6909 -7.05,-2.5266 -0.952,-0.3384 -1.904,-0.6768 -2.855,-1.0161 -0.576,-0.2053 -1.15,-0.4109 -1.725,-0.6172 z m 10.5,48.5102 h 46.76 l 0.06,-2.4 c -14.425,0.12 -28.838,-0.839 -43.12,-2.87 -2.72,-0.39 -3.45,1.73 -4,3.82 -4.54,-0.01 -9.02,0.26 -13.15,2.45 0.948,0 1.896,0.024 2.843,0.049 h 10e-4 c 3.579,0.092 7.143,0.184 10.606,-1.049 z m 112.505,-4.106 c -0.267,-0.281 -0.52,-0.576 -0.755,-0.884 -0.254,0.294 -0.525,0.575 -0.81,0.84 0.264,-0.029 0.531,-0.012 0.79,0.05 0.141,-0.026 0.284,-0.039 0.427,-0.037 0.117,0.001 0.233,0.011 0.348,0.031 z m 7.415,-2.094 c 2.43,2.43 5.57,2.51 8.67,2.58 16.338,0.392 32.648,-0.709 48.938,-1.809 l 0.902,-0.061 c 2.823,0.293 5.675,0.017 8.39,-0.81 8.589,0.444 17.077,-0.544 25.565,-1.533 l 0.01,-10e-4 c 5.077,-0.591 10.155,-1.182 15.255,-1.466 2.61,-0.15 6.68,-1.69 7.27,-5.59 0.014,-0.096 0.031,-0.195 0.049,-0.297 0.026,-0.148 0.056,-0.301 0.086,-0.458 0.353,-1.84 0.8,-4.173 -2.575,-4.365 -6.927,-4.5801 -13.517,-2.4235 -20.114,-0.265 v 0 c -1.441,0.472 -2.881,0.943 -4.326,1.345 -0.497,0.139 -0.988,0.345 -1.479,0.552 l -0.002,0.001 -0.005,0.001 c -1.551,0.652 -3.099,1.303 -4.814,-0.154 1.429,-1.237 2.234,-1.934 2.262,-2.6597 0.035,-0.9347 -1.217,-1.9187 -4.081,-4.1697 l -10e-4,-9e-4 c 0.76,0.2627 1.502,0.5351 2.228,0.8022 5.024,1.8467 9.335,3.4312 14.332,-0.2822 -1.502,-0.3606 -2.98,-0.7373 -4.441,-1.1099 -8.467,-2.1579 -16.381,-4.1752 -25.139,-2.1201 -4.987,1.1685 -10.099,1.8389 -15.209,2.5088 h -0.002 c -8.314,1.0896 -16.622,2.1785 -24.369,5.4115 -10.753,4.486 -21.489,3.686 -32.307,2.879 l -0.738,-0.055 c -0.848,-0.063 -1.696,-0.125 -2.545,-0.184 -1.095,0.076 -2.19,0.157 -3.283,0.239 -10.818,0.807 -21.554,1.607 -32.307,-2.879 -7.747,-3.233 -16.055,-4.3219 -24.369,-5.4115 h -0.002 c -5.11,-0.6699 -10.222,-1.3403 -15.209,-2.5088 -8.663,-2.0244 -16.465,-0.0713 -24.907,2.042 -1.566,0.3921 -3.154,0.7893 -4.773,1.168 5.005,3.719 9.337,2.124 14.361,0.2734 0.718,-0.2641 1.449,-0.5334 2.199,-0.7934 -2.856,2.216 -4.109,3.1889 -4.082,4.1245 0.021,0.7318 0.827,1.4418 2.262,2.7058 -1.743,1.455 -3.274,0.808 -4.814,0.157 -0.492,-0.209 -0.985,-0.417 -1.486,-0.557 -1.44,-0.401 -2.878,-0.87 -4.315,-1.34 l -0.004,-0.002 h -10e-4 c -6.605,-2.1595 -13.214,-4.3202 -20.12,0.262 -3.375,0.192 -2.928,2.525 -2.575,4.365 0.051,0.264 0.1,0.519 0.135,0.755 0.59,3.9 4.66,5.44 7.27,5.59 5.034,0.291 10.046,0.878 15.058,1.464 8.557,1.002 17.113,2.003 25.772,1.536 2.715,0.827 5.567,1.103 8.39,0.81 l 0.318,0.022 c 16.484,1.132 32.969,2.265 49.522,1.868 3.1,-0.07 6.24,-0.15 8.67,-2.58 l 0.17,-0.15 c 2.64,-1.02 3.42,-3.23 3.64,-5.78 0.448,-0.3 0.927,-0.548 1.43,-0.74 v -1.08 c 0.183,0.024 0.367,0.046 0.55,0.067 l 0.227,0.026 c 0.185,0.02 0.37,0.04 0.556,0.06 l 0.031,0.003 0.021,0.003 c 0.539,0.057 1.077,0.115 1.615,0.191 0.538,-0.076 1.076,-0.134 1.615,-0.191 l 0.021,-0.003 0.031,-0.003 c 0.445,-0.048 0.889,-0.096 1.333,-0.153 v 1.08 c 0.503,0.192 0.982,0.44 1.43,0.74 0.22,2.55 0.99,4.78 3.64,5.78 z m 56.78,6.2 h 46.76 c 3.374,1.201 6.843,1.104 10.357,1.004 h 0.024 0.012 c 1.036,-0.029 2.075,-0.059 3.117,-0.054 -4.15,-2.19 -8.61,-2.45 -13.15,-2.45 -0.58,-2.09 -1.31,-4.21 -4,-3.82 -14.282,2.031 -28.695,2.991 -43.12,2.87 z m 398.36,-69.0886 c -2.06,-0.2449 -4.21,-0.5 -4.52,2.4282 -0.37,3.5901 4.08,3.99 5.92,4 4.59,0.0049 9.05,0.9226 13.5,1.8367 v 7e-4 c 4.74,0.9732 9.45,1.9419 14.27,1.8028 18.81,-0.5501 37.28,1.1098 55.46,6.1098 4.51,1.25 9.2,1.7701 9.57,-5.6198 -2.89,-0.2884 -5.81,-0.489 -8.76,-0.6907 l -0.02,-0.0015 c -6.64,-0.4553 -13.36,-0.9157 -19.85,-2.3979 -9.85,-2.2581 -19.79,-2.6389 -29.7,-3.0188 -4.14,-0.1585 -8.27,-0.3169 -12.39,-0.6111 -3.02,-0.2102 -5.96,-1.05 -8.89,-1.8912 l -0.01,-4e-4 c -4.05,-1.1616 -8.11,-2.3254 -12.44,-1.8384 -0.32,0.0344 -0.66,0.0303 -1.01,0.0066 -0.36,-0.0243 -0.74,-0.0691 -1.12,-0.1142 z M 1159,108.742 c 1.39,-0.117 3.13,-0.264 2.87,-2.42 -0.14,-0.842 -0.61,-1.593 -1.3,-2.093 -0.7,-0.501 -1.56,-0.712 -2.4,-0.587 -4.82,0.924 -9.76,1.274 -14.76,1.628 v 0 c -10.47,0.741 -21.19,1.5 -31.63,7.592 6.21,0.933 11.31,0.214 16.17,-0.471 1.54,-0.218 3.07,-0.432 4.59,-0.589 8.62,-0.9 17.24,-1.9 25.85,-3 0.18,-0.024 0.38,-0.041 0.59,-0.058 v -0.001 z m -34.8,-21.9603 c 9.1,2.1609 18.38,3.47 27.72,3.91 4.68,0.1401 7.44,-0.68 6.08,-6.68 -0.37,-1.7197 -0.45,-3.6404 -0.53,-5.5468 -0.15,-3.6373 -0.29,-7.2227 -2.44,-9.2632 -2.9,-2.762 -8.54,-1.8406 -13.26,-1.0674 -0.6,0.0974 -1.18,0.1924 -1.74,0.2773 -11.32,1.7068 -22.73,2.1365 -34.11,2.5655 h -0.01 c -6.69,0.2519 -13.38,0.5039 -20.04,1.0146 h -11.79 c 1.61,0.2844 3.14,0.8718 4.66,1.4548 v 7e-4 c 2.71,1.0361 5.38,2.0578 8.34,1.3345 9.94,6.1771 21.16,8.5756 32.3,10.9571 v 2e-4 c 1.61,0.344 3.22,0.688 4.82,1.0427 z m -55.37,-27.7793 c -7.13,0.9292 -14.49,1.8865 -21.83,-1.6206 -8.4,-3.9314 -17.83,-5.0905 -26.93,-3.31 2.36,0.6996 4.73,1.3747 7.11,2.0498 l 0.06,0.0181 v 7e-4 c 5.34,1.5183 10.67,3.0369 15.91,4.8313 12.99,4.446 26.11,3.4734 39.23,2.5007 6.44,-0.4778 12.88,-0.9553 19.31,-0.7908 3.81,0.0957 7.62,-0.139 11.43,-0.3738 l 0.01,-2e-4 v 0 l 0.05,-0.0029 c 1.77,-0.1086 3.53,-0.2173 5.3,-0.293 8.17,0.3504 16.3,-0.2092 24.42,-0.7688 l 0.01,-7e-4 c 3.23,-0.2227 6.47,-0.4451 9.71,-0.6104 l 2.25,-0.1401 c 1.63,0.1301 1.5,-0.9199 1.32,-2 0.59,-2.9228 0.06,-5.7507 -0.46,-8.5832 -0.35,-1.8577 -0.7,-3.7173 -0.73,-5.6067 -0.04,-2.583 -1.72,-2.4927 -3.35,-2.4043 h -0.02 v 2e-4 c -0.46,0.0246 -0.91,0.049 -1.32,0.0139 -12.2,-1.0298 -23.88,1.4102 -35.31,5.4102 -1.87,0.6509 -3.74,1.3169 -5.62,1.9841 -11.31,4.0276 -22.72,8.0894 -34.54,9.0159 -1.98,0.1567 -3.99,0.4175 -6.01,0.6806 z m -97.34,-22.5908 -2.77,-0.2998 c -7.608,-2.9831 -15.466,-2.8052 -23.354,-2.6264 h -0.031 l -0.016,3e-4 c -2.329,0.0529 -4.661,0.1058 -6.989,0.0761 4.145,2.6645 9.005,4.0007 13.93,3.8301 6.196,-0.1451 12.325,1.3046 17.8,4.2099 l 0.44,0.0698 c 3.445,1.5208 7.118,2.4602 10.87,2.7801 13.55,4.4301 27.41,5.28 41.49,3.58 1.34,0.0679 2.68,0.1207 4.02,0.1731 v 0 c 5.18,0.2034 10.36,0.4068 15.5,1.4869 -2.83,-1.9087 -6,-2.2358 -9.17,-2.5622 v -1e-4 0 C 1031.1,46.9121 1029,46.6951 1027,46.0117 l -33.36,-4.99 -1.1,-0.1599 -3.53,-0.6101 c -1.583,-1.0605 -3.256,-0.8042 -4.926,-0.5483 l -0.017,0.0029 -0.006,8e-4 c -0.141,0.0215 -0.282,0.0429 -0.423,0.0637 -0.26,0.038 -0.519,0.0734 -0.778,0.101 -3.53,0.3999 -6.46,-1.1601 -9.37,-2.82 z m 23.38,21.2901 c 6.35,2.6401 11.72,3.79 17.43,2.57 -2.2,-0.0078 -4.28,-0.728 -6.42,-1.4714 -3.29,-1.1394 -6.731,-2.3333 -11.01,-1.0986 z M 981.798,54.73 c 0.46,0.0588 0.921,0.1177 1.381,0.1819 0.493,0.0688 0.984,0.1433 1.471,0.23 -3.283,-3.7757 -8.013,-4.0335 -12.707,-4.2891 l -0.203,-0.011 c 2.739,2.9531 6.375,3.4177 10.034,3.8853 l 0.012,0.0014 z M 942.11,42.3018 c -1.4,-0.3702 -2.59,0.1499 -2.26,1.8401 v 0.01 c 0.079,0.3938 0.089,0.8828 0.098,1.3862 0.029,1.5293 0.061,3.1926 2.062,2.7336 1.056,-0.2365 2.163,-0.3047 3.303,-0.3747 h 0.002 c 2.52,-0.1543 5.205,-0.3186 7.875,-2.3352 -1.275,-0.378 -2.473,-0.7388 -3.617,-1.0838 l -0.101,-0.0307 -0.015,-0.0044 -0.036,-0.011 -0.037,-0.011 -0.044,-0.0133 c -2.577,-0.7764 -4.892,-1.4737 -7.23,-2.1058 z m 21.236,18.2714 c -2.309,-1.415 -4.881,-2.3464 -7.562,-2.7377 -2.685,-0.3919 -5.422,-0.2334 -8.044,0.4663 l -0.082,0.0188 c -1.269,0.2922 -2.448,0.5637 -2.448,2.0813 -0.058,2.2004 1.641,2.0327 2.966,1.9021 l 0.124,-0.0122 c 3.918,-0.3873 7.8,-0.8523 11.673,-1.3165 l 0.473,-0.0563 c 0.967,-0.1158 1.934,-0.2315 2.9,-0.3458 z m 9.525,59.8288 -0.027,0.002 c -3.361,0.147 -6.725,0.293 -10.094,0.398 v 0.01 c 7.68,5.07 52.71,8.63 68.52,5.31 -19.54,-7.417 -38.918,-6.571 -58.398,-5.72 z m -13.701,-20.07 -0.42,2.79 -0.04,0.01 c 6.66,2.774 13.791,2.483 20.935,2.192 l 0.009,-0.001 c 2.561,-0.104 5.123,-0.208 7.666,-0.171 z m 68.92,-0.8554 0.05,0.0066 0.02,0.0029 c 1.9,0.269 3.8,0.5379 5.7,0.7559 l -0.04,0.01 c 8.3,0.94 16.4,0.05 26.29,-1.1202 -5.38,-3.6401 -10.21,-6.3601 -14.57,-5.53 -6.59,1.26 -11.72,-2.4402 -15,-5.3 -6.97,-6.0784 -15,-7.3959 -23.1,-8.7232 v -2e-4 c -2.14,-0.3518 -4.29,-0.7044 -6.43,-1.1468 -1.659,-0.3427 -3.342,-0.5539 -5.029,-0.7656 l -0.019,-0.0022 -0.019,-0.0024 c -0.334,-0.0419 -0.667,-0.0838 -1.001,-0.127 -0.427,-0.0551 -0.855,-0.112 -1.282,-0.1726 -12.62,-3.6902 -25.14,-4.1701 -37.5,1.1299 -2.44,0.03 -3.3,1.1502 -2.71,3.5801 0.48,2.0825 0.903,4.1819 1.327,6.2847 l 0.007,0.0329 0.269,1.335 c 0.131,0.6426 0.263,1.2851 0.397,1.9275 0.39,1.8698 1.57,2.5297 3.47,2.8698 6.914,1.2359 13.819,2.5337 20.723,3.8316 l 0.163,0.0307 0.041,0.0074 0.041,0.0076 c 5.416,1.018 10.832,2.036 16.252,3.023 1.417,0.36 2.908,0.297 4.29,-0.18 9.13,-4.3868 18.41,-3.074 27.66,-1.7654 z m 13.82,-12.2649 c 1.15,1.3601 2.69,1.3501 4.26,1.26 l -0.04,0.01 c 17.07,10.4299 34.87,11.6703 54.87,4.4399 l -10.21,-1.8999 c -4.04,-1.6987 -2.68,-2.1064 -1.16,-2.5617 1.18,-0.3543 2.46,-0.7371 1.37,-1.7784 -2.58,-0.6662 -5.2,-1.582 -7.9,-2.5236 v -0.0015 c -4.3,-1.502 -8.79,-3.0696 -13.6,-3.7947 -2.98,-0.4543 -5.7,-1.7956 -8.45,-3.1496 -2.75,-1.3584 -5.53,-2.7295 -8.63,-3.2305 -1.26,-0.2039 -2.52,-0.4553 -3.78,-0.7065 v -3e-4 c -4.91,-0.9799 -9.79,-1.9557 -14.82,-0.0933 -2.36,0.5813 -4.59,-0.1184 -6.77,-0.8063 -1.8,-0.5667 -3.57,-1.125 -5.38,-0.9537 -10.18,0.9549 -19.78,-1.4382 -29.378,-3.831 l -0.011,-0.0029 -0.002,-5e-4 c -4.473,-1.1151 -8.947,-2.2301 -13.479,-3.0054 -7.995,-1.3628 -15.894,-0.0276 -23.772,1.3042 l -0.017,0.0029 -10e-4,3e-4 c -2.925,0.4943 -5.847,0.9881 -8.77,1.3425 -3.112,0.3706 -2.458,2.5288 -1.779,4.7693 0.329,1.0857 0.664,2.1907 0.579,3.1208 -0.26,2.8499 1.83,2.68 3.83,2.19 1.117,-0.2747 2.254,-0.5056 3.39,-0.7364 l 0.003,-7e-4 0.002,-7e-4 0.003,-8e-4 0.002,-4e-4 c 2.542,-0.5165 5.083,-1.0328 7.41,-2.0411 12.77,-5.5261 25.327,-2.7959 37.965,-0.0483 l 1.605,0.3484 c 5.26,1.2361 10.61,2.0586 16,2.46 5.56,0.3027 9.94,2.9504 14.35,5.6179 v 9e-4 c 0.98,0.5912 1.96,1.1834 2.95,1.751 0.55,1.0701 1.59,1.1802 2.64,1.25 h 0.43 c 1.88,1.5 4.05,1.5601 6.29,1.3001 z m 76.49,36.7303 c -13.31,-3.85 -26.66,-5.85 -40.17,-0.85 l -0.04,0.01 c 13.35,2.19 26.81,1.63 40.21,0.84 z m 4.41,-2.44 c -0.12,0.07 0.01,1.87 0.42,2.07 l -0.04,0.01 c 3.16,1.604 6.31,1.074 10.05,0.443 v 0 c 0.27,-0.046 0.55,-0.092 0.82,-0.138 0.36,-0.059 0.73,-0.118 1.1,-0.175 -0.15,-0.201 -0.28,-0.375 -0.39,-0.526 -0.16,-0.217 -0.28,-0.387 -0.37,-0.521 -0.24,-0.338 -0.32,-0.441 -0.42,-0.483 -3.49,-1.688 -7.5,-1.932 -11.17,-0.68 z m 31.06,-0.602 c 2.95,-0.136 5.9,-0.271 8.83,-0.108 l -0.04,0.01 c 1.22,0.07 1.81,-0.79 1.64,-2.05 -0.33,-1.87 -0.98,-4.12 -3.22,-3.87 -2.55,0.288 -5.11,0.441 -7.68,0.594 -6.35,0.377 -12.7,0.756 -18.8,3.176 6.32,2.843 12.8,2.545 19.27,2.248 z m 19.8,-5.158 c 0.14,2.78 1.36,4.88 4.47,4.78 l -0.04,0.01 c 4.73,-0.159 9.45,-0.418 14.18,-0.677 l 0.03,-0.001 c 1.8,-0.1 3.61,-0.198 5.42,-0.292 -5.61,-3.575 -11.6,-4.656 -17.54,-5.729 -0.88,-0.158 -1.75,-0.316 -2.62,-0.481 -1.63,-0.3 -4.05,-0.61 -3.9,2.39 z m 39.48,0.53 c -4.5,-2.131 -9.36,-3.403 -14.33,-3.75 l -0.04,0.03 c 5.66,7.59 7.9,8.16 14.37,3.72 z m 0.58,-8.67 c -10.39,-6.03 -21.19,-9.6303 -33.39,-6.85 l -0.04,0.03 c 11.07,2.56 22.16,5.03 33.43,6.82 z m -4.55,-11.788 c 9.11,4.3 18.2,8.587 28.16,0.0879 v 0.0297 c 0.07,0.4063 0.03,0.8953 -0.01,1.384 v 0.0011 c -0.13,1.4477 -0.26,2.8923 2.64,2.175 1.67,-0.3987 3.36,-0.7512 5.05,-1.104 l 0.08,-0.0178 0.04,-0.0072 c 1.1,-0.2322 2.21,-0.4646 3.32,-0.7108 2.52,-0.5577 2.61,-2.4082 2.7,-4.222 v -9e-4 c 0.02,-0.4304 0.05,-0.8587 0.1,-1.2674 0.1,-0.3542 0.11,-0.728 0.03,-1.0871 -0.08,-0.3594 -0.25,-0.6929 -0.49,-0.97 -0.25,-0.2771 -0.55,-0.4895 -0.9,-0.6174 -0.34,-0.128 -0.72,-0.1675 -1.08,-0.1153 -15.02,0.0288 -30,1.4043 -44.77,4.1099 1.47,0.6191 2.93,1.2996 4.4,1.9883 z m 14.1,15.338 c 6.15,-2.93 9.36,-0.82 13.08,3.61 z m 11.22,-2.23 c 3.32,5.25 8.21,8.05 14,9.46 v 0.03 c 3.75,0.91 5.57,-0.08 4.64,-4.43 l -0.07,-0.309 c -1.94,-8.833 -1.95,-8.877 -11.37,-6.751 -0.65,0.133 -1.32,0.199 -2,0.267 v 0 c -1.77,0.177 -3.59,0.359 -5.2,1.733 z m 12.61,-27.5402 c 5.02,-0.1001 6.68,-2.3701 7.39,-7 l -0.04,-0.01 0.1,-0.6308 c 1.44,-9.5503 1.45,-9.6016 -8.17,-12.0293 -7.25,-1.7141 -14.69,-2.5071 -22.14,-2.3599 -2.66,0.02 -4.92,0.69 -5.86,3.5501 l -0.28,0.3398 c -7.52,1.238 -15.08,1.4707 -22.65,1.7036 h -0.01 l -0.01,3e-4 c -4.41,0.1356 -8.83,0.2714 -13.24,0.6062 l -1,0.072 c -6.84,0.4907 -10.29,0.738 -11.76,2.5708 -1.5,1.8577 -0.97,5.3442 0.09,12.365 l 0.01,0.0622 c 1.25,8.2425 1.36,8.2303 9.44,7.3059 l 0.14,-0.0161 c 9.76,-1.1259 19.52,-2.1555 29.29,-3.185 l 0.42,-0.044 0.03,-0.0036 c 4.49,-0.4724 8.97,-0.9449 13.45,-1.4273 l 3.8,-0.24 c 1.62,-0.1457 3.24,-0.3027 4.85,-0.4597 l 0.11,-0.0095 c 5.34,-0.5193 10.69,-1.0386 16.04,-1.1607 z m -40.29,-26.25 c -0.54,-2.6901 1.46,-4.75 5.46,-4.4301 l -0.04,-0.01 c 2.76,0.2185 5.53,0.3968 8.29,0.575 l 0.01,6e-4 0.01,8e-4 c 11.92,0.7678 23.82,1.5346 35.31,5.4936 2.4,0.8601 3,-0.1499 3.4,-2 0.46,-2.1599 -0.02,-3.6499 -2.61,-3.8501 -2.22,-0.166 -4.44,-0.3821 -6.66,-0.5984 v -1e-4 c -2.32,-0.2263 -4.64,-0.4525 -6.97,-0.6214 -17.59,-1.3067 -35.17,-2.5599 -52.76,-3.7601 -2.79,-0.1896 -5.44,-1.0239 -8.11,-1.8644 v -3e-4 -4e-4 c -3.52,-1.1068 -7.07,-2.2244 -11.01,-1.8949 -5.23,-1.3398 -5.7,1.1902 -5.23,6 l 0.07,0.7364 c 0.56,5.8159 0.84,8.7241 2.43,10.0061 1.6,1.2822 4.5,0.9382 10.3,0.2502 l 0.95,-0.1125 c 5.45,-0.6197 10.97,-0.7154 16.49,-0.8111 l 0.04,-7e-4 v 0 c 2.57,-0.0449 5.15,-0.0899 7.72,-0.1882 0.31,-0.012 0.63,0.0031 0.93,0.0175 1.47,0.0701 2.65,0.1268 1.98,-2.9375 z m 50.27,35.8399 -0.21,2.22 -0.04,-0.0101 c -0.02,0.0445 -0.03,0.0899 -0.03,0.1358 -0.02,0.0825 -0.02,0.1667 0,0.2495 0.01,0.0872 0.04,0.1711 0.08,0.2483 0.02,0.0371 0.04,0.0727 0.07,0.1064 -0.05,0.2525 -0.04,0.512 0.01,0.763 0.02,0.1003 0.05,0.1985 0.09,0.2937 0.03,0.0698 0.06,0.1382 0.09,0.2046 0.04,0.0693 0.08,0.1364 0.13,0.2009 0.14,0.2104 0.33,0.3894 0.55,0.5264 0.21,0.1372 0.46,0.2295 0.71,0.2714 3.57,-0.8894 7.24,-1.1 10.91,-1.3105 5.03,-0.2888 10.06,-0.5776 14.82,-2.6194 1.27,0.1973 2.57,0.1331 3.81,-0.1885 1.25,-0.3215 2.41,-0.8935 3.43,-1.6814 l 0.35,-0.1801 0.34,-0.0403 v -2e-4 c 7.92,-0.9362 15.83,-1.8721 23.52,-4.1295 4.34,0.2171 7.98,-1.7124 11.61,-3.6376 v -8e-4 c 0.31,-0.1662 0.63,-0.3323 0.94,-0.4968 0.24,-0.126 0.48,-0.251 0.72,-0.3748 0.27,-0.1408 0.54,-0.2861 0.8,-0.4318 2.44,-1.323 4.91,-2.6697 8.2,-0.8682 -0.38,1.1257 -1.34,1.602 -2.35,2.1013 -1.26,0.6226 -2.59,1.2805 -2.95,3.2788 8.7,-1.0889 17.48,-1.2766 26.22,-0.56 2.25,0.1635 2.17,-1.513 2.11,-2.9524 v -0.0012 c -0.01,-0.231 -0.02,-0.4562 -0.02,-0.6666 0,-0.0781 0,-0.1565 0.01,-0.2346 0,-0.1639 0.01,-0.3273 0.02,-0.4901 v -0.0194 c 0.09,-1.8857 0.17,-3.6455 -2.91,-4.2559 -0.98,-0.1933 -1.97,-0.3872 -2.95,-0.5813 -18.13,-3.5749 -36.23,-7.1433 -54.84,-7.5986 -11,-0.3501 -21.98,-1.3518 -32.86,-3 -5.02,-0.6999 -7.63,-0.21 -7.63,5.3001 -0.15,1.2356 -0.45,2.4477 -0.9,3.6101 -1.14,4.25 -0.02,6.0097 4.86,5.4499 9.85,-1.1484 19.76,-1.8755 29.66,-2.602 l 0.01,-8e-4 1.33,-0.0971 c 0.19,-0.0144 0.39,-0.0332 0.59,-0.0525 1.76,-0.1682 3.8,-0.3631 4.54,2.2224 0.65,2.28 1.2,4.48 -1.49,5.8999 -12.55,1.1201 -25.1,2.2568 -37.64,3.4101 -0.25,0.0223 -0.5,0.0306 -0.76,0.0389 -1.38,0.0446 -2.79,0.0905 -2.89,2.2111 z m 50.47,35.5693 -0.02,-10e-4 h -0.01 v 0 c -10.47,-0.401 -20.93,-0.801 -31.38,-1.528 13.39,3.754 26.97,3.368 40.54,2.982 6.64,-0.189 13.28,-0.378 19.9,-0.082 -9.67,-0.63 -19.35,-1 -29.03,-1.371 z m 8.99,-4.045 h 0.01 0.01 c 13.44,1.019 27.08,2.054 41.12,-2.734 -6.69,-6.31 -12.57,-8.05 -20,-6.49 -4.37,0.912 -8.73,1.934 -13.08,2.956 v 0.001 c -9.22,2.164 -18.46,4.33 -27.91,5.475 6.58,-0.214 13.19,0.287 19.85,0.791 z m 18.12,-14.366 c 8.16,-2.1 16.35,-4.208 25.07,-2.718 v -0.02 c 3.05,0.514 2.74,-1.945 2.49,-3.926 l -0.02,-0.12 c -0.01,-0.096 -0.02,-0.191 -0.03,-0.284 0.01,-0.935 0.03,-1.7976 0.05,-2.5925 0.1,-5.1006 0.15,-7.4268 -0.98,-8.4104 -0.94,-0.8246 -2.71,-0.7054 -5.96,-0.4862 l -0.01,10e-5 c -1.12,0.0759 -2.43,0.1638 -3.94,0.2288 -19.08,0.81 -38.14,2.1399 -56.57,8.24 -4.96,1.6469 -10.23,2.3652 -15.5,3.0842 v 0 l -0.01,0.002 v 0.001 h -0.01 c -2.4,0.328 -4.8,0.656 -7.18,1.073 -1.36,-0.313 -2.63,-0.002 -3.92,0.314 l -0.02,0.005 c -0.31,0.076 -0.62,0.153 -0.94,0.221 l -0.1,0.022 c -5.48,1.204 -8.16,1.792 -9.21,3.425 -1,1.555 -0.53,4.06 0.39,8.95 l 0.11,0.603 c 0.74,4.05 2.7,5 6.24,5.22 4.76,0.292 9.16,-1.058 13.55,-2.403 1.62,-0.498 3.24,-0.994 4.88,-1.407 7.9,-2.006 15.96,-3.031 24.01,-4.056 v 0 c 6.76,-0.861 13.53,-1.722 20.21,-3.164 2.47,-0.534 4.93,-1.167 7.4,-1.801 z m 35.73,-13.9029 c 0.01,0.3698 0.03,0.7343 0,1.0647 v -0.0201 c -0.1,0.9764 -0.07,1.9622 -0.05,3.0401 v 0.0088 c 0.01,0.4978 0.02,1.0156 0.02,1.5612 -0.92,4.7002 -0.09,8.8202 5.91,9.7002 1.45,0.21 2.82,0.31 3.94,-1.1 1.05,-1.316 0.51,-2.388 -0.12,-3.638 -0.05,-0.09 -0.09,-0.18 -0.14,-0.272 -0.72,-1.446 -1.36,-2.932 -2,-4.418 v -0.002 -0.001 c -0.87,-2.0177 -1.74,-4.0332 -2.81,-5.9393 -0.02,-0.0408 -0.05,-0.0828 -0.07,-0.1258 l -0.03,-0.0598 -0.07,-0.1269 -0.02,-0.0269 c -0.64,-1.2024 -1.57,-2.9165 -3.39,-2.3706 -1.28,0.3928 -1.22,1.5842 -1.17,2.7254 z m 9.11,-0.6736 c 1.63,2.9692 2.83,5.1938 3.99,7.4385 1.19,5.66 4.75,8.51 10.46,8.39 11.07,-0.25 21.74,2.05 32.41,4.56 0.21,0.05 0.44,0.111 0.66,0.174 1.38,0.38 2.91,0.803 3.77,-0.864 0.56,-1.122 -0.15,-1.851 -0.86,-2.584 -0.33,-0.338 -0.65,-0.677 -0.86,-1.056 -2.15,-3.98 -5.58,-5.53 -10,-6.24 -3.22,-0.532 -6.37,-1.409 -9.53,-2.286 l -0.01,-0.001 v -0.002 l -0.02,-0.004 c -2,-0.555 -4,-1.1095 -6.01,-1.5773 -0.06,-0.0137 -0.12,-0.029 -0.18,-0.0456 -0.09,-0.0252 -0.18,-0.0535 -0.27,-0.084 -0.09,-0.0315 -0.19,-0.0657 -0.28,-0.1016 -0.18,-0.0706 -0.37,-0.148 -0.56,-0.2258 v -0.0039 c -1.26,-0.523 -2.54,-1.0613 -3.85,0.281 l -1.83,-0.0801 v -0.3899 h -0.4 c 0,-0.0276 -0.01,-0.0547 -0.02,-0.0808 -0.01,-0.0342 -0.03,-0.0671 -0.04,-0.0984 -0.03,-0.0539 -0.07,-0.1033 -0.12,-0.1452 -0.09,-0.0853 -0.21,-0.1365 -0.34,-0.1456 -0.04,-0.1001 -0.08,-0.1958 -0.14,-0.2861 -0.07,-0.1069 -0.15,-0.206 -0.24,-0.2952 -0.16,-0.1638 -0.36,-0.2893 -0.58,-0.3674 -0.22,-0.0781 -0.46,-0.1069 -0.69,-0.0849 -0.23,0.0222 -0.46,0.0952 -0.66,0.2136 -2.38,0.2777 -4.17,-1.0468 -5.87,-2.3042 v -8e-4 l -0.01,-0.0058 c -0.17,-0.1323 -0.35,-0.2638 -0.53,-0.3925 -0.07,-0.0533 -0.15,-0.1061 -0.22,-0.1583 l -0.17,-0.1184 -0.11,-0.0773 -0.09,-0.0628 c -1.44,-0.979 -2.7,-0.9112 -4.13,-0.8348 -0.82,0.0437 -1.69,0.0901 -2.67,-0.0534 z m -9.76,24.8755 c 0.2,0.815 0.64,1.551 1.26,2.12 4.61,4.766 10.18,7.864 17.61,10.383 -0.45,-1.257 -0.9,-2.329 -1.29,-3.286 v -0.002 c -0.74,-1.782 -1.32,-3.16 -1.44,-4.572 -0.72,-7.55 -5.01,-9.5 -11.72,-8.37 -0.45,0.078 -0.94,0.028 -1.43,-0.021 l -0.01,-10e-4 c -1.15,-0.115 -2.3,-0.231 -2.87,1.282 -0.28,0.793 -0.32,1.651 -0.11,2.467 z m 32.15,13.363 c 14.21,-0.04 28.08,2.62 41.79,6.22 1.27,0.143 2.54,0.153 3.81,0.03 l -7.5,-14.08 c -0.39,-0.857 -1,-1.594 -1.78,-2.133 -0.77,-0.54 -1.67,-0.864 -2.61,-0.937 -5.89,-0.486 -11.72,-1.463 -17.55,-2.44 v -0.001 l -0.02,-0.002 v -0.001 c -7.47,-1.251 -14.93,-2.502 -22.54,-2.726 -4.81,-0.14 -5.6,1.6 -4.6,5.86 1.43,5.98 3.83,10.21 11,10.21 z m 83.73,13.73 c 4.19,1.02 5.12,-1.35 5.61,-4.45 v -0.01 c 0.09,-0.597 0.32,-1.231 0.54,-1.871 0.72,-2.085 1.47,-4.222 -2.12,-5.239 -14.52,-4.15 -29.05,-8.28 -45.3,-11.42 1.09,1.671 2.12,3.203 3.08,4.648 2.05,3.068 3.84,5.738 5.47,8.492 1.69,2.85 4.34,3.71 7.2,4.33 2.96,0.642 5.91,1.262 8.87,1.881 5.57,1.167 11.12,2.333 16.65,3.639 z m 15.45,2.607 c 1.74,-0.064 3.65,-0.134 2.91,-2.747 l 0.01,-0.01 c -0.29,-1.031 0.4,-2.259 1.09,-3.489 1.33,-2.372 2.67,-4.75 -3.05,-5.731 -3.73,-0.64 -5.57,0 -6.57,4 -1.45,6.11 -0.48,8.07 5.07,8 0.1,-0.006 0.21,-0.01 0.32,-0.015 z m 3.53,-18.156 c 2.15,0.453 4.36,0.915 4.95,-2.591 v 0.04 c 0.76,-4.558 1.31,-9.153 1.86,-13.762 v -10e-4 -0.016 -0.009 c 0.2,-1.672 0.4,-3.347 0.61,-5.022 l -1.66,-0.59 c -0.84,1.598 -1.68,3.194 -2.52,4.789 l -0.02,0.028 v 0.013 c -2.46,4.649 -4.91,9.294 -7.27,13.99 -0.87,1.74 0.23,2.83 2,2.83 0.64,0.005 1.34,0.152 2.05,0.301 z m 8.09,-43.8311 0.3,-3 c 0.45,-4.6802 -1.8,-4.0501 -4.55,-2.2601 -3.63,0.1065 -7.26,0.1424 -10.9,0.1783 -7.98,0.0786 -15.96,0.1572 -23.86,0.9817 -18.72,1.9677 -37.34,0.7558 -55.95,-0.4556 l -0.01,-7e-4 c -4.75,-0.3089 -9.49,-0.6177 -14.24,-0.8738 -4.62,-0.229 -9.23,-0.3989 -13.85,-0.5686 -3.64,-0.1341 -7.29,-0.2681 -10.93,-0.4314 -4.5,-0.2 -4.52,1.6001 -2.91,4.6999 0.55,1.105 1.33,2.0835 2.28,2.875 0.95,0.7913 2.05,1.3787 3.24,1.7251 0.85,0.2588 1.71,0.5218 2.56,0.7869 0.51,0.1587 1.02,0.3184 1.53,0.4785 0.78,0.2437 1.56,0.4885 2.33,0.7336 l 0.01,0.0022 c 7.97,2.5132 15.94,5.0271 24.27,6.2488 2.68,0.5127 5.32,1.1804 7.92,2 1.16,-0.8198 0.51,-1.6067 -0.1,-2.3457 -0.64,-0.7844 -1.25,-1.5151 0.41,-2.1743 1.97,-0.78 3.6,0.1101 4.6,2.1101 0.77,1.47 1.71,2.8799 3.53,3.2802 0.08,0.097 0.16,0.213 0.24,0.329 0.16,0.255 0.33,0.512 0.56,0.581 1.19,0.37 2.38,0.745 3.57,1.119 14.18,4.46 28.28,8.895 43.74,5.731 5.24,-1.071 10.66,-1.276 16.6,-1.5 2.88,-0.108 5.88,-0.222 9.04,-0.44 -6.72,3.622 -13,4.316 -19.08,4.988 v 0 l -0.08,0.008 c -0.69,0.078 -1.39,0.155 -2.08,0.236 -0.83,0.097 -1.66,0.201 -2.48,0.318 -7.8,1.204 -15.73,1.395 -23.58,0.57 -5.04,-0.643 -9.88,-2.111 -14.81,-3.609 l -0.02,-0.004 c -2.74,-0.832 -5.51,-1.673 -8.37,-2.387 -0.12,1.068 0.15,2.143 0.77,3.027 0.61,0.884 1.52,1.517 2.56,1.783 3.56,0.849 6.78,2.439 10.02,4.038 v 0.001 c 4.12,2.033 8.27,4.081 13.18,4.641 6.49,0.723 12.85,2.647 19.21,4.573 v 0.002 c 3.23,0.977 6.45,1.954 9.7,2.775 4.57,1.16 8.16,0.89 7.94,-5.61 -0.14,-3.9 2.15,-7.41 4.71,-10.72 -0.13,1.812 -0.77,3.552 -1.42,5.341 v 0.002 c -1.28,3.521 -2.63,7.229 -0.35,12.037 0.81,-3.234 2.54,-5.904 4.21,-8.494 v -0.001 c 2.74,-4.224 5.34,-8.238 3.59,-14.145 -0.21,-0.703 0.97,-1.86 2.29,-3.145 0.89,-0.873 1.84,-1.805 2.46,-2.6953 2.32,-3.302 2.24,-6.4836 2.16,-9.6775 V 89.802 c -0.02,-0.6301 -0.03,-1.2607 -0.03,-1.8926 0,-0.5876 0.02,-1.1765 0.07,-1.7675 z m 6.67,64.9201 c 0.09,0.003 0.18,0.006 0.27,0.01 h -0.05 c 2.03,0.09 3.13,-0.79 3.07,-2.92 -0.15,-2.948 -0.31,-5.911 -0.49,-9.234 l -0.1,-1.766 c -4.69,2.202 -4.79,5.637 -4.89,8.922 -0.02,0.56 -0.04,1.115 -0.08,1.66 -0.03,0.451 -0.08,0.893 -0.16,1.325 -0.03,0.183 -0.07,0.364 -0.11,0.543 -0.32,1.362 1.34,1.419 2.54,1.46 z m 9.1,-62.0403 c 1.56,20.4473 3.11,40.8963 4.66,61.3503 l 1.85,-0.13 -4.23,-61.2203 z m 15.54,62.0923 c 0.97,-8.058 0.88,-16.209 -0.28,-24.242 l -1,-11.18 c -0.3,-8.26 -0.77,-16.5204 -3.22,-24.5204 -1.3,6.0794 -0.64,12.0904 0.01,18.0944 0.26,2.302 0.51,4.603 0.65,6.906 l 0.9,14.82 c -0.58,6.908 -0.1,13.658 2.94,20.122 z m 5.75,-44.392 c 0.98,14.166 1.98,28.336 3,42.51 l 2.12,-0.15 c -0.38,-14.24 -1.64,-28.42 -3.31,-42.57 z m 12.21,38.599 c 0.04,1.228 0.08,2.606 1.71,2.671 l -0.05,-0.04 c 2.21,0.092 2.08,-1.559 1.98,-2.896 v -0.017 -0.009 c -0.01,-0.112 -0.02,-0.221 -0.03,-0.327 0,-0.126 -0.01,-0.247 -0.01,-0.361 -0.25,-13.047 -1.25,-26.069 -3,-39 -0.08,-0.545 -0.11,-1.101 -0.11,-1.661 0,-0.16 0,-0.321 0,-0.482 0,-0.309 0.01,-0.62 0.02,-0.93 0.06,-2.258 0.12,-4.5187 -1.6,-6.4172 -0.31,-0.3398 -0.81,-0.5071 -1.49,-0.7307 -0.38,-0.1252 -0.81,-0.2683 -1.29,-0.4692 0.19,3.0879 0.37,6.1341 0.54,9.1501 l 0.01,0.063 c 0.4,6.847 0.79,13.542 1.28,20.227 0.43,5.719 1.04,11.416 1.65,17.117 v 0.001 c 0.11,1.107 0.23,2.214 0.35,3.322 0.02,0.161 0.03,0.333 0.03,0.51 0.01,0.092 0.01,0.185 0.01,0.279 z m 12.64,3.217 c 1.38,-5.698 0.84,-11.422 0.32,-17.028 -0.19,-1.973 -0.37,-3.931 -0.47,-5.868 -0.26,-5.033 -1.17,-10.062 -2.1,-15.12 v -0.001 c -0.2,-1.096 -0.4,-2.193 -0.59,-3.292 -0.25,-1.376 -0.48,-2.755 -0.69,-4.137 -1.1,10.315 0.32,20.42 1.74,30.539 0.69,4.957 1.39,9.917 1.79,14.907 z m 7.34,0.803 c 1.78,-9.273 1.04,-18.486 -0.01,-27.609 -0.71,-4.919 -1.13,-9.873 -1.27,-14.84 0,-0.081 0,-0.163 0,-0.245 0,-0.14 0,-0.281 0,-0.422 v -0.005 c 0.02,-1.445 0.04,-2.94 -1.08,-4.038 -0.33,-0.29 -0.54,-0.736 -0.75,-1.176 v -0.001 c -0.44,-0.91 -0.86,-1.7989 -2.25,-1.2533 -1.24,0.4903 -1.04,1.7683 -0.87,2.8373 v 0.001 c 0.03,0.153 0.05,0.301 0.07,0.442 0.36,2.688 0.77,5.354 1.17,8.014 v 0.011 0.005 c 0.43,2.845 0.86,5.684 1.24,8.54 0.97,7.404 1.89,14.796 2.81,22.207 0.31,2.508 0.62,5.018 0.94,7.532 z m 6.02,-2.509 c -0.08,1.3 0.25,4.19 3,3.86 l -0.09,-0.04 c 2.25,-0.267 1.81,-1.478 1.4,-2.582 -0.16,-0.425 -0.31,-0.835 -0.3,-1.168 -1.12,-13.55 -2.34,-27.1 -3.58,-40.65 -0.03,-0.305 -0.04,-0.638 -0.06,-0.982 -0.1,-1.915 -0.22,-4.188 -2.25,-4.018 -2.81,0.24 -2.4,3.29 -2,5.62 0.14,0.815 0.2,1.635 0.27,2.607 0.04,0.495 0.08,1.03 0.13,1.623 -0.04,5.48 0.84,10.987 1.73,16.557 1.01,6.292 2.03,12.665 1.75,19.173 z m 5.67,-46.8703 -1.89,0.1003 1.83,24.78 1.59,-0.07 c -0.51,-3.418 -0.39,-6.867 -0.28,-10.318 0.16,-4.86 0.32,-9.72 -1.25,-14.4923 z m 5.09,51.7313 c -2.73,-2.748 -2.79,-6.089 -2.86,-9.422 -0.04,-2.165 -0.08,-4.327 -0.85,-6.319 3.87,3.681 5.3,10.398 3.71,15.741 z m 5.64,-0.74 c 0.36,1.335 0.84,3.085 2.44,2.979 l -0.08,-0.04 c 1.62,-0.106 1.52,-1.314 1.42,-2.433 -0.03,-0.362 -0.06,-0.714 -0.03,-1.017 0.2,-5.934 -0.44,-11.867 -1.9,-17.62 -0.26,-7.407 -1.22,-14.772 -2.86,-22 -0.15,-0.963 -0.05,-2.121 0.05,-3.285 0.26,-2.887 0.51,-5.808 -3.05,-5.865 -3.15,-0.042 -2.73,2.617 -2.33,5.246 0.18,1.133 0.35,2.26 0.24,3.164 -0.55,4.65 -0.81,9.43 0.45,14.09 l 1,5.4 0.59,2.18 c 0.09,0.308 0.18,0.619 0.26,0.932 l 0.01,0.029 0.09,0.321 c 0.04,0.129 0.07,0.259 0.11,0.388 -0.19,4.756 1.14,9.207 2.47,13.657 0.17,0.548 0.33,1.095 0.49,1.643 0.2,0.692 0.4,1.385 0.59,2.08 z m 5.84,-24.021 h 1.45 c 0.61,-6.736 0.62,-13.512 0.04,-20.25 -0.13,-1.89 -0.67,-4.17 -3,-3.89 -2.33,0.326 -1.89,1.853 -1.49,3.264 l 0.01,0.001 c 0.11,0.405 0.23,0.8 0.27,1.155 0.62,4.868 1.31,9.726 2,14.588 v 0.006 0.033 l 0.01,0.033 c 0.24,1.685 0.47,3.372 0.71,5.06 z m 8.23,26.278 c 0.07,1.03 0.14,2.141 1.5,2.222 h -0.08 c 1.94,0.125 1.9,-1.281 1.86,-2.482 -0.01,-0.127 -0.01,-0.252 -0.01,-0.373 0,-0.106 0,-0.208 0,-0.305 -0.34,-15.571 -1.57,-31.11 -3.69,-46.54 -0.13,-0.94 -0.43,-2.05 -2.74,-2.39 0.17,3.913 0.31,7.812 0.44,11.697 v 0.024 0.005 c 0.43,12.595 0.86,25.052 2.66,37.434 0.03,0.221 0.05,0.463 0.06,0.708 z m 29.94,-32.04 c 0.05,-2.445 0.1,-4.898 0.99,-7.308 h -0.08 c 0.88,-2.41 -0.03,-5.09 -3.37,-7.52 v 25.68 c -0.77,5.827 0.26,11.503 1.29,17.191 v 0.001 0.004 c 0.37,2.041 0.74,4.083 1.03,6.134 1.61,-5.953 0.99,-11.908 0.38,-17.861 -0.4,-3.838 -0.79,-7.675 -0.59,-11.509 0.27,-1.59 0.31,-3.199 0.35,-4.812 z m 9.66,34.532 c 1.72,-0.16 1.72,-1.54 1.72,-2.75 h -0.08 c -0.11,-3.823 -0.05,-7.65 0.02,-11.477 v -0.002 c 0.13,-7.506 0.26,-15.011 -0.95,-22.481 -0.07,-0.917 -0.14,-1.84 -0.2,-2.764 -0.16,-2.169 -0.31,-4.342 -0.59,-6.446 -0.25,-1.95 -1.2,-3.67 -3.59,-3.33 -2.1,0.302 -2.16,2.059 -2.22,3.705 v 0.125 c -0.34,9.68 -0.65,19.34 0.23,29 -0.31,3.962 0.56,7.749 1.44,11.538 v 0.011 c 0.19,0.816 0.38,1.632 0.56,2.451 0.45,2.04 1.94,2.58 3.66,2.42 z m 10.14,2.405 c -4.74,-2.073 -4.93,-6.099 -5.09,-9.452 v -0.011 c -0.01,-0.177 -0.02,-0.352 -0.02,-0.525 -0.01,-0.154 -0.02,-0.307 -0.03,-0.457 -0.64,-8.803 -0.94,-17.631 -1.24,-26.459 l -0.07,-1.926 -0.05,-1.395 c -0.03,-1.067 -0.07,-2.134 -0.11,-3.201 -0.05,-1.383 -0.1,-2.766 -0.16,-4.149 -0.07,-1.82 0.37,-3.46 2.42,-3.69 2.62,-0.3 2.9,1.75 3.11,3.66 1.46,14.47 1.37,28.974 1.26,44.037 z m 3.79,-5.035 c -0.02,2.256 0.44,4.991 3.28,5 2.79,-0.009 2.89,-2.288 2.95,-3.633 0,-0.165 0.01,-0.316 0.02,-0.447 -1.29,-8.648 -1.23,-17 -1.16,-25.201 0.04,-6.053 0.09,-12.024 -0.41,-17.969 -0.02,-0.238 -0.04,-0.476 -0.05,-0.713 -0.17,-2.36 -0.32,-4.536 -3.79,-4.027 -3.42,0.49 -4,2.94 -3,5.56 1.11,3.06 0.98,6.21 0.81,9.21 -0.32,5.911 0.15,11.784 0.63,17.657 0.38,4.847 0.77,9.693 0.72,14.563 z m 9.36,-0.34 c 0.3,1.76 0.71,3.16 3,3 h -0.03 c 2.34,-0.16 2.57,-1.72 2.58,-3.44 0,-3.169 -0.08,-6.333 -0.15,-9.495 v -0.018 -0.006 c -0.03,-1.12 -0.06,-2.241 -0.08,-3.361 -0.47,-11.24 -1.08,-22.46 -4.69,-33.35 -2.15,11.26 -2.15,22.52 -1.15,33.83 -0.35,4.285 -0.17,8.597 0.52,12.84 z m 10.15,-1.222 c 0.11,1.684 0.22,3.351 2.69,3.142 h -0.03 c 2.3,-0.2 2.54,-1.82 2.49,-3.56 -0.05,-2.301 -0.15,-4.632 -0.25,-6.962 v -0.008 l -0.04,-0.905 -0.02,-0.621 -0.03,-0.671 c -0.02,-0.428 -0.03,-0.856 -0.05,-1.283 v -3.57 c -0.09,-0.58 -0.18,-1.06 -0.28,-1.58 -0.01,-0.867 -0.03,-1.733 -0.04,-2.6 -0.01,-0.814 -0.03,-1.629 -0.04,-2.443 l -0.04,-2.228 v -0.012 -0.006 c -0.11,-6.064 -0.22,-12.133 -0.18,-18.201 0.02,-3.25 -1.06,-4.3 -4.32,-4.18 -3.22,0.13 -2.92,1.722 -2.61,3.36 0.1,0.492 0.19,0.988 0.19,1.45 0.05,3.715 0.75,7.362 1.45,11.01 v 0.002 c 0.93,4.843 1.86,9.686 1.26,14.688 -0.34,0.301 -0.56,0.719 -0.6,1.171 -0.05,0.452 0.08,0.905 0.35,1.269 -0.03,0.776 -0.06,1.55 -0.08,2.322 l -0.03,0.727 c -0.02,0.557 -0.04,1.114 -0.06,1.671 -0.59,1.933 -0.3,3.81 -0.02,5.682 v 0.006 0.001 c 0.12,0.77 0.23,1.539 0.29,2.311 z m 8.79,-5.48 c -0.37,3.038 -0.78,6.418 2.12,6.432 3.35,-0.014 2.86,-2.62 2.38,-5.233 v -0.002 c -0.22,-1.201 -0.45,-2.402 -0.3,-3.355 0.24,-1.809 0.02,-3.67 -0.2,-5.531 l -0.05,-0.411 c -0.05,-0.365 -0.09,-0.73 -0.13,-1.095 -0.03,-0.321 -0.06,-0.643 -0.08,-0.963 -0.22,-8.714 -0.46,-17.424 -0.71,-26.13 0,-0.047 0,-0.095 0,-0.142 0,-0.118 0,-0.238 0.01,-0.36 0.01,-0.167 0.02,-0.337 0.03,-0.507 v -0.004 c 0.1,-1.495 0.21,-3.021 -2.37,-2.867 -2.57,0.159 -2.43,1.956 -2.31,3.559 v 10e-4 c 0.01,0.212 0.03,0.42 0.04,0.62 0.39,8.184 0.85,16.363 1.3,24.541 v 0.022 l 0.01,0.068 c 0.16,2.973 0.33,5.946 0.49,8.919 -0.01,0.316 -0.03,0.654 -0.07,1.006 -0.04,0.458 -0.1,0.941 -0.16,1.432 z m 10.49,7.488 c 0.05,0.017 0.11,0.031 0.17,0.043 0.04,0.01 0.09,0.019 0.14,0.026 0.2,0.03 0.41,0.032 0.61,0.005 h -0.03 c 1.71,-0.181 1.56,-1.552 1.44,-2.675 l -0.02,-0.175 c -0.2,-1.662 -0.53,-3.311 -0.85,-4.961 l -0.01,-0.006 c -0.15,-0.77 -0.3,-1.541 -0.44,-2.313 0.03,-3.062 0.06,-6.122 0.09,-9.182 v -0.008 c 0.09,-8.143 0.17,-16.284 0.17,-24.43 0,-0.138 0,-0.281 0.01,-0.428 0.01,-0.131 0.02,-0.265 0.02,-0.4 l 0.01,-0.004 c 0.09,-1.555 0.2,-3.312 -2.33,-3.228 -2.3,0.074 -2.38,1.792 -2.45,3.317 -0.01,0.322 -0.03,0.635 -0.06,0.923 -0.86,7.109 -0.25,14.171 0.37,21.233 0.32,3.666 0.64,7.333 0.75,11.007 -0.4,2.281 0.02,4.475 0.42,6.643 0.16,0.845 0.32,1.686 0.43,2.527 0,0.311 0.07,0.618 0.2,0.901 0.13,0.283 0.32,0.535 0.55,0.74 0.24,0.204 0.51,0.356 0.81,0.445 z m 12.2,-14.546 c 0,-0.182 -0.06,-0.359 -0.18,-0.5 h -0.03 c 0,-4.26 0.01,-8.537 0.02,-12.83 0.23,-0.566 0.32,-1.18 0.26,-1.789 -0.06,-0.608 -0.27,-1.192 -0.61,-1.701 -0.12,-1.177 -0.23,-2.354 -0.34,-3.53 v -0.044 l -0.01,-0.046 c -0.29,-3.132 -0.59,-6.261 -0.98,-9.38 -0.22,-1.6 -0.82,-3.43 -3,-3 -0.41,0.053 -0.81,0.189 -1.17,0.402 -0.13,0.076 -0.25,0.163 -0.37,0.257 -0.21,0.167 -0.39,0.36 -0.55,0.575 -0.24,0.338 -0.42,0.721 -0.51,1.128 -0.09,0.407 -0.1,0.828 -0.02,1.238 0.45,5.11 0.24,10.226 0.02,15.341 v 10e-4 c -0.25,6.076 -0.5,12.149 0.36,18.208 -0.48,2.243 0,4.391 0.47,6.532 0.06,0.293 0.13,0.586 0.19,0.88 0.02,0.113 0.05,0.227 0.07,0.34 0.05,0.239 0.1,0.478 0.14,0.718 0.39,2.14 2.01,2.24 3.75,2.14 2.21,-0.13 2.66,-1.46 2.45,-3.35 -0.15,-1.382 -0.28,-2.768 -0.41,-4.153 -0.08,-0.84 -0.16,-1.679 -0.24,-2.517 l 0.51,-4.42 c 0.12,-0.141 0.18,-0.318 0.18,-0.5 z m 3.41,-13.838 c 1.86,-5.564 1.86,-10.496 1.85,-15.304 0,-0.752 0,-1.501 0.01,-2.248 0,-0.097 0.01,-0.199 0.01,-0.304 l 0.01,-0.103 c 0.04,-0.875 0.1,-1.894 -1.22,-2.023 -1.53,-0.15 -2.28,0.98 -2.39,2.29 -0.03,0.347 -0.06,0.694 -0.09,1.041 l -0.01,0.039 c -0.47,5.209 -0.95,10.51 1.83,16.612 z m 4.3,23.905 c 2.62,-8.849 4.81,-17.7 3.26,-26.967 -0.05,-0.262 -0.11,-0.523 -0.17,-0.788 v -0.002 -10e-4 c -0.15,-0.667 -0.3,-1.357 -0.36,-2.129 -0.05,-0.614 -0.09,-1.227 -0.14,-1.841 -0.04,-0.453 -0.08,-0.907 -0.12,-1.361 v -0.038 -5.52 c -0.99,1.081 -1.73,2.367 -2.17,3.767 -0.44,1.4 -0.57,2.879 -0.37,4.333 -2.07,6.998 -1.36,13.992 -0.65,21.007 v 0.001 c 0.33,3.175 0.65,6.354 0.72,9.539 z m 46.44,-37.024 c -0.08,-0.185 -0.17,-0.371 -0.25,-0.557 -0.03,-0.064 -0.05,-0.128 -0.08,-0.192 -0.04,-0.088 -0.07,-0.176 -0.11,-0.264 l -0.02,0.01 -0.12,-0.308 c -2.7,-6.813 -2.71,-6.833 -14.54,-5.542 0.46,5.17 2.08,9.18 8.34,8.9 l 0.1,0.114 0.13,0.158 0.16,0.192 c 1.47,1.776 3.01,3.627 5.61,2.276 2.39,-1.241 1.61,-2.968 0.78,-4.787 z m -1.27,16.117 0.01,0.002 c 0.55,0.143 1.12,0.29 1.69,0.478 l -0.02,-0.04 c 0.36,-0.907 0.48,-1.893 0.34,-2.858 -0.14,-0.966 -0.52,-1.88 -1.12,-2.652 -1.81,-2.09 -3.92,-4.16 -7,-4.31 -0.43,0 -1.33,0.81 -1.27,1 0.82,2.75 1.77,5.56 4.27,7.22 0.87,0.581 1.95,0.861 3.1,1.16 z m -16.04,-17.644 0.56,0.137 0.24,0.061 0.22,0.056 -0.02,-0.04 c -0.53,-6.31 -3.91,-7.24 -9.39,-5.87 1.84,4.042 4.9,4.795 8.39,5.656 z m 7.72,11.974 c -0.92,-3.09 -12.41,-10.82 -15.62,-10.26 l -0.02,-0.04 c -1.99,0.35 -2.47,1.85 -2.45,3.48 0.25,1.9 0.77,3.6 2.41,4.28 4.35,1.81 8.75,3.49 13.21,5 1.91,0.64 3.26,0.16 2.47,-2.46 z m -22.97,11.67 c 0,0.3 -0.01,0.598 -0.16,0.76 l -0.02,-0.04 c -1.49,1.52 -3.06,3.23 -1.28,5.24 1.13,1.29 2.62,0.802 4.09,0.325 v -0.003 c 0.36,-0.117 0.72,-0.233 1.07,-0.322 2.63,-0.663 2.56,-2.463 2.5,-4.256 -0.02,-0.399 -0.03,-0.798 -0.02,-1.184 -0.43,-1.087 -0.49,-2.481 -0.56,-3.843 -0.12,-2.538 -0.24,-4.967 -2.66,-5.097 -3.1,-0.133 -3,2.645 -2.89,5.317 0.03,0.953 0.07,1.894 -0.04,2.683 -0.02,0.13 -0.02,0.276 -0.03,0.42 z m -1.46,13.96 c -0.27,2.93 1.79,3.24 4,3.24 l -0.02,-0.04 c 2.55,-0.05 5.1,-0.15 4.98,-3.69 -0.01,-0.173 -0.01,-0.354 -0.01,-0.539 v -0.004 -0.005 c -0.04,-1.694 -0.08,-3.76 -2.53,-3.202 -0.43,0.098 -0.89,0.171 -1.37,0.247 v 0 c -2.23,0.352 -4.75,0.748 -5.05,3.993 z m 9.78,-12.507 c 0.19,0.589 0.38,1.173 0.52,1.747 l -0.02,-0.05 c 0.35,1.414 1.53,1.386 2.69,1.359 0.53,-0.013 1.05,-0.025 1.49,0.101 0.16,-0.022 0.32,-0.043 0.48,-0.065 0.17,-0.022 0.34,-0.044 0.5,-0.066 0.58,-0.074 1.14,-0.145 1.7,-0.215 l 0.03,-0.004 c 2.05,-0.257 4.05,-0.508 6.03,-0.87 0.02,-0.004 0.04,-0.008 0.06,-0.011 0.1,-0.016 0.19,-0.027 0.29,-0.035 0.13,-0.011 0.26,-0.016 0.4,-0.018 0.24,-0.004 0.5,0.003 0.75,0.011 1.57,0.046 3.2,0.094 3.2,-2.377 0.04,-3.06 -1.03,-5.79 -4.43,-6.59 -2.4,-0.615 -4.86,-0.97 -7.34,-1.06 -0.78,-0.01 -1.64,-0.281 -2.5,-0.552 -1.84,-0.581 -3.68,-1.161 -4.7,0.852 -1.1,2.183 -0.25,4.656 0.58,7.076 0.09,0.256 0.18,0.512 0.27,0.767 z m 3.27,14.728 c 5.44,-4.104 11.76,-4.294 18.12,-4.485 l 0.55,-0.016 c -0.23,-3.72 -2.16,-5.25 -5.23,-5.09 -1.38,0.071 -2.75,0.279 -4.12,0.487 -1.69,0.257 -3.38,0.513 -5.07,0.513 -7.02,-0.04 -6.51,3.521 -4.25,8.591 z m 16.7,-17.991 c 0.27,2.16 1.11,3.96 3.66,4.16 l -0.02,-0.01 c 0.11,-0.017 0.22,-0.032 0.34,-0.047 1.13,-0.151 2.32,-0.31 2.27,-1.873 -0.16,-2.62 -2.17,-3.22 -4.25,-3.62 -1.11,-0.2 -2.19,-0.14 -2,1.39 z m 61.02,10.92 c 0.21,3.39 2.62,4.34 4.83,4.24 l -0.02,-0.02 c 0.14,-0.003 0.28,-0.004 0.42,-0.005 l 0.41,-0.002 c 2.4,-0.01 4.74,-0.021 4.51,-1.893 -0.38,-2.88 -2.67,-3.051 -4.92,-3.22 -0.87,-0.065 -1.74,-0.13 -2.49,-0.35 -0.95,-0.28 -2.86,-0.65 -2.74,1.25 z m 15.78,-12.991 c 0.17,-1.047 0.33,-2.088 0.57,-3.079 l -0.02,-0.02 c 0.47,-1.93 -2.36,-1.8 -3.26,-1.41 -3.83,1.551 -7.76,1.463 -11.68,1.374 -1.19,-0.026 -2.38,-0.053 -3.56,-0.034 -0.79,-0.044 -1.58,0.177 -2.24,0.627 -0.65,0.451 -1.14,1.105 -1.39,1.863 0.07,0.164 0.15,0.328 0.22,0.491 l 0.14,0.319 c 0.13,0.296 0.25,0.589 0.38,0.879 0.53,1.232 1.03,2.405 1.65,3.511 1.45,2.61 11.64,6.17 14.25,4.78 3.8,-2.03 4.38,-5.703 4.94,-9.301 z m -2.25,-10.125 c 1.91,-0.654 3.8,-1.301 4.88,-3.294 l 0.39,-0.37 c 4.51,-5.97 3.81,-7 -3,-9.54 -8.81,-3.26 -17.63,-5.3 -27,-5 -7.94,0.23 -8.41,0.85 -5.29,8 0.06,0.126 0.11,0.253 0.17,0.38 0.59,1.386 1.2,2.792 2.83,3.36 0.01,0.08 0.03,0.159 0.05,0.238 0.01,0.048 0.02,0.096 0.04,0.144 0.04,0.163 0.1,0.323 0.17,0.478 0.95,5.88 2.16,10.46 10.33,7.76 2.21,-0.723 4.6,-0.718 7.04,-0.713 2.72,0.005 5.5,0.01 8.14,-0.997 0.41,-0.158 0.83,-0.302 1.25,-0.446 z m 39.24,25.566 c 2.74,-0.624 3.14,-3.1 3.49,-5.251 v -0.007 -0.002 c 0.08,-0.433 0.14,-0.852 0.23,-1.24 l -0.02,-0.02 c 0.51,-2.39 -1.29,-2.549 -2.9,-2.692 -0.09,-0.009 -0.19,-0.017 -0.28,-0.025 -0.08,-0.008 -0.17,-0.017 -0.25,-0.026 -0.33,-0.035 -0.63,-0.081 -0.89,-0.157 -0.42,-0.124 -0.84,-0.322 -1.27,-0.523 v -0.001 l -0.01,-0.002 c -1.22,-0.575 -2.51,-1.181 -4.08,-0.204 0.05,0.918 0.65,1.596 1.25,2.271 v 0.001 c 0.72,0.817 1.44,1.631 1.19,2.868 l -1.44,-0.37 c -0.22,-0.877 -0.83,-0.911 -1.45,-0.946 -0.16,-0.009 -0.32,-0.017 -0.48,-0.041 -0.13,-0.02 -0.26,-0.052 -0.38,-0.104 -0.07,-0.031 -0.14,-0.07 -0.2,-0.119 -0.03,-0.175 -0.11,-0.338 -0.23,-0.469 -0.02,-0.018 -0.04,-0.035 -0.05,-0.052 -0.02,-0.014 -0.04,-0.028 -0.05,-0.041 -0.02,-0.014 -0.04,-0.028 -0.06,-0.041 -0.01,-0.01 -0.03,-0.02 -0.04,-0.029 -0.08,-0.048 -0.16,-0.084 -0.25,-0.108 l -2,-1.79 c -0.01,-0.133 -0.06,-0.259 -0.16,-0.353 -0.09,-0.094 -0.22,-0.15 -0.35,-0.157 -7.46,-2.766 -14.43,-0.736 -22.95,1.745 v 0.001 l -0.22,0.064 c 3.68,1.909 7.17,2.294 10.41,2.652 2.47,0.273 4.79,0.53 6.95,1.428 l -0.01,0.106 -0.01,0.106 c -0.01,0.095 -0.02,0.19 -0.04,0.284 v 0.002 c -0.03,0.293 -0.07,0.584 -0.07,0.872 l -6.61,0.37 c 7.69,2.61 15.4,3.79 23.23,2 z m -25.76,-12.88 c 7.67,-0.76 15.29,-1.03 22.91,0.58 l -0.02,-0.02 c 0.24,0.05 0.49,0.111 0.75,0.173 1.87,0.457 4.04,0.989 7.13,-2.003 -5.76,-0.152 -10.47,-2.144 -15.03,-4.068 v -0.001 -0.001 c -3.57,-1.508 -7.04,-2.975 -10.84,-3.48 -0.21,-0.029 -0.43,-0.062 -0.65,-0.096 -0.19,-0.031 -0.39,-0.064 -0.59,-0.096 -1.45,-0.237 -2.92,-0.477 -4.29,-0.228 -4.2,0.75 -4.75,4.75 -4.75,7.75 0.05,2.824 2.13,2.277 3.94,1.801 0.52,-0.137 1.02,-0.269 1.44,-0.311 z m 30.72,-13.455 c 0.1,-3.298 0.19,-6.594 0.19,-9.885 l -0.04,-0.02 v -0.166 l 0.01,-0.21 c 0.03,-1.905 0.06,-3.898 -2.82,-3.954 -0.11,-0.043 -0.23,-0.082 -0.35,-0.117 -0.06,-0.02 -0.13,-0.038 -0.19,-0.055 -0.12,-0.03 -0.23,-0.056 -0.35,-0.078 -1.65,-0.65 -3.43,-0.932 -5.2,-0.829 -1.77,0.104 -3.5,0.591 -5.07,1.429 l -0.14,0.1 c -1.67,0.457 -3.43,0.642 -5.19,0.827 v 0.001 c -3.97,0.416 -7.93,0.832 -10.88,4.372 -1.74,1.66 -2.23,3.47 -0.56,5.47 l 0.33,0.35 c 0.04,0.261 0.07,0.524 0.11,0.784 0.26,2.107 0.5,4.032 4,3.596 2.79,-0.346 5.2,0.829 7.62,2.011 1.86,0.905 3.73,1.815 5.78,2.049 2.18,1.13 4.51,1.07 6.83,1.009 l 0.51,-0.012 c 0.34,-0.008 0.68,-0.015 1.02,-0.015 0.2,0 0.4,0.001 0.59,0.006 0.67,0.014 1.33,0.059 1.99,0.162 1.4,0.21 1.96,-1.22 1.7,-2.65 0.02,-0.728 0.04,-1.455 0.06,-2.182 0.01,-0.665 0.03,-1.329 0.05,-1.993 z m 5.03,26.668 c 2.8,0.611 5.94,1.295 7.62,-2.293 l -0.04,-0.02 c 1.45,-3.071 -1.04,-3.878 -3.29,-4.609 l -0.29,-0.094 c -0.08,-0.026 -0.15,-0.052 -0.23,-0.077 -2.58,-0.83 -4.87,-1.07 -6.15,2 -1.48,1.7 -2.62,4.41 0.21,4.7 0.45,0.046 0.93,0.132 1.42,0.234 0.15,0.031 0.3,0.063 0.46,0.096 z m 11.39,-15.315 v -0.148 l -0.01,-0.02 c 0,-1.37 0,-2.95 -1.89,-3.4 -0.21,0.148 -0.42,0.295 -0.63,0.443 -1.7,1.185 -3.48,2.428 -3.72,4.437 -0.23,1.87 1.81,2.48 3.56,2.48 2.69,0.009 2.69,-2.015 2.69,-3.792 z m -5.37,-2.99 c 0.91,-1.138 1.84,-2.296 2.98,-2.868 l -0.04,-0.02 c 6.49,-3.25 4.67,-6.4 0.05,-9.38 -0.96,-0.619 -1.77,-1.651 -2.56,-2.676 -1.63,-2.09 -3.23,-4.154 -6.15,-2.644 -2.12,1.092 -1.85,3.26 -1.58,5.422 0.18,1.4 0.36,2.797 -0.12,3.898 0.21,1.373 0.09,2.867 -0.02,4.309 -0.22,2.79 -0.43,5.384 1.77,6.531 2.53,1.334 4.08,-0.589 5.67,-2.571 z"
     fill="#1e234c"
     id="path2"
     clip-path="url(#clipPath54)"
     transform="translate(-3.5864232,-0.70214516)" />
  <path
     d="m 739.24,2764.94 c -0.45,-6.63 -7.37,-2.73 -11.27,-4 -2.227,-0.67 -4.611,-0.59 -6.79,0.22 -15.25,6.32 -14.08,-14.34 -25,-15 0.66,-7.34 3.21,-13.89 8.35,-19.25 2.37,-2.46 4.65,-5.49 7.62,-6.78 4.74,-2.07 7.68,-4.62 7.53,-10.08 -0.06,-2.16 -0.43,-3.68 -2.3,-4.2 h 0.07 l -17.14,-171.44 -114,7.19 14.14,164.53 1.79,-0.16 c -3.16,14.21 4.25,27 7.77,40.26 9.14,-1 16.67,3.41 16.5,11.83 -0.26,13.17 -12.79,8.69 -20.59,10.78 -3.28,6.44 -10.45,14.26 5.71,12 9.56,-1.31 19.57,0.16 29,-1.57 16.15,-3 25.68,3.44 30.78,18.19 3.07,8.84 6.95,16.6 18.41,15.29 10.15,-9.61 -0.9,-16 -3.38,-23.85 -1.29,-4.05 -7.83,-9.68 0.67,-12.47 5.81,-1.91 7.59,3.53 8.41,8.33 1.54,9 5.74,17.55 4.39,27 18.4,2.42 20.51,0.15 15.5,-16.67 -3.67,-12.33 -5.37,-23.11 13.67,-20.82 1.31,0.2 2.648,0.11 3.917,-0.27 1.268,-0.39 2.434,-1.05 3.41,-1.95 0.976,-0.89 1.738,-2 2.228,-3.23 0.491,-1.23 0.698,-2.56 0.605,-3.88 z m -49.32,-37.55 c -4.88,-18.71 -4.83,-18.78 -23.5,-34.75 -3.57,-3.06 -4.49,-6.11 -2.86,-10.54 2.14,-5.86 3.72,-11.91 5.56,-17.87 -5,-6.22 -6.56,-16.94 -18.07,-15.07 -10.52,1.7 -11.16,10 -11.54,18.39 -0.21,1.13 -0.584,2.22 -1.11,3.24 0.88,2.19 1.753,4.37 2.62,6.56 6.89,6.78 2.67,12.11 -3.68,13.93 -12,3.45 -22.31,7.86 -24.65,21.69 -6.24,-3 -0.8,-11.89 -8.84,-12 -0.23,0.58 -0.44,1.15 -0.63,1.72 l -13.59,-158.29 108,-6.81 16.81,168.11 c -4.31,0.39 -6.65,3.11 -8.87,7.14 -3.47,6.33 -7.92,12.24 -15.65,14.55 z"
     fill="#1e234c"
     id="path4"
     clip-path="url(#clipPath50)"
     transform="translate(-3.5864232,-0.70214516)" />
</svg>
