<svg width="1920" height="227" viewBox="0 0 1920 227" fill="none" xmlns="http://www.w3.org/2000/svg">
<path d="M-169 0.998047H-55.9935V113.998H-169V0.998047Z" fill="#1E234C"/>
<path d="M57.013 0.998047H170.02V113.998H57.013V0.998047Z" fill="#1E234C"/>
<path d="M283.026 0.998047H396.033V113.998H283.026V0.998047Z" fill="#1E234C"/>
<path d="M509.039 0.998047H622.046V113.998H509.039V0.998047Z" fill="#1E234C"/>
<path d="M735.052 0.998047H848.059V113.998H735.052V0.998047Z" fill="#1E234C"/>
<path d="M961.065 0.998047H1074.07V113.998H961.065V0.998047Z" fill="#1E234C"/>
<path d="M-55.9935 113.998H57.013V226.998H-55.9935V113.998Z" fill="#1E234C"/>
<path d="M170.02 113.998H283.026V226.998H170.02V113.998Z" fill="#1E234C"/>
<path d="M396.033 113.998H509.039V226.998H396.033V113.998Z" fill="#1E234C"/>
<path d="M622.046 113.998H735.052V226.998H622.046V113.998Z" fill="#1E234C"/>
<path d="M848.059 113.998H961.065V226.998H848.059V113.998Z" fill="#1E234C"/>
<path d="M1074.07 113.998H1187.08V226.998H1074.07V113.998Z" fill="#1E234C"/>
<path d="M1185.95 0.998047H1298.95V113.998H1185.95V0.998047Z" fill="#1E234C"/>
<path d="M1411.96 0.998047H1524.97V113.998H1411.96V0.998047Z" fill="#1E234C"/>
<path d="M1637.97 0.998047H1750.98V113.998H1637.97V0.998047Z" fill="#1E234C"/>
<path d="M1863.99 0.998047H1976.99V113.998H1863.99V0.998047Z" fill="#1E234C"/>
<path d="M1298.95 113.998H1411.96V226.998H1298.95V113.998Z" fill="#1E234C"/>
<path d="M1524.97 113.998H1637.97V226.998H1524.97V113.998Z" fill="#1E234C"/>
<path d="M1750.98 113.998H1863.99V226.998H1750.98V113.998Z" fill="#1E234C"/>
<path d="M1976.99 113.998H2090V226.998H1976.99V113.998Z" fill="#1E234C"/>
</svg>
