<svg width="242" height="87" viewBox="0 0 242 87" fill="none" xmlns="http://www.w3.org/2000/svg">
<rect y="5.99902" width="242" height="78" rx="39" fill="#E62736"/>
<path d="M50.8683 74.263V30.999H59.8283L60.5963 33.943H60.8523C62.0469 32.8337 63.3909 31.9377 64.8843 31.255C66.3776 30.5724 67.9349 30.231 69.5563 30.231C71.4336 30.231 73.1403 30.615 74.6763 31.383C76.2123 32.151 77.5136 33.239 78.5803 34.647C79.6896 36.055 80.5216 37.7617 81.0763 39.767C81.6736 41.7724 81.9723 44.0124 81.9723 46.487C81.9723 49.2604 81.5883 51.7137 80.8203 53.847C80.0949 55.9804 79.1136 57.7937 77.8763 59.287C76.6389 60.7377 75.2096 61.847 73.5883 62.615C72.0096 63.383 70.3669 63.767 68.6603 63.767C66.0149 63.767 63.6256 62.7004 61.4923 60.567L61.8763 65.431V74.263H50.8683ZM65.9722 54.807C67.2523 54.807 68.3616 54.2097 69.3003 53.015C70.2389 51.8204 70.7083 49.687 70.7083 46.615C70.7083 43.9697 70.3243 42.071 69.5563 40.919C68.8309 39.767 67.7216 39.191 66.2283 39.191C65.3749 39.191 64.6069 39.3617 63.9243 39.703C63.2843 40.0444 62.6016 40.6417 61.8763 41.495V53.271C62.5163 53.8684 63.1776 54.2737 63.8603 54.487C64.5429 54.7004 65.2469 54.807 65.9722 54.807ZM102.201 63.767C100.153 63.767 98.1693 63.4044 96.2493 62.679C94.3293 61.911 92.6226 60.823 91.1293 59.415C89.6786 57.9644 88.5053 56.1937 87.6093 54.103C86.7559 52.0124 86.3293 49.6444 86.3293 46.999C86.3293 44.3537 86.7559 41.9857 87.6093 39.895C88.5053 37.8044 89.6786 36.055 91.1293 34.647C92.6226 33.1964 94.3293 32.1084 96.2493 31.383C98.1693 30.615 100.153 30.231 102.201 30.231C104.249 30.231 106.212 30.615 108.089 31.383C110.009 32.1084 111.695 33.1964 113.145 34.647C114.639 36.055 115.833 37.8044 116.729 39.895C117.625 41.9857 118.073 44.3537 118.073 46.999C118.073 49.6444 117.625 52.0124 116.729 54.103C115.833 56.1937 114.639 57.9644 113.145 59.415C111.695 60.823 110.009 61.911 108.089 62.679C106.212 63.4044 104.249 63.767 102.201 63.767ZM102.201 54.935C103.865 54.935 105.039 54.231 105.721 52.823C106.447 51.3724 106.809 49.431 106.809 46.999C106.809 44.567 106.447 42.647 105.721 41.239C105.039 39.7884 103.865 39.063 102.201 39.063C100.537 39.063 99.3426 39.7884 98.6173 41.239C97.9346 42.647 97.5933 44.567 97.5933 46.999C97.5933 49.431 97.9346 51.3724 98.6173 52.823C99.3426 54.231 100.537 54.935 102.201 54.935ZM123.806 62.999V30.999H132.766L133.534 36.503H133.79C134.984 34.327 136.392 32.7484 138.014 31.767C139.678 30.743 141.299 30.231 142.878 30.231C143.859 30.231 144.648 30.295 145.246 30.423C145.843 30.5084 146.376 30.6577 146.846 30.871L145.054 40.343C144.456 40.215 143.88 40.1084 143.326 40.023C142.814 39.895 142.195 39.831 141.47 39.831C140.318 39.831 139.102 40.2364 137.822 41.047C136.584 41.815 135.582 43.2017 134.814 45.207V62.999H123.806ZM164.395 63.767C162.133 63.767 160.021 63.4044 158.059 62.679C156.096 61.911 154.389 60.823 152.939 59.415C151.488 57.9644 150.336 56.1937 149.483 54.103C148.672 52.0124 148.267 49.6444 148.267 46.999C148.267 44.3537 148.736 41.9857 149.675 39.895C150.613 37.8044 151.872 36.055 153.451 34.647C155.029 33.1964 156.843 32.1084 158.891 31.383C160.981 30.615 163.157 30.231 165.419 30.231C167.339 30.231 169.067 30.5297 170.603 31.127C172.139 31.7244 173.525 32.535 174.763 33.559L169.643 40.599C168.917 40.0017 168.277 39.5964 167.723 39.383C167.211 39.1697 166.656 39.063 166.059 39.063C164.011 39.063 162.411 39.7884 161.259 41.239C160.107 42.647 159.531 44.567 159.531 46.999C159.531 49.431 160.107 51.3724 161.259 52.823C162.453 54.231 163.925 54.935 165.675 54.935C166.571 54.935 167.445 54.743 168.299 54.359C169.195 53.975 170.027 53.4844 170.795 52.887L175.019 60.055C173.397 61.463 171.627 62.4444 169.707 62.999C167.829 63.511 166.059 63.767 164.395 63.767ZM180.118 62.999V30.999H191.126V62.999H180.118ZM185.622 27.031C183.83 27.031 182.358 26.519 181.206 25.495C180.054 24.471 179.478 23.1484 179.478 21.527C179.478 19.9057 180.054 18.583 181.206 17.559C182.358 16.535 183.83 16.023 185.622 16.023C187.414 16.023 188.886 16.535 190.038 17.559C191.19 18.583 191.766 19.9057 191.766 21.527C191.766 23.1484 191.19 24.471 190.038 25.495C188.886 26.519 187.414 27.031 185.622 27.031Z" fill="#FBE5D3"/>
</svg>
