<svg width="242" height="87" viewBox="0 0 242 87" fill="none" xmlns="http://www.w3.org/2000/svg">
<rect y="5.99902" width="242" height="78" rx="39" fill="#E62736"/>
<path d="M32.2433 74.263V30.999H41.2033L41.9713 33.943H42.2273C43.4219 32.8337 44.7659 31.9377 46.2593 31.255C47.7526 30.5724 49.3099 30.231 50.9313 30.231C52.8086 30.231 54.5153 30.615 56.0513 31.383C57.5873 32.151 58.8886 33.239 59.9553 34.647C61.0646 36.055 61.8966 37.7617 62.4513 39.767C63.0486 41.7724 63.3473 44.0124 63.3473 46.487C63.3473 49.2604 62.9633 51.7137 62.1953 53.847C61.4699 55.9804 60.4886 57.7937 59.2513 59.287C58.0139 60.7377 56.5846 61.847 54.9633 62.615C53.3846 63.383 51.7419 63.767 50.0353 63.767C47.3899 63.767 45.0006 62.7004 42.8673 60.567L43.2513 65.431V74.263H32.2433ZM47.3472 54.807C48.6273 54.807 49.7366 54.2097 50.6753 53.015C51.6139 51.8204 52.0833 49.687 52.0833 46.615C52.0833 43.9697 51.6993 42.071 50.9313 40.919C50.2059 39.767 49.0966 39.191 47.6033 39.191C46.7499 39.191 45.9819 39.3617 45.2993 39.703C44.6593 40.0444 43.9766 40.6417 43.2513 41.495V53.271C43.8913 53.8684 44.5526 54.2737 45.2353 54.487C45.9179 54.7004 46.6219 54.807 47.3472 54.807ZM83.5763 63.767C81.5283 63.767 79.5443 63.4044 77.6243 62.679C75.7043 61.911 73.9976 60.823 72.5043 59.415C71.0536 57.9644 69.8803 56.1937 68.9843 54.103C68.1309 52.0124 67.7043 49.6444 67.7043 46.999C67.7043 44.3537 68.1309 41.9857 68.9843 39.895C69.8803 37.8044 71.0536 36.055 72.5043 34.647C73.9976 33.1964 75.7043 32.1084 77.6243 31.383C79.5443 30.615 81.5283 30.231 83.5763 30.231C85.6243 30.231 87.5869 30.615 89.4643 31.383C91.3843 32.1084 93.0696 33.1964 94.5203 34.647C96.0136 36.055 97.2083 37.8044 98.1043 39.895C99.0003 41.9857 99.4482 44.3537 99.4482 46.999C99.4482 49.6444 99.0003 52.0124 98.1043 54.103C97.2083 56.1937 96.0136 57.9644 94.5203 59.415C93.0696 60.823 91.3843 61.911 89.4643 62.679C87.5869 63.4044 85.6243 63.767 83.5763 63.767ZM83.5763 54.935C85.2403 54.935 86.4136 54.231 87.0963 52.823C87.8216 51.3724 88.1843 49.431 88.1843 46.999C88.1843 44.567 87.8216 42.647 87.0963 41.239C86.4136 39.7884 85.2403 39.063 83.5763 39.063C81.9123 39.063 80.7176 39.7884 79.9923 41.239C79.3096 42.647 78.9683 44.567 78.9683 46.999C78.9683 49.431 79.3096 51.3724 79.9923 52.823C80.7176 54.231 81.9123 54.935 83.5763 54.935ZM105.181 62.999V30.999H114.141L114.909 36.503H115.165C116.359 34.327 117.767 32.7484 119.389 31.767C121.053 30.743 122.674 30.231 124.253 30.231C125.234 30.231 126.023 30.295 126.621 30.423C127.218 30.5084 127.751 30.6577 128.221 30.871L126.429 40.343C125.831 40.215 125.255 40.1084 124.701 40.023C124.189 39.895 123.57 39.831 122.845 39.831C121.693 39.831 120.477 40.2364 119.197 41.047C117.959 41.815 116.957 43.2017 116.189 45.207V62.999H105.181ZM145.77 63.767C143.508 63.767 141.396 63.4044 139.434 62.679C137.471 61.911 135.764 60.823 134.314 59.415C132.863 57.9644 131.711 56.1937 130.858 54.103C130.047 52.0124 129.642 49.6444 129.642 46.999C129.642 44.3537 130.111 41.9857 131.05 39.895C131.988 37.8044 133.247 36.055 134.826 34.647C136.404 33.1964 138.218 32.1084 140.266 31.383C142.356 30.615 144.532 30.231 146.794 30.231C148.714 30.231 150.442 30.5297 151.978 31.127C153.514 31.7244 154.9 32.535 156.138 33.559L151.018 40.599C150.292 40.0017 149.652 39.5964 149.098 39.383C148.586 39.1697 148.031 39.063 147.434 39.063C145.386 39.063 143.786 39.7884 142.634 41.239C141.482 42.647 140.906 44.567 140.906 46.999C140.906 49.431 141.482 51.3724 142.634 52.823C143.828 54.231 145.3 54.935 147.05 54.935C147.946 54.935 148.82 54.743 149.674 54.359C150.57 53.975 151.402 53.4844 152.17 52.887L156.394 60.055C154.772 61.463 153.002 62.4444 151.082 62.999C149.204 63.511 147.434 63.767 145.77 63.767ZM161.493 62.999V18.455H172.501V28.823L171.989 34.327C173.099 33.3457 174.421 32.4284 175.957 31.575C177.536 30.679 179.413 30.231 181.589 30.231C185.088 30.231 187.627 31.4257 189.205 33.815C190.784 36.1617 191.573 39.319 191.573 43.287V62.999H180.565V44.695C180.565 42.647 180.309 41.2817 179.797 40.599C179.285 39.9164 178.475 39.575 177.365 39.575C176.341 39.575 175.488 39.7884 174.805 40.215C174.123 40.6417 173.355 41.239 172.501 42.007V62.999H161.493ZM198.743 62.999V30.999H209.751V62.999H198.743ZM204.247 27.031C202.455 27.031 200.983 26.519 199.831 25.495C198.679 24.471 198.103 23.1484 198.103 21.527C198.103 19.9057 198.679 18.583 199.831 17.559C200.983 16.535 202.455 16.023 204.247 16.023C206.039 16.023 207.511 16.535 208.663 17.559C209.815 18.583 210.391 19.9057 210.391 21.527C210.391 23.1484 209.815 24.471 208.663 25.495C207.511 26.519 206.039 27.031 204.247 27.031Z" fill="#FBE5D3"/>
</svg>
