<svg width="222" height="765" viewBox="0 0 222 765" fill="none" xmlns="http://www.w3.org/2000/svg">
<path d="M113.58 7.35791C115.58 7.84791 118.72 6.83794 118.58 10.1379C118.14 18.0779 121.18 25.5779 121.07 33.5079C120.94 42.4379 120.43 51.348 120.79 60.328C121.44 76.878 121.11 93.468 120.93 110.038C120.79 121.948 121.17 133.858 120.48 145.788C120.09 152.788 120.86 159.918 120.89 166.978C121.05 208.311 121.05 249.618 120.89 290.898C120.83 302.548 121.37 314.168 121.09 325.828C120.61 345.098 120.96 364.378 120.96 383.658V543.908C120.96 552.768 121.09 561.628 120.87 570.488C120.82 572.648 122.4 574.488 121.78 576.488C119.65 583.378 122.78 590.688 119.97 597.488C122.39 603.168 120.39 609.088 120.75 614.888C121.45 626.338 120.96 637.888 120.96 649.378C120.96 670.988 120.91 692.608 121.02 714.218C121.02 716.418 119.77 718.218 119.73 720.218C119.62 725.738 119.5 731.218 117.61 736.538C117.338 737.097 117.231 737.723 117.302 738.341C117.372 738.959 117.618 739.545 118.01 740.028L117.9 742.258L117.36 742.958C115.92 747.258 114.5 751.578 113 755.848C112.27 757.928 112.08 759.168 115.06 759.348C128.8 760.178 142.51 761.518 156.27 762.118C177.89 763.058 199.52 763.755 221.16 764.208H221.47V764.448H0.599976V764.028C12.35 763.838 24.12 763.728 35.88 763.528C36.2741 763.63 36.6848 763.65 37.087 763.589C37.4893 763.527 37.8748 763.384 38.22 763.168C42.12 763.055 46.02 762.931 49.92 762.798C62.18 762.298 74.47 762.048 86.7 761.178C92.3 760.778 97.95 760.708 103.55 759.648C107.44 758.908 108.55 757.718 106.69 754.158C106.415 753.482 106.359 752.737 106.53 752.028C107.65 746.658 104.24 741.438 106.06 736.028C102.49 730.608 108.06 724.498 104.81 719.028C104.52 718.528 105.14 717.388 105.53 716.648C105.824 716.175 106.002 715.64 106.049 715.085C106.096 714.531 106.01 713.973 105.8 713.458C103.52 708.318 105.71 702.458 103.27 697.368C103.155 697.014 103.155 696.632 103.27 696.278C104.47 691.278 103.27 686.278 103.27 681.278C103.22 675.388 104.27 669.558 104.11 663.638C103.98 658.848 103.11 654.128 103.21 649.308C103.41 634.428 103.01 619.548 103.38 604.678C103.66 593.678 101.71 582.608 104.61 571.678C104.684 571.062 104.551 570.439 104.23 569.908C103.23 568.088 103.52 566.088 103.23 564.158C102.58 559.708 103.72 555.328 103.8 550.908C103.86 547.118 102.8 543.418 103.45 539.588C104.45 533.938 103.98 528.098 103.65 522.468C103.2 514.908 104.18 507.468 103.71 499.838C103.45 495.518 103.51 490.838 103.59 486.388C103.75 477.388 103.05 468.388 103.84 459.388C104.07 456.748 104.65 454.068 104.52 451.488C103.9 439.488 103.1 427.488 103.34 415.488C103.42 411.488 104.7 407.488 104.46 403.568C103.71 391.118 103.46 378.688 103.96 366.218C104.12 361.838 102.96 357.458 103.28 353.008C103.46 350.318 104.61 347.648 103.91 345.008C102.55 339.798 103.31 334.378 103.66 329.358C104.29 320.508 103.23 311.708 104 302.928C104.59 296.278 102.95 289.688 103.33 283.058C103.59 278.538 104.61 273.968 103.9 269.488C103.03 263.958 103.36 258.488 103.31 252.928C103.21 243.928 104.44 234.928 103.31 225.858C102.95 223.088 105.08 220.178 104.46 218.118C103.06 213.508 103.97 209.118 103.97 204.668C103.97 196.748 103.66 188.808 103.3 180.888C102.73 168.378 104.56 155.888 103.46 143.368C102.7 134.738 103.95 126.018 103.46 117.298C103.023 112.57 103.416 107.801 104.62 103.208C104.737 102.362 104.605 101.5 104.24 100.728C103.567 98.6156 103.263 96.4035 103.34 94.188C103.06 79.108 104.4 64.018 103.27 48.948C102.84 43.168 106.06 37.718 104.27 31.948C104.21 31.738 104.36 31.4679 104.43 31.2279C105.911 26.2803 106.537 21.1162 106.28 15.958C106.18 12.848 106.17 9.79793 108.96 7.25793C107.961 6.78965 106.906 6.45348 105.82 6.25793C96.82 6.04793 87.91 4.38796 78.92 3.90796C73.65 3.61796 68.38 3.36796 63.1 3.03796C52.82 2.40796 42.53 1.58794 32.21 1.88794L26.68 1.79797H25.68H20.75C14.16 1.26797 7.57001 0.887915 0.950012 0.987915H0.72998V0.917969H221.58V1.198C209.23 1.418 196.9 1.61796 184.58 1.90796C177.45 2.06796 170.33 2.46796 163.21 2.90796C150.75 3.72796 138.29 4.68801 125.82 5.58801C121.46 4.81801 117.68 6.68791 113.58 7.35791Z" fill="#F06224"/>
</svg>
