<svg width="572" height="769" viewBox="0 0 572 769" fill="none" xmlns="http://www.w3.org/2000/svg">
<path d="M529.191 740.027L528.981 762.157C504.621 762.437 480.261 762.547 455.921 763.077C420.861 763.847 385.791 763.187 350.731 763.897C320.341 764.507 289.951 763.947 259.571 764.647C230.661 765.317 201.751 765.057 172.841 765.037C151.541 765.037 130.231 764.737 108.931 764.277H108.621C86.9874 763.797 65.3574 763.1 43.7308 762.187C29.9708 761.587 16.2607 760.247 2.52074 759.417C-0.479258 759.237 -0.269255 757.997 0.460745 755.917C1.96074 751.647 3.38079 747.327 4.82079 743.027L5.36077 742.327L5.48076 740.027C6.48076 739.827 6.72075 739.027 7.03075 738.187C9.81595 731.277 11.4411 723.956 11.8407 716.517C12.1607 707.137 14.2408 697.897 14.4108 688.517C14.6008 677.517 14.1308 666.517 14.2408 655.427C14.5808 621.337 14.3608 587.237 14.3608 553.137C14.3608 541.727 14.1908 530.317 14.3608 518.907C14.6808 502.097 13.5808 485.297 14.2508 468.487C14.4708 463.017 14.1308 457.487 14.1908 452.017C14.4708 428.017 14.3108 404.017 14.3108 380.087V254.897C14.3108 198.23 14.3108 141.53 14.3108 84.7968C14.3108 64.4902 14.3108 44.1834 14.3108 23.8768C14.3108 22.4268 14.4408 20.7768 13.8508 19.5468C12.5008 16.7868 12.6708 14.0368 13.2408 11.2668C13.6935 9.34883 13.6591 7.34812 13.1407 5.44685C25.6107 4.54685 38.0708 3.58679 50.5308 2.76679C57.6508 2.30679 64.7708 1.90679 71.9008 1.76679C84.2408 1.47679 96.5708 1.27683 108.901 1.05683L128.341 0.666817C175.811 -0.423183 223.291 0.106822 270.771 0.296822C283.421 0.296822 296.051 1.60683 308.711 1.17683C321.711 0.726827 334.711 0.996827 347.711 1.17683C370.471 1.44683 393.231 1.41681 415.991 1.65681C430.381 1.80681 444.781 1.51685 459.171 1.94685C478.971 2.55685 498.781 2.2168 518.571 2.6468C522.021 2.7268 525.451 3.00684 528.881 3.18684C528.971 4.63684 529.051 6.08681 529.141 7.53681C529.087 35.9568 529.041 64.3835 529.001 92.8168C529.001 271.53 529.001 450.233 529.001 628.927C529.047 665.933 529.111 702.967 529.191 740.027Z" fill="#FAE4D1"/>
<path d="M528.981 762.128L529.191 740.008C529.614 739.886 529.981 739.618 530.226 739.252C530.471 738.886 530.579 738.446 530.531 738.008C530.771 733.838 531.051 729.678 531.271 725.518C531.951 712.648 529.631 699.758 531.271 686.898C532.431 678.058 531.591 669.258 531.211 660.448C531.001 655.628 531.851 650.908 532.001 646.118C532.321 636.198 531.471 626.288 531.871 616.348C532.311 605.478 531.231 594.568 531.461 583.718C531.641 575.718 531.361 567.608 531.731 559.528C532.281 547.668 532.071 535.718 531.571 523.788C531.311 517.568 531.571 511.128 531.771 504.788C532.071 491.658 532.501 478.508 531.361 465.348C530.721 458.038 532.111 450.668 532.041 443.278C531.841 422.778 531.841 402.274 532.041 381.768C532.101 373.768 531.391 365.878 531.901 357.898C532.481 348.988 531.671 340.048 531.901 331.088C532.291 315.088 531.811 299.088 532.091 283.088C532.231 274.518 532.091 265.898 531.651 257.408C531.181 247.628 531.651 237.868 531.651 228.158C531.651 220.018 531.651 211.788 531.781 203.618C532.251 171.268 531.991 138.908 531.951 106.548C531.951 103.738 531.081 100.898 531.351 98.1378C532.041 90.8278 531.641 83.4978 531.901 76.1378C532.511 59.0578 531.301 41.9778 531.361 24.8978C531.361 19.7778 530.281 14.7879 530.491 9.69788C530.491 8.69788 530.321 7.69779 529.141 7.35779C529.061 5.90779 528.971 4.45781 528.891 3.00781L543.681 5.21777C544.901 5.40777 545.251 6.27778 545.281 7.34778C545.311 8.41778 545.281 9.34778 545.281 10.3478V755.738C545.281 760.598 543.741 761.738 536.281 762.098C533.911 762.298 531.481 762.158 528.981 762.128ZM533.981 745.298L534.911 745.438C535.181 732.068 535.521 718.668 535.541 705.318C535.781 548.891 535.828 392.454 535.681 236.008C535.681 161.428 535.681 86.8411 535.681 12.2478C535.681 10.2478 535.981 8.02782 533.981 5.38782V745.298Z" fill="#F8BF0D"/>
<path d="M14.4008 688.508C14.2308 697.938 12.1507 707.178 11.8307 716.508C11.4311 723.947 9.80595 731.269 7.02075 738.178C6.71075 739.018 6.48076 739.818 5.47076 740.018C5.07895 739.535 4.83318 738.949 4.76233 738.331C4.69148 737.713 4.79851 737.088 5.0708 736.528C6.9608 731.238 7.0708 725.728 7.1908 720.208C7.1908 718.138 8.49077 716.378 8.48077 714.208C8.37077 692.598 8.42078 670.978 8.42078 649.368C8.42078 637.858 8.91075 626.368 8.21075 614.878C7.85075 609.078 9.85079 603.158 7.43079 597.478C10.2508 590.678 7.11078 583.368 9.24078 576.478C9.86078 574.478 8.24075 572.628 8.33075 570.478C8.55075 561.618 8.42078 552.758 8.42078 543.898V383.658C8.42078 364.378 8.07078 345.098 8.55078 325.828C8.83078 314.168 8.29077 302.548 8.35077 290.898C8.53744 249.565 8.53744 208.258 8.35077 166.978C8.35077 159.918 7.5508 152.758 7.9408 145.788C8.6308 133.858 8.25075 121.948 8.39075 110.038C8.57075 93.468 8.90079 76.8781 8.25079 60.3281C7.89079 51.3281 8.40076 42.438 8.53076 33.508C8.64076 25.578 5.60077 18.078 6.04077 10.138C6.21077 6.83801 3.10077 7.84798 1.04077 7.35798C5.14077 6.68798 8.9208 4.81807 13.1308 5.44807C13.6492 7.34934 13.6835 9.35006 13.2308 11.268C12.6608 14.038 12.4908 16.788 13.8408 19.548C14.4308 20.778 14.3008 22.428 14.3008 23.878C14.3008 44.1913 14.3008 64.4981 14.3008 84.798C14.3008 141.498 14.3008 198.198 14.3008 254.898V380.078C14.3008 404.078 14.4608 428.078 14.1808 452.008C14.1208 457.508 14.4608 463.008 14.2408 468.478C13.5708 485.288 14.6708 502.088 14.3508 518.898C14.1308 530.308 14.3508 541.718 14.3508 553.128C14.3508 587.228 14.5708 621.328 14.2308 655.418C14.1208 666.458 14.5908 677.478 14.4008 688.508Z" fill="#F8BF0D"/>
<path d="M554.171 711.858C554.171 724.028 554.171 736.188 554.171 748.358C554.171 751.058 553.861 753.768 554.561 756.438C554.811 757.438 555.111 758.728 553.881 758.938C551.881 759.288 549.751 760.508 547.801 759.658C546.321 759.018 548.091 757.798 548.111 756.808C548.111 755.328 548.251 753.808 548.251 752.378C548.251 695.771 548.251 639.158 548.251 582.538C548.251 479.698 548.201 376.855 548.101 274.008C548.101 265.848 547.901 257.638 547.591 249.458C547.371 243.828 548.311 238.218 548.301 232.548C548.221 159.215 548.221 85.9079 548.301 12.6279C548.301 11.2779 548.201 9.92792 548.211 8.56792C548.211 7.81792 547.311 6.56792 548.611 6.43792C549.911 6.30792 549.661 7.74786 549.811 8.62786C550.361 11.9379 549.811 15.2379 549.811 18.5379C549.811 54.4779 549.811 90.4145 549.811 126.348C549.811 333.241 549.811 540.131 549.811 747.018C549.811 748.248 549.721 749.488 549.811 750.708C549.901 751.928 549.151 754.008 550.711 754.278C552.271 754.548 552.711 752.358 553.121 751.118C553.452 749.812 553.557 748.459 553.431 747.118C553.431 735.331 553.431 723.545 553.431 711.758L554.171 711.858Z" fill="#F8BF0D"/>
<path d="M553.291 347.208C554.291 342.388 552.101 337.698 552.971 332.948C553.293 331.132 553.447 329.291 553.431 327.448C553.431 255.941 553.404 184.431 553.351 112.918C553.351 103.158 553.367 93.401 553.401 83.6477C553.521 62.7677 553.401 41.8877 553.401 21.0077C553.401 17.0077 553.621 12.8777 551.811 9.07774C551.451 8.32774 551.401 7.55766 552.301 7.24766C553.411 6.85766 553.911 7.65774 554.051 8.57774C554.158 9.55385 554.194 10.5363 554.161 11.5177C554.161 121.798 554.161 232.078 554.161 342.358C554.171 344.028 554.541 345.698 553.291 347.208Z" fill="#F8BF0D"/>
<path d="M554.191 709.028C553.191 707.888 553.461 706.478 553.451 705.148C553.451 700.718 553.351 696.288 553.451 691.858C553.641 683.988 552.691 676.138 552.801 668.298C554.321 563.488 552.971 458.678 553.431 353.868C553.317 352.719 553.588 351.566 554.201 350.588V354.648C554.201 471.908 554.201 589.168 554.201 706.428C554.201 707.298 554.201 708.158 554.201 709.018L554.191 709.028Z" fill="#F8BF0D"/>
<path d="M558.331 765.237C562.921 765.357 567.171 764.467 571.461 766.237C568.241 768.957 562.401 768.557 558.331 765.237Z" fill="#F8BF0D"/>
<path d="M554.201 709.037L554.361 709.227L554.191 709.047L554.201 709.037Z" fill="#F8BF0D"/>
<path d="M529.181 7.48828C530.361 7.84828 530.581 8.78837 530.531 9.82837C530.321 14.9184 531.421 19.9083 531.401 25.0283C531.341 42.1083 532.551 59.1883 531.941 76.2683C531.681 83.5783 532.081 90.9083 531.391 98.2683C531.121 101.028 531.981 103.868 531.991 106.678C531.991 139.038 532.291 171.398 531.821 203.748C531.701 211.918 531.741 220.148 531.691 228.288C531.691 237.998 531.181 247.758 531.691 257.538C532.101 266.028 532.271 274.648 532.131 283.218C531.851 299.218 532.331 315.218 531.941 331.218C531.731 340.218 532.541 349.118 531.941 358.028C531.431 366.028 532.141 373.938 532.081 381.898C531.921 402.398 531.921 422.902 532.081 443.408C532.151 450.798 530.761 458.168 531.401 465.478C532.541 478.638 532.111 491.788 531.811 504.918C531.661 511.238 531.351 517.678 531.611 523.918C532.111 535.848 532.321 547.798 531.771 559.658C531.401 567.738 531.681 575.798 531.501 583.848C531.271 594.698 532.351 605.608 531.911 616.478C531.511 626.418 532.361 636.328 532.041 646.248C531.891 651.038 531.041 655.758 531.251 660.578C531.631 669.388 532.471 678.188 531.311 687.028C529.631 699.888 531.951 712.778 531.311 725.648C531.091 729.808 530.811 733.968 530.571 738.138C530.619 738.576 530.511 739.017 530.265 739.383C530.02 739.748 529.654 740.016 529.231 740.138C529.191 703.098 529.151 666.055 529.111 629.008C529.111 450.342 529.111 271.638 529.111 92.8983C529.064 64.3783 529.087 35.9083 529.181 7.48828Z" fill="#F06224"/>
<path d="M533.991 745.297V5.38672C535.991 8.02672 535.691 10.1967 535.691 12.2467C535.691 86.84 535.691 161.427 535.691 236.007C535.691 392.447 535.644 548.883 535.551 705.317C535.551 718.667 535.191 732.067 534.921 745.437L533.991 745.297Z" fill="#F06224"/>
</svg>
