<?xml version="1.0" encoding="UTF-8" standalone="no"?>
<svg
   width="572"
   height="769"
   viewBox="0 0 572 769"
   fill="none"
   version="1.1"
   id="svg22"
   sodipodi:docname="buku_kanan.svg"
   inkscape:version="1.1.1 (3bf5ae0d25, 2021-09-20)"
   xmlns:inkscape="http://www.inkscape.org/namespaces/inkscape"
   xmlns:sodipodi="http://sodipodi.sourceforge.net/DTD/sodipodi-0.dtd"
   xmlns="http://www.w3.org/2000/svg"
   xmlns:svg="http://www.w3.org/2000/svg">
  <defs
     id="defs26" />
  <sodipodi:namedview
     id="namedview24"
     pagecolor="#ffffff"
     bordercolor="#666666"
     borderopacity="1.0"
     inkscape:pageshadow="2"
     inkscape:pageopacity="0.0"
     inkscape:pagecheckerboard="0"
     showgrid="false"
     inkscape:zoom="1.0091027"
     inkscape:cx="285.89755"
     inkscape:cy="384.5"
     inkscape:window-width="1920"
     inkscape:window-height="1011"
     inkscape:window-x="0"
     inkscape:window-y="0"
     inkscape:window-maximized="1"
     inkscape:current-layer="svg22" />
  <path
     d="m 529.191,742.027 -0.21,22.13 c -24.36,0.28 -48.72,0.39 -73.06,0.92 -35.06,0.77 -70.13,0.11 -105.19,0.82 -30.39,0.61 -60.78,0.05 -91.16,0.75 -28.91,0.67 -57.82,0.41 -86.73,0.39 -21.3,0 -42.61,-0.3 -63.91,-0.76 h -0.31 c -21.6336,-0.48 -43.2636,-1.177 -64.8902,-2.09 -13.76,-0.6 -27.4701,-1.94 -41.21006,-2.77 -2.999998,-0.18 -2.789995,-1.42 -2.059995,-3.5 1.499995,-4.27 2.920045,-8.59 4.360045,-12.89 l 0.53998,-0.7 0.11999,-2.3 c 1,-0.2 1.23999,-1 1.54999,-1.84 2.7852,-6.91 4.41035,-14.231 4.80995,-21.67 0.32,-9.38 2.4001,-18.62 2.5701,-28 0.19,-11 -0.28,-22 -0.17,-33.09 0.34,-34.09 0.12,-68.19 0.12,-102.29 0,-11.41 -0.17,-22.82 0,-34.23 0.32,-16.81 -0.78,-33.61 -0.11,-50.42 0.22,-5.47 -0.12,-11 -0.06,-16.47 0.28,-24 0.12,-48 0.12,-71.93 v -125.19 c 0,-56.667 0,-113.367 0,-170.1002 0,-20.3066 0,-40.6134 0,-60.92 0,-1.45 0.13,-3.1 -0.46,-4.33 -1.35,-2.76 -1.18,-5.51 -0.61,-8.28 0.4527,-1.91797 0.4183,-3.91868 -0.1001,-5.81995 12.47,-0.9 24.9301,-1.86006 37.3901,-2.68006 7.12,-0.46 14.24,-0.86 21.37,-1 12.34,-0.29 24.67,-0.48996 37.0002,-0.70996 l 19.44,-0.390013 c 47.47,-1.09 94.95,-0.559995 142.43,-0.369995 12.65,0 25.28,1.310008 37.94,0.880008 13,-0.450003 26,-0.180003 39,0 22.76,0.27 45.52,0.23998 68.28,0.47998 14.39,0.15 28.79,-0.13996 43.18,0.29004 19.8,0.61 39.61,0.26995 59.4,0.69995 3.45,0.08 6.88,0.36004 10.31,0.54004 0.09,1.45 0.17,2.89997 0.26,4.34997 -0.054,28.41999 -0.1,56.84669 -0.14,85.27999 0,178.7132 0,357.4162 0,536.1102 0.046,37.006 0.11,74.04 0.19,111.1 z"
     fill="#fae4d1"
     id="path2" />
  <path
     d="m 528.981,764.128 0.21,-22.12 c 0.423,-0.122 0.79,-0.39 1.035,-0.756 0.245,-0.366 0.353,-0.806 0.305,-1.244 0.24,-4.17 0.52,-8.33 0.74,-12.49 0.68,-12.87 -1.64,-25.76 0,-38.62 1.16,-8.84 0.32,-17.64 -0.06,-26.45 -0.21,-4.82 0.64,-9.54 0.79,-14.33 0.32,-9.92 -0.53,-19.83 -0.13,-29.77 0.44,-10.87 -0.64,-21.78 -0.41,-32.63 0.18,-8 -0.1,-16.11 0.27,-24.19 0.55,-11.86 0.34,-23.81 -0.16,-35.74 -0.26,-6.22 0,-12.66 0.2,-19 0.3,-13.13 0.73,-26.28 -0.41,-39.44 -0.64,-7.31 0.75,-14.68 0.68,-22.07 -0.2,-20.5 -0.2,-41.004 0,-61.51 0.06,-8 -0.65,-15.89 -0.14,-23.87 0.58,-8.91 -0.23,-17.85 0,-26.81 0.39,-16 -0.09,-32 0.19,-48 0.14,-8.57 0,-17.19 -0.44,-25.68 -0.47,-9.78 0,-19.54 0,-29.25 0,-8.14 0,-16.37 0.13,-24.54 0.47,-32.35 0.21,-64.71 0.17,-97.07 0,-2.81 -0.87,-5.65 -0.6,-8.4102 0.69,-7.31 0.29,-14.64 0.55,-22 0.61,-17.08 -0.6,-34.16 -0.54,-51.24 0,-5.12 -1.08,-10.1099 -0.87,-15.19992 0,-1 -0.17,-2.00009 -1.35,-2.34009 -0.08,-1.45 -0.17,-2.89998 -0.25,-4.34998 l 14.79,2.20996 c 1.22,0.19 1.57,1.06001 1.6,2.13001 0.03,1.07 0,2 0,3.00002 V 757.738 c 0,4.86 -1.54,6 -9,6.36 -2.37,0.2 -4.8,0.06 -7.3,0.03 z m 5,-16.83 0.93,0.14 c 0.27,-13.37 0.61,-26.77 0.63,-40.12 0.24,-156.427 0.287,-312.864 0.14,-469.31 0,-74.58 0,-149.1669 0,-223.7602 0,-2 0.3,-4.21998 -1.7,-6.85998 z"
     fill="#f8bf0d"
     id="path4" />
  <path
     d="m 14.4008,690.508 c -0.17,9.43 -2.2501,18.67 -2.5701,28 -0.3996,7.439 -2.02475,14.761 -4.80995,21.67 -0.31,0.84 -0.53999,1.64 -1.54999,1.84 -0.39181,-0.483 -0.63758,-1.069 -0.70843,-1.687 -0.07085,-0.618 0.03618,-1.243 0.30847,-1.803 1.89,-5.29 2,-10.8 2.12,-16.32 0,-2.07 1.29997,-3.83 1.28997,-6 -0.11,-21.61 -0.05999,-43.23 -0.05999,-64.84 0,-11.51 0.48997,-23 -0.21003,-34.49 -0.36,-5.8 1.64004,-11.72 -0.77996,-17.4 2.82001,-6.8 -0.32001,-14.11 1.80999,-21 0.62,-2 -1.00003,-3.85 -0.91003,-6 0.22,-8.86 0.09003,-17.72 0.09003,-26.58 v -160.24 c 0,-19.28 -0.35,-38.56 0.13,-57.83 0.28,-11.66 -0.26001,-23.28 -0.20001,-34.93 0.18667,-41.333 0.18667,-82.64 0,-123.92 0,-7.06 -0.79997,-14.22 -0.40997,-21.19 0.69,-11.93 0.30995,-23.84 0.44995,-35.75 0.18,-16.57 0.51004,-33.1599 -0.13996,-49.7099 -0.36,-9 0.14997,-17.8901 0.27997,-26.8201 0.11,-7.93 -2.92999,-15.43 -2.48999,-23.37 0.17,-3.29999 -2.94,-2.29002 -5,-2.78002 4.1,-0.67 7.88003,-2.53991 12.09003,-1.90991 0.5184,1.90127 0.5527,3.90199 0.1,5.81993 -0.57,2.77 -0.74,5.52 0.61,8.28 0.59,1.23 0.46,2.88 0.46,4.33 0,20.3133 0,40.6201 0,60.92 0,56.7 0,113.4 0,170.1 v 125.18 c 0,24 0.16,48 -0.12,71.93 -0.06,5.5 0.28,11 0.06,16.47 -0.67,16.81 0.43,33.61 0.11,50.42 -0.22,11.41 0,22.82 0,34.23 0,34.1 0.22,68.2 -0.12,102.29 -0.11,11.04 0.36,22.06 0.17,33.09 z"
     fill="#f8bf0d"
     id="path6" />
  <path
     d="m 554.171,713.858 c 0,12.17 0,24.33 0,36.5 0,2.7 -0.31,5.41 0.39,8.08 0.25,1 0.55,2.29 -0.68,2.5 -2,0.35 -4.13,1.57 -6.08,0.72 -1.48,-0.64 0.29,-1.86 0.31,-2.85 0,-1.48 0.14,-3 0.14,-4.43 0,-56.607 0,-113.22 0,-169.84 0,-102.84 -0.05,-205.683 -0.15,-308.53 0,-8.16 -0.2,-16.37 -0.51,-24.55 -0.22,-5.63 0.72,-11.24 0.71,-16.91 -0.08,-73.333 -0.08,-146.6401 0,-219.9201 0,-1.35 -0.1,-2.69998 -0.09,-4.05998 0,-0.75 -0.9,-2 0.4,-2.13 1.3,-0.13 1.05,1.30994 1.2,2.18994 0.55,3.31004 0,6.61004 0,9.91004 0,35.94 0,71.8766 0,107.8101 0,206.893 0,413.783 0,620.67 0,1.23 -0.09,2.47 0,3.69 0.09,1.22 -0.66,3.3 0.9,3.57 1.56,0.27 2,-1.92 2.41,-3.16 0.331,-1.306 0.436,-2.659 0.31,-4 0,-11.787 0,-23.573 0,-35.36 z"
     fill="#f8bf0d"
     id="path8" />
  <path
     d="m 553.291,349.208 c 1,-4.82 -1.19,-9.51 -0.32,-14.26 0.322,-1.816 0.476,-3.657 0.46,-5.5 0,-71.507 -0.027,-143.017 -0.08,-214.53 0,-9.76 0.016,-19.517 0.05,-29.2703 0.12,-20.88 0,-41.76 0,-62.64 0,-4 0.22,-8.13 -1.59,-11.92996 -0.36,-0.75 -0.41,-1.52008 0.49,-1.83008 1.11,-0.39 1.61,0.41008 1.75,1.33008 0.107,0.97611 0.143,1.95856 0.11,2.93996 0,110.2803 0,220.5603 0,330.8403 0.01,1.67 0.38,3.34 -0.87,4.85 z"
     fill="#f8bf0d"
     id="path10" />
  <path
     d="m 554.191,711.028 c -1,-1.14 -0.73,-2.55 -0.74,-3.88 0,-4.43 -0.1,-8.86 0,-13.29 0.19,-7.87 -0.76,-15.72 -0.65,-23.56 1.52,-104.81 0.17,-209.62 0.63,-314.43 -0.114,-1.149 0.157,-2.302 0.77,-3.28 v 4.06 c 0,117.26 0,234.52 0,351.78 0,0.87 0,1.73 0,2.59 z"
     fill="#f8bf0d"
     id="path12" />
  <path
     d="m 558.331,767.237 c 4.59,0.12 8.84,-0.77 13.13,1 -3.22,2.72 -9.06,2.32 -13.13,-1 z"
     fill="#f8bf0d"
     id="path14" />
  <path
     d="m 554.201,711.037 0.16,0.19 -0.17,-0.18 z"
     fill="#f8bf0d"
     id="path16" />
  <path
     d="m 529.181,9.48828 c 1.18,0.36 1.4,1.30009 1.35,2.34009 -0.21,5.09003 0.89,10.07993 0.87,15.19993 -0.06,17.08 1.15,34.16 0.54,51.24 -0.26,7.31 0.14,14.64 -0.55,22 -0.27,2.7597 0.59,5.5997 0.6,8.4097 0,32.36 0.3,64.72 -0.17,97.07 -0.12,8.17 -0.08,16.4 -0.13,24.54 0,9.71 -0.51,19.47 0,29.25 0.41,8.49 0.58,17.11 0.44,25.68 -0.28,16 0.2,32 -0.19,48 -0.21,9 0.6,17.9 0,26.81 -0.51,8 0.2,15.91 0.14,23.87 -0.16,20.5 -0.16,41.004 0,61.51 0.07,7.39 -1.32,14.76 -0.68,22.07 1.14,13.16 0.71,26.31 0.41,39.44 -0.15,6.32 -0.46,12.76 -0.2,19 0.5,11.93 0.71,23.88 0.16,35.74 -0.37,8.08 -0.09,16.14 -0.27,24.19 -0.23,10.85 0.85,21.76 0.41,32.63 -0.4,9.94 0.45,19.85 0.13,29.77 -0.15,4.79 -1,9.51 -0.79,14.33 0.38,8.81 1.22,17.61 0.06,26.45 -1.68,12.86 0.64,25.75 0,38.62 -0.22,4.16 -0.5,8.32 -0.74,12.49 0.048,0.438 -0.06,0.879 -0.306,1.245 -0.245,0.365 -0.611,0.633 -1.034,0.755 -0.04,-37.04 -0.08,-74.083 -0.12,-111.13 0,-178.666 0,-357.37 0,-536.1097 -0.047,-28.52 -0.024,-56.99 0.07,-85.41002 z"
     fill="#f06224"
     id="path18" />
  <path
     d="M 533.991,747.297 V 7.38672 c 2,2.64 1.7,4.80998 1.7,6.85998 0,74.5933 0,149.1803 0,223.7603 0,156.44 -0.047,312.876 -0.14,469.31 0,13.35 -0.36,26.75 -0.63,40.12 z"
     fill="#f06224"
     id="path20" />
</svg>
