<svg width="561" height="766" viewBox="0 0 561 766" fill="none" xmlns="http://www.w3.org/2000/svg">
<path d="M499.073 337.831C497.653 337.461 497.493 335.891 497.253 334.491C496.113 327.881 497.123 321.191 496.433 314.631C495.693 307.541 498.433 300.471 496.433 293.551C495.283 289.471 496.743 285.611 496.373 281.801C495.123 269.331 495.783 256.871 495.963 244.431C496.093 235.841 495.483 227.091 496.803 218.691C498.493 207.951 495.133 197.491 496.463 186.901C496.603 185.791 495.953 184.541 495.553 183.391C495.153 182.241 494.783 180.821 495.953 180.001C498.843 178.001 498.463 175.221 497.513 172.731C495.703 168.031 497.513 162.861 495.273 158.251C494.913 157.531 495.773 156.181 496.103 155.141C496.813 153.277 496.813 151.216 496.103 149.351C495.033 146.901 494.783 144.871 496.603 142.531C496.925 142.147 497.16 141.696 497.291 141.212C497.422 140.727 497.446 140.22 497.361 139.725C497.277 139.231 497.085 138.76 496.801 138.347C496.516 137.933 496.145 137.587 495.713 137.331C494.013 136.091 494.023 134.381 494.643 132.691C496.443 128.095 496.443 122.988 494.643 118.391C494.329 117.327 494.305 116.198 494.573 115.121C496.313 103.991 497.283 92.8214 495.933 81.5514C495.703 79.5514 495.023 78.3813 492.843 78.2113C492.467 78.2172 492.094 78.146 491.747 78.0022C491.4 77.8584 491.086 77.645 490.825 77.3751C490.563 77.1053 490.36 76.7846 490.227 76.4331C490.094 76.0816 490.035 75.7066 490.053 75.3313C490.053 73.4213 491.123 72.4214 493.053 72.3914C493.424 72.4303 493.799 72.3849 494.15 72.2587C494.501 72.1325 494.82 71.9287 495.081 71.6625C495.343 71.3962 495.541 71.0744 495.66 70.7209C495.78 70.3675 495.819 69.9917 495.773 69.6213C495.773 67.7013 495.063 66.5313 493.023 66.5013C492.651 66.5477 492.274 66.5153 491.916 66.4065C491.558 66.2977 491.227 66.1147 490.944 65.8695C490.661 65.6243 490.433 65.3225 490.274 64.9834C490.115 64.6443 490.03 64.2757 490.023 63.9014C489.863 62.1614 490.863 61.2213 492.453 60.6913C495.923 59.5213 496.843 57.6213 495.063 54.5013C494.509 53.7135 494.2 52.779 494.177 51.816C494.154 50.8531 494.417 49.9048 494.933 49.0913C496.683 45.8113 495.773 42.0913 495.543 38.6013C495.463 37.3213 494.153 37.0314 493.003 36.9214C491.343 36.7514 490.673 35.7514 490.643 34.1714C490.613 32.5914 491.123 31.1713 493.013 31.0813C495.293 30.9313 495.813 29.5014 495.793 27.5414C495.793 24.7114 495.693 21.8814 495.793 19.0514C495.923 16.0514 495.883 13.2714 491.793 13.1514C491.542 13.1491 491.294 13.0936 491.066 12.9889C490.838 12.8841 490.635 12.7324 490.47 12.5436C490.304 12.3547 490.181 12.133 490.107 11.8931C490.034 11.6531 490.012 11.4004 490.043 11.1514C490.743 7.31137 488.663 5.15138 485.753 3.41138C485.046 2.91949 484.377 2.37458 483.753 1.78137L478.223 1.69128H477.223H472.293C467.293 2.90128 462.293 2.53136 457.293 2.14136C455.613 2.00136 453.923 1.89139 452.293 1.80139C439.293 1.13139 426.293 1.74128 413.293 1.44128C411.633 1.44128 409.803 1.91135 408.463 0.381348L391.103 0.261353C390.513 1.26135 389.933 1.26135 389.343 0.261353H385.153C383.583 2.13135 381.683 0.611367 379.983 0.651367C371.783 0.831367 363.573 0.721367 355.363 0.651367C353.903 0.651367 352.363 0.841328 351.033 0.111328H348.843C346.685 0.9117 344.311 0.9117 342.153 0.111328C327.033 0.321328 311.913 0.111362 296.793 0.521362C273.203 1.15136 249.593 0.771362 226.003 1.27136C194.293 1.93136 162.573 1.49128 130.853 2.06128C100.253 2.62128 69.6429 2.68133 39.0329 2.99133C37.5712 3.05054 36.1148 3.20416 34.6729 3.45129C26.8429 4.59129 19.0129 5.76138 11.1929 6.91138L9.19293 7.4613C9.19293 118.288 9.19293 229.125 9.19293 339.971C9.19293 439.238 9.19293 538.508 9.19293 637.781C9.19293 639.141 9.19293 640.491 9.13293 641.841V643.301C9.1796 666.801 9.22291 690.295 9.26291 713.781C9.26291 727.571 9.26294 741.341 9.32294 755.121C9.32294 756.701 8.67294 758.661 11.3229 759.171C21.0119 761.239 30.8623 762.461 40.7629 762.821C61.5329 763.231 82.3129 762.981 103.103 763.401C138.263 764.091 173.443 763.621 208.623 764.221C247.683 764.881 286.753 765.071 325.813 765.131C360.693 765.131 395.563 765.621 430.433 764.571C437.723 764.341 445.013 764.201 452.313 764.071C464.063 763.881 475.833 763.771 487.593 763.571C485.763 759.701 489.033 757.121 490.253 754.171C492.403 748.911 490.363 744.301 489.103 739.521C488.043 736.109 488.043 732.454 489.103 729.041C489.978 726.748 490.094 724.235 489.433 721.871C488.273 717.541 487.103 713.301 491.433 709.741C492.823 708.581 492.433 706.401 491.753 704.851C490.693 702.531 490.863 699.771 488.953 697.731C488.103 696.831 488.363 695.391 488.713 694.171C490.693 687.471 490.693 680.341 488.713 673.641C488.498 673.125 488.398 672.567 488.418 672.008C488.439 671.449 488.58 670.901 488.833 670.401C492.363 665.061 491.953 658.451 490.133 653.731C487.933 648.011 490.333 643.531 490.503 638.551C490.743 631.661 490.593 624.781 490.653 617.901C490.661 617.466 490.576 617.033 490.404 616.633C490.231 616.233 489.975 615.875 489.653 615.581C489.272 615.261 488.963 614.866 488.743 614.42C488.524 613.973 488.4 613.487 488.379 612.99C488.359 612.493 488.442 611.998 488.623 611.535C488.805 611.072 489.08 610.652 489.433 610.301C490.018 609.657 490.428 608.875 490.626 608.028C490.824 607.181 490.802 606.298 490.563 605.461C489.403 601.891 490.793 598.691 491.423 595.361C491.583 594.471 491.823 593.441 492.613 593.171C496.423 591.901 495.883 588.821 495.833 585.901C495.763 582.571 496.833 579.351 496.613 575.991C496.383 573.101 496.373 570.421 494.923 567.541C493.193 564.121 495.843 560.541 497.033 557.171C497.713 555.171 498.463 553.381 497.753 551.521C496.611 548.126 496.222 544.522 496.613 540.961C496.982 535.199 496.599 529.414 495.473 523.751C494.473 518.821 495.703 514.751 496.393 510.261C496.613 509.301 496.66 508.309 496.533 507.331C494.653 498.731 497.413 490.161 496.613 481.561C495.413 468.691 496.923 455.811 496.613 442.941C496.523 439.381 496.463 435.831 497.743 432.371C498.263 430.975 498.312 429.448 497.883 428.021C495.883 422.501 496.883 416.811 496.603 411.201C496.463 407.911 495.523 404.401 495.733 401.461C496.223 394.771 496.733 388.271 495.623 381.571C495.313 379.751 496.323 377.041 497.133 374.881C497.692 373.655 497.932 372.306 497.831 370.962C497.729 369.617 497.29 368.32 496.553 367.191C494.873 364.531 497.333 357.291 500.163 356.011C500.919 355.763 501.566 355.261 501.994 354.59C502.422 353.92 502.606 353.122 502.513 352.331C502.453 349.631 502.443 346.911 502.513 344.201C502.583 341.491 502.653 338.741 499.073 337.831ZM28.5929 757.991H28.0129V11.2313H28.5929V757.991Z" fill="#FAE4D1"/>
<path d="M4.36299 661.99C4.51299 662.08 4.80301 662.17 4.85301 662.32C4.97301 662.74 4.68299 662.97 4.30299 662.96C4.19493 662.951 4.09063 662.916 3.99855 662.859C3.90646 662.801 3.82917 662.723 3.77299 662.63C3.65299 662.22 3.91299 661.99 4.36299 661.99Z" fill="#F06224"/>
<path d="M560.503 7.17018C559.504 6.7019 558.449 6.36573 557.363 6.17018C548.363 5.96018 539.453 4.30009 530.463 3.82009C525.193 3.53009 519.923 3.28009 514.643 2.95009C504.363 2.32009 494.073 1.50019 483.753 1.80019C484.377 2.3934 485.046 2.93819 485.753 3.43007C488.663 5.20007 490.753 7.33019 490.043 11.1702C490.012 11.4192 490.034 11.6719 490.107 11.9119C490.181 12.1518 490.304 12.3735 490.47 12.5624C490.635 12.7513 490.838 12.903 491.066 13.0077C491.294 13.1125 491.542 13.1679 491.793 13.1702C495.933 13.2902 495.973 16.0301 495.793 19.0701C495.683 21.9001 495.793 24.7301 495.793 27.5601C495.793 29.5601 495.293 30.9501 493.013 31.1001C491.123 31.2401 490.603 32.5001 490.643 34.1901C490.683 35.8801 491.343 36.7701 493.003 36.9401C494.153 37.0501 495.463 37.3401 495.543 38.6201C495.773 42.1401 496.683 45.8301 494.933 49.1101C494.417 49.9237 494.154 50.8719 494.177 51.8349C494.201 52.7978 494.509 53.7323 495.063 54.5202C496.843 57.6402 495.923 59.5201 492.453 60.7101C490.863 61.2401 489.863 62.1802 490.023 63.9202C490.03 64.2945 490.115 64.6631 490.274 65.0022C490.433 65.3413 490.661 65.6431 490.944 65.8883C491.227 66.1335 491.558 66.3165 491.916 66.4253C492.274 66.5342 492.651 66.5665 493.023 66.5202C495.023 66.5202 495.823 67.7202 495.773 69.6402C495.819 70.0105 495.78 70.3864 495.66 70.7398C495.541 71.0932 495.343 71.415 495.081 71.6813C494.82 71.9475 494.501 72.1513 494.15 72.2775C493.799 72.4037 493.424 72.4491 493.053 72.4102C491.103 72.4102 490.053 73.4101 490.053 75.3501C490.035 75.7254 490.094 76.1004 490.227 76.4519C490.36 76.8034 490.563 77.1241 490.825 77.3939C491.086 77.6638 491.4 77.8772 491.747 78.021C492.094 78.1648 492.467 78.236 492.843 78.2301C495.023 78.4001 495.703 79.5801 495.933 81.5701C497.283 92.8401 496.313 104.01 494.573 115.14C494.305 116.217 494.329 117.346 494.643 118.41C496.443 123.007 496.443 128.113 494.643 132.71C494.023 134.4 494.013 136.11 495.713 137.35C496.145 137.606 496.516 137.952 496.801 138.366C497.085 138.779 497.277 139.249 497.361 139.744C497.446 140.239 497.422 140.746 497.291 141.231C497.16 141.715 496.925 142.165 496.603 142.55C494.783 144.89 495.033 146.92 496.103 149.37C496.813 151.235 496.813 153.295 496.103 155.16C495.773 156.16 494.913 157.55 495.273 158.27C497.543 162.88 495.703 168.05 497.513 172.75C498.513 175.24 498.843 178.03 495.953 180.02C494.783 180.84 495.113 182.17 495.553 183.41C495.993 184.65 496.603 185.81 496.463 186.92C495.133 197.51 498.463 207.92 496.803 218.71C495.483 227.11 496.093 235.86 495.963 244.45C495.783 256.89 495.123 269.35 496.373 281.82C496.743 285.63 495.283 289.49 496.433 293.57C498.433 300.49 495.683 307.57 496.433 314.65C497.123 321.21 496.113 327.9 497.253 334.51C497.493 335.91 497.653 337.51 499.073 337.85C502.693 338.76 502.563 341.39 502.473 344.18C502.383 346.97 502.403 349.61 502.473 352.31C502.566 353.1 502.382 353.899 501.954 354.569C501.526 355.24 500.879 355.742 500.123 355.99C497.293 357.27 494.833 364.51 496.513 367.17C497.25 368.299 497.689 369.596 497.791 370.941C497.892 372.285 497.652 373.633 497.093 374.86C496.283 377.02 495.273 379.73 495.583 381.55C496.673 388.25 496.183 394.75 495.693 401.44C495.483 404.38 496.423 407.89 496.563 411.18C496.803 416.79 495.843 422.48 497.843 428C498.272 429.427 498.223 430.954 497.703 432.35C496.423 435.81 496.483 439.35 496.573 442.92C496.913 455.79 495.403 468.67 496.573 481.54C497.373 490.14 494.573 498.71 496.493 507.31C496.62 508.287 496.573 509.28 496.353 510.24C495.663 514.7 494.423 518.8 495.433 523.73C496.559 529.393 496.942 535.178 496.573 540.94C496.182 544.501 496.571 548.105 497.713 551.5C498.423 553.36 497.713 555.2 496.993 557.15C495.803 560.49 493.153 564.1 494.883 567.52C496.333 570.4 496.343 573.08 496.573 575.97C496.823 579.33 495.723 582.55 495.793 585.88C495.843 588.8 496.383 591.88 492.573 593.15C491.783 593.42 491.573 594.45 491.383 595.34C490.753 598.67 489.383 601.87 490.523 605.44C490.762 606.276 490.784 607.16 490.586 608.007C490.388 608.854 489.978 609.636 489.393 610.28C489.04 610.631 488.765 611.051 488.583 611.513C488.402 611.976 488.319 612.472 488.339 612.969C488.36 613.465 488.484 613.952 488.703 614.398C488.923 614.845 489.232 615.24 489.613 615.56C489.935 615.853 490.191 616.212 490.364 616.612C490.536 617.012 490.621 617.445 490.613 617.88C490.553 624.76 490.703 631.64 490.463 638.53C490.293 643.53 487.893 647.99 490.093 653.71C491.913 658.43 492.323 665.04 488.793 670.38C488.54 670.88 488.399 671.428 488.378 671.987C488.358 672.546 488.458 673.103 488.673 673.62C490.653 680.32 490.653 687.45 488.673 694.15C488.323 695.37 488.063 696.81 488.913 697.71C490.823 699.71 490.653 702.51 491.713 704.83C492.433 706.38 492.783 708.56 491.393 709.72C487.043 713.28 488.213 717.52 489.393 721.85C490.054 724.214 489.938 726.727 489.063 729.02C488.003 732.433 488.003 736.087 489.063 739.5C490.323 744.28 492.363 748.89 490.213 754.15C488.993 757.1 485.723 759.68 487.553 763.55C487.947 763.652 488.358 763.673 488.76 763.611C489.162 763.549 489.548 763.406 489.893 763.19C490.023 762.85 490.063 762.37 490.313 762.19C492.373 760.81 499.703 761.19 501.593 762.81C513.853 762.31 526.143 762.06 538.373 761.19C543.973 760.79 549.623 760.72 555.223 759.66C559.113 758.92 560.223 757.73 558.363 754.17C558.088 753.494 558.032 752.749 558.203 752.04C559.323 746.67 555.913 741.45 557.733 736.04C554.163 730.62 559.733 724.51 556.483 719.04C556.193 718.54 556.813 717.4 557.203 716.66C557.497 716.188 557.675 715.652 557.722 715.098C557.769 714.543 557.683 713.985 557.473 713.47C555.193 708.33 557.383 702.47 554.943 697.38C554.828 697.026 554.828 696.644 554.943 696.29C556.143 691.29 554.943 686.29 554.943 681.29C554.893 675.4 555.943 669.57 555.783 663.65C555.653 658.86 554.783 654.14 554.883 649.32C555.083 634.44 554.683 619.56 555.053 604.69C555.333 593.69 553.383 582.62 556.283 571.69C556.357 571.074 556.224 570.451 555.903 569.92C554.903 568.1 555.193 566.1 554.903 564.17C554.253 559.72 555.393 555.34 555.473 550.92C555.533 547.13 554.473 543.43 555.123 539.6C556.123 533.95 555.653 528.11 555.323 522.48C554.873 514.92 555.853 507.48 555.383 499.85C555.123 495.53 555.183 490.85 555.263 486.4C555.423 477.4 554.723 468.4 555.513 459.4C555.743 456.76 556.323 454.08 556.193 451.5C555.573 439.5 554.773 427.5 555.013 415.5C555.093 411.5 556.373 407.5 556.133 403.58C555.383 391.13 555.133 378.7 555.633 366.23C555.793 361.85 554.633 357.47 554.953 353.02C555.133 350.33 556.283 347.66 555.583 345.02C554.223 339.81 554.983 334.39 555.333 329.37C555.963 320.52 554.903 311.72 555.673 302.94C556.263 296.29 554.623 289.7 555.003 283.07C555.263 278.55 556.283 273.98 555.573 269.5C554.703 263.97 555.033 258.5 554.983 252.94C554.883 243.94 556.113 234.94 554.983 225.87C554.623 223.1 556.753 220.19 556.133 218.13C554.733 213.52 555.643 209.13 555.643 204.68C555.643 196.76 555.333 188.82 554.973 180.9C554.403 168.39 556.233 155.9 555.133 143.38C554.373 134.75 555.623 126.03 555.133 117.31C554.696 112.582 555.089 107.813 556.293 103.22C556.41 102.374 556.278 101.512 555.913 100.74C555.24 98.6278 554.936 96.4156 555.013 94.2001C554.733 79.1201 556.073 64.0301 554.943 48.9601C554.513 43.1801 557.733 37.7301 555.943 31.9601C555.883 31.7501 556.033 31.4801 556.103 31.2401C557.584 26.2926 558.21 21.1283 557.953 15.9701C557.723 12.7601 557.713 9.71018 560.503 7.17018ZM494.653 4.99013C494.653 5.11013 494.203 5.19018 494.003 5.17018C493.685 5.0807 493.374 4.96695 493.073 4.8301L493.953 4.44008C494.353 4.59008 494.863 4.42013 494.653 4.99013Z" fill="#F8BF0D"/>
<path d="M501.573 762.801C497.673 762.934 493.773 763.057 489.873 763.171C490.003 762.831 490.043 762.351 490.293 762.171C492.353 760.801 499.653 761.231 501.573 762.801Z" fill="#FAE4D1"/>
<path d="M2.65293 718.821C2.39898 719.083 2.06883 719.257 1.70966 719.32C1.35048 719.383 0.980643 719.331 0.652927 719.171C0.152927 719.011 -0.197072 718.601 0.122928 718.071C0.211012 717.911 0.333106 717.772 0.480594 717.664C0.628081 717.557 0.797379 717.483 0.976596 717.447C1.15581 717.412 1.34057 717.417 1.51789 717.46C1.69521 717.504 1.86078 717.586 2.00293 717.701C2.38293 717.931 2.83293 718.191 2.65293 718.821Z" fill="#F8BF0D"/>
<path d="M4.95291 713.89C4.81291 714.21 4.72291 714.59 4.64291 714.58C4.33158 714.534 4.02635 714.454 3.73291 714.34C3.81291 714.14 3.87291 713.78 3.98291 713.77C4.31031 713.764 4.63696 713.804 4.95291 713.89V713.89Z" fill="#F8BF0D"/>
<path d="M5.53295 697.629C5.55288 697.816 5.55288 698.003 5.53295 698.189C5.43318 698.199 5.33271 698.199 5.23294 698.189C5.22297 698.003 5.22297 697.816 5.23294 697.629C5.33276 697.621 5.43313 697.621 5.53295 697.629V697.629Z" fill="#F8BF0D"/>
<path d="M28.0129 758.051V11.2305H28.593V757.99L28.0129 758.051Z" fill="#F8BF0D"/>
<path d="M472.273 1.59956C467.273 2.80956 462.273 2.43963 457.273 2.04963C455.593 1.90963 453.903 1.79954 452.273 1.70954C439.273 1.03954 426.273 1.64956 413.273 1.34956C411.613 1.34956 409.783 1.81962 408.443 0.289619C419.443 0.119619 430.443 -0.250425 441.443 0.619575C445.033 0.909575 448.643 0.849619 452.243 0.789619H452.463C459.093 0.689619 465.653 1.06956 472.273 1.59956Z" fill="#F8BF0D"/>
<path d="M385.153 0.150024C383.593 2.01002 381.683 0.500039 379.993 0.540039C371.783 0.720039 363.573 0.610039 355.363 0.540039C353.903 0.540039 352.363 0.73 351.033 0L385.153 0.150024Z" fill="#F8BF0D"/>
<path d="M348.843 0.0507812C346.684 0.845865 344.312 0.845865 342.153 0.0507812H348.843Z" fill="#F8BF0D"/>
<path d="M391.073 0.169922C390.483 1.16992 389.893 1.16992 389.313 0.169922H391.073Z" fill="#F8BF0D"/>
<path d="M493.993 4.42969C494.353 4.58969 494.863 4.42974 494.683 4.97974C494.683 5.09974 494.253 5.18979 494.033 5.15979C493.716 5.07758 493.408 4.96358 493.113 4.8197L493.993 4.42969Z" fill="#FAE4D1"/>
</svg>
