<svg width="1920" height="3796" viewBox="0 0 1920 3796" fill="none" xmlns="http://www.w3.org/2000/svg">
<g clip-path="url(#clip0_104:145)">
<rect width="1920" height="3796" fill="white"/>
<path d="M1920.2 681.7V0H0.199951V689.4V757.7V818.2V1148.6V1307.3H1920.2V852.4V757.7V681.7Z" fill="#20244D"/>
<path d="M1920.2 1006.58C1918.2 1006.45 1916.2 1006.19 1914.2 1005.75C1913.2 1005.43 1912.1 1005.62 1911.3 1006.07C1908.7 1007.6 1905.85 1007.39 1902.66 1007.14C1902.41 1007.12 1902.15 1007.1 1901.9 1007.09C1901.12 1007.03 1900.33 1006.96 1899.55 1006.9C1890.29 1006.15 1880.88 1005.38 1873.6 1010.85C1871.21 1012.43 1868.05 1013.16 1864.9 1013.9C1861.19 1014.76 1857.48 1015.62 1855 1017.85C1853.8 1018.94 1851.3 1019 1849.1 1018.55C1845.8 1017.98 1844.3 1019 1844.4 1021.04C1844.5 1022.7 1844.6 1024.29 1844.8 1025.88C1844.9 1027.03 1844.6 1027.47 1842.6 1027.73C1836.4 1028.43 1833.7 1031.43 1834.2 1036.78C1834.48 1039.81 1836.73 1039.31 1838.98 1038.81C1839.9 1038.6 1840.82 1038.4 1841.6 1038.43C1841.8 1038.43 1842 1038.5 1842.2 1038.56C1847.68 1040.65 1853.35 1040.18 1859.06 1039.72C1861.37 1039.53 1863.69 1039.34 1866 1039.33C1866.2 1039.36 1866.41 1039.37 1866.61 1039.38C1866.81 1039.39 1867 1039.39 1867.2 1039.39C1869.7 1041.06 1870.75 1043.16 1871.81 1045.27C1872.48 1046.62 1873.15 1047.96 1874.2 1049.2C1876.3 1051.62 1875.6 1054.74 1870.8 1056.59C1870.61 1056.67 1870.4 1056.75 1870.19 1056.83C1867.99 1057.71 1865 1058.9 1866 1060.35C1866.96 1061.83 1868.57 1061.23 1870.2 1060.62C1870.95 1060.33 1871.71 1060.05 1872.4 1059.97C1874.8 1059.71 1876.8 1060.1 1877.1 1061.82C1877.4 1063.28 1875.8 1063.6 1873.8 1063.35L1873.79 1063.34C1872.09 1063.09 1870 1062.78 1869.6 1064.17C1869.2 1065.77 1871.8 1066.09 1873.5 1066.21C1877.6 1066.47 1881.8 1066.66 1886 1066.6C1888.2 1066.6 1890 1066.72 1890.5 1068.12C1891.1 1069.91 1888.8 1070.1 1886.9 1070.16C1884.4 1070.29 1881.2 1070.48 1881 1072.01C1880.48 1075.68 1876.49 1076.82 1872.58 1077.93C1871.27 1078.31 1869.96 1078.68 1868.8 1079.15C1868.27 1079.37 1867.75 1079.67 1867.23 1079.98C1865.81 1080.82 1864.33 1081.7 1862.2 1080.99C1858.2 1079.72 1856.2 1081.19 1854.5 1082.97C1853.3 1084.31 1851.7 1084.88 1849.4 1084.88C1849 1084.82 1848.6 1084.82 1848.2 1084.82H1848.2C1847.9 1084.12 1847.3 1083.61 1846 1083.61C1839.3 1083.73 1835.1 1080.42 1832.7 1077.68C1830.1 1074.81 1829.4 1075.01 1825.4 1076.28C1819 1078.25 1809.4 1075.39 1809.1 1071.31C1808.9 1068.57 1808 1066.47 1805.3 1064.49C1803.5 1063.15 1803.2 1062.01 1806.7 1061.24C1811.3 1060.16 1811.2 1058.18 1807.7 1056.46C1805 1055.13 1804 1053.6 1804.2 1051.62C1804.6 1047.74 1801.8 1046.14 1795.9 1046.65V1044.23C1795.7 1043.34 1794.8 1042.77 1793.4 1042.58L1792.1 1041.75C1792.2 1036.78 1786.7 1035.76 1780.6 1035.25H1779.4C1778.92 1035.24 1778.42 1035.25 1777.92 1035.27C1775.91 1035.33 1773.88 1035.39 1773 1033.66C1770.1 1033.34 1768.4 1032.25 1767.9 1030.41C1765.1 1029.77 1762.3 1029.13 1759.6 1028.43C1752.9 1026.71 1746.8 1024.48 1746.5 1019.19C1746.3 1016.2 1743.8 1015.56 1739.9 1015.75C1739.41 1016.19 1739.22 1016.78 1739.03 1017.36C1738.72 1018.31 1738.42 1019.25 1736.8 1019.45C1733.7 1019.83 1731.8 1017.92 1730.6 1016.52C1728.1 1013.71 1725.4 1013.71 1721.9 1015.43C1721.4 1015.69 1720.9 1016.01 1720.3 1016.13L1720.2 1016.16C1718.51 1016.6 1716.28 1017.19 1715.4 1015.75C1714.5 1014.29 1716.5 1013.65 1718.6 1013.46C1718.94 1013.42 1719.29 1013.4 1719.64 1013.38C1721.13 1013.28 1722.66 1013.18 1723.8 1011.99C1723.17 1011.59 1722.2 1011.45 1721.24 1011.31C1719.6 1011.08 1717.97 1010.84 1718.1 1009.32C1717.45 1009.19 1716.83 1009.05 1716.2 1008.9C1715.58 1008.76 1714.95 1008.62 1714.3 1008.49C1713.2 1010.46 1712.1 1012.06 1709.2 1009.25H1707.9C1706.8 1010.46 1705.8 1011.74 1705.4 1013.27C1704.44 1016.63 1701.69 1019.51 1698.94 1022.38C1698.25 1023.1 1697.56 1023.82 1696.9 1024.54C1696.1 1025.37 1694.3 1025.44 1692.9 1024.8C1691.6 1024.16 1691.5 1023.27 1691.7 1022.25C1691.76 1021.9 1692.1 1021.54 1692.42 1021.17C1693.12 1020.4 1693.8 1019.65 1691.9 1019.13C1691.07 1018.89 1690.3 1018.56 1689.52 1018.23C1687.55 1017.4 1685.56 1016.56 1682.7 1017.15C1681.95 1017.31 1681.2 1017.46 1680.45 1017.62C1674.33 1018.91 1668.25 1020.19 1661.3 1018.49C1660.05 1018.2 1658.67 1018.56 1657.2 1018.94C1655.12 1019.47 1652.88 1020.05 1650.6 1018.94L1644.3 1020.66C1644.1 1022.25 1643.4 1023.72 1640.5 1023.65C1637.06 1023.55 1636.48 1021.97 1635.91 1020.4C1635.74 1019.92 1635.56 1019.44 1635.3 1019C1634.45 1019 1633.6 1018.98 1632.75 1018.97C1631.9 1018.95 1631.05 1018.94 1630.2 1018.94C1627.1 1018.67 1624.25 1019.26 1621.39 1019.86C1618.8 1020.4 1616.2 1020.94 1613.4 1020.85C1613.02 1020.83 1612.63 1020.85 1612.24 1020.86C1611.4 1020.9 1610.55 1020.94 1609.8 1020.59H1607.2C1605.3 1018.81 1603.3 1018.75 1602.4 1020.91C1601.4 1023.4 1599.2 1025.63 1596.6 1027.03C1592 1029.58 1593.3 1031.74 1595.4 1034.29C1598.2 1037.54 1594.9 1038.12 1591.4 1037.41C1589.26 1037.01 1587.01 1036.84 1584.8 1036.67C1582.17 1036.48 1579.58 1036.28 1577.3 1035.69C1571.79 1034.27 1570.38 1036.22 1568.92 1038.25C1568.81 1038.4 1568.71 1038.54 1568.6 1038.69C1568.05 1039.48 1567.92 1040.43 1567.8 1041.38C1567.75 1041.81 1567.69 1042.23 1567.6 1042.64C1568.7 1043.28 1570.1 1043.47 1571.5 1043.47C1572.8 1042.51 1574.1 1042.51 1575.4 1043.4C1579.2 1043.15 1581.1 1044.36 1581.8 1046.59C1581.3 1047.35 1580.2 1048.37 1579.1 1047.93C1573.7 1045.6 1569.34 1047.14 1564.98 1048.68C1564.09 1048.99 1563.2 1049.3 1562.3 1049.58C1561.85 1049.72 1561.38 1049.88 1560.91 1050.04C1559.38 1050.57 1557.8 1051.12 1556.5 1050.92C1552.9 1050.4 1551.37 1051.59 1549.68 1052.91C1549.3 1053.2 1548.92 1053.5 1548.5 1053.79C1547.34 1054.58 1546.46 1055.61 1545.58 1056.63C1543.43 1059.14 1541.26 1061.68 1534.8 1061.05C1534.27 1061.01 1533.74 1061.02 1533.2 1061.04C1532.11 1061.07 1530.97 1061.1 1529.7 1060.67C1525 1059.08 1523.2 1059.97 1523.5 1063.41C1523.54 1063.61 1523.61 1063.82 1523.68 1064.03C1523.79 1064.36 1523.9 1064.69 1523.9 1065C1523.89 1065.07 1523.89 1065.13 1523.88 1065.19C1523.79 1066.23 1523.69 1067.39 1522 1067.81C1520.4 1068.24 1519.72 1067.4 1519.13 1066.67C1519.02 1066.53 1518.91 1066.4 1518.8 1066.28C1517 1064.43 1515 1063.98 1513.2 1066.15C1512.59 1066.89 1511.6 1067.28 1510.62 1067.65C1510.01 1067.89 1509.4 1068.12 1508.9 1068.44C1508.34 1068.8 1507.69 1069.14 1507.03 1069.47C1505.03 1070.5 1502.97 1071.55 1503.2 1073.48C1503.6 1076.09 1502 1075.71 1499.2 1075.01C1493.3 1073.6 1491.5 1074.43 1491.4 1078.45C1491.4 1080.99 1491.1 1083.03 1487.3 1084.75C1479.4 1088.26 1479.1 1091.25 1485.6 1095.97C1489 1098.45 1487.8 1103.17 1483.3 1104.76C1475.4 1107.63 1460.9 1104.95 1456.9 1099.85C1456.83 1099.78 1456.77 1099.7 1456.71 1099.62C1456.1 1098.89 1455.55 1098.23 1454.1 1097.88C1448.3 1096.48 1442.5 1095.52 1436.2 1096.6C1433.9 1096.99 1431.3 1097.37 1429.4 1096.35C1424.6 1093.8 1419.6 1094.37 1414.4 1095.52C1409.7 1096.55 1405.2 1095.37 1401.16 1094.31C1400.21 1094.06 1399.29 1093.82 1398.4 1093.61C1398.16 1093.55 1397.91 1093.5 1397.67 1093.44C1394.07 1092.61 1390.87 1091.87 1387.4 1092.59C1378 1094.5 1369.8 1097.88 1362.1 1101.77C1357.4 1104.12 1352.7 1104.31 1348.3 1102.02C1345 1100.24 1343.1 1100.11 1340.1 1102.4C1335.9 1105.52 1333.1 1105.4 1330.4 1101.96C1328 1098.83 1325.5 1099.47 1321.8 1100.62C1321.32 1100.77 1320.84 1100.92 1320.37 1101.07C1316.15 1102.42 1311.92 1103.77 1306.8 1102.91C1304.6 1102.53 1303.2 1103.42 1302 1104.44C1301.67 1104.72 1301.34 1105.02 1301.02 1105.31C1298.91 1107.25 1296.82 1109.16 1292.4 1106.29C1291.7 1105.84 1290.2 1106.16 1289.5 1106.67C1286.3 1109.09 1282.13 1109.09 1277.96 1109.09C1277.31 1109.08 1276.65 1109.08 1276 1109.09C1275.81 1109.09 1275.62 1109.09 1275.42 1109.09C1273.37 1109.07 1271.22 1109.05 1271.4 1111.26C1271.8 1115.27 1267.2 1115.08 1263.8 1114.13C1258.9 1112.79 1257.3 1114.25 1257 1116.74C1256.78 1118.17 1255.88 1119.41 1254.98 1120.64C1254.64 1121.1 1254.3 1121.56 1254 1122.03C1253.4 1122.98 1252.1 1123.68 1250.5 1123.11C1245.83 1121.41 1243.94 1123.08 1241.88 1124.89C1241.47 1125.26 1241.05 1125.63 1240.6 1125.98C1237.6 1128.33 1236 1131.33 1238.4 1133.43C1243.4 1137.89 1238.4 1139.68 1234 1141.2C1229.03 1142.89 1226.67 1145.67 1224.3 1148.46C1223.81 1149.04 1223.32 1149.62 1222.8 1150.19H1196.5C1196.2 1149.74 1195.9 1149.23 1195.5 1148.79C1194.37 1147.28 1192.26 1147.08 1190.14 1146.88C1188.32 1146.71 1186.5 1146.54 1185.3 1145.54C1184.9 1143.63 1182.9 1143.05 1180.3 1142.92C1174.95 1140.45 1168.83 1140.12 1162.73 1139.79C1159.72 1139.62 1156.71 1139.46 1153.8 1139.04C1151.34 1138.69 1148.7 1138.79 1146.07 1138.88C1144.84 1138.93 1143.61 1138.97 1142.4 1138.97C1139.1 1138.97 1136.5 1139.68 1135.7 1141.91C1134.4 1145.41 1130 1145.03 1127.4 1143.69C1126.18 1143.06 1125.14 1142.29 1124.1 1141.52C1121.65 1139.71 1119.21 1137.9 1114.5 1138.08C1114.44 1135.69 1111.99 1134.45 1109.5 1133.19C1107.67 1132.26 1105.83 1131.33 1104.9 1129.93C1103.9 1128.4 1100.7 1126.42 1098.1 1128.97C1095.61 1131.41 1092.07 1131.36 1088.56 1131.32C1086.02 1131.28 1083.5 1131.25 1081.4 1132.16C1081.2 1132.22 1079.9 1131.52 1079.7 1131.14C1078.77 1128.7 1075.96 1127.31 1073.14 1125.92C1071.1 1124.91 1069.04 1123.89 1067.7 1122.47C1066.2 1120.82 1064.6 1121.84 1064.3 1123.49C1064.26 1123.72 1064.25 1123.99 1064.24 1124.27C1064.22 1125.35 1064.18 1126.62 1062.2 1126.17C1059.75 1125.59 1058.04 1126.13 1056.39 1126.65C1055.48 1126.94 1054.59 1127.22 1053.6 1127.31C1052.48 1127.4 1051.45 1127.69 1050.41 1127.97C1048.48 1128.5 1046.54 1129.04 1044 1128.33C1039 1126.93 1037.7 1127.82 1039.1 1131.33C1039.5 1132.35 1039.5 1133.18 1038.3 1133.88C1037.3 1134.45 1035.9 1134.77 1034.9 1134.13C1030.7 1131.58 1028.1 1132.54 1025.6 1135.41C1024.96 1136.17 1023.21 1136.61 1021.77 1136.97C1021.64 1137 1021.52 1137.03 1021.4 1137.06C1017.7 1137.96 1015.3 1139.04 1018 1141.78C1018.8 1142.61 1018.6 1143.56 1017.5 1144.39C1016.6 1145.03 1015.8 1144.84 1014.7 1144.45C1011.51 1143.3 1009.88 1142.71 1008.89 1143C1007.86 1143.3 1007.51 1144.54 1006.8 1147.07C1006.5 1148.02 1006.3 1149.04 1006.1 1150H984C985 1149.04 985.9 1148.15 983.6 1147.32C979.2 1145.73 974.3 1145.03 970.9 1150H970.3C970.265 1149.82 970.232 1149.64 970.199 1149.46C969.674 1146.65 969.349 1144.91 965.3 1145.15C963.8 1145.28 963.3 1144.45 963.4 1143.5C963.443 1143.2 963.514 1142.9 963.584 1142.59C964.002 1140.79 964.418 1138.98 959.2 1139.42C957.734 1139.55 956.479 1139.03 955.214 1138.5C953.458 1137.76 951.683 1137.02 949.3 1138.02C946.5 1139.23 943.7 1138.85 940.8 1138.21C939.224 1137.26 937.264 1137.34 935.324 1137.42C935.048 1137.43 934.773 1137.44 934.5 1137.45C933.004 1137.27 931.476 1137.28 929.947 1137.3C927.696 1137.33 925.445 1137.35 923.3 1136.74C922.809 1136.6 922.335 1136.34 921.857 1136.08C920.676 1135.43 919.465 1134.77 917.9 1135.73C916.183 1136.77 917.308 1137.53 918.404 1138.28C918.777 1138.53 919.146 1138.78 919.4 1139.04C919.8 1139.42 919.9 1140.12 919.7 1140.5C919.3 1141.08 918.2 1141.14 917.6 1140.69C915.714 1139.3 913.311 1139.3 910.93 1139.29C909.396 1139.29 907.871 1139.29 906.5 1138.91H906.4C906.202 1138.03 905.314 1137.52 904.324 1136.95L904.3 1136.94C898.2 1133.37 898.2 1133.37 893.1 1137.51C892.1 1138.34 890.9 1138.91 889.4 1138.85C885.785 1138.72 882.187 1138.98 878.584 1139.25C873.418 1139.63 868.244 1140.02 863 1139.23C862.55 1139.2 862.125 1139.15 861.701 1139.1C861.275 1139.05 860.85 1139.01 860.4 1138.97C859.9 1137.38 857.9 1136.94 855.8 1136.62C853.9 1136.3 852.8 1135.6 853 1134.32C853.031 1134.18 853.064 1134.03 853.097 1133.88C853.588 1131.68 854.054 1129.58 848.9 1129.23C847.225 1129.11 846.185 1128.38 845.121 1127.64C843.836 1126.73 842.517 1125.81 840 1125.91C835.1 1126.1 829.5 1125.15 825.9 1123.24L825.625 1123.09C822.384 1121.39 820.291 1120.29 816.4 1121.96C814.921 1122.57 813.139 1122.62 811.368 1122.66C809.066 1122.71 806.782 1122.77 805.2 1124.07C801.1 1127.38 796.6 1126.23 792.2 1124.83C790.648 1124.32 789.194 1123.68 787.743 1123.03C785.922 1122.22 784.104 1121.41 782.1 1120.88L782.022 1120.86C777.761 1119.72 774.634 1118.89 780.2 1116.29C781.3 1115.78 781.9 1114.7 781.1 1114.13C777.181 1111.2 778.923 1108.63 780.761 1105.93C781.081 1105.46 781.404 1104.99 781.7 1104.51C783.8 1101.06 781 1098.96 775.2 1099.41C771 1099.73 769.8 1098.01 768.9 1095.97C768.9 1095.68 768.875 1095.41 768.85 1095.14C768.825 1094.87 768.8 1094.6 768.8 1094.31C771.1 1094.06 773.1 1093.61 774 1092.02C774.159 1091.98 774.347 1091.97 774.548 1091.95C774.725 1091.94 774.912 1091.92 775.1 1091.89L775.196 1091.87C775.978 1091.75 776.892 1091.61 776.7 1090.93C776.635 1090.77 776.274 1090.63 775.892 1090.48C775.686 1090.4 775.475 1090.32 775.3 1090.23L774.7 1085.45C777.6 1083.16 776.5 1081.7 772.6 1080.42C768.4 1079.08 767 1076.79 770.6 1074.62C773.6 1072.84 773.1 1071.95 770.3 1070.61C769.5 1070.22 769.003 1069.63 768.506 1069.05C768.195 1068.68 767.885 1068.32 767.5 1068C766.624 1067.22 765.974 1066.27 765.321 1065.32C763.513 1062.68 761.685 1060.02 755 1060.86C754.5 1060.92 753.1 1060.35 753.1 1060.03C752.807 1057.19 749.904 1055.6 747.007 1054.02C744.961 1052.9 742.918 1051.78 741.8 1050.22C740.5 1048.44 737.9 1048.76 736.3 1050.35C735.755 1050.96 735.395 1051.65 735.031 1052.36C734.862 1052.69 734.691 1053.02 734.5 1053.34C733.9 1053.47 733.301 1053.58 732.701 1053.69C732.101 1053.8 731.5 1053.92 730.9 1054.04C727.5 1053.66 724.2 1054.04 720.8 1054.49L720.686 1054.51C718.982 1054.76 716.393 1055.15 716.1 1053.47C715.635 1051.03 713.209 1049.48 710.788 1047.95C709.045 1046.84 707.305 1045.74 706.3 1044.3C705.8 1043.53 704.4 1043.15 703 1043.59C701.946 1043.93 702.049 1044.51 702.158 1045.12C702.173 1045.21 702.188 1045.29 702.2 1045.38C702.221 1045.58 702.286 1045.82 702.355 1046.07C702.612 1047.02 702.916 1048.14 701.1 1047.99C694.515 1047.51 695.549 1049.33 696.571 1051.12C696.9 1051.7 697.227 1052.27 697.3 1052.77C697.327 1052.93 697.423 1053.1 697.521 1053.27C697.776 1053.73 698.042 1054.21 697.1 1054.49C695.564 1054.98 695.266 1054.31 694.963 1053.63C694.911 1053.51 694.859 1053.39 694.8 1053.28C693.6 1051.18 692.3 1049.01 687.7 1050.92C686.7 1051.3 685.6 1051.18 684.7 1050.73C678.6 1047.54 677.3 1049.65 677 1053.41C676.8 1056.02 675.4 1057.99 671.1 1054.94C670.1 1054.17 667.7 1053.66 667.2 1054.43C666.261 1055.91 664.123 1056.81 661.982 1057.71C658.877 1059.01 655.767 1060.32 656.3 1063.41C656.6 1065.07 654.5 1065.07 652.8 1064.62C649.1 1063.66 645.5 1063.54 641.6 1064.17C639.4 1064.56 637.4 1063.92 636.1 1062.64C634.7 1061.37 635.1 1060.1 636.6 1058.95C638.3 1057.61 640.1 1055.83 638.1 1054.62C635.944 1053.38 634.827 1051.84 633.718 1050.31C632.822 1049.07 631.931 1047.83 630.5 1046.78C630.31 1046.64 630.123 1046.49 629.939 1046.35C628.09 1044.91 626.437 1043.62 622.8 1044.55C620.7 1045.06 619.3 1044.42 618.4 1043.02C617.125 1040.97 614.781 1039.44 612.443 1037.91C610.929 1036.92 609.418 1035.93 608.2 1034.8C606.9 1033.59 605.1 1033.27 603 1034.8C599.111 1037.53 593.898 1037.77 588.763 1038.01C587.429 1038.08 586.099 1038.14 584.8 1038.24C583.148 1038.38 582.579 1037.63 581.982 1036.84C581.748 1036.53 581.51 1036.22 581.2 1035.95C578.686 1033.72 575.878 1031.65 573.017 1029.54C571.782 1028.63 570.536 1027.72 569.3 1026.77C567.928 1028.07 568.453 1029.17 568.942 1030.2C569.344 1031.04 569.722 1031.83 569 1032.64C568.042 1032.98 567.104 1032.68 566.197 1032.39C565.117 1032.04 564.079 1031.71 563.1 1032.51C561.722 1033.61 562.718 1034.46 563.7 1035.3C564.143 1035.68 564.582 1036.06 564.8 1036.46C565.215 1037.25 565.823 1038.02 566.423 1038.77C566.689 1039.11 566.954 1039.44 567.2 1039.77C567.15 1040.06 567.125 1040.33 567.1 1040.6C567.075 1040.87 567.05 1041.14 567 1041.43C565.3 1041.62 564.1 1042.26 563.4 1043.21C563 1043.21 562.6 1043.15 562.2 1043.08C560.086 1042.06 559.873 1040.44 559.658 1038.82C559.405 1036.9 559.151 1034.97 555.8 1033.97C554.601 1034.69 554.581 1035.44 554.563 1036.15C554.556 1036.39 554.55 1036.62 554.5 1036.84C554.475 1036.93 554.453 1037.02 554.431 1037.11C554.278 1037.74 554.123 1038.37 552.9 1038.37C551.7 1038.43 551.2 1037.73 550.9 1037.03C550.1 1035.25 549 1033.4 545.6 1033.72C542.913 1034 543.021 1035.22 543.129 1036.42C543.169 1036.88 543.209 1037.33 543.1 1037.73C542.6 1039.58 541.4 1041.94 538.2 1039.77C536.273 1038.49 533.742 1037.74 531.219 1036.98C527.586 1035.9 523.97 1034.82 522.2 1032.19C521.7 1031.42 520.1 1031.36 518.8 1031.49C517.1 1031.68 515.4 1031.23 515.2 1030.28C514.364 1026.9 510.68 1026.33 506.634 1025.71C506.324 1025.66 506.013 1025.61 505.7 1025.56C489.3 1022.89 473.5 1021.23 458.1 1028.11C453.3 1030.28 449.7 1032 448.3 1035.82C446 1042.45 434.8 1044.3 426.9 1039.77C422.2 1037.03 417.4 1034.36 412.6 1031.74C407.3 1028.81 399.1 1028.88 396.4 1031.81H390.2C385.653 1031.11 381.105 1031.14 376.558 1031.16C375.705 1031.17 374.853 1031.17 374 1031.17C371.3 1031.17 369 1031.55 368.3 1033.53C368.2 1034.99 366.8 1036.01 365.1 1036.84C362.738 1037.97 360.086 1038.73 357.427 1039.49C354.233 1040.41 351.028 1041.33 348.3 1042.89C346.8 1043.72 344.6 1042.77 343.2 1041.94C341.5 1040.92 341.8 1039.77 343.4 1038.82C346.5 1036.97 344.8 1035.76 342.2 1034.67C341.95 1034.57 341.68 1034.48 341.409 1034.39C340.491 1034.08 339.577 1033.77 339.5 1033.08C339.2 1029.32 335.4 1029.77 331.5 1030.28C325.7 1030.09 320.5 1027.03 318.8 1022.95C318.777 1022.62 318.808 1022.26 318.84 1021.88C318.946 1020.65 319.061 1019.31 317.3 1018.87C315.187 1018.32 313.335 1017.49 311.486 1016.66C309.047 1015.56 306.615 1014.47 303.6 1014.03C301.38 1013.22 298.9 1012.78 296.412 1012.33C291.84 1011.51 287.244 1010.69 284.2 1007.6C282 1005.3 278.1 1002.69 271.7 1005.37C267.2 1007.28 261.3 1005.88 256.3 1004.28H252.7C248.8 1001.42 241.3 1000.97 238.9 1004.16C236.84 1006.88 233.461 1007.97 230.058 1009.06C229.166 1009.35 228.272 1009.64 227.4 1009.95C226.662 1010.23 225.876 1010.46 225.105 1010.68C222.532 1011.41 220.123 1012.1 220.2 1014.6C220.2 1014.99 219.1 1015.43 218.4 1015.62C214.2 1016.77 213.1 1019.45 214.5 1021.29C215.7 1022.89 220.1 1023.72 223.5 1023.46C232.7 1022.7 236.1 1024.16 238 1030.15C239.1 1033.72 237.7 1034.67 231.9 1034.16C231.686 1034.15 231.459 1034.12 231.23 1034.09C230.386 1033.99 229.514 1033.88 229.2 1034.48C228.9 1034.99 229.4 1035.76 229.8 1036.33C231.9 1039.13 235.9 1040.15 240.3 1039.9C245.6 1039.64 248.6 1041.05 250.7 1043.91C250.837 1044.1 250.997 1044.28 251.155 1044.46C251.806 1045.2 252.426 1045.91 251.3 1046.78C250.158 1047.62 248.939 1047.48 247.439 1047.3C247.232 1047.27 247.019 1047.25 246.8 1047.23C240.8 1046.53 235.2 1045.12 229.9 1043.15C229.7 1042.89 229.475 1042.62 229.249 1042.35C229.025 1042.08 228.8 1041.81 228.6 1041.56C228.2 1040.15 226.9 1038.62 224.8 1038.69C221.022 1038.8 217.906 1037.78 214.814 1036.77C212.669 1036.07 210.535 1035.37 208.2 1035.06C206.8 1034.87 205.9 1034.36 205.6 1033.46C203.818 1033.34 202.603 1032.68 201.388 1032.02C200.694 1031.64 200 1031.26 199.2 1030.98C199.185 1030.66 199.19 1030.33 199.196 1030C199.228 1028.16 199.26 1026.25 195.7 1025.44C193.83 1025.02 192.075 1024.45 190.322 1023.88C187.763 1023.04 185.208 1022.21 182.3 1021.87C178.4 1021.42 173 1014.92 173.9 1012.44C174.3 1011.36 175.4 1011.04 176.9 1010.65C178.9 1010.21 180.8 1009.57 182.6 1008.87C185.6 1007.66 186.1 1005.94 183.1 1004.67C180.371 1003.49 180.207 1002 180.015 1000.28L180 1000.14C179.4 995.172 177 993.643 169.8 992.751C165.3 992.241 162 990.712 160.9 987.717C160.3 986.124 159.4 984.149 156.5 984.213C152.777 984.252 149.439 983.531 146.104 982.811C144.064 982.371 142.025 981.93 139.9 981.664C133.5 980.836 127 981.601 120.9 983.831C120 984.149 119.3 983.894 118.7 983.512C117.8 982.875 116.7 982.238 115.4 982.556C112.097 983.388 110.092 982.453 107.89 981.427C107.225 981.117 106.542 980.798 105.8 980.517C104.1 979.868 103.084 980.781 101.905 981.841C100.656 982.963 99.2232 984.251 96.6 984.022C93.2 983.767 91.6 985.232 90.7 987.462C89.7999 989.82 87.8999 991.54 82.8999 990.138C78.3999 988.864 74.9999 990.584 73.7999 993.451C72.4999 996.637 75.5999 999.759 79.8999 1000.14C80.3462 1000.18 80.8373 1000.19 81.3344 1000.21C83.0647 1000.24 84.8669 1000.28 85.1 1001.67C85.4 1003.71 82.4 1004.28 80 1004.73C78.3 1005.05 76.0999 1005.11 74.3999 1004.79C69.9999 1004.03 66.5 1004.54 62.6 1006.26C56.2 1009.13 41.1 1005.3 39.1 1000.59C35.1 991.413 34.7999 991.221 21 991.285C20.7999 991.285 20.6 991.269 20.4 991.253C20.2 991.237 20 991.221 19.8 991.221C18.7239 991.116 17.6479 991.003 16.5714 990.891C11.1451 990.324 5.70736 989.756 0.199951 990.075V3796.3H1920.2V1006.58Z" fill="#FAE4D1"/>
<path d="M944.1 124.1C946.3 124.6 948.5 124.3 950.5 123.3C955.6 124.3 960.7 124.4 965.7 123.3C968.3 124.4 971 124.5 973.7 124.1C974.8 125.6 976.5 125.5 978.1 125.8C995 129.2 1011.3 134.1 1025.6 144.3C1028.4 146.3 1030.4 149.7 1034.5 149.6L1034.4 149.5C1043.3 158.5 1052.1 167.6 1061 176.6L1061.3 177C1061.6 180.2 1063.1 182.7 1065.9 184.2L1065.8 184C1065.8 187.5 1067.8 190.2 1069.3 193.1C1091 234 1084.8 291.9 1055.1 327.4C1038.9 346.8 1018.6 360.4 995.1 369.2C978.9 372.1 962.6 374.3 946.1 374.2C943.6 374 941 373.7 938.5 373.5C936.8 371 933.9 370.6 931.3 370.3C921.9 369.2 913.6 365.2 905.2 361.3C901.2 359.4 897.7 356.2 893.1 355.7C892 355 890.9 354.3 889.8 353.6C889.8 350.4 887.5 350.1 885.1 349.9C880.5 342.2 873.9 336.6 866.6 331.7C864.3 329 861.9 326.4 859.6 323.7C860.7 321 859.3 320.1 856.9 320C856.6 319.4 856.4 318.8 856.1 318.3C856.5 314.7 855.8 311.6 851.8 310.3C851.2 309.2 850.7 308.1 850.1 307.1C851.1 297.6 846.6 290.2 841.2 283C840.7 281.8 840.3 280.5 839.8 279.3C841.5 277.3 841.5 275.6 838.8 274.5C838.8 268.8 839.2 263.1 836.4 257.8C838.7 254.8 838.8 251.6 836.8 248.4C838.4 246 838.3 243.6 836.8 241.3C838.2 239.8 838.2 238.3 837 236.7C838.9 233 838.9 229 838.7 224.9C841.7 224.1 842 222.4 840.2 220.1C840.7 218.8 841.3 217.5 841.8 216.2C844.9 217.1 848.3 217.5 849.1 221.6C849.4 223.2 850.6 224.5 852.6 224.6C857.6 224.8 866.9 215.9 865.9 210.8C863 195.8 870.1 183.5 876.9 171.4C882.2 162 889.1 153.5 895.3 144.6C897.3 142.6 899.4 140.7 901.4 138.7C904.2 139.2 906.6 138.9 907.3 135.5C919.2 130.8 931.7 127.5 944.1 124.1Z" fill="#F8BF0D"/>
<path d="M1387.7 257.9C1388.3 258.7 1388.9 259.5 1389.5 260.3C1389 262 1389.8 262.5 1391.3 262.4C1391.6 263 1392 263.5 1392.3 264.1C1393.4 268.8 1395.7 272.6 1399.3 275.8C1399.8 276.8 1400.3 277.8 1400.9 278.8C1401.1 281.6 1401.2 284.4 1404.3 285.9C1404.6 286.8 1404.9 287.6 1405.2 288.5C1404.7 291.1 1406 293.3 1406.6 295.6C1410.3 308.9 1412.3 322.3 1412 336.2C1411.8 345.3 1408.6 350.8 1399 351.4C1399.5 347 1398.3 343.1 1394 341.5C1389.7 339.9 1387.7 342.9 1386.5 346.7C1386.2 347.7 1384.5 348.4 1383.4 349C1378.2 351.8 1377.4 355.9 1379.5 361C1377.4 364.7 1375.3 368.3 1373.2 372C1368.2 364 1365.2 363 1361.4 368C1360.8 368.6 1360.2 369.2 1359.6 369.7C1356.9 369.2 1355.9 370.3 1356.7 372.9C1356 374.6 1355.4 376.3 1354.7 377.9C1354.1 378.1 1353.2 378.1 1353 378.5C1352.5 379.3 1352.5 380.3 1353.8 380.7C1348.3 389.2 1339.9 393.3 1330.7 396.2C1321.9 398.9 1312.4 399.7 1304.8 405.3C1298.1 410.2 1289.2 410.4 1283 416C1278.6 415.4 1274.4 416 1270.6 418.5C1269.5 418.2 1268.3 417.9 1267.2 417.6C1267.9 416.6 1267.1 416.2 1266.4 416.2C1265.6 416.2 1264.9 416.5 1265.6 417.6C1262.8 417.5 1260 417.5 1257.2 417.4C1253.9 413.1 1248.9 414.6 1245.4 415.6C1232.1 419.3 1217.8 418.1 1204.8 423.5C1204 422.7 1203.2 421.9 1202.5 421.1C1202.5 420.6 1202.7 420 1202.5 419.8C1201.9 419.2 1201.2 419 1200.6 419.9C1200 419.2 1199.3 418.4 1198.7 417.7C1199.3 415.2 1198.4 414.3 1195.9 414.9C1195.2 414.2 1194.4 413.5 1193.7 412.7C1190.5 406.9 1188 400.6 1182.5 396.4C1181.6 394.5 1180.7 392.7 1179.8 390.8C1175.9 377.9 1172.1 364.9 1168.2 352C1167.9 349.5 1167.7 347.1 1167.4 344.6C1169.4 334.1 1167.7 323.2 1170.1 312.7C1171.1 308.4 1171.7 304 1176.7 302.1C1182.2 300 1180.2 307.8 1183.4 307.6C1191.9 302.1 1193.9 293.2 1194.6 285.1C1195.8 272 1201.2 261.8 1210.1 252.8C1213 249.9 1216.1 246.6 1217.4 242.9C1221.5 231.6 1230.6 225.9 1240.3 220.6C1257.6 211.2 1276.3 210.5 1295.5 210.4C1314.4 210.3 1331.2 215.9 1347.4 224.4C1363 233 1375.8 245 1387.7 257.9Z" fill="#F8BF0D"/>
<path d="M680.9 220.1C681.2 220.5 681.7 220.6 682.2 220.4C683.3 222.7 685.2 223.9 687.6 224.3C688.1 226.8 690.3 227.3 692.2 228.2C703.5 238.6 712.5 250.8 721.2 263.3C720.7 264.1 720.9 264.6 721.9 264.6C721.4 267.1 722.7 268.9 724.4 270.5C726.6 276.4 728.9 282.3 731.1 288.3C730.8 292.3 732.2 296 733.2 299.7C733.1 303.9 733.7 307.9 735.8 311.7C735.1 312.5 735.1 313.3 736 314.1C735.5 324 735 333.9 734.6 343.8C732.4 345.7 732.8 348.2 733.1 350.6C733 351.7 732.8 352.8 732.7 353.8C731.6 355.3 730.7 357 731.6 358.9C728.4 362.6 727.9 367.3 727.3 371.9C725.6 372.6 724.6 373.8 725.2 375.8C721.6 380.6 718.8 385.9 716.5 391.5C714.5 393.1 713.1 395.1 712.6 397.7C708.7 400.7 705.4 404.2 703.3 408.7L702.6 408.6L702.4 409.2C700.5 409.7 699 410.6 698.7 412.8V413C697.3 412.8 696.4 413.3 695.8 414.6C685.2 413.7 674.7 412.4 664.2 410.4C649 407.4 634.2 402.5 618.3 402.3C607.4 402.2 596.6 399.7 587.4 392.9C587.6 390.5 587.2 387.8 588.2 385.7C590.9 379.6 588.1 376.8 582.8 374.6C574.7 371.2 565.8 370 558.1 365.4C556.3 364.3 553.3 364.2 551.3 366.3C551.4 364.6 550.8 363.3 549.6 362.1C551.3 360.6 550.5 359.1 549.2 358C547.7 356.9 545.9 355.7 544.5 358.2C541.7 356.9 538.9 357.5 536 358.1C536.1 356.3 534.9 355.8 533.5 356.1C532.4 356.3 531.9 357.2 532.6 358.4C530.7 357.8 528.9 357.9 527.2 358.8C530.3 355.8 529.8 353.1 527.4 349.6C523.7 343.9 518.2 339.4 516.7 332.3C519.7 331.9 522.5 331.8 525.1 334.2C527 335.9 529.9 337 531.4 334C532.9 331.3 531.6 327.4 528.7 327.5C519 327.9 519.1 320.3 518.1 314.6C517.1 308.9 514.1 302.3 517.2 297.1C519.9 292.7 520.4 288.7 520.7 284.1C521.5 272.9 522.6 261.1 529.9 252.4C535.5 245.7 538 238.1 541.5 230.7C542.6 228.5 542.8 225.9 540.4 224C544.9 220.4 549.5 216.9 554 213.3C555.8 214.3 556.4 213.6 556.3 211.8C557.2 211.3 558.1 210.8 559 210.4C567.3 211.1 573.4 204.7 581 203.6C594.5 201.6 607.7 197.6 621.5 198.5C626.1 199.2 630.7 199.9 635.3 200.5C635.9 201.9 636.8 202.1 637.9 201C639 201.3 640.1 201.5 641.1 201.8C647.5 204.7 653.7 208.2 661 208.5C662 208.9 663 209.4 664 209.8C664.7 211.7 666.2 212 667.9 211.7C669.4 212.6 671 213.5 672.5 214.4C672.8 216.4 674 217.1 676 216.7C676.5 217 677 217.4 677.5 217.7C678 219.4 679 220.3 680.9 220.1Z" fill="#F8BF0D"/>
<path d="M1701 467.6C1699.1 469.2 1698.5 471.2 1699.2 473.6L1699.4 473.8C1691.9 490.5 1684.1 507 1671 520.2C1645.7 545.8 1615.9 561.3 1578.9 560.1L1578.7 560C1578.5 559.1 1578.3 558.2 1578.1 557.3C1579 555.8 1579.1 554.3 1578.5 552.7C1581.4 547 1580.8 541.2 1578.7 535.4C1579.7 521.9 1579.7 508.3 1578.8 494.8C1581.3 490.9 1581.2 486.4 1581.4 482.1C1582 461 1582.4 440 1582.8 418.9C1583.2 395.9 1584.2 372.8 1583.4 349.8C1583 338.4 1585.1 326 1577.6 315.6C1578.9 314.8 1578.6 314 1577.6 313.2C1582.6 307.2 1589.7 311.5 1595.5 309.5C1600.3 310.8 1604.8 312.9 1609.9 312.7C1612.4 314.8 1615.5 314.8 1618.6 314.8C1620.8 317.2 1623.7 318 1626.9 318.1C1630.4 320.7 1634.1 322.7 1638.5 323C1639.1 324.5 1639.9 325.7 1641.8 325.3C1643 327.5 1644.9 328.5 1647.3 328.7C1647.5 328.3 1647.8 327.9 1648 327.5C1647.8 327.9 1647.5 328.3 1647.3 328.7C1648.3 331.5 1650.6 332.6 1653.3 333.1C1658.1 337.9 1663.2 342.3 1668.9 345.9C1669.7 348.3 1670.9 350.4 1673.7 350.8C1674.4 353.3 1675.6 355.4 1678.2 356.4C1679.6 359.4 1680.5 362.8 1684.1 364.1C1684.3 366.2 1685.1 367.9 1687.1 369C1688.1 372.6 1689 376.2 1692.6 378.3C1692.8 382.9 1694.8 386.7 1697.5 390.2C1697.1 393.5 1698.1 396.3 1700.1 398.8C1699.6 400.7 1699.6 402.5 1701.5 403.8C1701.7 409.6 1701.5 415.5 1705 420.7C1703.6 428 1704.1 435.3 1704.6 442.7C1702.9 444.2 1703.2 446.1 1703.7 448C1703.5 450.1 1703.4 452.2 1703.2 454.4C1702 456 1701.7 457.8 1702.5 459.7C1701.1 462.2 1700.6 464.8 1701 467.6Z" fill="#F8BF0D"/>
<path d="M492.8 292C499.1 269 513.6 251.2 529 234C532 234.4 532.2 232.6 531.8 230.4C533.6 228.1 536.5 226.7 536.9 223.5C537.3 223.2 537.6 222.7 537.9 222.3C538.7 222.9 539.6 223.4 540.4 224C542.8 225.9 542.5 228.6 541.5 230.7C537.9 238.1 535.5 245.7 529.9 252.4C522.6 261.1 521.5 272.9 520.7 284.1C520.4 288.8 519.9 292.8 517.2 297.1C514 302.3 517 308.9 518.1 314.6C519.1 320.3 519.1 327.8 528.7 327.5C531.7 327.4 532.9 331.2 531.4 334C529.8 336.9 527 335.9 525.1 334.2C522.5 331.9 519.7 331.9 516.7 332.3C507.6 333.2 510.2 340.8 508.9 346.2C496.9 343.1 488.9 333.8 490.1 324.6C495.5 323.7 499.4 324.8 499.4 331.4C499.4 333.8 499.3 336.9 502.9 336.7C506.4 336.5 506.1 333.3 505.9 331C505.4 321.6 503.7 312.4 504 302.8C504 297.6 501.2 290.6 492.8 292Z" fill="#5D568B"/>
<path d="M1387.7 257.9C1375.8 245 1363 233 1347.3 224.8C1331.2 216.3 1314.3 210.7 1295.4 210.8C1276.2 210.9 1257.5 211.6 1240.2 221C1230.5 226.3 1221.4 232 1217.3 243.3C1216 247 1212.8 250.2 1210 253.2C1201.1 262.3 1195.7 272.4 1194.5 285.5C1193.8 293.5 1191.8 302.4 1183.3 308C1180.1 308.1 1182.1 300.4 1176.6 302.5C1171.6 304.4 1171 308.8 1170 313.1C1167.6 323.6 1169.3 334.5 1167.3 345C1163.6 330.8 1166 316.7 1169.9 303.1C1177.1 278.2 1192 258 1209.8 239.7C1213.8 235.6 1219.3 233.2 1221.8 227.7C1222.1 227.7 1222.4 227.6 1222.5 227.2C1225.2 227.3 1227.1 226.1 1228.4 223.9C1274.8 199 1319.5 202.1 1362.6 232C1370.3 237.3 1377.7 242.9 1383.6 250.3C1385.6 252.5 1388.1 254.4 1387.7 257.9Z" fill="#5D568B"/>
<path d="M621.5 198.4C607.7 197.5 594.4 201.5 581 203.5C573.4 204.6 567.3 211 559 210.3C559.1 209.7 559.3 209.1 559.4 208.5C562.8 208.3 565.8 207.4 567.8 204.3C568.8 204 569.7 203.8 570.7 203.5C572.6 203.8 574.2 203.4 575.5 201.9C587.9 198.6 600.4 196 613.4 196.2C616.1 196.3 619.4 195.4 621.5 198.4Z" fill="#5D568B"/>
<path d="M945.9 375.9C945.8 375.4 945.9 374.8 946.1 374.3C962.6 374.4 978.9 372.2 995.1 369.3C993.5 370.3 991.8 371.2 990.2 372.2C989.1 372.4 988 372.5 986.9 372.7C982.4 372.8 978.1 373.7 974.1 375.7C964.7 375.8 955.3 377.3 945.9 375.9Z" fill="#5D568B"/>
<path d="M1173.9 381.9C1171.8 372 1166.3 362.8 1168.2 352.2C1172.1 365.2 1175.9 378.1 1179.8 391C1176.8 390 1177.7 385.8 1174.7 384.8C1174.4 383.9 1174.1 382.9 1173.9 381.9Z" fill="#5D568B"/>
<path d="M866.7 331.9C874 336.9 880.6 342.4 885.2 350.1L885.1 350.2C883.9 349.9 882.6 349.6 881.4 349.3C881 348.9 880.5 348.6 880 348.4C878.2 344.8 876 341.7 871.7 340.7L871.3 340.3C870.9 337.7 869.5 336.1 866.9 335.7L866.5 335.2C866.6 334.1 866.7 333 866.7 331.9Z" fill="#5D568B"/>
<path d="M1193.7 413C1187.9 411.2 1187.6 404.5 1183.2 401.4C1182.9 400.9 1182.5 400.4 1182.2 400C1182.3 398.9 1182.4 397.8 1182.5 396.8C1188 400.8 1190.5 407.1 1193.7 413Z" fill="#5D568B"/>
<path d="M661 208.5C653.7 208.2 647.5 204.7 641.1 201.8C648.6 201.4 655.3 203.4 661 208.5Z" fill="#5D568B"/>
<path d="M1399.4 275.8C1395.9 272.6 1393.5 268.7 1392.4 264.1C1396.6 266.9 1398.8 270.9 1399.4 275.8Z" fill="#5D568B"/>
<path d="M903.1 136C904.5 135.9 905.9 135.8 907.3 135.7C906.6 139.1 904.2 139.5 901.4 138.9C901.5 138.2 901.7 137.4 901.8 136.7C902.2 136.6 902.7 136.3 903.1 136Z" fill="#5D568B"/>
<path d="M1404.3 285.9C1401.2 284.5 1401.2 281.6 1400.9 278.8C1403.6 280.5 1404.6 282.9 1404.3 285.9Z" fill="#5D568B"/>
<path d="M889.9 353.8C889.3 353.9 888.7 354 888.1 354.1C887.7 353.8 887.3 353.5 886.8 353.4C886.3 352.4 885.8 351.3 885.2 350.3L885.3 350.2C887.6 350.3 889.9 350.6 889.9 353.8Z" fill="#5D568B"/>
<path d="M680.9 220.1C679 220.3 678 219.3 677.6 217.6C679.3 217.6 680.6 218.1 680.9 220.1Z" fill="#5D568B"/>
<path d="M676 216.7C674.1 217.2 672.9 216.4 672.5 214.4C674.4 214.1 675.7 214.7 676 216.7Z" fill="#5D568B"/>
<path d="M553.9 213.2C554 212.6 554 211.9 554.1 211.3C554.8 211.4 555.5 211.5 556.2 211.7C556.4 213.5 555.7 214.3 553.9 213.2Z" fill="#5D568B"/>
<path d="M667.9 211.7C666.1 212 664.6 211.7 664 209.8C665.8 209.4 667.2 209.8 667.9 211.7Z" fill="#5D568B"/>
<path d="M637.9 201C636.8 202.1 635.9 201.9 635.3 200.5C636.4 199.3 637.2 199.7 637.9 201Z" fill="#5D568B"/>
<path d="M1391.4 262.4C1389.8 262.5 1389 262 1389.6 260.3C1391 260.3 1391.6 261 1391.4 262.4Z" fill="#5D568B"/>
<path d="M244 522.7C242.9 517.3 238 514.5 235.2 510.4C230.8 503.9 226.7 497.2 222.4 490.6C222.7 490.4 223.3 490.1 223.3 489.9C223.2 489.1 222.8 488.6 221.9 489.2C215.7 473.8 214.1 457.2 209.3 441.4C211.4 439.9 211.4 438.5 209.2 437C211.9 428.4 211.2 419.4 212 410.6C212.4 410.5 212.8 410.3 213.2 410.1C212.9 409.8 212.6 409.5 212.3 409.2C214 406.9 214.7 404.3 215 401.5C217.9 402.1 221.6 405.3 222.9 399.5C224.6 401.5 224.5 406.3 228.9 404.2C232.4 402.6 231.7 399.4 230.5 396.4C231.7 397.5 233.3 399.3 234.6 397.6C235.7 396.1 233.7 394.8 232.3 394C236.6 391.6 235.7 389.2 232.2 386.9C237.5 386.6 239.7 383.7 239.1 378.7C238.9 376.5 238.2 374.2 239.7 372.3C246.3 363.8 249.2 353.2 256.6 345C259.6 341.7 264.3 338.3 263.1 332.5C280.4 321.4 298.1 311 319.4 309.7C323 309.5 327.5 307.3 330 311.5C332.1 315.2 328.4 317.3 326.4 319.8C325.6 320.8 324.6 322.4 324.8 323.5C327.9 340.6 321.3 357.3 322.7 374.7C323.8 388.7 327 403.7 321.4 417.9C320.1 421.3 321.4 424.7 323.1 427.4C327.2 433.9 328 440.9 327.2 448C324.3 472.8 332.8 496.9 330.6 521.7C329.7 532 327 542.3 330.1 552.8C331.5 557.4 327.1 557.9 323.7 557.9C310 557.8 297 554.3 284.6 548.9C275.7 545 267.4 540 258.8 535.5C257.9 533.2 256.1 531.9 253.7 531.2C253.7 528.2 251.8 527.2 249.1 527.1C249 526.7 248.8 526.5 248.4 526.5C248.5 524.6 247.7 523.6 245.8 523.7C245.1 523.5 244.6 523.1 244 522.7Z" fill="#F8BF0D"/>
<path d="M1853.2 692.7C1851.1 691.5 1848.9 691.2 1846.6 691.4C1844.6 688.1 1842 686.4 1837.9 686.9C1828.7 688.1 1821.7 682.3 1814.4 678.4C1810.6 676.3 1810 672.7 1815.6 671C1821.6 669.2 1827.9 668.6 1833.5 665.3C1845.8 658.1 1858.9 652.7 1871.1 644.9C1890.6 632.4 1906.8 617.8 1918.7 598.1C1920.7 594.7 1923 591.3 1926.4 589.7C1931.6 587.2 1934 582.7 1936.5 578.1C1939.1 573.3 1941.5 568.4 1944.9 564C1952.5 554.3 1954.7 543.5 1951 531.5C1948.7 524.1 1948.7 516.3 1949.3 508.6C1950.1 498 1952.1 487.4 1949.2 475.2C1959.3 481.2 1965 489.6 1972 496.4C1973 498.6 1973.9 500.9 1975.2 503C1993.3 533.8 1996.4 566.5 1988.1 600.9C1984.9 614.2 1978.2 625.7 1972.3 637.8C1972 638.3 1971.7 638.7 1971.3 639.2C1968.3 641.1 1965.8 643.5 1964.8 647.1C1963.8 648.4 1962.7 649.8 1961.7 651.1C1954.8 654.6 1950.6 661.3 1944.5 665.9C1933 674.8 1919.5 680 1907.1 687.1C1906.2 687.4 1905.3 687.6 1904.4 687.9C1902 687.5 1899.8 687.6 1898 689.6C1896.4 689.9 1894.8 690.3 1893.2 690.6C1891.9 689.9 1890.7 689.9 1889.8 691.3C1888.4 691.1 1887.2 691.2 1886.3 692.4C1884.5 691.8 1882.9 692.1 1881.3 693C1873.1 693 1864.9 693 1856.8 693.1C1855.6 692.3 1854.4 692.2 1853.2 692.7Z" fill="#F8BF0D"/>
<path d="M45.3 631.2C58.6 643.1 73.4 652 90.9 656.2C94.1 657 97.2 658.3 100.4 658.9C107.7 660.3 109.8 663.1 103.8 668.9C103.3 669.1 102.8 669.4 102.3 669.6C100 669.2 98.1 669.5 96.8 671.7C91 673.6 85.3 675.6 79.5 677.5C72.2 676.5 65.5 680 58.3 680.2C9.99999 681.5 -26.7 660.9 -51.9 620.4C-69 592.9 -73.1 562.6 -67.5 530.7C-64.9 515.6 -53.4 529.9 -47.8 524C-46.3 522.5 -40.7 524.5 -40.3 528.4C-39.5 537.1 -33.1 543.9 -32.8 552.7C-32.8 554.1 -31.9 555.4 -30.1 554.3C-29 557.7 -26.8 560.4 -24.3 562.9C-25.6 563.3 -26 564.3 -25.4 565.4C-24.7 566.6 -23.7 567.6 -22.1 566.5C-22.8 570.9 -19.5 573.5 -17.5 576.6C-4.80001 596.6 10.7 613.6 32.6 623.8C37.2 625.8 40.3 630.1 45.3 631.2Z" fill="#F8BF0D"/>
<path d="M-30 554.2C-31.8 555.3 -32.7 554 -32.7 552.6C-33 543.8 -39.4 537 -40.2 528.3C-40.6 524.4 -46.2 522.4 -47.7 523.9C-53.3 529.7 -64.8 515.5 -67.4 530.6C-73 562.5 -68.9 592.8 -51.8 620.3C-26.6 660.9 10.1 681.4 58.4 680.1C65.6 679.9 72.3 676.5 79.6 677.4C63.4 685.2 46.3 683.9 29.5 680.7C18.3 678.6 6.7 676 -3.2 669.9C-7.9 667 -15.4 671.8 -17 665.7C-18.7 659.4 -24.2 658.5 -27.6 655C-31.4 651.1 -34.8 646.9 -38.4 642.8C-39.6 640.4 -41.4 638.7 -44 637.8C-44.2 637.3 -44.5 636.8 -44.9 636.4C-47.4 632.6 -49.6 628.5 -53.6 625.9C-53.9 625 -54.3 624 -54.6 623.1C-56.5 618.3 -58.1 613.3 -62 609.6C-63.7 604.1 -67.4 599.4 -68 593.5C-67.9 589.1 -68.3 584.8 -71.5 581.4C-71.6 579.4 -71.6 577.4 -71.7 575.3C-70.2 570 -72.2 565.3 -74 560.6C-74 558.9 -73.9 557.3 -73.9 555.6C-70.8 548.9 -72.9 541.7 -71.9 534.8C-71.3 531.5 -70.7 528.2 -70.1 524.9C-66.7 522.3 -67.5 518.7 -67.6 515.2C-61.5 510.6 -58.1 504.5 -57.8 496.8C-57.5 496 -57.2 495.3 -56.9 494.5C-52.8 490.5 -48.8 486.4 -44.7 482.5C-43.3 481.2 -41.9 479.5 -39.7 480.7C-38 481.7 -38.3 483.5 -38.6 485.1C-40.6 494.6 -40.1 504.4 -39.2 513.8C-38.3 522.9 -34.9 531.7 -32.5 540.6C-31.2 545.1 -29 549.4 -30 554.2Z" fill="#5D568B"/>
<path d="M841.9 216.4C839.5 213.5 842.4 211.8 843.5 209.8C854.3 203.2 855.2 191.2 859.1 180.8C859.3 180.4 859.6 180.1 860 179.9C862.5 179.9 862.9 178.3 862.9 176.3C869.9 165.2 878.5 155.5 888.7 147.3C890.5 145.8 892.4 144 895.2 144.9C889 153.8 882.1 162.3 876.8 171.7C870 183.8 863 196 865.8 211.1C866.8 216.2 857.5 225.1 852.5 224.9C850.5 224.8 849.3 223.5 849 221.9C848.4 217.6 845 217.3 841.9 216.4Z" fill="#5D568B"/>
<path d="M938.5 373.6C922.1 371 906.4 366.3 893.1 355.9C897.8 356.3 901.2 359.6 905.2 361.5C913.6 365.4 921.9 369.4 931.3 370.5C933.9 370.8 936.8 371.1 938.5 373.6Z" fill="#5D568B"/>
<path d="M850.2 307.2C846.4 299.5 841 292.4 841.3 283.1C846.7 290.2 851.2 297.7 850.2 307.2Z" fill="#5D568B"/>
<path d="M856.2 318.4C855.3 318.1 854.4 317.8 853.5 317.4C853 315 852.4 312.7 851.9 310.4C855.9 311.7 856.6 314.8 856.2 318.4Z" fill="#5D568B"/>
<path d="M859.7 323.9C857.6 323.5 856.7 322.2 857 320.1C859.4 320.3 860.8 321.2 859.7 323.9Z" fill="#5D568B"/>
<path d="M1207 427.4C1206.3 426.2 1205.5 425 1204.8 423.8C1217.8 418.4 1232 419.6 1245.4 415.9C1248.9 414.9 1253.9 413.5 1257.2 417.7C1243.7 420.2 1230 420.9 1216.7 424.7C1214.9 425.2 1212.9 425.4 1211.9 427.5C1210.3 427.4 1208.7 427.4 1207 427.4Z" fill="#5D568B"/>
<path d="M1399.1 351.5C1386.9 349.8 1385.5 350.5 1379.7 361.2C1377.6 356.1 1378.4 352 1383.6 349.2C1384.8 348.6 1386.4 347.9 1386.7 346.9C1387.9 343.1 1389.8 340.1 1394.2 341.7C1398.3 343.2 1399.6 347.1 1399.1 351.5Z" fill="#5D568B"/>
<path d="M1373.4 372.1C1367.8 375.7 1366.1 367.8 1361.6 368.1C1365.3 363.1 1368.4 364.1 1373.4 372.1Z" fill="#5D568B"/>
<path d="M1359.8 369.8C1360.1 372 1359.1 373.1 1356.8 373C1356.1 370.4 1357.1 369.3 1359.8 369.8Z" fill="#5D568B"/>
<path d="M1198.7 418C1197 417.8 1196 416.9 1195.9 415.1C1198.4 414.6 1199.3 415.5 1198.7 418Z" fill="#5D568B"/>
<path d="M1354.8 378.1C1355.3 379.2 1355 380.2 1354 380.8C1352.7 380.5 1352.7 379.5 1353.2 378.6C1353.4 378.2 1354.3 378.2 1354.8 378.1Z" fill="#5D568B"/>
<path d="M1202.5 421.4C1202 421.5 1201.4 421.6 1200.9 421.7C1200.8 421.2 1200.7 420.7 1200.6 420.1C1201.2 419.3 1201.9 419.4 1202.5 420C1202.7 420.3 1202.5 420.9 1202.5 421.4Z" fill="#5D568B"/>
<path d="M1267.3 417.8C1266.7 417.8 1266.2 417.8 1265.6 417.8C1264.9 416.8 1265.7 416.4 1266.5 416.4C1267.2 416.4 1267.9 416.8 1267.3 417.8Z" fill="#5D568B"/>
<path d="M263 332.7C264.2 338.5 259.5 341.9 256.5 345.2C249.2 353.4 246.2 364 239.6 372.5C238.1 374.4 238.8 376.7 239 378.9C239.5 383.9 237.4 386.8 232.1 387.1C223.7 381.6 222.6 379.6 228.7 372.4C240.1 359.1 248.6 343.3 263 332.7Z" fill="#5D568B"/>
<path d="M223 399.6C221.7 405.4 218.1 402.2 215.1 401.6C215.1 396.6 218.6 393.6 221 389.6C225.5 392.8 220.3 396.8 223 399.6Z" fill="#5D568B"/>
<path d="M232.3 394.1C233.7 395 235.8 396.2 234.6 397.7C233.4 399.4 231.8 397.6 230.5 396.5C230.2 395.1 230.7 394.2 232.3 394.1Z" fill="#5D568B"/>
<path d="M209.4 436.9C211.5 438.3 211.5 439.8 209.5 441.3C209.1 441.3 208.7 441.3 208.3 441.2C208.3 439.8 208.3 438.4 208.3 437C208.5 437 208.9 436.9 209.4 436.9Z" fill="#5D568B"/>
<path d="M212.4 409.2C212.7 409.5 213 409.8 213.3 410.1C212.9 410.3 212.5 410.4 212.1 410.6C212 410.1 212 409.6 212.4 409.2Z" fill="#5D568B"/>
<path d="M492.8 292C501.2 290.7 504 297.6 503.9 302.7C503.6 312.3 505.3 321.5 505.8 330.9C505.9 333.2 506.3 336.4 502.8 336.6C499.2 336.8 499.3 333.8 499.3 331.3C499.3 324.7 495.4 323.7 490 324.5C488.9 313.5 493.4 303 492.8 292Z" fill="#F8BF0D"/>
<path d="M222 489.1C222.9 488.6 223.3 489 223.4 489.8C223.4 490 222.8 490.3 222.5 490.5C222 490.1 221.9 489.6 222 489.1Z" fill="#5D568B"/>
</g>
<defs>
<clipPath id="clip0_104:145">
<rect width="1920" height="3796" fill="white"/>
</clipPath>
</defs>
</svg>
